<?xml version="1.0"?>
<svg xmlns="http://www.w3.org/2000/svg" id="line" width="512" height="512" viewBox="0 0 64 64"><path d="M58,30H50.414l-7.707-7.707A1,1,0,0,0,41,23v7H18a5.006,5.006,0,0,0-5,5V58a5.006,5.006,0,0,0,5,5H58a5.006,5.006,0,0,0,5-5V35A5.006,5.006,0,0,0,58,30ZM54,55H22a1,1,0,0,1,0-2H54a1,1,0,0,1,0,2Zm0-8H22a1,1,0,0,1,0-2H54a1,1,0,0,1,0,2Zm0-8H44a1,1,0,0,1,0-2H54a1,1,0,0,1,0,2Z" style="fill:#c4a2fc"/><path d="M30.629,31.2V29.988A13.025,13.025,0,0,0,38.59,19h3.039a1,1,0,0,0,1-1,17,17,0,1,0-34,0v3a4,4,0,0,0,4,4h2.065a13.009,13.009,0,0,0,5.935,4.988V31.2A23.077,23.077,0,0,0,1.017,49.819,1,1,0,0,0,2,51H49.258a1,1,0,0,0,.983-1.181A23.077,23.077,0,0,0,30.629,31.2Zm2.762,2.625-4.262,4.262L27.043,36l2.862-2.861A20.793,20.793,0,0,1,33.391,33.824ZM12.629,23a2,2,0,0,1-2-2V18A15,15,0,0,1,40.6,17H38.578a12.992,12.992,0,1,0-24.934,6ZM34.108,11H24.84a14.441,14.441,0,0,0-9.719,3.747A10.995,10.995,0,0,1,34.108,11ZM17.158,25h5.655a3,3,0,1,0,0-2h-6.97a10.934,10.934,0,0,1-1.2-4.683A12.438,12.438,0,0,1,24.84,13H35.415A10.964,10.964,0,0,1,29.3,28.36a1,1,0,0,0-.666.943v2.283l-3,3-3-3V29.3a1,1,0,0,0-.666-.943A11,11,0,0,1,17.158,25Zm7.471-1a1,1,0,1,1,1,1A1,1,0,0,1,24.629,24Zm-3.275,9.139L24.215,36l-2.086,2.086-4.262-4.262A20.785,20.785,0,0,1,21.354,33.139ZM19.761,49H3.236A21.052,21.052,0,0,1,15.762,34.547l5.306,5.306Zm2.021,0,1.29-9.029,2.557-2.557,2.557,2.557L29.476,49ZM31.5,49,30.19,39.853,35.5,34.547A21.052,21.052,0,0,1,48.022,49Z" style="fill:#151a6a"/></svg>
