<!-- Generator: Adobe Illustrator 21.0.0, SVG Export Plug-In  -->
<svg version="1.1"
	 xmlns="http://www.w3.org/2000/svg" xmlns:xlink="http://www.w3.org/1999/xlink" xmlns:a="http://ns.adobe.com/AdobeSVGViewerExtensions/3.0/"
	 x="0px" y="0px" width="37.235px" height="37.235px" viewBox="0 0 37.235 37.235"
	 style="enable-background:new 0 0 37.235 37.235;" xml:space="preserve">
<style type="text/css">
	.st0{fill:#8BC53F;}
</style>
<defs>
</defs>
<path class="st0" d="M18.618,0C8.335,0,0,8.335,0,18.618s8.335,18.618,18.618,18.618S37.235,28.9,37.235,18.618
	C37.224,8.34,28.895,0.012,18.618,0z M30.522,20.81L19.189,32.155c-0.316,0.316-0.828,0.316-1.145,0L6.712,20.81
	c-0.153-0.152-0.238-0.359-0.238-0.575c0.001-0.447,0.364-0.809,0.811-0.808h5.666V7.298c0-0.447,0.362-0.809,0.809-0.809h9.714
	c0.447,0,0.809,0.362,0.809,0.809v12.129h5.666c0.328,0,0.623,0.198,0.748,0.5C30.823,20.23,30.754,20.578,30.522,20.81z"/>
</svg>