<!-- Generator: Adobe Illustrator 21.0.0, SVG Export Plug-In  -->
<svg version="1.1"
	 xmlns="http://www.w3.org/2000/svg" xmlns:xlink="http://www.w3.org/1999/xlink" xmlns:a="http://ns.adobe.com/AdobeSVGViewerExtensions/3.0/"
	 x="0px" y="0px" width="63.457px" height="95.105px" viewBox="0 0 63.457 95.105"
	 style="enable-background:new 0 0 63.457 95.105;" xml:space="preserve">
<style type="text/css">
	.st0{fill:#384F5A;}
	.st1{fill:#FFFFFF;}
	.st2{fill:#839CA9;}
	.st3{fill:#8BC53F;}
</style>
<defs>
</defs>
<g>
	<g>
		<path class="st0" d="M14.312,84.118c-0.04,3.603-2.249,7.206-7.146,7.206C2.269,91.324,0,87.8,0,84.138
			c0-3.663,2.349-7.345,7.166-7.345C11.963,76.793,14.351,80.475,14.312,84.118z M2.588,84.178c0.06,2.289,1.294,4.737,4.578,4.737
			s4.518-2.468,4.558-4.757c0.04-2.349-1.274-4.976-4.558-4.976S2.528,81.829,2.588,84.178z"/>
		<path class="st0" d="M22.89,91.005V85.87c0-1.493-0.816-2.628-2.369-2.628c-1.493,0-2.508,1.254-2.508,2.747v5.016h-2.409v-9.833
			h2.17l0.159,1.334c0.995-0.975,1.991-1.473,3.225-1.473c2.309,0,4.16,1.732,4.16,4.817v5.155H22.89z"/>
		<path class="st0" d="M29.08,86.964c0.159,1.214,1.214,2.09,2.926,2.09c0.896,0,2.07-0.338,2.627-0.916l1.553,1.533
			c-1.035,1.075-2.727,1.592-4.22,1.592c-3.384,0-5.394-2.09-5.394-5.235c0-2.986,2.03-5.135,5.215-5.135
			c3.284,0,5.335,2.03,4.956,6.071H29.08z M34.415,84.954c-0.159-1.274-1.154-1.911-2.548-1.911c-1.314,0-2.389,0.637-2.747,1.911
			H34.415z"/>
		<path class="st0" d="M50.617,77.092v7.982c0,4.12-2.528,6.23-6.031,6.23c-3.344,0-6.191-2.03-6.191-6.23v-7.982h2.608v7.982
			c0,2.508,1.433,3.842,3.603,3.842c2.17,0,3.404-1.453,3.404-3.842v-7.982H50.617z"/>
		<path class="st0" d="M52.388,95.105V81.192h2.269l0.159,1.354c0.756-1.095,2.07-1.573,3.185-1.573
			c3.026,0,5.036,2.249,5.036,5.136c0,2.866-1.811,5.135-4.956,5.135c-1.035,0-2.568-0.319-3.264-1.393v5.255H52.388z
			 M60.609,86.109c0-1.533-1.035-2.787-2.787-2.787s-2.787,1.254-2.787,2.787c0,1.533,1.135,2.787,2.787,2.787
			C59.474,88.895,60.609,87.641,60.609,86.109z"/>
	</g>
	<g>
		<circle class="st0" cx="31.837" cy="38.675" r="31.62"/>
		<path class="st1" d="M29.882,64.127c-2.216,0-3.217-1.332-3.217-3.171V24.364c0.013,2.738,1.4-0.608,4.256-3.472
			c2.857-2.864,6.203-4.255,10.239-4.255h0.881c4.018,0,7.356,1.391,10.208,4.255c2.852,2.859,4.239,6.206,4.239,10.227
			l-0.015,3.479c0,4.041-1.387,7.388-4.239,10.242c-2.853,2.853-6.192,4.24-10.207,4.24h-0.881c-1.643,0-3.271-0.285-4.845-0.844
			l-0.758-0.273v12.994c0,2.167-0.994,3.171-3.156,3.171H29.882z M41.16,25.547c-1.513,0-2.882,0.567-3.954,1.648
			c-1.11,1.106-1.652,2.388-1.652,3.924l-0.012,3.62c0.025,1.511,0.578,2.781,1.683,3.854c1.109,1.087,2.389,1.61,3.92,1.61h0.881
			c1.51,0,2.787-0.536,3.904-1.645c1.093-1.077,1.67-2.449,1.67-3.959l0.016-3.479c0-1.486-0.577-2.844-1.672-3.924
			c-1.116-1.107-2.393-1.648-3.904-1.648H41.16z"/>
		<path class="st2" d="M37.011,38.34c-0.946-1.018-1.446-2.202-1.469-3.601l0.012-3.62c0-1.43,0.491-2.638,1.457-3.698v-10.17
			h-0.188c-2.186,0.665-4.137,1.869-5.903,3.64c-2.856,2.863-4.243,6.21-4.256,3.472v25.374h1.396c2.395,0,4.508-0.745,6.274-2.211
			c1.776-1.485,2.676-3.293,2.676-5.379V38.34z"/>
		<path class="st1" d="M31.837,7.056c-1.891,0-3.743,0.167-5.543,0.485v15.355h-4.423v-6.365H9.268
			c-0.016,0.016-0.032,0.033-0.048,0.049v24.848c0,2.077,0.891,3.878,2.636,5.357c1.765,1.483,3.9,2.231,6.359,2.231h8.089
			c2.4,0,4.512-0.745,6.277-2.212c1.779-1.486,2.677-3.292,2.677-5.375V7.241C34.134,7.12,32.993,7.056,31.837,7.056z"/>
		<path class="st3" d="M9.22,16.531L26.678,0v38.144c0,5.542-9.04,4.783-8.837-0.089c0.224-11.787,0-21.524,0-21.524H9.22z"/>
	</g>
</g>
</svg>