<!-- Generator: Adobe Illustrator 21.0.0, SVG Export Plug-In  -->
<svg version="1.1"
	 xmlns="http://www.w3.org/2000/svg" xmlns:xlink="http://www.w3.org/1999/xlink" xmlns:a="http://ns.adobe.com/AdobeSVGViewerExtensions/3.0/"
	 x="0px" y="0px" width="54.585px" height="54.585px" viewBox="0 0 54.585 54.585"
	 style="enable-background:new 0 0 54.585 54.585;" xml:space="preserve">
<style type="text/css">
	.st0{fill:#05DB60;}
	.st1{fill-rule:evenodd;clip-rule:evenodd;fill:#FFFFFF;}
</style>
<defs>
</defs>
<g>
	<g>
		<path class="st0" d="M27.293,54.585C12.243,54.585,0,42.342,0,27.293S12.243,0,27.293,0c15.049,0,27.292,12.243,27.292,27.293
			S42.342,54.585,27.293,54.585z"/>
	</g>
	<g>
		<g>
			<path class="st1" d="M28.581,9.527c-9.086,0-16.478,7.392-16.478,16.478c0,3.196,0.907,6.266,2.632,8.93l-2.503,5.514
				c-0.231,0.508-0.147,1.104,0.215,1.529c0.278,0.325,0.68,0.505,1.095,0.505c0.127,0,0.255-0.017,0.381-0.051l6.897-1.892
				c2.381,1.273,5.051,1.944,7.761,1.944c9.086,0,16.478-7.392,16.478-16.478C45.059,16.919,37.667,9.527,28.581,9.527z
				 M28.581,39.605c-2.407,0-4.775-0.64-6.848-1.852c-0.222-0.13-0.473-0.196-0.726-0.196c-0.128,0-0.256,0.017-0.381,0.051
				l-4.506,1.236l1.569-3.457c0.213-0.47,0.159-1.018-0.143-1.437c-1.679-2.327-2.566-5.074-2.566-7.946
				c0-7.499,6.101-13.6,13.6-13.6s13.6,6.101,13.6,13.6C42.181,33.504,36.08,39.605,28.581,39.605z"/>
		</g>
		<g>
			<path class="st1" d="M34.916,28.472c-0.69-0.413-1.588-0.874-2.401-0.541c-0.624,0.255-1.022,1.232-1.426,1.73
				c-0.208,0.256-0.455,0.296-0.774,0.168c-2.341-0.933-4.135-2.496-5.427-4.649c-0.219-0.335-0.18-0.599,0.084-0.909
				c0.391-0.459,0.88-0.981,0.986-1.601c0.105-0.619-0.185-1.343-0.441-1.895c-0.327-0.705-0.693-1.709-1.398-2.108
				c-0.649-0.367-1.504-0.161-2.082,0.309c-0.998,0.813-1.479,2.085-1.465,3.347c0.004,0.359,0.048,0.716,0.132,1.062
				c0.201,0.832,0.586,1.61,1.019,2.348c0.326,0.557,0.681,1.098,1.064,1.618c1.252,1.701,2.81,3.179,4.614,4.284
				c0.901,0.552,1.872,1.036,2.877,1.368c1.128,0.373,2.132,0.76,3.349,0.529c1.275-0.242,2.531-1.031,3.037-2.259
				c0.15-0.364,0.225-0.769,0.141-1.153C36.633,29.329,35.558,28.856,34.916,28.472z"/>
		</g>
	</g>
</g>
</svg>