<!-- Generator: Adobe Illustrator 21.0.0, SVG Export Plug-In  -->
<svg version="1.1"
	 xmlns="http://www.w3.org/2000/svg" xmlns:xlink="http://www.w3.org/1999/xlink" xmlns:a="http://ns.adobe.com/AdobeSVGViewerExtensions/3.0/"
	 x="0px" y="0px" width="99.761px" height="39.902px" viewBox="0 0 99.761 39.902"
	 style="enable-background:new 0 0 99.761 39.902;" xml:space="preserve">
<style type="text/css">
	.st0{fill:#8DC63F;}
	.st1{fill:#F7941D;}
	.st2{fill:#0066B3;}
	.st3{fill:#92278F;}
	.st4{fill:#FFDD00;}
	.st5{fill:#ED1C24;}
</style>
<defs>
</defs>
<g>
	<path class="st0" d="M73.444,1.444c0.42-0.248,1.278-0.443,1.539,0.151c0.239,0.538-0.611,1.246-0.918,1.567
		C72.984,4.299,71.92,5.72,72.28,7.39c0.391-0.793,1.059-1.465,1.775-1.966c1.145-0.796,2.915-1.114,3.38-2.625
		C78.212,0.247,73.712-1.287,73.444,1.444L73.444,1.444z"/>
	<path class="st1" d="M75.194,15.883c-0.011-2.123,0.836-4.414,2.562-5.711c1.664-1.255,4.021-1.568,5.97-2.156
		c0.876-0.258,2.476-0.552,2.868-1.528c-0.08,2.175-2.792,3.453-4.47,4.139C79.318,11.771,76.433,12.889,75.194,15.883
		C75.194,15.883,76.378,13.025,75.194,15.883L75.194,15.883z"/>
	<path class="st2" d="M57.385,9.073c1.07,2.361,5.514,0.789,7.144,0.425c3.091-0.687,5.567,0.371,6.552,3.415
		c-1.437-2.287-4.74-2.135-7.005-1.655C61.97,11.707,57.667,12.111,57.385,9.073L57.385,9.073z"/>
	<path class="st3" d="M61.579,16.794c-1-0.754-1.021-2.087-1.48-3.155c-0.331-0.756-1.643-1.847-2.206-0.677
		C56.837,15.15,59.903,16.739,61.579,16.794L61.579,16.794z"/>
	<path class="st3" d="M63.223,19.266c-1.243-1.503-3.775-2.683-5.549-1.409c-1.14,0.822-0.172,2.132,1.031,1.843
		c0.877-0.209,1.575-0.738,2.511-0.797C61.9,18.86,62.593,18.988,63.223,19.266C63.223,19.266,62.546,18.962,63.223,19.266
		L63.223,19.266z"/>
	<path class="st4" d="M73.339,14.872c-0.17-1.272,0.015-2.77,0.888-3.763c0.425-0.483,4.32-2.039,3.48-3.032
		c-0.891-1.06-3.242-0.467-4.102,0.279C71.923,9.817,71.846,13.232,73.339,14.872C73.339,14.872,72.618,14.082,73.339,14.872
		L73.339,14.872z"/>
	<path class="st5" d="M83.229,15.524c0.842-0.137,2.098-0.225,2.715,0.479c0.504,0.563,0.735,1.291,1.394,1.732
		c0.719,0.49,1.811,0.292,2.259-0.483c0.653-1.134-0.54-2.232-1.493-2.609C86.435,13.999,84.637,14.502,83.229,15.524L83.229,15.524
		z"/>
	<path class="st0" d="M65.053,1.653c1.058,3.232,8.7,4.535,5.924,8.893c-0.208-0.789-0.55-1.568-1.036-2.221
		c-0.665-0.908-1.659-1.227-2.608-1.747C65.565,5.617,63.035,3.705,65.053,1.653L65.053,1.653z"/>
	<path class="st4" d="M75.873,6.184c1.255-1.322,2.894-1.064,4.534-0.959c0.909,0.061,2.027,0.156,2.861-0.306
		c0.871-0.477,1.114-2.026,0.658-2.856c-0.397-0.713-1.657-0.935-2.356-0.569c-1.336,0.701,0.567,1.157,0.927,1.318
		c0.695,0.31-0.298,1.157-0.595,1.312c-0.774,0.42-2.154,0.644-2.793-0.128c-1.96-2.361,4.569-6.1,6.21-1.838
		c0.768,1.998-0.956,3.757-2.692,4.379C80.497,7.299,77.904,7.2,75.873,6.184L75.873,6.184z"/>
	<path class="st1" d="M79.056,13.501c1.386-0.592,2.757-0.304,4.195-0.169c0.856,0.075,3.471,0.538,4.056-0.385
		c0.874-1.376-2.926-1.568-3.513-1.516C82.199,11.572,80.047,12.111,79.056,13.501C79.056,13.501,80.014,12.161,79.056,13.501
		L79.056,13.501z"/>
	<path class="st5" d="M74.057,20.95c0.121-1.698,0.553-3.736,1.795-4.975c1.869-1.867,6.319-2.13,6.407,1.425
		c0.033,1.349-1.085,2.051-2.333,1.995c-0.398-0.015-0.916-0.13-1.073-0.555c-0.194-0.52,0.352-0.854,0.28-1.333
		c-0.23-1.567-2.291,0.17-2.736,0.601C75.588,18.902,74.484,19.868,74.057,20.95C74.057,20.95,74.381,20.13,74.057,20.95
		L74.057,20.95z"/>
	<path class="st3" d="M72.721,20.95c-0.08-3.506-0.854-7.997-4.977-8.586c-2.156-0.311-4.321,0.649-4.915,2.871
		c-0.524,1.966,0.628,3.714,2.626,4.034c1.636,0.264,4.356-1.161,3.477-3.137c-0.326-0.73-1.197-1.301-2.003-1.221
		c-0.916,0.092-0.638,0.896-0.572,1.518c0.098,0.944-0.937,0.824-1.167,0.075c-0.271-0.9,0.151-1.877,1.079-2.117
		c1.831-0.479,3.044,1.047,3.925,2.449C71.052,18.197,71.86,19.594,72.721,20.95L72.721,20.95L72.721,20.95z"/>
	<path class="st1" d="M89.393,10.202c0,1.771-2.739,1.771-2.739,0C86.654,8.43,89.393,8.43,89.393,10.202
		C89.393,10.962,89.393,9.444,89.393,10.202L89.393,10.202z"/>
	<path class="st5" d="M85.73,17.966c0,1.768-2.739,1.768-2.739,0C82.991,16.192,85.73,16.192,85.73,17.966
		C85.73,18.72,85.73,17.207,85.73,17.966L85.73,17.966z"/>
	<path class="st3" d="M57.607,15.731c0,1.768-2.742,1.768-2.742,0C54.866,13.961,57.607,13.961,57.607,15.731
		C57.607,16.487,57.607,14.974,57.607,15.731L57.607,15.731z"/>
	<path class="st0" d="M72.071,2.959c0,2.302-3.564,2.302-3.564,0C68.508,0.654,72.071,0.654,72.071,2.959
		C72.071,3.948,72.071,1.974,72.071,2.959L72.071,2.959z"/>
	<path class="st2" d="M60.791,9.057c0.464,0.167,1.003,0.325,1.496,0.253c1.136-0.163,0.243-1.141-0.341-1.331
		c-0.338-0.109-1.781-1.227-0.716-1.032c0.783,0.146,2.057,0.978,2.821,0.416c0.565-0.416,0.235-1.233-0.171-1.609
		c-0.77-0.705-1.911-0.793-2.86-0.425C59.376,5.96,58.879,8.402,60.791,9.057L60.791,9.057z"/>
	<path class="st2" d="M37.432,25.675h1.411c-0.186-0.145-0.432-0.227-0.728-0.227C37.824,25.448,37.603,25.536,37.432,25.675
		L37.432,25.675z"/>
	<path class="st2" d="M45.433,32.233v-6.558h1.679v-1.802h-1.679v-3.921h-2.437v3.921h-2.822c0.179,0.108,0.344,0.237,0.494,0.383
		c0.386,0.37,0.687,0.833,0.868,1.419h1.46v6.688c0,1.375,0.462,2.262,1.22,2.84c0.825,0.62,1.791,0.71,2.942,0.71v-2.106
		C46.007,33.806,45.433,33.315,45.433,32.233L45.433,32.233z"/>
	<path class="st2" d="M2.435,30.569c0,1.336,0.069,2.355,0.368,2.771c0.185,0.27,0.505,0.468,0.941,0.468
		c0.416,0,0.691-0.182,0.923-0.468c0.183-0.222,0.296-0.686,0.296-1.038H7.38c-0.046,0.973-0.324,1.944-1.013,2.681
		c-0.618,0.663-1.564,0.93-2.622,0.93c-1.124,0-1.884-0.246-2.621-0.953C0.091,33.965,0,32.011,0,29.883
		c0-2.127,0.091-4.085,1.123-5.078c0.737-0.713,1.611-0.933,2.602-0.933c1.009,0,1.882,0.2,2.594,0.933
		c1.175,1.197,1.08,3.57,1.105,5.764H2.435L2.435,30.569z M4.64,26.426c-0.205-0.264-0.48-0.471-0.915-0.471
		c-0.441,0-0.716,0.207-0.921,0.471c-0.279,0.329-0.368,1.219-0.368,2.415H4.99C4.99,27.646,4.918,26.756,4.64,26.426L4.64,26.426z"
		/>
	<path class="st2" d="M13.51,35.912v-1.062c-0.139,0.218-0.549,0.595-0.804,0.728c-0.343,0.203-0.78,0.335-1.217,0.335
		c-0.898,0-1.587-0.246-2.137-0.911c-0.803-0.948-0.85-2.591-0.85-5.12c0-2.528,0.047-4.147,0.85-5.1
		c0.549-0.643,1.195-0.911,2.137-0.911c0.438,0,0.874,0.115,1.217,0.312c0.255,0.131,0.53,0.377,0.713,0.622v-4.854h2.439v15.961
		H13.51L13.51,35.912z M13.418,27.377c0-0.508-0.136-0.865-0.391-1.108c-0.207-0.2-0.528-0.315-0.827-0.315
		c-0.365,0-0.713,0.18-0.918,0.491c-0.326,0.529-0.344,1.71-0.344,3.438c0,1.73,0.019,2.927,0.344,3.457
		c0.206,0.31,0.553,0.468,0.918,0.468c0.299,0,0.619-0.09,0.827-0.291c0.254-0.242,0.391-0.593,0.391-1.106V27.377L13.418,27.377z"
		/>
	<path class="st2" d="M22.001,35.912v-1.062c-0.205,0.267-0.528,0.576-0.824,0.728c-0.346,0.203-0.783,0.335-1.219,0.335
		c-0.987,0-1.655-0.288-2.208-0.911c-0.481-0.532-0.689-1.178-0.689-2.524v-8.607h2.437v8.581c0,0.909,0.528,1.355,1.196,1.355
		c0.666,0,1.196-0.446,1.196-1.355v-8.581h2.436v12.04H22.001L22.001,35.912z"/>
	<path class="st2" d="M31.72,35.051c-0.622,0.596-1.494,0.863-2.575,0.863c-1.15,0-2.162-0.288-2.874-1.239
		c-0.757-1-0.85-2.798-0.85-4.792c0-1.974,0.093-3.767,0.85-4.79c0.712-0.953,1.725-1.221,2.874-1.221
		c1.035,0,1.837,0.181,2.55,0.825c0.757,0.705,1.011,1.775,1.081,2.77h-2.414c-0.024-0.358-0.069-0.777-0.322-1.088
		c-0.186-0.262-0.484-0.423-0.895-0.423c-0.368,0-0.736,0.18-0.945,0.491c-0.32,0.529-0.343,1.71-0.343,3.438
		c0,1.73,0.023,2.906,0.343,3.457c0.209,0.31,0.577,0.468,0.945,0.468c0.411,0,0.71-0.158,0.895-0.402
		c0.253-0.309,0.298-0.707,0.322-1.103h2.414C32.706,33.406,32.387,34.405,31.72,35.051L31.72,35.051z"/>
	<path class="st2" d="M38.748,35.912V34.74c-0.206,0.289-0.463,0.598-0.734,0.777c-0.367,0.244-0.761,0.396-1.381,0.396
		c-1.011,0-1.654-0.288-2.277-0.976c-0.48-0.556-0.733-1.436-0.733-2.617c0-1.061,0.388-1.99,1.125-2.618
		c0.6-0.51,1.381-0.795,2.781-0.795h1.082v-1.619c0-0.863-0.415-1.352-1.173-1.352c-0.37,0-0.62,0.133-0.806,0.332
		c-0.251,0.262-0.366,0.599-0.366,1.085h-2.439c0-0.929,0.279-1.795,1.036-2.525c0.573-0.558,1.562-0.957,2.55-0.957
		c1.013,0,1.954,0.246,2.576,0.871c0.644,0.614,1.057,1.483,1.057,2.745v8.425H38.748L38.748,35.912z M38.611,30.569h-0.807
		c-0.527,0-0.919,0.043-1.263,0.355c-0.3,0.27-0.482,0.842-0.482,1.31c0,1.042,0.438,1.618,1.26,1.618
		c0.738,0,1.291-0.598,1.291-1.549V30.569L38.611,30.569z"/>
	<polygon class="st2" points="48.186,35.912 48.186,23.872 50.622,23.872 50.622,35.912 48.186,35.912 	"/>
	<polygon class="st2" points="48.186,22.161 48.186,19.956 50.622,19.956 50.622,22.161 48.186,22.161 	"/>
	<path class="st2" d="M58.264,34.675c-0.708,0.951-1.697,1.239-2.871,1.239c-1.171,0-2.159-0.288-2.871-1.239
		c-0.757-1.024-0.851-2.821-0.851-4.792c0-1.974,0.093-3.767,0.851-4.79c0.712-0.953,1.7-1.221,2.871-1.221
		c1.175,0,2.163,0.268,2.871,1.221c0.762,1.023,0.854,2.816,0.854,4.79C59.118,31.854,59.025,33.651,58.264,34.675L58.264,34.675z
		 M56.335,26.446c-0.204-0.31-0.572-0.491-0.943-0.491c-0.368,0-0.735,0.18-0.94,0.491c-0.322,0.529-0.344,1.71-0.344,3.438
		c0,1.73,0.022,2.927,0.344,3.457c0.205,0.31,0.572,0.468,0.94,0.468c0.37,0,0.739-0.158,0.943-0.468
		c0.323-0.531,0.345-1.728,0.345-3.457C56.68,28.155,56.659,26.975,56.335,26.446L56.335,26.446z"/>
	<path class="st2" d="M65.027,35.912v-8.577c0-0.909-0.532-1.357-1.2-1.357c-0.665,0-1.192,0.447-1.192,1.357v8.577h-2.438v-12.04
		h2.345v1.042c0.204-0.264,0.506-0.572,0.801-0.731c0.346-0.197,0.783-0.312,1.218-0.312c0.991,0,1.659,0.291,2.209,0.911
		c0.484,0.535,0.692,1.172,0.692,2.528v8.6H65.027L65.027,35.912z"/>
	<path class="st0" d="M75.289,35.003c-0.554,0.644-1.196,0.911-2.137,0.911c-0.438,0-0.873-0.106-1.219-0.31
		c-0.253-0.133-0.531-0.379-0.713-0.62v4.918h-2.438V23.872h2.344v1.042c0.142-0.218,0.553-0.599,0.807-0.731
		c0.347-0.197,0.781-0.312,1.219-0.312c0.895,0,1.583,0.246,2.137,0.911c0.804,0.953,0.85,2.572,0.85,5.1
		C76.139,32.412,76.093,34.055,75.289,35.003L75.289,35.003z M73.357,26.446c-0.205-0.31-0.551-0.491-0.919-0.491
		c-0.3,0-0.621,0.115-0.829,0.315c-0.25,0.243-0.39,0.599-0.39,1.108v5.034c0,0.513,0.139,0.865,0.39,1.106
		c0.208,0.201,0.529,0.291,0.829,0.291c0.368,0,0.714-0.158,0.919-0.468c0.32-0.531,0.346-1.728,0.346-3.457
		C73.703,28.155,73.677,26.975,73.357,26.446L73.357,26.446z"/>
	<path class="st0" d="M81.97,35.912V34.74c-0.21,0.289-0.461,0.598-0.74,0.777c-0.37,0.244-0.757,0.396-1.375,0.396
		c-1.012,0-1.658-0.288-2.277-0.976c-0.483-0.556-0.736-1.436-0.736-2.617c0-1.061,0.392-1.99,1.124-2.618
		c0.601-0.51,1.381-0.795,2.783-0.795h1.082v-1.619c0-0.863-0.414-1.352-1.173-1.352c-0.368,0-0.621,0.133-0.803,0.332
		c-0.254,0.262-0.37,0.599-0.37,1.085h-2.437c0-0.929,0.278-1.795,1.038-2.525c0.569-0.558,1.56-0.957,2.551-0.957
		c1.011,0,1.951,0.246,2.575,0.871c0.643,0.614,1.055,1.483,1.055,2.745v8.425H81.97L81.97,35.912z M81.831,30.569h-0.804
		c-0.53,0-0.923,0.043-1.267,0.355c-0.297,0.27-0.48,0.842-0.48,1.31c0,1.042,0.437,1.618,1.263,1.618
		c0.738,0,1.289-0.598,1.289-1.549V30.569L81.831,30.569z"/>
	<path class="st0" d="M89.861,26.162c-1.15,0-2.024,0.751-2.024,2.016v7.734h-2.436v-12.04h2.346v1.424
		c0.253-0.356,0.644-0.689,1.056-0.935c0.531-0.309,1.172-0.489,1.884-0.489v2.29H89.861L89.861,26.162z"/>
	<polygon class="st0" points="97.073,35.912 94.968,30.811 93.934,32.391 93.934,35.912 91.495,35.912 91.495,19.952 93.934,19.952 
		93.934,29.043 97.102,23.872 99.654,23.872 96.531,28.686 99.761,35.912 97.073,35.912 	"/>
</g>
</svg>