<!-- Generator: Adobe Illustrator 21.0.0, SVG Export Plug-In  -->
<svg version="1.1"
	 xmlns="http://www.w3.org/2000/svg" xmlns:xlink="http://www.w3.org/1999/xlink" xmlns:a="http://ns.adobe.com/AdobeSVGViewerExtensions/3.0/"
	 x="0px" y="0px" width="112.672px" height="27.439px" viewBox="0 0 112.672 27.439"
	 style="enable-background:new 0 0 112.672 27.439;" xml:space="preserve">
<style type="text/css">
	.st0{fill:none;stroke:#F58220;stroke-width:0;stroke-miterlimit:3.8636;}
	.st1{fill:#D6E4E4;}
	.st2{fill:#049AA6;}
	.st3{fill:#0856A4;}
	.st4{fill-rule:evenodd;clip-rule:evenodd;fill:#0E57A4;}
	.st5{fill-rule:evenodd;clip-rule:evenodd;fill:#FFFFFF;}
	.st6{fill-rule:evenodd;clip-rule:evenodd;fill:#0A509F;}
	.st7{fill-rule:evenodd;clip-rule:evenodd;fill:#07519F;}
	.st8{fill-rule:evenodd;clip-rule:evenodd;fill:#F69420;}
	.st9{fill-rule:evenodd;clip-rule:evenodd;fill:#0D76BD;}
	.st10{fill:#F69420;}
	.st11{fill-rule:evenodd;clip-rule:evenodd;fill:#0077C0;}
	.st12{fill-rule:evenodd;clip-rule:evenodd;fill:#F58220;}
</style>
<defs>
</defs>
<g>
	<line class="st0" x1="37.556" y1="0" x2="37.556" y2="27.172"/>
	<path class="st1" d="M24.153,9.099l2.842,2.223c-0.075,0.18-0.047,0.395,0.094,0.55c0.19,0.211,0.517,0.23,0.73,0.038
		c0.211-0.193,0.229-0.519,0.037-0.731c-0.064-0.07-0.142-0.118-0.225-0.146l0.399-3.592c0.13,0.005,0.26-0.038,0.364-0.133
		c0.213-0.191,0.229-0.517,0.039-0.73c-0.19-0.213-0.519-0.229-0.731-0.037c-0.157,0.14-0.207,0.356-0.146,0.544l-3.334,1.347
		c-0.014-0.019-0.028-0.038-0.041-0.053c-0.191-0.212-0.519-0.229-0.732-0.04c-0.211,0.19-0.228,0.52-0.037,0.731
		c0.191,0.211,0.518,0.229,0.731,0.038L24.153,9.099z M27.675,7.282c0.038,0.041,0.085,0.076,0.134,0.101l-0.403,3.629
		c-0.099,0.013-0.196,0.054-0.276,0.126l-2.852-2.227c0.034-0.087,0.042-0.181,0.027-0.27L27.675,7.282z"/>
	<path class="st2" d="M10.954,9.551l-8.576,1.511c-0.198-0.427-0.628-0.72-1.13-0.72C0.558,10.342,0,10.9,0,11.588
		c0,0.69,0.558,1.247,1.248,1.247c0.225,0,0.441-0.059,0.624-0.167l5.794,6.511c-0.218,0.225-0.351,0.531-0.351,0.869
		c0,0.688,0.56,1.247,1.247,1.247c0.69,0,1.25-0.559,1.25-1.247c0-0.51-0.306-0.949-0.743-1.143l2.967-8.153
		c0.053,0.009,0.109,0.012,0.163,0.012c0.69,0,1.249-0.559,1.249-1.247c0-0.691-0.559-1.25-1.249-1.25
		c-0.688,0-1.248,0.559-1.248,1.25L10.954,9.551z M8.528,18.8c-0.141,0.002-0.276,0.031-0.402,0.077l-5.852-6.581
		c0.137-0.199,0.221-0.439,0.221-0.702l8.592-1.513c0.1,0.197,0.253,0.365,0.439,0.484L8.528,18.8z"/>
	<path class="st2" d="M11.276,13.025l5.289-4.599c0.314,0.211,0.734,0.236,1.081,0.028c0.475-0.285,0.628-0.901,0.341-1.379
		c-0.283-0.475-0.901-0.628-1.376-0.342c-0.158,0.094-0.279,0.224-0.362,0.374l-6.697-2.09c0.057-0.246,0.022-0.512-0.119-0.744
		C9.147,3.797,8.532,3.645,8.056,3.93C7.58,4.216,7.426,4.832,7.713,5.308c0.21,0.351,0.602,0.526,0.983,0.478l1.332,6.857
		c-0.04,0.018-0.079,0.037-0.116,0.06c-0.478,0.286-0.63,0.902-0.345,1.379c0.286,0.475,0.903,0.627,1.379,0.342
		c0.476-0.285,0.629-0.902,0.343-1.377L11.276,13.025z M9.114,5.636c0.096-0.06,0.177-0.135,0.243-0.219l6.769,2.114
		c-0.015,0.193,0.031,0.396,0.139,0.575l-5.302,4.608c-0.152-0.093-0.326-0.147-0.502-0.152L9.114,5.636z"/>
	<path class="st2" d="M15.514,9.815l5.701-1.741c0.168,0.271,0.488,0.436,0.829,0.394c0.468-0.058,0.8-0.484,0.743-0.953
		c-0.057-0.467-0.482-0.801-0.951-0.742c-0.156,0.018-0.296,0.077-0.412,0.164l-4.48-3.941c0.129-0.17,0.194-0.39,0.166-0.617
		c-0.058-0.47-0.483-0.803-0.952-0.746c-0.469,0.059-0.801,0.483-0.743,0.952c0.042,0.347,0.286,0.618,0.596,0.714l-1.334,5.788
		c-0.038,0-0.074,0.001-0.113,0.007c-0.467,0.058-0.802,0.483-0.744,0.951c0.057,0.469,0.483,0.801,0.952,0.745
		c0.468-0.059,0.801-0.485,0.743-0.952L15.514,9.815z M16.391,3.328c0.095-0.015,0.184-0.044,0.266-0.087l4.525,3.984
		c-0.076,0.146-0.111,0.317-0.091,0.495l-5.712,1.747c-0.085-0.127-0.203-0.229-0.338-0.293L16.391,3.328z"/>
	<path class="st2" d="M20.131,8.648l4.612,0.896c0.017,0.254,0.179,0.485,0.431,0.583c0.347,0.134,0.736-0.04,0.869-0.388
		c0.133-0.347-0.041-0.737-0.386-0.87c-0.117-0.044-0.233-0.053-0.347-0.035l-1.661-4.402c0.153-0.07,0.278-0.198,0.343-0.37
		c0.134-0.346-0.04-0.735-0.387-0.868c-0.345-0.132-0.734,0.041-0.869,0.386c-0.099,0.257-0.03,0.538,0.153,0.719l-3.071,3.533
		c-0.025-0.015-0.055-0.026-0.081-0.036C19.391,7.662,19,7.836,18.869,8.184c-0.133,0.347,0.04,0.736,0.386,0.869
		c0.347,0.135,0.737-0.038,0.87-0.388L20.131,8.648z M23.141,4.457c0.073,0.026,0.144,0.039,0.218,0.039l1.677,4.447
		c-0.109,0.072-0.197,0.18-0.25,0.31l-4.62-0.897c-0.013-0.12-0.055-0.234-0.126-0.33L23.141,4.457z"/>
	<path class="st3" d="M31.466,10.179c0.04,0.035,0.076-0.046,0.093-0.054C31.472,10.089,31.454,10.196,31.466,10.179z"/>
	<polygon class="st3" points="30.621,9.849 30.654,9.829 30.497,9.829 	"/>
	<path class="st3" d="M29.941,9.392c-0.018,0.169,0.259,0.146,0.353,0.271v0.042l0.123-0.062
		C30.258,9.558,30.022,9.498,29.941,9.392z"/>
	<path class="st3" d="M29.751,8.876c-0.009,0.064-0.106-0.012,0.075,0.072l-0.007-0.022L29.751,8.876z"/>
	<path class="st3" d="M29.467,8.729l0.122,0.021c-0.002-0.042-0.084-0.106-0.038-0.106C29.438,8.601,29.44,8.644,29.467,8.729z"/>
	<path class="st3" d="M29.32,8.764l0.061,0.014C29.38,8.758,29.368,8.746,29.32,8.764z"/>
	<path class="st3" d="M29.51,8.808l-0.129-0.03c0.001,0.028-0.023,0.071,0.056,0.018C29.406,8.827,29.449,8.805,29.51,8.808z"/>
	<path class="st3" d="M29.556,8.867c0.037,0.063,0.095,0.126-0.028,0.106C29.721,9.077,29.749,8.971,29.556,8.867z"/>
	<path class="st3" d="M29.823,9.499l0.046,0.084l0.088-0.002C29.915,9.582,29.844,9.457,29.823,9.499z"/>
	<path class="st3" d="M28.881,8.311l-0.02,0.132l0.093,0.007C28.926,8.412,28.864,8.356,28.881,8.311z"/>
	<path class="st3" d="M28.861,8.443l-0.139-0.012C28.82,8.489,28.85,8.476,28.861,8.443z"/>
	<polygon class="st3" points="29.217,8.894 29.449,8.911 29.184,8.873 	"/>
	<polygon class="st3" points="28.455,8.08 28.553,8.049 28.387,8.086 	"/>
	<path class="st3" d="M28.161,7.938c0.076-0.029-0.015-0.124,0.052-0.132c-0.083-0.03-0.174-0.021-0.254-0.009
		C28.035,7.807,28.098,7.85,28.161,7.938z"/>
	<path class="st3" d="M27.827,7.805l0.132-0.007L27.827,7.805z"/>
	<path class="st3" d="M28.539,8.315c0.001-0.022,0.01-0.074-0.043-0.127l0.001,0.102L28.539,8.315z"/>
	<path class="st3" d="M28.497,8.294V8.29l-0.094-0.055C28.416,8.243,28.443,8.261,28.497,8.294z"/>
	<path class="st3" d="M28.551,8.322l-0.012-0.007L28.551,8.322z"/>
	<path class="st3" d="M28.97,8.665c-0.093,0.01-0.254-0.016-0.161,0.119C28.888,8.756,28.833,8.678,28.97,8.665z"/>
	<path class="st3" d="M28.551,8.448l0.108,0.081c0.008-0.021,0.005-0.062,0.048-0.067L28.551,8.448z"/>
	<polygon class="st3" points="28.479,8.442 28.551,8.448 28.51,8.418 	"/>
	<path class="st3" d="M27.993,7.987c-0.069,0.007-0.126-0.019-0.194-0.048l0.194,0.134C28.015,8.054,28.067,8.023,27.993,7.987z"/>
	<path class="st3" d="M28.233,8.142h-0.012H28.233z"/>
	<polygon class="st3" points="27.176,7.607 27.178,7.628 27.189,7.614 	"/>
	<path class="st3" d="M27.996,8.093c0.043,0.043,0.083,0.04,0.125,0.03l-0.128-0.051L27.996,8.093z"/>
	<path class="st3" d="M27.633,7.75l0.068,0.09C27.687,7.802,27.653,7.733,27.633,7.75z"/>
	<path class="st3" d="M28.215,8.11h0.009C28.216,8.086,28.214,8.095,28.215,8.11z"/>
	<polygon class="st3" points="28.215,8.11 28.121,8.123 28.221,8.142 	"/>
	<path class="st3" d="M26.745,8.032c0.046-0.078,0.21-0.073,0.286,0.066c0.138,0.004,0.185-0.28,0.148-0.47
		c-0.019,0.03-0.032,0.06-0.17,0.043c0.023,0.064,0.215,0.234,0.083,0.249c-0.172-0.044-0.113-0.093-0.169-0.173
		c0.022,0.12-0.267,0.052-0.295,0.206l0.163,0.006C26.78,7.982,26.714,7.997,26.745,8.032z"/>
	<path class="st3" d="M27.399,7.753l0.053,0.017c-0.05-0.042-0.075-0.093-0.118-0.191c-0.099-0.005-0.128,0.013-0.145,0.034
		l0.232,0.138L27.399,7.753z"/>
	<path class="st3" d="M27.669,7.886c-0.079,0.06-0.21,0.032-0.185,0.158c0.144,0.068,0.134-0.016,0.235-0.005
		c-0.238-0.101,0.087-0.011-0.055-0.142l0.134,0.042L27.701,7.84l0.001,0.008h0.003L27.704,7.85L27.7,7.861l-0.005-0.001
		L27.669,7.886c-0.059-0.053,0-0.028,0.025-0.026l0.009-0.009l-0.002-0.002l-0.25-0.078C27.494,7.807,27.556,7.837,27.669,7.886z"/>
	<path class="st3" d="M28.592,8.887l0.005-0.021C28.576,8.868,28.567,8.871,28.592,8.887z"/>
	<path class="st3" d="M28.527,8.792C28.55,8.788,28.582,8.765,28.63,8.8c0.034,0.05-0.021,0.04-0.033,0.066
		c0.043-0.004,0.144,0.003,0.066-0.088L28.64,8.78c-0.077-0.075-0.139-0.235-0.117-0.237C28.512,8.627,28.506,8.689,28.527,8.792z"
		/>
	<path class="st3" d="M28.086,8.356l-0.211-0.06l0.061,0.119l0.018-0.044C28.05,8.445,28.055,8.381,28.086,8.356z"/>
	<polygon class="st3" points="27.173,7.556 27.24,7.482 27.071,7.546 	"/>
	<polygon class="st3" points="26.915,7.446 26.959,7.376 26.869,7.392 	"/>
	<path class="st3" d="M11.919,8.049l-0.042,0.052L11.919,8.049z"/>
	<path class="st3" d="M12.303,7.847l-0.008-0.04L12.303,7.847z"/>
	<path class="st3" d="M20.267,5.606C20.184,5.515,20.088,5.4,20.09,5.491l0.021,0.091C20.178,5.569,20.228,5.579,20.267,5.606z"/>
	<polygon class="st3" points="15.615,6.332 15.645,6.354 15.69,6.255 	"/>
	<path class="st3" d="M15.621,6.715l-0.124-0.031L15.621,6.715z"/>
	<path class="st3" d="M9.965,9.371v0.116C10.053,9.421,9.986,9.412,9.965,9.371z"/>
	<path class="st3" d="M24.208,6.46c-0.065-0.055-0.124-0.086-0.177-0.106C24.11,6.43,24.163,6.526,24.208,6.46z"/>
	<path class="st3" d="M11.651,7.099l-0.024,0.076C11.655,7.142,11.666,7.116,11.651,7.099z"/>
	<path class="st3" d="M23.808,6.293l0.035,0.031l0.189,0.03C23.975,6.298,23.902,6.252,23.808,6.293z"/>
	<path class="st3" d="M4.961,16.179l-0.017,0.014L4.961,16.179z"/>
	<path class="st3" d="M3.379,18.414l0.018-0.107C3.387,18.324,3.379,18.356,3.379,18.414z"/>
	<path class="st3" d="M26.011,7.426l-0.038,0.032L26.011,7.426z"/>
	<path class="st3" d="M23.094,6.68l-0.003-0.003C23.101,6.7,23.099,6.696,23.094,6.68z"/>
	<path class="st3" d="M25.946,7.058l-0.059-0.054L25.946,7.058z"/>
	<path class="st3" d="M25.952,7.014l0.044,0.028C26.009,7.031,26.007,7.019,25.952,7.014z"/>
	<polygon class="st3" points="25.8,6.96 25.887,7.004 25.878,6.986 	"/>
	<path class="st3" d="M6.921,11.969l-0.014,0.005C6.905,12.043,6.914,12.02,6.921,11.969z"/>
	<polygon class="st3" points="18.697,6.489 18.702,6.485 18.695,6.481 	"/>
	<path class="st3" d="M18.491,6.55c0.087-0.11,0.139-0.095,0.204-0.069l-0.067-0.264L18.491,6.55z"/>
	<path class="st3" d="M6.044,12.062L6,12.077C6.009,12.115,6.016,12.15,6.044,12.062z M25.328,6.877
		c0.046,0.025,0.087,0.042,0.11,0.023l-0.025,0.036C25.35,6.935,25.332,6.907,25.328,6.877z M25.236,6.821l0.005-0.003
		C25.186,6.777,25.159,6.749,25.236,6.821z M15.827,6.461c0.059,0.025,0.108,0.03,0.133-0.008L15.827,6.461z M12.758,7.657
		c0.052,0.045,0.103-0.044,0.135-0.078C12.814,7.572,12.758,7.535,12.758,7.657z M11.16,8.477c-0.225-0.015-0.302,0.199-0.349,0.31
		c-0.085,0-0.065-0.207-0.218-0.069c-0.204,0.211,0.153,0.138,0.034,0.269l-0.179-0.048c-0.112,0.226-0.297,0.24-0.456,0.335
		L9.96,9.352c-0.196,0.067-0.24,0.36-0.387,0.411c0.009-0.044-0.125-0.022-0.161-0.039l-0.155,0.23
		c0.067-0.101,0.01-0.163-0.025-0.238C9.17,9.774,9.168,9.833,9.13,9.875c0.009-0.043,0.017-0.089-0.042-0.09l-0.12,0.29l0.07-0.038
		c-0.049,0.051-0.12,0.2-0.236,0.22l-0.03-0.107c0.122,0.008,0.103-0.084,0.093-0.164c-0.128,0.151-0.049,0.02-0.155,0.043
		c-0.096,0.1-0.059,0.223,0.016,0.249c-0.132,0.086-0.183,0.106-0.233,0.279l-0.06-0.103l-0.078,0.129L8.34,10.4
		c-0.254,0.146,0.102,0.176-0.162,0.351l-0.073-0.069c-0.058,0.113,0.04,0.257-0.115,0.241c-0.037,0.123,0.242-0.043,0.068,0.164
		c-0.073-0.002-0.172,0.045-0.243,0.087c-0.025,0.091,0.135,0.032,0.165-0.016c-0.247,0.323-0.454-0.058-0.57,0.327
		c0.131-0.055,0.089,0.209,0.262-0.031c-0.037,0.151-0.277,0.131-0.281,0.319l-0.042-0.159c-0.033,0.043-0.032,0.12-0.038,0.153
		l-0.071-0.07c0.028,0.254-0.269,0.226-0.15,0.449c-0.1-0.167-0.073,0.117-0.173,0.133c-0.012-0.195,0.261-0.346,0.14-0.461
		c-0.082,0.025-0.055,0.126-0.136,0.151c0.01-0.052,0.016-0.135,0-0.17c-0.215,0.135-0.141,0.359-0.188,0.496l0.119-0.223
		c0.12,0.113-0.043,0.106,0.02,0.239c-0.147,0.048-0.099,0.201-0.204,0.252l0.021-0.053c-0.158,0.22-0.428,0.132-0.498,0.22
		c-0.091,0.07-0.096,0.307-0.005,0.276c-0.013,0.096,0.144-0.338,0.245-0.089c-0.298-0.005-0.076,0.327-0.385,0.536
		c-0.005-0.176-0.161,0.006-0.156-0.144c-0.06,0.153-0.031,0.177-0.004,0.276l-0.092,0.005c0.052,0.271,0.11,0.12,0.042,0.444
		c-0.003-0.124-0.16,0.06-0.17-0.037c-0.046,0.075-0.068,0.163-0.057,0.242l-0.005-0.016c-0.118,0.303-0.213,0.191-0.276,0.488
		l0.057-0.006c-0.054,0.399-0.276,0.832-0.369,1.224l0.085-0.118c-0.039,0.033-0.025,0.278-0.137,0.369l0.013-0.092
		c-0.048-0.016-0.14,0.003-0.186,0.089l0.062,0.062l-0.072,0.017c-0.054,0.136,0.124-0.003,0.07,0.133
		c-0.24,0.008-0.266,0.573-0.474,0.644c0.131,0.142,0.096-0.265,0.212-0.113c-0.041,0.034-0.074,0.044-0.108,0.135L4.58,17.05
		c-0.156,0.415-0.276,0.559-0.346,0.951l-0.017-0.021c-0.071,0.129-0.071,0.208-0.002,0.289c-0.053,0.018-0.052-0.086-0.103-0.043
		c0.189,0.297-0.298,0.447-0.16,0.632c-0.192-0.059-0.456,0.23-0.578,0.066l-0.001,0.105c-0.121-0.058,0.073-0.321-0.049-0.408
		l0.212-0.295c-0.051,0-0.109-0.069-0.139-0.021c0.016-0.081,0.025-0.153-0.069-0.063c0.518-0.694,0.346-1.586,0.835-2.257
		c0.008-0.054-0.045-0.041-0.082-0.032c0.171-0.092-0.014-0.153-0.003-0.233l0.247-0.134c-0.021-0.101-0.097-0.058-0.128-0.077
		c0.11-0.392,0.408-0.689,0.429-1.034c0.11-0.064,0.122,0.083,0.207-0.028c-0.259,0.084,0.107-0.387-0.068-0.34
		c0.244-0.029,0.271-0.415,0.494-0.234c0.09-0.134-0.044-0.175-0.087-0.145c0.099-0.161,0.171-0.294,0.168-0.473
		c0.116-0.051,0.33-0.817,0.638-0.819c-0.182,0.017-0.053-0.046-0.038-0.169l-0.161,0.016L5.94,12.09
		c0.02-0.048,0.033-0.056,0.043-0.05c0.029-0.031,0.05,0.046,0.139-0.022c0.107-0.134,0.058-0.177,0.063-0.29l-0.029,0.01l0.059-0.1
		c0.054-0.067-0.082,0.313,0.134,0.126c-0.025-0.023-0.056-0.25,0.059-0.259c-0.091,0.111-0.013,0.147,0.047,0.128l0.125-0.156
		l-0.161-0.039c0.327-0.475,0.795-0.853,1.236-1.275c0.09,0.1,0.307-0.301,0.406-0.121l-0.028,0.003
		c-0.09,0.118,0.138,0.08,0.205-0.021C8.107,10.068,8.262,9.72,8.026,9.917l0.102-0.236C7.962,9.303,8.597,9.244,8.822,8.952
		L8.823,9.01c0.183-0.29,0.641-0.356,0.663-0.448l0.083,0.067c0.125-0.293,0.148-0.327,0.446-0.47
		c0.005,0.016-0.007,0.063,0.045,0.051c0.02-0.115,0.042-0.227,0.254-0.313l0.009,0.033l0.3-0.186
		c0.156,0.279,0.435-0.462,0.692-0.207c0.016-0.116,0.231-0.267,0.311-0.362l0.043,0.026c0.043-0.226,0.367-0.135,0.503-0.196
		c0.074-0.071,0.013-0.107-0.048-0.142c0.234,0.056,0.444-0.33,0.534-0.302c0.138-0.039,0.095,0.094,0.156,0.147
		C13,6.604,12.679,6.45,12.99,6.468c-0.026,0.026-0.08,0.059-0.05,0.068c0.112-0.015,0.414,0.264,0.487,0.159l-0.083-0.031
		c0.158-0.147,0.509,0.087,0.473-0.131L13.77,6.444c0.357,0.024,0.125-0.077,0.488-0.047v0.016c0.14-0.052,0.248,0.051,0.281-0.12
		l-0.056-0.011c0.176-0.053,0.196-0.044,0.381-0.078c0.017-0.02,0.101-0.064,0.134-0.038c-0.021-0.132,0.414-0.157,0.495-0.168
		c-0.142,0.053-0.062,0.093-0.01,0.138c0.065-0.128,0.125-0.152,0.254-0.101c-0.009-0.162-0.019-0.363,0.223-0.398
		c-0.035,0.028-0.09,0.046-0.061,0.078c0.03,0.033,0.08-0.008,0.098-0.023c0.028,0.032-0.044,0.063-0.009,0.118
		c0.14-0.172,0.279-0.037,0.507-0.114c-0.069,0.057,0,0.082,0.034,0.137c-0.003-0.188,0.338,0.134,0.222-0.101
		c0.472,0.108,1.17-0.106,1.353,0.057c0.049,0.07,0.174-0.039,0.253-0.039l-0.009,0.083c0.223-0.141,0.173-0.049,0.438-0.192
		c-0.11,0.094-0.065,0.143,0.043,0.224L19.013,5.7l0.032,0.127c0.074-0.047,0.157-0.023,0.238,0c-0.041,0-0.019,0.011-0.017,0.034
		c0.046-0.174,0.37-0.143,0.426-0.226c0.069,0.175,0.22-0.035,0.268,0.128l0.103-0.057c-0.031-0.076-0.04-0.163,0.031-0.122
		l0.017-0.004l0.024,0.103l0.202-0.015l-0.07-0.063l0.084,0.065l0.027,0.003l-0.017,0.003c0.042,0.032,0.087,0.05,0.156,0.027
		c0.239,0.193,0.604-0.12,0.859,0.134c-0.039-0.028-0.098-0.048-0.119-0.013c0.238,0.027,0.45,0.206,0.613,0.153l0.005-0.092
		c0.185-0.016,0.326-0.024,0.466,0.005l0.03-0.103c0.198,0.065,0.666,0.038,0.737,0.279c0.071-0.068,0.271,0.1,0.393,0.105
		l0.005,0.086c0.143,0.068,0.241,0.065,0.335,0.066c0.252,0.247,0.578,0.163,0.838,0.247l-0.005,0.026l0.277,0.039
		C24.86,6.679,25.02,6.609,25.09,6.659c0.094-0.005,0.22,0.068,0.297,0.156l0.163,0.07c-0.201-0.022-0.027,0.114-0.051,0.207
		l0.129-0.029c0.025,0.058-0.093,0.041-0.024,0.091c0.087-0.019,0.29,0.066,0.392,0.002l-0.043-0.086l-0.001-0.002l-0.007-0.008
		l0.008,0.007l0.043-0.024c0.122,0.072,0.09,0.017,0.102-0.023c0.091,0.193,0.211,0.136,0.256,0.339
		c-0.076-0.239,0.337,0.133,0.316-0.075c0.05,0.181,0.072,0.038,0.091,0.181c-0.137-0.099-0.346-0.035-0.493-0.025l0.086,0.129
		c-0.146,0.124-0.247-0.165-0.34-0.142c0.063-0.018,0.156,0.063,0.145,0.097l0.017-0.128c-0.152-0.119-0.328-0.08-0.473-0.071
		c0.099,0.086-0.168,0.016-0.118,0.134l0.098,0.022c0.022,0.058-0.08,0.061-0.144,0.074c-0.25-0.201-0.8-0.335-0.867-0.47
		c0.048,0.053,0.163,0.07,0.227,0.056l-0.116-0.103c0.112,0.039,0.158,0.182,0.334,0.204c0-0.086,0.156-0.142,0.071-0.298
		c-0.271-0.238-0.322,0.082-0.694-0.067c-0.043,0.015,0.124-0.101-0.098-0.119c-0.286,0.005-0.527,0.13-0.578,0.299
		c0.123-0.019,0.37-0.057,0.364,0.073c-0.123,0.021-0.315-0.003-0.35,0.076c-0.067-0.172,0.214,0.014,0.106-0.145
		c-0.077-0.018-0.123,0.02-0.165,0.034c0.068-0.045-0.038-0.118-0.05-0.157c-0.246-0.069-0.369-0.171-0.628-0.257l-0.01-0.112
		c-0.141,0.003-0.374,0.169-0.347,0.271c-0.15-0.035-0.142-0.105-0.279-0.102c0.174,0.187-0.036-0.032-0.086,0.1
		c-0.135-0.018-0.031-0.081-0.083-0.124c-0.026,0.011-0.089,0.049-0.101,0.086c-0.058-0.118,0.219-0.251,0.149-0.389
		c-0.051-0.087-0.315-0.274-0.335-0.288c-0.089,0.108-0.161,0.599-0.1,0.771c-0.025,0.08-0.106-0.106-0.163-0.124
		c-0.144-0.159-0.274,0.063-0.403-0.011L21.454,6.7c-0.018-0.038-0.23-0.026-0.27,0.016c0.001-0.047,0.144-0.221,0.09-0.286
		c-0.253-0.065-0.527,0.154-0.529,0.296l0.403-0.085c-0.004,0.118-0.288,0.075-0.291,0.215L20.511,6.76
		c0.045,0.004,0.185-0.009,0.139-0.08c-0.15-0.019-0.075-0.033-0.17-0.104c0.19-0.121,0.564-0.448,0.711-0.607l-0.2,0.047
		l-0.039-0.075c-0.261,0.053-0.532,0.475-0.606,0.585c-0.134-0.051-0.062-0.293-0.022-0.336c-0.273-0.062-0.305,0.332-0.574,0.278
		l0.099,0.06c-0.066,0.02-0.297-0.038-0.275,0.009c-0.05-0.069-0.09-0.227-0.026-0.267l-0.259,0.227
		c0.038-0.024,0.024-0.225,0.042-0.261c-0.1-0.011-0.178,0.227-0.118,0.261c-0.184-0.151-0.14-0.071-0.292-0.246
		c-0.056,0.012,0,0.213,0.042,0.236c-0.129,0.049-0.202,0.021-0.262-0.003c0.211-0.079,0.065-0.448,0.106-0.599l-0.461,0.582
		c0.017-0.036,0.051-0.227,0.048-0.248c-0.04,0.164-0.554,0.186-0.807,0.205l0.038-0.004c0.049-0.066-0.174-0.097-0.258-0.026
		c0.011-0.037,0.034-0.027,0.071-0.033c-0.179-0.118-0.2,0.29-0.383,0.148c0.157,0.002,0.183-0.071,0.168-0.142
		c-0.122,0.076-0.425,0.035-0.343,0.237c-0.084-0.037-0.157-0.003-0.161-0.11l-0.299,0.153c0.023-0.023,0.034-0.086-0.059-0.092
		c0.177,0.012,0.325-0.198,0.435-0.07c-0.009-0.129-0.085-0.192-0.01-0.309c-0.34,0.093-0.5,0.33-0.688,0.498l-0.308-0.038
		L15.79,6.698l-0.077-0.135c-0.031,0.041-0.048,0.076-0.058,0.064l0.006-0.059l-0.068,0.052c-0.024-0.074,0.012-0.174,0.052-0.267
		l0.098,0.062c0.045-0.087,0.076-0.171-0.017-0.202L15.69,6.255c0.028-0.065,0.043-0.115,0.013-0.13l-0.219,0.122l0.131,0.084
		c-0.125,0.129-0.262,0.282-0.118,0.352l-0.188-0.048c-0.17,0.191-0.141,0.154-0.358,0.316c-0.025-0.046,0.03-0.104-0.023-0.132
		c-0.136,0.202-0.481-0.09-0.484,0.061c-0.134,0.068-0.026,0.138-0.104,0.199l-0.028-0.047l-0.078,0.126
		c-0.055-0.025,0.078-0.092-0.056-0.109c-0.185,0.124-0.277,0.241-0.46,0.248c-0.227,0.112,0.167,0.164-0.036,0.218
		c-0.057-0.071-0.118-0.161-0.247-0.126c-0.044,0.082-0.012,0.143-0.11,0.221l-0.04-0.128c-0.1,0.044-0.173,0.098-0.211,0.003
		c-0.064,0.086-0.125,0.099-0.177,0.095c-0.128,0.124,0.215,0.209,0.268,0.244c-0.187-0.037-0.269,0.057-0.418-0.059l0.123-0.084
		c-0.355-0.044-0.199,0.276-0.449,0.066c0.105-0.026,0.197-0.138,0.109-0.183l-0.118,0.117C12.38,7.655,12.485,7.628,12.4,7.614
		c-0.029,0.043-0.086,0.138-0.105,0.193l-0.001-0.008l-0.235,0.15c0.048-0.02,0.039-0.071-0.01-0.051l-0.129,0.151
		c0.033-0.057-0.034-0.066-0.117-0.045c-0.227,0.078-0.025,0.357-0.248,0.324l0.046-0.039l-0.109-0.006
		c0.119,0.259-0.469,0.289-0.342,0.542c-0.172-0.036-0.045-0.053,0.037-0.251l-0.165-0.002C11.066,8.536,11.12,8.531,11.16,8.477z"
		/>
	<path class="st3" d="M15.621,6.672l-0.028-0.051C15.581,6.642,15.585,6.661,15.621,6.672z"/>
	<polygon class="st3" points="9.965,9.35 9.96,9.352 9.965,9.371 	"/>
	<path class="st3" d="M22.25,6.86l-0.064-0.062C22.179,6.821,22.193,6.845,22.25,6.86z"/>
	<path class="st3" d="M26.471,7.175L26.34,7.151c0.061,0.02,0.072,0.048,0.096,0.074C26.441,7.202,26.433,7.163,26.471,7.175z"/>
	<path class="st3" d="M27.219,8.203l0.057,0.016l0.017-0.044C27.223,8.138,27.157,8.148,27.219,8.203z"/>
	<path class="st3" d="M26.448,7.529c-0.024,0.08,0.062,0.084,0.151,0.103l-0.015-0.006C26.658,7.529,26.553,7.529,26.448,7.529z"/>
	<path class="st3" d="M26.619,7.637l0.079,0.029C26.726,7.626,26.669,7.645,26.619,7.637z"/>
	<path class="st3" d="M25.671,6.978c0.032,0.038,0.064-0.09,0.074-0.049C25.829,6.845,25.432,6.944,25.671,6.978z"/>
	<polygon class="st3" points="26.402,7.81 26.414,7.703 26.335,7.762 	"/>
	<path class="st3" d="M25.783,7.479l0.121,0.08l0.049-0.018C25.873,7.503,25.792,7.448,25.783,7.479z"/>
	<path class="st3" d="M25.953,7.541l0.113,0.026L25.953,7.541z"/>
	<polygon class="st3" points="26.21,7.767 26.18,7.733 26.091,7.688 	"/>
	<path class="st3" d="M24.365,6.918l-0.159-0.012c-0.026,0.029,0.007,0.062,0.066,0.063C24.317,6.955,24.376,6.957,24.365,6.918z"/>
	<polygon class="st3" points="24.714,7.337 24.677,7.235 24.63,7.356 	"/>
	<path class="st3" d="M24.282,7.223c-0.026,0.031-0.244,0.042-0.055,0.084C24.251,7.276,24.408,7.289,24.282,7.223z"/>
	<polygon class="st3" points="22.092,6.475 22.131,6.481 22.168,6.27 	"/>
	<path class="st3" d="M20.025,6.679c0.173,0.057,0.055-0.132,0.208-0.048c0.046-0.043-0.125-0.072-0.079-0.109
		C20.042,6.565,19.988,6.538,20.025,6.679z"/>
	<path class="st3" d="M20.155,6.522l0.058-0.023L20.155,6.522z"/>
	<polygon class="st3" points="3.164,18.821 3.094,18.931 3.182,18.867 	"/>
	<path class="st3" d="M3.267,19.074l-0.14,0.004l0.103,0.092C3.232,19.141,3.232,19.089,3.267,19.074z"/>
	<path class="st3" d="M13.284,7.724l-0.002-0.035c-0.03-0.026-0.055-0.019-0.106-0.005L13.284,7.724z"/>
	<polygon class="st3" points="11.854,8.237 11.878,8.226 11.78,8.142 	"/>
	<path class="st3" d="M10.816,8.982l0.135-0.092C10.865,8.963,10.722,8.861,10.816,8.982z"/>
	<path class="st2" d="M10.933,10.108c-0.05-0.177-0.104-0.353-0.138-0.529l-8.362,1.474c0.049,0.174,0.144,0.339,0.219,0.515
		L10.933,10.108z"/>
	<path class="st2" d="M15.953,7.476c0.058-0.138,0.108-0.272,0.156-0.411l-6.066-1.896C10.018,5.316,9.991,5.46,9.96,5.605
		L15.953,7.476z"/>
	<path class="st2" d="M21.034,7.094c0.068-0.11,0.133-0.219,0.197-0.326l-3.902-3.431c-0.078,0.098-0.153,0.194-0.228,0.295
		L21.034,7.094z"/>
	<path class="st2" d="M24.86,8.479c0.085-0.054,0.172-0.098,0.263-0.137l-1.299-3.448c-0.089,0.044-0.179,0.088-0.264,0.132
		L24.86,8.479z"/>
	<path class="st1" d="M27.78,7.654l-0.336,3.026c0.076,0,0.151,0,0.227,0l0.335-3.027C27.931,7.657,27.855,7.662,27.78,7.654z"/>
	<path class="st4" d="M14.258,11.524l-1.478,4.817c1.728,0.335,3.356,0.672,4.757,1.405v0.199h0.831v-0.216
		c1.568-0.673,3.391-0.954,5.558-1.388l-1.509-5.08l-4.016,3.71l-4.066-3.71L14.258,11.524z"/>
	<path class="st5" d="M14.335,11.229l-1.262,4.943c2.086,0.174,3.748,0.511,4.865,1.497c1.116-0.986,3.608-1.323,5.696-1.497
		l-1.263-4.943l-4.062,1.781l-3.945-1.719L14.335,11.229z"/>
	<path class="st4" d="M18.26,12.954l-0.343,4.616c-0.47-1.007-1.96-1.481-4.507-1.552l0.909-4.789
		C16.396,11.257,17.691,11.832,18.26,12.954z"/>
	<path class="st4" d="M13.545,15.911l0.867-4.568c1.991,0.042,3.196,0.604,3.735,1.634l-0.313,4.237
		C17.2,16.372,15.75,15.985,13.545,15.911z"/>
	<path class="st4" d="M23.161,15.911c-2.193,0.075-4.253,0.501-5.043,1.33l0.322-4.224c0.539-1.037,1.855-1.629,3.856-1.674
		L23.161,15.911z"/>
	<path class="st4" d="M18.33,12.986l-0.353,4.648c0.47-1.006,2.772-1.545,5.318-1.616l-0.909-4.789
		C20.308,11.257,18.899,11.863,18.33,12.986z"/>
	<path class="st4" d="M13.545,15.911l0.867-4.568c1.991,0.042,3.196,0.604,3.735,1.634l-0.313,4.237
		C17.2,16.372,15.75,15.985,13.545,15.911z"/>
	<path class="st4" d="M23.161,15.911c-2.193,0.075-4.253,0.501-5.043,1.33l0.322-4.224c0.539-1.037,1.855-1.629,3.856-1.674
		L23.161,15.911z"/>
	<path class="st5" d="M13.887,15.345l0.526-4.002c1.991,0.042,3.196,0.604,3.735,1.634l-0.313,4.237
		C17.2,16.372,16.09,15.421,13.887,15.345z"/>
	<path class="st6" d="M17.938,17.221l0.314-4.236l0.002-0.031l-0.014-0.026c-0.572-1.095-1.824-1.648-3.826-1.69l-0.094-0.001
		l-0.012,0.092l-0.525,4.002l-0.014,0.114l0.114,0.004c1.723,0.059,2.987,0.657,3.868,1.827l0.167,0.224L17.938,17.221z
		 M13.99,15.359l0.525-4.003l-0.106,0.09c1.92,0.042,3.111,0.557,3.646,1.58l-0.011-0.057l-0.314,4.237l0.187-0.055
		c-0.92-1.226-2.237-1.851-4.027-1.911L13.99,15.359z"/>
	<path class="st5" d="M22.62,15.372c-2.195,0.076-3.712,1.04-4.502,1.868l0.322-4.224c0.539-1.037,1.855-1.629,3.856-1.674
		L22.62,15.372z"/>
	<path class="st6" d="M22.292,11.238c-2.017,0.045-3.381,0.644-3.947,1.731l-0.009,0.018l-0.001,0.021l-0.322,4.226l-0.021,0.292
		l0.202-0.213c0.496-0.524,1.925-1.751,4.43-1.836l0.108-0.004l-0.009-0.11L22.4,11.334l-0.008-0.098L22.292,11.238z M22.615,15.269
		c-2.581,0.087-4.059,1.358-4.573,1.9l0.179,0.081l0.323-4.225l-0.012,0.039c0.528-1.015,1.83-1.574,3.766-1.617l-0.106-0.096
		l0.324,4.028L22.615,15.269z"/>
	<polygon class="st4" points="24.341,11.341 24.078,11.361 24.597,12.343 24.761,12.137 	"/>
	<polygon class="st7" points="23.985,11.401 23.869,11.44 23.749,11.481 23.627,11.521 23.505,11.565 23.377,11.616 23.252,11.667 
		23.125,11.719 22.997,11.773 22.87,11.834 22.742,11.896 22.612,11.959 22.489,12.031 22.364,12.102 22.245,12.178 22.124,12.258 
		22.01,12.338 22.648,13.553 22.774,13.5 22.902,13.441 23.027,13.382 23.15,13.32 23.276,13.257 23.4,13.188 23.52,13.118 
		23.64,13.047 23.755,12.976 23.871,12.899 23.981,12.824 24.095,12.745 24.204,12.664 24.307,12.585 24.413,12.498 24.514,12.417 	
		"/>
	<polygon class="st7" points="24.531,12.438 24.538,12.407 24.551,12.424 24.531,12.438 24.496,12.398 24.488,12.431 23.958,11.415 
		24.008,11.391 24.538,12.407 	"/>
	<polygon class="st7" points="22.622,13.564 22.661,13.579 22.634,13.589 22.622,13.564 22.672,13.54 22.636,13.528 22.764,13.474 
		22.89,13.415 23.017,13.357 23.141,13.293 23.266,13.231 23.385,13.162 23.503,13.097 23.623,13.025 23.74,12.952 23.854,12.876 
		23.966,12.799 24.078,12.724 24.188,12.64 24.292,12.561 24.393,12.479 24.496,12.398 24.531,12.438 24.43,12.521 24.327,12.608 
		24.22,12.688 24.11,12.771 23.997,12.848 23.888,12.925 23.773,13 23.658,13.069 23.536,13.143 23.414,13.217 23.289,13.282 
		23.165,13.345 23.039,13.407 22.913,13.466 22.787,13.525 22.661,13.579 	"/>
	<polygon class="st7" points="21.994,12.314 21.986,12.348 21.976,12.33 21.994,12.314 22.028,12.36 22.038,12.326 22.672,13.54 
		22.622,13.564 21.986,12.348 	"/>
	<polygon class="st7" points="24.008,11.391 23.978,11.375 23.994,11.37 24.008,11.391 23.958,11.415 23.99,11.431 23.878,11.467 
		23.76,11.509 23.638,11.551 23.514,11.593 23.391,11.642 23.264,11.691 23.136,11.745 23.007,11.797 22.879,11.859 22.751,11.92 
		22.624,11.985 22.504,12.06 22.38,12.125 22.262,12.201 22.141,12.281 22.028,12.36 21.994,12.314 22.108,12.234 22.23,12.155 
		22.348,12.08 22.472,12.005 22.6,11.936 22.73,11.872 22.858,11.808 22.985,11.748 23.113,11.694 23.241,11.642 23.365,11.591 
		23.496,11.537 23.618,11.493 23.739,11.451 23.858,11.411 23.978,11.375 	"/>
	<polygon class="st5" points="21.949,12.407 21.8,12.577 22.346,13.591 22.562,13.566 	"/>
	<polygon class="st7" points="22.56,13.597 22.595,13.55 22.615,13.592 22.56,13.597 22.565,13.538 22.532,13.584 21.916,12.422 
		21.98,12.39 22.595,13.55 	"/>
	<polygon class="st7" points="22.316,13.607 22.344,13.621 22.323,13.623 22.316,13.607 22.377,13.574 22.35,13.559 22.565,13.538 
		22.56,13.597 22.344,13.621 	"/>
	<polygon class="st7" points="21.776,12.559 21.769,12.594 21.761,12.577 21.776,12.559 21.825,12.59 21.831,12.559 22.377,13.574 
		22.316,13.607 21.769,12.594 	"/>
	<polygon class="st7" points="21.98,12.39 21.924,12.392 21.961,12.348 21.98,12.39 21.916,12.422 21.974,12.422 21.825,12.59 
		21.776,12.559 21.924,12.392 	"/>
	<polygon class="st5" points="24.168,11.767 23.805,11.867 23.829,12.054 23.284,12.338 23.139,12.276 22.983,12.358 23.195,12.758 
		23.337,12.68 23.377,12.517 23.923,12.233 24.091,12.347 24.334,12.082 	"/>
	<polygon class="st7" points="18.973,13.939 19.146,13.84 19.473,13.924 21.714,12.664 22.216,13.615 19.905,14.752 19.792,15.068 
		19.596,15.125 	"/>
	<polygon class="st7" points="19.009,14.205 18.87,14.358 19.199,14.982 19.404,14.955 	"/>
	<polygon class="st7" points="19.407,14.983 19.43,14.944 19.45,14.976 19.407,14.983 19.401,14.926 19.38,14.965 18.983,14.215 
		19.035,14.193 19.43,14.944 	"/>
	<polygon class="st7" points="19.173,14.994 19.2,15.012 19.184,15.015 19.173,14.994 19.224,14.971 19.197,14.954 19.401,14.926 
		19.407,14.983 19.2,15.012 	"/>
	<polygon class="st7" points="18.846,14.339 18.843,14.371 18.834,14.355 18.846,14.339 18.891,14.378 18.893,14.346 19.224,14.971 
		19.173,14.994 18.843,14.371 	"/>
	<polygon class="st7" points="19.035,14.193 18.985,14.185 19.014,14.157 19.035,14.193 18.983,14.215 19.031,14.223 18.891,14.378 
		18.846,14.339 18.985,14.185 	"/>
	<polygon class="st5" points="18.781,14.422 17.704,14.646 17.717,15.1 17.101,15.567 17.232,15.813 17.937,15.545 18.365,15.804 
		19.095,15.021 	"/>
	<polygon class="st4" points="19.117,15.038 19.12,15.009 19.128,15.024 19.117,15.038 19.071,15.002 19.068,15.032 18.753,14.434 
		18.803,14.408 19.12,15.009 	"/>
	<polygon class="st4" points="18.347,15.828 18.387,15.822 18.369,15.842 18.347,15.828 18.379,15.779 18.341,15.786 19.071,15.002 
		19.117,15.038 18.387,15.822 	"/>
	<polygon class="st4" points="17.946,15.574 17.926,15.518 17.938,15.515 17.952,15.521 17.926,15.518 17.952,15.521 18.379,15.779 
		18.347,15.828 17.921,15.569 	"/>
	<polygon class="st4" points="17.206,15.826 17.243,15.842 17.219,15.85 17.206,15.826 17.258,15.802 17.223,15.786 17.926,15.518 
		17.946,15.574 17.243,15.842 	"/>
	<polygon class="st4" points="17.086,15.542 17.077,15.579 17.067,15.558 17.086,15.542 17.118,15.591 17.125,15.555 17.258,15.802 
		17.206,15.826 17.077,15.579 	"/>
	<polygon class="st4" points="17.688,15.104 17.746,15.099 17.746,15.112 17.735,15.122 17.746,15.099 17.735,15.122 17.118,15.591 
		17.086,15.542 17.701,15.076 	"/>
	<polygon class="st4" points="17.696,14.622 17.675,14.65 17.675,14.626 17.696,14.622 17.711,14.673 17.732,14.646 17.746,15.099 
		17.688,15.104 17.675,14.65 	"/>
	<polygon class="st4" points="18.803,14.408 18.772,14.395 18.795,14.39 18.803,14.408 18.753,14.434 18.786,14.449 17.711,14.673 
		17.696,14.622 18.772,14.395 	"/>
	<polygon class="st4" points="18.029,15.019 18.038,15.029 18.05,15.037 18.067,15.045 18.086,15.045 18.11,15.045 18.132,15.04 
		18.154,15.029 18.18,15.021 18.219,14.99 18.253,14.959 18.267,14.926 18.264,14.897 18.253,14.884 18.242,14.875 18.224,14.872 
		18.204,14.869 18.182,14.872 18.163,14.876 18.14,14.883 18.113,14.894 18.074,14.921 18.043,14.954 18.026,14.99 	"/>
	<polygon class="st4" points="18.219,15.347 18.228,15.361 18.24,15.367 18.255,15.373 18.276,15.376 18.295,15.373 18.318,15.368 
		18.343,15.359 18.367,15.347 18.41,15.321 18.439,15.288 18.455,15.256 18.452,15.228 18.443,15.214 18.431,15.205 18.413,15.2 
		18.395,15.2 18.376,15.203 18.347,15.205 18.326,15.21 18.301,15.224 18.259,15.25 18.229,15.283 18.213,15.318 	"/>
	<polygon class="st4" points="18.205,15.141 18.217,15.166 17.179,15.713 17.155,15.663 18.194,15.117 	"/>
	<path class="st8" d="M18.244,23.031l0.035,0.488c-0.167,0.174-0.352,0.323-0.556,0.446c-0.203,0.127-0.427,0.227-0.671,0.304
		c-0.314,0.102-0.618,0.138-0.914,0.107c-0.295-0.029-0.564-0.126-0.8-0.286c-0.244-0.16-0.434-0.369-0.572-0.629
		c-0.139-0.26-0.22-0.56-0.248-0.9c-0.052-0.7,0.135-1.358,0.555-1.977c0.42-0.617,0.977-1.035,1.663-1.255
		c0.214-0.068,0.419-0.107,0.615-0.114c0.197-0.01,0.401,0.014,0.613,0.066l0.039,0.499c-0.215-0.094-0.421-0.144-0.621-0.15
		c-0.198-0.008-0.42,0.029-0.668,0.109c-0.538,0.172-0.978,0.519-1.318,1.035c-0.341,0.517-0.49,1.066-0.447,1.648
		c0.043,0.583,0.266,1.014,0.666,1.295c0.4,0.278,0.87,0.333,1.408,0.162c0.248-0.082,0.472-0.19,0.672-0.33
		C17.894,23.411,18.078,23.238,18.244,23.031z"/>
	<path class="st9" d="M22.188,22.029l0.038,0.486c-0.167,0.177-0.353,0.325-0.556,0.45c-0.204,0.124-0.428,0.226-0.672,0.302
		c-0.314,0.103-0.619,0.138-0.914,0.108c-0.295-0.032-0.56-0.127-0.799-0.286c-0.243-0.161-0.434-0.37-0.573-0.63
		c-0.138-0.259-0.22-0.561-0.245-0.9c-0.053-0.701,0.131-1.359,0.553-1.977c0.423-0.616,0.976-1.035,1.664-1.256
		c0.213-0.069,0.417-0.105,0.616-0.114c0.195-0.007,0.4,0.014,0.612,0.067l0.038,0.498c-0.213-0.092-0.419-0.142-0.618-0.149
		c-0.2-0.005-0.422,0.03-0.669,0.11c-0.538,0.171-0.979,0.516-1.319,1.034c-0.341,0.516-0.489,1.066-0.445,1.648
		c0.044,0.583,0.264,1.014,0.665,1.295c0.399,0.28,0.87,0.334,1.407,0.161c0.247-0.079,0.47-0.189,0.672-0.328
		C21.84,22.409,22.024,22.235,22.188,22.029z"/>
	<path class="st8" d="M26.342,21.61c0.189-0.221,0.328-0.45,0.414-0.69c0.085-0.242,0.112-0.483,0.088-0.727
		c-0.018-0.163-0.069-0.304-0.156-0.424c-0.087-0.12-0.221-0.235-0.403-0.341c-0.014-0.009-0.034-0.021-0.059-0.04
		c-0.481-0.286-0.742-0.612-0.782-0.98c-0.043-0.4,0.05-0.791,0.283-1.17c0.234-0.381,0.543-0.64,0.929-0.779
		c0.129-0.046,0.261-0.076,0.389-0.087c0.129-0.012,0.266-0.009,0.412,0.012l0.051,0.455c-0.12-0.046-0.247-0.071-0.373-0.074
		c-0.128,0-0.256,0.022-0.386,0.072c-0.274,0.097-0.494,0.277-0.655,0.536c-0.161,0.26-0.225,0.538-0.191,0.833
		c0.016,0.167,0.075,0.31,0.169,0.433c0.096,0.121,0.25,0.241,0.464,0.357c0.232,0.128,0.41,0.271,0.529,0.436
		c0.119,0.165,0.19,0.364,0.216,0.6c0.023,0.214,0.01,0.434-0.041,0.666c-0.049,0.226-0.136,0.456-0.261,0.683L26.342,21.61z"/>
	<path class="st8" d="M28.779,20.734c0.189-0.22,0.328-0.448,0.415-0.691c0.084-0.24,0.114-0.483,0.088-0.725
		c-0.019-0.165-0.072-0.304-0.156-0.425c-0.086-0.12-0.22-0.235-0.401-0.342c-0.013-0.008-0.034-0.022-0.061-0.041
		c-0.482-0.285-0.743-0.61-0.782-0.979c-0.044-0.4,0.05-0.79,0.284-1.169s0.542-0.64,0.931-0.781
		c0.126-0.044,0.258-0.075,0.388-0.086c0.127-0.012,0.266-0.008,0.408,0.011l0.05,0.455c-0.118-0.047-0.243-0.07-0.371-0.071
		c-0.128-0.002-0.257,0.021-0.384,0.067c-0.276,0.1-0.495,0.279-0.657,0.539c-0.159,0.259-0.224,0.537-0.191,0.833
		c0.017,0.166,0.075,0.31,0.169,0.432c0.096,0.122,0.25,0.24,0.462,0.358c0.236,0.127,0.412,0.273,0.53,0.437
		c0.118,0.164,0.192,0.363,0.217,0.598c0.022,0.215,0.01,0.435-0.04,0.666c-0.05,0.227-0.139,0.457-0.259,0.685L28.779,20.734z"/>
	<path class="st10" d="M21.899,19.966L9.114,23.774l-0.032,0.399l12.786-3.807c-0.007,0.581,0.175,1.048,0.549,1.404
		c0.429,0.404,1.002,0.558,1.716,0.46c0.219-0.03,0.428-0.085,0.633-0.167c0.205-0.083,0.422-0.198,0.653-0.346l0.05-0.495
		c-0.227,0.185-0.442,0.328-0.651,0.425c-0.209,0.095-0.441,0.161-0.702,0.196c-0.523,0.072-0.955-0.041-1.291-0.339
		c-0.338-0.296-0.508-0.721-0.508-1.27l2.18-0.721l0.339-0.113l-0.655-1.994c-0.53,0.149-1,0.435-1.411,0.857
		C22.284,18.761,21.994,19.329,21.899,19.966z M24.372,19.15l-0.803,0.268l-1.209,0.397c0.128-0.551,0.391-1.02,0.792-1.408
		c0.242-0.233,0.505-0.41,0.786-0.528L24.372,19.15z"/>
	<path class="st10" d="M10.832,23.423c0.005-0.468,0.063-0.925,0.172-1.374c0.111-0.447,0.279-0.897,0.501-1.347
		c0.4,0.345,0.74,0.699,1.024,1.066c0.367,0.475,0.547,0.819,0.69,1.146l0.031,0.07c0.089,0.157,0.12,0.255,0.153,0.409l0.006,0.012
		c0.079,0.224,0.162,0.479,0.242,0.781c0.083,0.302,0.165,0.65,0.249,1.046l0.042,0.201l0.474-0.101
		c-0.007-0.058-0.016-0.118-0.027-0.178c-0.012-0.062-0.033-0.152-0.059-0.273c-0.239-1.129-0.596-2.081-1.069-2.854
		c-0.475-0.772-1.108-1.434-1.896-1.982c-0.499,0.82-0.805,1.685-0.926,2.584c-0.119,0.903-0.059,1.924,0.186,3.07
		c0.023,0.112,0.042,0.199,0.056,0.257c0.014,0.058,0.027,0.112,0.039,0.16l0.467-0.1c-0.087-0.415-0.158-0.793-0.215-1.135
		c-0.055-0.341-0.097-0.652-0.124-0.934"/>
	<polygon class="st11" points="15.07,27.439 16.103,27.104 16.048,26.937 15.214,27.208 15.046,26.694 15.818,26.442 15.765,26.276 
		14.991,26.527 14.839,26.054 15.667,25.786 15.613,25.619 14.585,25.952 	"/>
	<path class="st11" d="M16.19,26.491c-0.023-0.072-0.036-0.142-0.036-0.211c0-0.07,0.017-0.132,0.052-0.187
		c0.035-0.055,0.091-0.096,0.171-0.124c0.081-0.025,0.153-0.026,0.215-0.005c0.063,0.023,0.116,0.06,0.158,0.116
		c0.042,0.053,0.076,0.117,0.099,0.188c0.024,0.068,0.033,0.137,0.032,0.206c-0.002,0.068-0.021,0.13-0.058,0.186
		c-0.036,0.054-0.092,0.095-0.171,0.123c-0.077,0.023-0.146,0.023-0.207,0.002c-0.062-0.021-0.114-0.059-0.157-0.111
		C16.245,26.619,16.211,26.559,16.19,26.491z M16.711,25.262l-0.175,0.056l0.179,0.555l-0.003,0.002
		c-0.063-0.049-0.13-0.075-0.206-0.079c-0.073-0.005-0.139,0.004-0.196,0.023c-0.11,0.037-0.193,0.094-0.249,0.168
		c-0.056,0.072-0.089,0.158-0.098,0.254c-0.008,0.096,0.004,0.195,0.037,0.298c0.034,0.103,0.083,0.191,0.147,0.265
		c0.065,0.074,0.142,0.124,0.231,0.151c0.092,0.029,0.192,0.024,0.301-0.01c0.076-0.024,0.139-0.06,0.193-0.107
		c0.052-0.048,0.085-0.106,0.098-0.175l0.003-0.003l0.046,0.147l0.177-0.058L16.711,25.262z"/>
	<path class="st11" d="M17.934,25.318l-0.178,0.058l0.199,0.608c0.032,0.099,0.032,0.188,0,0.268
		c-0.034,0.078-0.103,0.137-0.21,0.173c-0.068,0.022-0.128,0.02-0.179-0.007c-0.051-0.026-0.087-0.073-0.11-0.138l-0.236-0.729
		l-0.177,0.058l0.23,0.707c0.036,0.119,0.093,0.205,0.171,0.258c0.078,0.053,0.185,0.059,0.327,0.016
		c0.077-0.026,0.14-0.063,0.189-0.114c0.05-0.053,0.082-0.117,0.097-0.196h0.006l0.054,0.17l0.167-0.055L17.934,25.318z"/>
	<path class="st11" d="M19.148,25.306c-0.055-0.123-0.137-0.201-0.241-0.233c-0.104-0.033-0.22-0.029-0.343,0.012
		c-0.113,0.039-0.199,0.095-0.258,0.171c-0.059,0.074-0.093,0.161-0.102,0.259c-0.008,0.101,0.004,0.204,0.04,0.313
		c0.053,0.163,0.138,0.28,0.256,0.354c0.118,0.071,0.26,0.082,0.425,0.032c0.136-0.045,0.233-0.118,0.288-0.217
		c0.058-0.097,0.074-0.217,0.053-0.355l-0.184,0.058c0.016,0.087,0.005,0.161-0.029,0.224c-0.035,0.061-0.096,0.108-0.181,0.136
		c-0.076,0.022-0.142,0.022-0.201,0c-0.059-0.021-0.107-0.059-0.149-0.112c-0.042-0.053-0.071-0.113-0.093-0.179
		c-0.024-0.075-0.036-0.146-0.036-0.217c0-0.07,0.018-0.133,0.053-0.188c0.036-0.056,0.099-0.097,0.182-0.126
		c0.072-0.023,0.139-0.023,0.196-0.001c0.056,0.023,0.104,0.065,0.14,0.129L19.148,25.306z"/>
	<path class="st11" d="M20.422,25.543c-0.009,0.008-0.017,0.014-0.027,0.019c-0.008,0.004-0.016,0.008-0.022,0.011
		c-0.028,0.008-0.046,0.004-0.058-0.014c-0.014-0.018-0.025-0.048-0.038-0.089l-0.179-0.555c-0.03-0.081-0.07-0.138-0.123-0.168
		c-0.054-0.03-0.113-0.042-0.18-0.037c-0.066,0.005-0.132,0.019-0.198,0.04c-0.123,0.039-0.219,0.1-0.287,0.184
		c-0.069,0.083-0.087,0.191-0.052,0.326l0.177-0.058c-0.021-0.08-0.009-0.143,0.029-0.188c0.038-0.046,0.098-0.08,0.174-0.104
		c0.059-0.021,0.116-0.029,0.172-0.021c0.057,0.007,0.099,0.048,0.126,0.123c0.014,0.044,0.007,0.08-0.022,0.109
		c-0.026,0.028-0.066,0.055-0.117,0.08c-0.052,0.025-0.11,0.055-0.172,0.087c-0.059,0.031-0.113,0.064-0.161,0.104
		c-0.048,0.038-0.083,0.085-0.103,0.141c-0.021,0.056-0.017,0.124,0.007,0.204c0.038,0.106,0.098,0.17,0.181,0.197
		c0.083,0.026,0.173,0.023,0.273-0.012c0.077-0.023,0.142-0.06,0.197-0.108c0.055-0.046,0.098-0.106,0.129-0.182
		c0.019,0.06,0.047,0.096,0.083,0.115c0.035,0.018,0.076,0.019,0.122,0.004c0.028-0.009,0.052-0.02,0.07-0.032
		c0.019-0.011,0.034-0.025,0.048-0.039L20.422,25.543z M20.059,25.403c0.01,0.034,0.012,0.073,0.001,0.118
		c-0.011,0.044-0.036,0.088-0.076,0.129c-0.04,0.042-0.099,0.077-0.175,0.104c-0.056,0.018-0.108,0.022-0.157,0.011
		c-0.048-0.011-0.083-0.045-0.104-0.101c-0.018-0.067-0.013-0.118,0.019-0.161c0.032-0.042,0.078-0.076,0.134-0.104
		c0.059-0.029,0.116-0.057,0.171-0.084c0.057-0.026,0.098-0.058,0.127-0.093L20.059,25.403z"/>
	<path class="st11" d="M20.347,24.177l-0.175,0.058l0.104,0.321l-0.185,0.061l0.053,0.157l0.184-0.061l0.222,0.686
		c0.031,0.096,0.07,0.154,0.122,0.171c0.051,0.019,0.12,0.011,0.209-0.021l0.136-0.044l-0.051-0.156l-0.081,0.026
		c-0.054,0.019-0.092,0.024-0.114,0.018c-0.023-0.006-0.038-0.03-0.051-0.07l-0.217-0.668l0.214-0.072l-0.05-0.155l-0.215,0.07
		L20.347,24.177z"/>
	<path class="st11" d="M20.84,23.92l-0.176,0.058l0.07,0.216l0.176-0.059L20.84,23.92z M21.145,25.465l0.177-0.058l-0.349-1.077
		l-0.177,0.059L21.145,25.465z"/>
	<path class="st11" d="M21.475,24.764c-0.041-0.133-0.041-0.245,0-0.334c0.04-0.091,0.107-0.153,0.203-0.183
		c0.095-0.032,0.185-0.023,0.271,0.027c0.086,0.05,0.15,0.141,0.197,0.271c0.04,0.132,0.04,0.244-0.001,0.333
		c-0.041,0.09-0.108,0.151-0.203,0.183c-0.096,0.03-0.186,0.019-0.273-0.028C21.585,24.984,21.519,24.894,21.475,24.764z
		 M21.288,24.825c0.034,0.106,0.086,0.195,0.152,0.267c0.066,0.071,0.147,0.12,0.241,0.143c0.094,0.025,0.198,0.019,0.313-0.017
		c0.114-0.038,0.2-0.095,0.261-0.17c0.062-0.074,0.097-0.16,0.11-0.257c0.013-0.098,0.003-0.2-0.032-0.306
		c-0.036-0.105-0.088-0.195-0.153-0.268c-0.068-0.071-0.147-0.119-0.242-0.144c-0.094-0.023-0.197-0.018-0.312,0.018
		c-0.114,0.038-0.201,0.095-0.262,0.169c-0.063,0.074-0.099,0.161-0.11,0.259C21.242,24.616,21.252,24.717,21.288,24.825z"/>
	<path class="st11" d="M22.638,24.979l0.177-0.058l-0.199-0.607c-0.031-0.099-0.031-0.188,0.001-0.267
		c0.032-0.08,0.103-0.139,0.209-0.174c0.068-0.023,0.127-0.02,0.18,0.006c0.05,0.026,0.086,0.074,0.109,0.139l0.237,0.729
		l0.178-0.056l-0.231-0.71c-0.036-0.118-0.093-0.203-0.17-0.256c-0.08-0.054-0.188-0.06-0.329-0.016
		c-0.076,0.025-0.139,0.064-0.188,0.114c-0.049,0.051-0.081,0.117-0.098,0.195l-0.002,0.002l-0.056-0.171l-0.166,0.054
		L22.638,24.979z"/>
	<polygon class="st11" points="24.247,24.458 24.434,24.396 24.047,23.203 24.052,23.202 25.216,24.142 25.434,24.073 24.95,22.586 
		24.763,22.646 25.155,23.851 25.15,23.853 23.975,22.901 23.766,22.97 	"/>
	<path class="st11" d="M25.566,23.32c-0.021-0.087-0.015-0.168,0.02-0.243c0.034-0.075,0.098-0.128,0.189-0.162
		c0.09-0.028,0.172-0.021,0.248,0.019c0.074,0.038,0.128,0.1,0.161,0.186L25.566,23.32z M26.277,23.42
		c0.006,0.075-0.008,0.139-0.045,0.188c-0.036,0.051-0.092,0.089-0.165,0.111c-0.115,0.035-0.212,0.028-0.288-0.021
		c-0.077-0.049-0.131-0.124-0.164-0.223l0.808-0.263c-0.032-0.1-0.079-0.19-0.14-0.272c-0.06-0.084-0.137-0.146-0.228-0.182
		c-0.092-0.04-0.198-0.04-0.321-0.003c-0.149,0.053-0.252,0.144-0.31,0.276c-0.061,0.134-0.064,0.282-0.014,0.448
		c0.06,0.167,0.149,0.288,0.266,0.364c0.119,0.076,0.263,0.087,0.435,0.035c0.123-0.041,0.213-0.104,0.273-0.193
		c0.06-0.089,0.083-0.195,0.07-0.323L26.277,23.42z"/>
	<path class="st11" d="M26.477,22.184l-0.176,0.06l0.104,0.321l-0.182,0.06l0.049,0.156l0.184-0.059l0.223,0.687
		c0.03,0.096,0.07,0.154,0.121,0.17c0.051,0.018,0.121,0.013,0.211-0.02l0.135-0.045l-0.05-0.154l-0.081,0.025
		c-0.054,0.018-0.091,0.025-0.114,0.018c-0.022-0.006-0.039-0.03-0.05-0.07l-0.219-0.67l0.216-0.07l-0.052-0.156l-0.214,0.07
		L26.477,22.184z"/>
	<polygon class="st11" points="28.326,21.942 28.143,22.001 28.187,22.96 28.184,22.962 27.672,22.154 27.478,22.217 27.547,23.168 
		27.544,23.17 27.014,22.368 26.818,22.431 27.514,23.397 27.705,23.333 27.643,22.407 27.648,22.406 28.145,23.19 28.332,23.13 	
		"/>
	<path class="st11" d="M28.721,22.409c-0.041-0.131-0.041-0.245,0-0.333c0.042-0.091,0.108-0.151,0.203-0.183
		c0.097-0.03,0.186-0.021,0.271,0.028c0.085,0.048,0.152,0.139,0.198,0.27c0.039,0.132,0.039,0.243,0,0.334
		c-0.041,0.089-0.11,0.149-0.204,0.181c-0.096,0.03-0.187,0.021-0.273-0.028C28.83,22.63,28.766,22.54,28.721,22.409z
		 M28.533,22.471c0.034,0.106,0.085,0.194,0.153,0.265c0.066,0.072,0.147,0.121,0.24,0.145c0.094,0.024,0.199,0.018,0.313-0.017
		c0.113-0.039,0.2-0.095,0.263-0.17c0.061-0.075,0.098-0.161,0.11-0.258c0.012-0.097,0.001-0.199-0.033-0.304
		c-0.034-0.107-0.086-0.197-0.152-0.268c-0.067-0.073-0.149-0.12-0.243-0.145c-0.093-0.024-0.196-0.019-0.312,0.017
		c-0.113,0.039-0.201,0.095-0.263,0.169c-0.06,0.076-0.098,0.161-0.11,0.258C28.488,22.263,28.498,22.365,28.533,22.471z"/>
	<path class="st11" d="M29.878,22.628l0.177-0.059l-0.157-0.477c-0.044-0.138-0.052-0.255-0.016-0.349
		c0.037-0.095,0.123-0.168,0.265-0.214l-0.061-0.187c-0.099,0.032-0.173,0.079-0.221,0.142c-0.047,0.062-0.08,0.142-0.093,0.238
		l-0.004,0.002l-0.074-0.226l-0.166,0.055L29.878,22.628z"/>
	<polygon class="st11" points="30.511,22.422 30.687,22.365 30.555,21.955 30.671,21.749 31.224,22.189 31.449,22.117 
		30.767,21.581 31.066,21.051 30.83,21.128 30.491,21.758 30.205,20.878 30.027,20.934 	"/>
	<path class="st7" d="M48.264,8.118l-1.687,4.749h3.355L48.3,8.118H48.264z M41.936,17.87l4.913-12.944h2.92l4.84,12.944h-2.955
		l-0.979-2.883h-4.841l-1.016,2.883H41.936z"/>
	<path class="st7" d="M66.411,9.278H63.65c-0.084-0.641-0.4-1.18-0.944-1.613c-0.546-0.436-1.176-0.653-1.89-0.653
		c-1.199,0-2.107,0.459-2.725,1.377c-0.532,0.786-0.798,1.808-0.798,3.064c0,1.21,0.266,2.2,0.798,2.973
		c0.629,0.906,1.538,1.361,2.725,1.361c0.848,0,1.531-0.274,2.053-0.816c0.485-0.507,0.781-1.203,0.891-2.086h2.76
		c-0.144,1.608-0.733,2.893-1.767,3.854c-1.034,0.96-2.342,1.44-3.926,1.44c-1.945,0-3.504-0.651-4.676-1.957
		c-1.125-1.246-1.686-2.834-1.686-4.768c0-1.981,0.561-3.602,1.686-4.858c1.16-1.318,2.719-1.977,4.676-1.977
		c1.477,0,2.72,0.406,3.736,1.215C65.625,6.68,66.242,7.827,66.411,9.278z"/>
	<path class="st7" d="M79.138,9.278h-2.762c-0.084-0.641-0.399-1.18-0.944-1.613c-0.546-0.436-1.174-0.653-1.89-0.653
		c-1.199,0-2.106,0.459-2.725,1.377c-0.533,0.786-0.799,1.808-0.799,3.064c0,1.21,0.266,2.2,0.799,2.973
		c0.63,0.906,1.539,1.361,2.725,1.361c0.848,0,1.533-0.274,2.054-0.816c0.483-0.507,0.78-1.203,0.889-2.086h2.76
		c-0.145,1.608-0.734,2.893-1.768,3.854c-1.033,0.96-2.341,1.44-3.923,1.44c-1.947,0-3.505-0.651-4.678-1.957
		c-1.124-1.246-1.688-2.834-1.688-4.768c0-1.981,0.563-3.602,1.688-4.858c1.16-1.318,2.719-1.977,4.678-1.977
		c1.474,0,2.717,0.406,3.733,1.215C78.352,6.68,78.968,7.827,79.138,9.278z"/>
	<polygon class="st7" points="80.477,17.87 80.477,4.926 90.159,4.926 90.159,7.321 83.306,7.321 83.306,10.092 89.597,10.092 
		89.597,12.304 83.306,12.304 83.306,15.477 90.304,15.477 90.304,17.87 	"/>
	<path class="st7" d="M90.698,13.573h2.755c0,0.81,0.29,1.426,0.87,1.85c0.496,0.363,1.16,0.543,1.993,0.543
		c0.654,0,1.197-0.103,1.632-0.309c0.594-0.277,0.89-0.713,0.89-1.304c0-0.738-0.665-1.293-1.995-1.669
		c-2.297-0.651-3.535-1.026-3.716-1.122c-1.328-0.642-1.993-1.651-1.993-3.027c0-1.246,0.512-2.23,1.54-2.956
		c0.919-0.64,2.02-0.96,3.3-0.96c1.487,0,2.689,0.32,3.608,0.96c1.052,0.738,1.577,1.808,1.577,3.208h-2.756
		c-0.071-1.305-0.925-1.956-2.555-1.956c-0.519,0-0.962,0.108-1.324,0.326c-0.422,0.265-0.634,0.646-0.634,1.142
		c0,0.472,0.235,0.815,0.707,1.032c0.362,0.169,1.415,0.479,3.154,0.925c1.016,0.255,1.771,0.544,2.267,0.871
		c1.051,0.676,1.578,1.644,1.578,2.9c0,1.232-0.461,2.223-1.378,2.973c-0.966,0.786-2.303,1.177-4.006,1.177
		c-1.559,0-2.84-0.369-3.844-1.106C91.242,16.238,90.686,15.073,90.698,13.573z"/>
	<path class="st7" d="M101.775,13.573h2.756c0,0.81,0.292,1.426,0.87,1.85c0.497,0.363,1.161,0.543,1.995,0.543
		c0.652,0,1.197-0.103,1.632-0.309c0.591-0.277,0.888-0.713,0.888-1.304c0-0.738-0.664-1.293-1.995-1.669
		c-2.296-0.651-3.534-1.026-3.716-1.122c-1.33-0.642-1.995-1.651-1.995-3.027c0-1.246,0.515-2.23,1.542-2.956
		c0.918-0.64,2.017-0.96,3.298-0.96c1.488,0,2.69,0.32,3.608,0.96c1.051,0.738,1.578,1.808,1.578,3.208h-2.755
		c-0.073-1.305-0.925-1.956-2.558-1.956c-0.518,0-0.959,0.108-1.322,0.326c-0.423,0.265-0.634,0.646-0.634,1.142
		c0,0.472,0.235,0.815,0.705,1.032c0.363,0.169,1.415,0.479,3.156,0.925c1.015,0.255,1.77,0.544,2.266,0.871
		c1.051,0.676,1.577,1.644,1.577,2.9c0,1.232-0.459,2.223-1.377,2.973c-0.968,0.786-2.301,1.177-4.008,1.177
		c-1.559,0-2.838-0.369-3.843-1.106C102.32,16.238,101.764,15.073,101.775,13.573z"/>
	<polygon class="st12" points="41.936,24.573 41.936,21.016 44.386,21.016 44.386,21.396 42.398,21.396 42.398,22.546 
		44.313,22.546 44.313,22.963 42.398,22.963 42.398,24.149 44.464,24.149 44.464,24.573 	"/>
	<path class="st12" d="M45.39,24.115h1.068c0.257,0,0.451-0.134,0.584-0.406c0.136-0.271,0.202-0.571,0.202-0.899
		c0-0.009,0-0.015,0-0.021c0-0.007,0-0.015,0-0.025c-0.006-0.333-0.085-0.638-0.238-0.914c-0.153-0.277-0.385-0.417-0.698-0.417
		H45.39V24.115z M44.927,21.016h1.419c0.043,0,0.084,0.001,0.127,0.007c0.041,0.005,0.084,0.011,0.126,0.016
		c0.291,0.061,0.558,0.23,0.799,0.501c0.242,0.273,0.363,0.657,0.363,1.157c0,0.081-0.004,0.163-0.011,0.246
		c-0.005,0.081-0.016,0.165-0.028,0.25c-0.056,0.346-0.188,0.663-0.396,0.949c-0.209,0.287-0.536,0.431-0.98,0.431h-1.419V21.016z"
		/>
	<path class="st12" d="M48.106,23.537v-2.521h0.495v2.521c0,0.258,0.091,0.449,0.274,0.582c0.185,0.129,0.385,0.196,0.602,0.196
		c0.219,0,0.422-0.064,0.606-0.193c0.186-0.13,0.278-0.325,0.278-0.584v-2.521h0.5v2.521c0,0.364-0.142,0.644-0.425,0.841
		c-0.283,0.198-0.596,0.3-0.936,0.306c-0.007,0-0.012,0-0.018,0c-0.004,0-0.008,0-0.012,0c-0.323,0-0.623-0.09-0.898-0.274
		C48.298,24.227,48.141,23.935,48.106,23.537z"/>
	<path class="st12" d="M51.163,22.852c0.003-0.067,0.009-0.138,0.017-0.206c0.008-0.07,0.018-0.14,0.03-0.211
		c0.065-0.346,0.214-0.667,0.449-0.964c0.233-0.297,0.605-0.461,1.112-0.494c0.082,0,0.174,0.01,0.277,0.027
		c0.105,0.018,0.211,0.05,0.321,0.095c0.169,0.075,0.328,0.194,0.482,0.359c0.151,0.165,0.265,0.4,0.334,0.704H53.69
		c-0.071-0.257-0.191-0.452-0.361-0.578c-0.17-0.126-0.353-0.188-0.548-0.188c-0.012,0-0.023,0-0.036,0
		c-0.01,0-0.022,0.001-0.032,0.003c-0.254,0.02-0.491,0.147-0.707,0.377c-0.215,0.232-0.33,0.564-0.341,0.999
		c0,0.522,0.108,0.898,0.324,1.129c0.218,0.232,0.457,0.349,0.715,0.354h0.007c0,0,0.004,0,0.008,0c0.252,0,0.485-0.09,0.701-0.271
		c0.212-0.178,0.329-0.417,0.349-0.716h0.495c-0.005,0.043-0.013,0.085-0.021,0.129c-0.008,0.044-0.018,0.087-0.032,0.133
		c-0.084,0.289-0.247,0.553-0.488,0.792c-0.242,0.241-0.545,0.36-0.91,0.36c-0.555,0.017-0.968-0.161-1.241-0.531
		C51.298,23.782,51.163,23.348,51.163,22.852z"/>
	<path class="st12" d="M55.294,23.119h1.074l-0.495-1.491L55.294,23.119z M54.302,24.573l1.264-3.558h0.573l1.297,3.558h-0.534
		l-0.384-1.037h-1.336l-0.346,1.037H54.302z"/>
	<polygon class="st12" points="58.231,24.573 58.231,21.396 57.046,21.396 57.046,21.016 59.84,21.016 59.84,21.396 58.727,21.396 
		58.727,24.573 	"/>
	<rect x="60.141" y="21.016" class="st12" width="0.461" height="3.558"/>
	<path class="st12" d="M61.417,22.892c0.007,0.077,0.02,0.164,0.036,0.257c0.015,0.094,0.04,0.19,0.075,0.286
		c0.068,0.195,0.184,0.375,0.342,0.543c0.159,0.167,0.39,0.262,0.694,0.288c0.023,0.003,0.045,0.006,0.065,0.007
		c0.021,0.002,0.043,0.003,0.066,0.003c0.321,0,0.608-0.137,0.86-0.411c0.254-0.273,0.369-0.688,0.35-1.246
		c-0.02-0.323-0.136-0.608-0.355-0.855c-0.215-0.245-0.506-0.368-0.868-0.368c-0.043,0-0.084,0.003-0.127,0.006
		c-0.042,0.004-0.084,0.013-0.126,0.022c-0.252,0.053-0.485,0.194-0.696,0.428C61.522,22.085,61.417,22.431,61.417,22.892z
		 M60.956,22.658c0-0.055,0.002-0.111,0.009-0.167c0.007-0.057,0.016-0.115,0.029-0.174c0.075-0.334,0.256-0.64,0.543-0.919
		c0.285-0.282,0.667-0.422,1.144-0.422c0.057,0,0.116,0.003,0.174,0.008c0.059,0.004,0.117,0.014,0.175,0.026
		c0.334,0.061,0.643,0.231,0.924,0.509c0.282,0.276,0.431,0.709,0.447,1.294c0,0.5-0.153,0.935-0.46,1.31
		c-0.306,0.374-0.764,0.561-1.377,0.561c-0.534,0-0.935-0.189-1.206-0.569C61.09,23.735,60.956,23.251,60.956,22.658z"/>
	<polygon class="st12" points="64.677,24.573 64.677,21.016 65.249,21.016 67.009,23.882 67.009,21.016 67.471,21.016 
		67.471,24.573 66.931,24.573 65.133,21.739 65.133,24.573 	"/>
	<polygon class="st12" points="69.01,24.573 69.01,21.016 69.584,21.016 71.344,23.882 71.344,21.016 71.805,21.016 71.805,24.573 
		71.266,24.573 69.469,21.739 69.469,24.573 	"/>
	<polygon class="st12" points="72.335,24.573 72.335,21.016 74.786,21.016 74.786,21.396 72.798,21.396 72.798,22.546 
		74.711,22.546 74.711,22.963 72.798,22.963 72.798,24.149 74.864,24.149 74.864,24.573 	"/>
	<polygon class="st12" points="76.132,24.573 76.132,21.396 74.947,21.396 74.947,21.016 77.74,21.016 77.74,21.396 76.628,21.396 
		76.628,24.573 	"/>
	<polygon class="st12" points="78.581,24.573 77.701,21.016 78.237,21.016 78.887,23.81 79.651,21.016 80.185,21.016 80.952,23.81 
		81.604,21.016 82.139,21.016 81.221,24.573 80.686,24.573 79.918,21.739 79.117,24.573 	"/>
	<path class="st12" d="M82.559,22.892c0.007,0.077,0.018,0.164,0.036,0.257c0.016,0.094,0.04,0.19,0.076,0.286
		c0.068,0.195,0.183,0.375,0.341,0.543c0.158,0.167,0.391,0.262,0.694,0.288c0.023,0.003,0.044,0.006,0.067,0.007
		c0.021,0.002,0.043,0.003,0.063,0.003c0.323,0,0.609-0.137,0.861-0.411c0.254-0.273,0.369-0.688,0.35-1.246
		c-0.02-0.323-0.137-0.608-0.355-0.855c-0.216-0.245-0.507-0.368-0.87-0.368c-0.041,0-0.084,0.003-0.126,0.006
		c-0.042,0.004-0.085,0.013-0.125,0.022c-0.254,0.053-0.485,0.194-0.695,0.428C82.664,22.085,82.559,22.431,82.559,22.892z
		 M82.098,22.658c0-0.055,0.003-0.111,0.009-0.167c0.006-0.057,0.016-0.115,0.029-0.174c0.075-0.334,0.255-0.64,0.543-0.919
		c0.286-0.282,0.668-0.422,1.144-0.422c0.06,0,0.116,0.003,0.175,0.008c0.058,0.004,0.117,0.014,0.176,0.026
		c0.334,0.061,0.641,0.231,0.923,0.509c0.282,0.276,0.43,0.709,0.447,1.294c0,0.5-0.153,0.935-0.459,1.31
		c-0.307,0.374-0.766,0.561-1.379,0.561c-0.535,0-0.936-0.189-1.205-0.569C82.232,23.735,82.098,23.251,82.098,22.658z"/>
	<path class="st12" d="M86.352,22.619h1.224c0.01,0.004,0.02,0.005,0.03,0.005c0.009,0,0.02,0,0.03,0
		c0.148,0,0.274-0.062,0.376-0.186c0.102-0.122,0.156-0.258,0.158-0.407c0-0.004,0-0.006,0-0.009c0,0,0-0.003,0-0.006
		c0-0.002,0-0.006,0-0.007c0-0.002,0-0.004,0-0.008c-0.002-0.131-0.06-0.255-0.167-0.371c-0.109-0.116-0.289-0.182-0.543-0.197
		h-1.107V22.619z M85.891,24.573v-3.558h1.803c0.25,0,0.461,0.082,0.636,0.242c0.175,0.163,0.281,0.388,0.315,0.677
		c0,0.06-0.002,0.12-0.008,0.187c-0.007,0.067-0.019,0.134-0.039,0.203c-0.029,0.091-0.079,0.179-0.147,0.264
		c-0.068,0.086-0.169,0.161-0.302,0.226c0.18,0.087,0.293,0.203,0.343,0.342c0.051,0.141,0.078,0.287,0.081,0.436
		c0,0.008,0,0.019,0,0.03c0,0.012,0,0.022,0,0.031c0,0.021,0,0.041,0,0.062c0,0.021,0,0.044,0,0.065
		c-0.003,0.14,0.004,0.27,0.016,0.391c0.015,0.121,0.072,0.216,0.172,0.285v0.117h-0.572c-0.021-0.066-0.04-0.132-0.051-0.199
		c-0.011-0.069-0.02-0.139-0.022-0.209c-0.004-0.033-0.007-0.067-0.009-0.103c-0.001-0.035-0.001-0.069-0.001-0.102
		c0-0.01,0-0.018,0-0.026c0-0.008,0-0.018,0-0.027c-0.007-0.207-0.034-0.393-0.082-0.558c-0.049-0.166-0.211-0.268-0.486-0.306
		h-1.186v1.531H85.891z"/>
	<polygon class="st12" points="89.031,24.573 89.031,21.016 89.526,21.016 89.526,22.774 91.323,21.016 91.897,21.016 
		90.405,22.468 91.824,24.573 91.285,24.573 90.1,22.813 89.526,23.387 89.526,24.573 	"/>
	<path class="st12" d="M93.64,21.472v1.187h1.185c0.009,0,0.037-0.013,0.082-0.037c0.045-0.023,0.093-0.06,0.145-0.109
		c0.065-0.056,0.124-0.127,0.173-0.218c0.05-0.091,0.071-0.198,0.06-0.321c-0.019-0.153-0.076-0.274-0.169-0.365
		c-0.094-0.09-0.217-0.137-0.37-0.137H93.64z M93.182,24.573v-3.558h1.642c0.249,0,0.464,0.088,0.647,0.263
		c0.18,0.174,0.272,0.406,0.272,0.695c0.003,0.014,0.004,0.026,0.004,0.036c0,0.012,0,0.026,0,0.042
		c0,0.055-0.006,0.117-0.016,0.184c-0.012,0.068-0.031,0.136-0.057,0.204c-0.055,0.152-0.146,0.292-0.274,0.416
		c-0.128,0.124-0.306,0.188-0.537,0.188H93.64v1.531H93.182z"/>
	<polygon class="st12" points="97.124,24.573 95.865,21.016 96.361,21.016 97.396,23.998 98.388,21.016 98.889,21.016 
		97.625,24.573 	"/>
	<polygon class="st12" points="100.003,24.573 100.003,21.396 98.817,21.396 98.817,21.016 101.61,21.016 101.61,21.396 
		100.499,21.396 100.499,24.573 	"/>
	<rect x="101.489" y="24.038" class="st12" width="0.535" height="0.535"/>
	<polygon class="st12" points="103.577,24.573 103.577,21.016 104.074,21.016 104.074,24.149 105.798,24.149 105.798,24.573 	"/>
	<polygon class="st12" points="106.703,24.573 106.703,21.396 105.518,21.396 105.518,21.016 108.312,21.016 108.312,21.396 
		107.199,21.396 107.199,24.573 	"/>
	<path class="st12" d="M109.075,24.115h1.069c0.255,0,0.452-0.134,0.586-0.406c0.135-0.271,0.202-0.571,0.202-0.899
		c0-0.009,0-0.015,0-0.021c0-0.007,0-0.015,0-0.025c-0.005-0.333-0.085-0.638-0.237-0.914c-0.153-0.277-0.386-0.417-0.7-0.417
		h-0.919V24.115z M108.612,21.016h1.419c0.043,0,0.084,0.001,0.126,0.007c0.042,0.005,0.085,0.011,0.127,0.016
		c0.291,0.061,0.558,0.23,0.799,0.501c0.242,0.273,0.362,0.657,0.362,1.157c0,0.081-0.002,0.163-0.009,0.246
		c-0.007,0.081-0.016,0.165-0.028,0.25c-0.056,0.346-0.188,0.663-0.396,0.949c-0.21,0.287-0.535,0.431-0.98,0.431h-1.419V21.016z"/>
	<rect x="111.887" y="23.967" class="st12" width="0.605" height="0.606"/>
</g>
</svg>