<!-- Generator: Adobe Illustrator 21.0.0, SVG Export Plug-In  -->
<svg version="1.1"
	 xmlns="http://www.w3.org/2000/svg" xmlns:xlink="http://www.w3.org/1999/xlink" xmlns:a="http://ns.adobe.com/AdobeSVGViewerExtensions/3.0/"
	 x="0px" y="0px" width="127.659px" height="39.027px" viewBox="0 0 127.659 39.027"
	 style="enable-background:new 0 0 127.659 39.027;" xml:space="preserve">
<style type="text/css">
	.st0{fill-rule:evenodd;clip-rule:evenodd;fill:#F78E1E;}
	.st1{fill-rule:evenodd;clip-rule:evenodd;fill:#006F9A;}
</style>
<defs>
</defs>
<g>
	<path class="st0" d="M11.868,0L0,30.087c9.943-12.044,21.138-14.666,29.271-8.076c-4.475-5.987-10.763-7.902-18.864-5.744
		l1.52-5.105l1.485,2.541l3.875-0.151L11.868,0z"/>
	<polygon class="st1" points="19.891,20.143 23.876,30.261 17.611,20.259 	"/>
	<polygon class="st0" points="38.499,30.261 38.499,27.643 33.371,27.643 33.371,13.287 30.396,13.287 30.396,30.261 	"/>
	<polygon class="st0" points="57.41,30.261 57.41,13.287 53.21,13.287 48.605,24.942 43.974,13.287 39.774,13.287 39.774,30.261 
		42.749,30.261 42.749,17.155 47.969,30.261 49.241,30.261 54.435,17.155 54.435,30.261 	"/>
	<path class="st1" d="M61.558,30.261c0.496-0.014,0.909-0.19,1.24-0.528c0.331-0.338,0.502-0.755,0.515-1.252
		c-0.013-0.485-0.184-0.895-0.515-1.23c-0.331-0.335-0.744-0.51-1.24-0.524c-0.497,0.014-0.914,0.189-1.252,0.524
		c-0.338,0.335-0.514,0.745-0.528,1.23c0.014,0.497,0.19,0.914,0.528,1.252C60.644,30.072,61.061,30.247,61.558,30.261z
		 M62.702,24.792l0.458-11.759h-3.255l0.484,11.759H62.702z"/>
	<path class="st0" d="M74.41,30.261c1.468-0.013,2.79-0.298,3.964-0.855c1.175-0.557,2.177-1.306,3.008-2.247v-6.337H73.34v2.618
		h5.092v2.624c-0.394,0.387-0.943,0.734-1.649,1.041c-0.705,0.307-1.497,0.47-2.374,0.487c-1.715-0.035-3.111-0.615-4.188-1.741
		c-1.078-1.126-1.634-2.591-1.668-4.394c0.034-1.826,0.59-3.298,1.668-4.414c1.078-1.117,2.474-1.691,4.188-1.722
		c0.951,0.015,1.806,0.233,2.565,0.656c0.759,0.422,1.372,0.959,1.839,1.611l2.415-1.401c-0.667-0.992-1.558-1.819-2.674-2.48
		c-1.116-0.661-2.498-1.004-4.146-1.03c-1.665,0.009-3.167,0.372-4.505,1.088c-1.338,0.716-2.402,1.729-3.191,3.039
		c-0.789,1.31-1.193,2.861-1.212,4.653c0.019,1.783,0.422,3.333,1.212,4.647c0.789,1.315,1.853,2.333,3.191,3.057
		S72.745,30.251,74.41,30.261z"/>
	<polygon class="st0" points="98.502,30.261 98.502,13.287 95.527,13.287 95.527,20.21 86.691,20.21 86.691,13.287 83.716,13.287 
		83.716,30.261 86.691,30.261 86.691,22.829 95.527,22.829 95.527,30.261 	"/>
	<polygon class="st0" points="108.1,30.261 108.1,15.906 113.242,15.906 113.242,13.287 99.984,13.287 99.984,15.906 
		105.125,15.906 105.125,30.261 	"/>
	<polygon class="st0" points="121.092,30.261 121.092,23.212 127.659,13.287 124.249,13.287 119.592,20.54 114.935,13.287 
		111.525,13.287 118.117,23.212 118.117,30.261 	"/>
	<rect x="54.84" y="33.69" class="st1" width="0.864" height="5.243"/>
	<path class="st1" d="M59.567,38.933v-2.854c0.001-0.332-0.08-0.587-0.243-0.766c-0.163-0.179-0.415-0.269-0.755-0.271
		c-0.24,0.006-0.458,0.069-0.656,0.187c-0.198,0.119-0.351,0.258-0.461,0.417v-0.51h-0.777v3.796h0.777V36.26
		c0.077-0.136,0.185-0.256,0.323-0.361c0.138-0.105,0.293-0.16,0.464-0.166c0.171-0.002,0.303,0.044,0.398,0.139
		c0.095,0.095,0.143,0.253,0.145,0.475v2.587H59.567z"/>
	<path class="st1" d="M61.511,39.027c0.161-0.001,0.297-0.022,0.41-0.063c0.113-0.041,0.204-0.093,0.274-0.157l-0.189-0.597
		c-0.029,0.036-0.07,0.066-0.123,0.09c-0.053,0.023-0.112,0.035-0.176,0.036c-0.098-0.001-0.171-0.038-0.219-0.111
		c-0.048-0.073-0.072-0.175-0.072-0.306v-2.1h0.629v-0.683h-0.629v-1.038h-0.777v1.038h-0.495v0.683h0.495v2.265
		c-0.001,0.311,0.07,0.545,0.212,0.704C60.994,38.947,61.214,39.027,61.511,39.027z"/>
	<path class="st1" d="M63.258,35.827c0.001-0.008,0.015-0.094,0.041-0.259c0.026-0.164,0.055-0.357,0.089-0.579
		c0.034-0.222,0.063-0.423,0.089-0.604c0.026-0.181,0.039-0.292,0.041-0.334c-0.004-0.125-0.048-0.229-0.132-0.311
		c-0.084-0.083-0.187-0.126-0.308-0.129c-0.125,0.003-0.23,0.046-0.315,0.129c-0.085,0.083-0.129,0.186-0.132,0.311
		c0.001,0.042,0.015,0.153,0.042,0.334c0.026,0.181,0.057,0.382,0.092,0.604c0.035,0.222,0.065,0.415,0.092,0.579
		c0.027,0.164,0.04,0.25,0.042,0.259H63.258z"/>
	<rect x="64.367" y="33.69" class="st1" width="0.777" height="5.243"/>
	<polygon class="st1" points="70.646,38.933 70.646,38.171 68.633,38.171 68.633,36.637 70.59,36.637 70.59,35.875 68.633,35.875 
		68.633,34.452 70.646,34.452 70.646,33.69 67.769,33.69 67.769,38.933 	"/>
	<path class="st1" d="M72.884,38.336c-0.275-0.008-0.48-0.133-0.616-0.375c-0.135-0.241-0.203-0.549-0.203-0.923
		c0-0.378,0.067-0.688,0.203-0.93c0.135-0.242,0.34-0.367,0.616-0.375c0.157,0.004,0.303,0.055,0.439,0.153
		c0.135,0.098,0.238,0.22,0.309,0.366v1.565c-0.07,0.146-0.173,0.267-0.309,0.366C73.187,38.281,73.041,38.332,72.884,38.336z
		 M74.409,38.933V33.69h-0.777v1.957c-0.117-0.204-0.262-0.356-0.436-0.455c-0.173-0.1-0.356-0.15-0.548-0.149
		c-0.433,0.008-0.772,0.19-1.017,0.547c-0.245,0.356-0.37,0.84-0.374,1.449c0.004,0.62,0.129,1.105,0.374,1.455
		c0.245,0.35,0.584,0.528,1.017,0.534c0.195-0.001,0.379-0.054,0.551-0.157c0.172-0.103,0.316-0.25,0.433-0.44v0.502H74.409z"/>
	<path class="st1" d="M78.215,38.933v-3.796h-0.777v2.688c-0.077,0.135-0.183,0.253-0.319,0.353c-0.136,0.1-0.289,0.153-0.46,0.158
		c-0.171,0.003-0.305-0.042-0.402-0.135c-0.097-0.092-0.147-0.249-0.148-0.471v-2.594H75.33v2.869
		c-0.001,0.331,0.08,0.584,0.242,0.758c0.163,0.174,0.415,0.262,0.755,0.263c0.243-0.005,0.461-0.065,0.655-0.18
		c0.194-0.114,0.345-0.251,0.454-0.409v0.494H78.215z"/>
	<path class="st1" d="M80.631,39.027c0.282-0.003,0.518-0.052,0.708-0.146c0.191-0.094,0.342-0.216,0.455-0.364l-0.393-0.534
		c-0.094,0.118-0.197,0.206-0.31,0.265c-0.113,0.059-0.237,0.089-0.374,0.089c-0.301-0.009-0.533-0.136-0.696-0.382
		c-0.163-0.245-0.246-0.553-0.248-0.924c0.002-0.371,0.085-0.677,0.248-0.92c0.163-0.243,0.395-0.369,0.696-0.377
		c0.137-0.001,0.262,0.028,0.374,0.086c0.112,0.057,0.216,0.147,0.31,0.268l0.393-0.535c-0.113-0.145-0.264-0.265-0.455-0.361
		c-0.19-0.096-0.427-0.146-0.708-0.149c-0.513,0.012-0.917,0.2-1.213,0.567c-0.296,0.366-0.447,0.84-0.453,1.422
		c0.006,0.586,0.157,1.062,0.453,1.429C79.713,38.826,80.118,39.015,80.631,39.027z"/>
	<path class="st1" d="M83.689,38.486c-0.203-0.004-0.363-0.071-0.481-0.201s-0.177-0.299-0.18-0.507
		c0.002-0.208,0.062-0.378,0.18-0.507c0.118-0.13,0.278-0.197,0.481-0.201c0.148-0.001,0.287,0.03,0.415,0.094
		c0.129,0.064,0.231,0.166,0.309,0.307v0.621c-0.077,0.137-0.18,0.237-0.309,0.3C83.976,38.455,83.837,38.486,83.689,38.486z
		 M85.198,38.933v-2.602c-0.008-0.456-0.139-0.786-0.394-0.989c-0.255-0.204-0.584-0.303-0.989-0.3
		c-0.251-0.001-0.498,0.043-0.741,0.132c-0.243,0.089-0.462,0.231-0.658,0.426l0.306,0.551c0.149-0.153,0.303-0.264,0.461-0.335
		c0.158-0.071,0.322-0.106,0.491-0.105c0.237,0.002,0.42,0.065,0.547,0.191c0.127,0.126,0.191,0.303,0.193,0.533v0.565
		c-0.114-0.16-0.26-0.279-0.439-0.356c-0.179-0.077-0.368-0.115-0.568-0.115c-0.313,0-0.583,0.104-0.809,0.311
		c-0.226,0.207-0.344,0.517-0.354,0.93c0.011,0.404,0.129,0.714,0.354,0.93c0.226,0.216,0.495,0.326,0.809,0.328
		c0.2,0,0.388-0.041,0.565-0.124c0.177-0.082,0.324-0.206,0.442-0.371v0.4H85.198z"/>
	<path class="st1" d="M87.138,39.027c0.161-0.001,0.297-0.022,0.41-0.063c0.112-0.041,0.204-0.093,0.274-0.157l-0.189-0.597
		c-0.029,0.036-0.07,0.066-0.123,0.09c-0.053,0.023-0.112,0.035-0.176,0.036c-0.098-0.001-0.171-0.038-0.219-0.111
		c-0.048-0.073-0.072-0.175-0.072-0.306v-2.1h0.629v-0.683h-0.629v-1.038h-0.777v1.038h-0.495v0.683h0.495v2.265
		c-0.001,0.311,0.07,0.545,0.212,0.704C86.621,38.947,86.841,39.027,87.138,39.027z"/>
	<path class="st1" d="M89.113,38.933v-3.796h-0.777v3.796H89.113z M88.728,34.664c0.137-0.003,0.252-0.051,0.344-0.143
		c0.092-0.092,0.14-0.207,0.143-0.344c-0.003-0.14-0.051-0.256-0.143-0.347c-0.092-0.09-0.206-0.137-0.344-0.14
		c-0.137,0.003-0.253,0.05-0.348,0.14c-0.094,0.09-0.143,0.206-0.147,0.347c0.004,0.137,0.053,0.252,0.147,0.344
		C88.475,34.612,88.591,34.66,88.728,34.664z"/>
	<path class="st1" d="M91.502,38.336c-0.29-0.011-0.503-0.142-0.639-0.393c-0.136-0.251-0.204-0.555-0.203-0.912
		c-0.001-0.353,0.066-0.655,0.203-0.905c0.136-0.25,0.349-0.381,0.639-0.392c0.289,0.011,0.501,0.142,0.635,0.392
		c0.134,0.25,0.2,0.552,0.199,0.905c0.002,0.357-0.065,0.661-0.199,0.912C92.003,38.194,91.791,38.325,91.502,38.336z
		 M91.502,39.027c0.359-0.005,0.662-0.098,0.907-0.28c0.245-0.182,0.43-0.423,0.555-0.723c0.125-0.301,0.188-0.632,0.188-0.993
		c0-0.361-0.063-0.692-0.188-0.991c-0.125-0.299-0.31-0.539-0.555-0.72c-0.245-0.181-0.547-0.273-0.907-0.278
		c-0.36,0.005-0.662,0.097-0.907,0.278c-0.245,0.181-0.43,0.42-0.555,0.72c-0.125,0.299-0.188,0.63-0.189,0.991
		c0,0.361,0.063,0.692,0.189,0.993c0.125,0.3,0.31,0.542,0.555,0.723C90.84,38.929,91.142,39.022,91.502,39.027z"/>
	<path class="st1" d="M96.786,38.933v-2.854c0.001-0.332-0.08-0.587-0.243-0.766c-0.163-0.179-0.415-0.269-0.755-0.271
		c-0.24,0.006-0.458,0.069-0.656,0.187s-0.351,0.258-0.461,0.417v-0.51h-0.777v3.796h0.777V36.26
		c0.077-0.136,0.185-0.256,0.323-0.361c0.138-0.105,0.293-0.16,0.464-0.166c0.171-0.002,0.303,0.044,0.398,0.139
		c0.095,0.095,0.143,0.253,0.145,0.475v2.587H96.786z"/>
	<path class="st1" d="M100.783,39.027c0.567-0.011,0.992-0.162,1.277-0.452c0.285-0.29,0.428-0.653,0.428-1.089
		c-0.012-0.432-0.135-0.764-0.368-0.995c-0.233-0.231-0.504-0.412-0.811-0.543c-0.307-0.131-0.577-0.261-0.811-0.391
		c-0.233-0.13-0.356-0.31-0.368-0.54c0.004-0.195,0.071-0.349,0.202-0.463c0.132-0.113,0.305-0.171,0.521-0.174
		c0.21-0.001,0.41,0.036,0.6,0.11c0.19,0.074,0.362,0.189,0.517,0.346l0.416-0.66c-0.186-0.185-0.405-0.327-0.66-0.425
		s-0.537-0.147-0.849-0.148c-0.502,0.01-0.898,0.153-1.189,0.428c-0.291,0.275-0.44,0.622-0.446,1.041
		c0.012,0.425,0.135,0.748,0.368,0.969s0.504,0.393,0.811,0.517c0.307,0.125,0.577,0.256,0.811,0.394
		c0.233,0.138,0.356,0.337,0.369,0.597c0,0.195-0.067,0.36-0.204,0.495c-0.136,0.136-0.344,0.206-0.622,0.212
		c-0.262-0.004-0.499-0.059-0.714-0.166c-0.214-0.107-0.393-0.243-0.536-0.408l-0.44,0.676c0.196,0.206,0.435,0.369,0.716,0.487
		C100.082,38.965,100.409,39.025,100.783,39.027z"/>
	<path class="st1" d="M105.487,36.732h-1.675c0.004-0.159,0.035-0.318,0.092-0.478c0.057-0.16,0.147-0.293,0.269-0.401
		c0.122-0.108,0.282-0.164,0.48-0.168c0.203,0.004,0.366,0.06,0.487,0.166c0.122,0.107,0.209,0.24,0.263,0.399
		C105.457,36.41,105.485,36.571,105.487,36.732z M104.739,39.027c0.261-0.001,0.505-0.052,0.731-0.152
		c0.226-0.1,0.422-0.243,0.589-0.429l-0.377-0.472c-0.116,0.134-0.251,0.236-0.403,0.305c-0.152,0.069-0.306,0.104-0.462,0.104
		c-0.315-0.007-0.556-0.111-0.724-0.314c-0.168-0.202-0.259-0.462-0.275-0.78h2.421v-0.235c-0.001-0.583-0.134-1.061-0.401-1.434
		c-0.266-0.373-0.659-0.566-1.179-0.578c-0.34,0.004-0.631,0.094-0.875,0.271c-0.244,0.176-0.431,0.414-0.562,0.713
		c-0.131,0.299-0.197,0.634-0.199,1.005c0.006,0.599,0.161,1.079,0.465,1.44C103.794,38.832,104.21,39.018,104.739,39.027z"/>
	<path class="st1" d="M107.738,38.933v-2.602c0.085-0.146,0.206-0.269,0.366-0.37c0.159-0.101,0.32-0.153,0.483-0.157
		c0.072,0,0.14,0.008,0.204,0.024V35.05c-0.215,0.004-0.416,0.065-0.601,0.184c-0.185,0.118-0.336,0.272-0.453,0.46v-0.557h-0.777
		v3.796H107.738z"/>
	<polygon class="st1" points="111.038,38.933 112.311,35.137 111.478,35.137 110.621,37.997 109.772,35.137 108.931,35.137 
		110.197,38.933 	"/>
	<path class="st1" d="M113.558,38.933v-3.796h-0.777v3.796H113.558z M113.173,34.664c0.137-0.003,0.252-0.051,0.343-0.143
		c0.092-0.092,0.14-0.207,0.143-0.344c-0.004-0.14-0.051-0.256-0.143-0.347c-0.092-0.09-0.206-0.137-0.343-0.14
		c-0.137,0.003-0.253,0.05-0.348,0.14c-0.094,0.09-0.143,0.206-0.147,0.347c0.004,0.137,0.053,0.252,0.147,0.344
		C112.92,34.612,113.036,34.66,113.173,34.664z"/>
	<path class="st1" d="M115.962,39.027c0.282-0.003,0.518-0.052,0.709-0.146c0.191-0.094,0.342-0.216,0.455-0.364l-0.393-0.534
		c-0.094,0.118-0.197,0.206-0.31,0.265c-0.112,0.059-0.237,0.089-0.374,0.089c-0.301-0.009-0.533-0.136-0.696-0.382
		c-0.163-0.245-0.246-0.553-0.248-0.924c0.002-0.371,0.084-0.677,0.248-0.92c0.163-0.243,0.395-0.369,0.696-0.377
		c0.137-0.001,0.262,0.028,0.374,0.086c0.113,0.057,0.216,0.147,0.31,0.268l0.393-0.535c-0.113-0.145-0.264-0.265-0.455-0.361
		c-0.19-0.096-0.427-0.146-0.709-0.149c-0.513,0.012-0.917,0.2-1.213,0.567c-0.296,0.366-0.446,0.84-0.453,1.422
		c0.006,0.586,0.157,1.062,0.453,1.429C115.045,38.826,115.449,39.015,115.962,39.027z"/>
	<path class="st1" d="M120.043,36.732h-1.675c0.004-0.159,0.035-0.318,0.092-0.478c0.057-0.16,0.147-0.293,0.269-0.401
		c0.122-0.108,0.282-0.164,0.48-0.168c0.203,0.004,0.366,0.06,0.487,0.166c0.121,0.107,0.209,0.24,0.263,0.399
		C120.014,36.41,120.041,36.571,120.043,36.732z M119.296,39.027c0.262-0.001,0.505-0.052,0.731-0.152
		c0.226-0.1,0.422-0.243,0.589-0.429l-0.377-0.472c-0.117,0.134-0.251,0.236-0.403,0.305c-0.152,0.069-0.306,0.104-0.462,0.104
		c-0.315-0.007-0.556-0.111-0.724-0.314c-0.168-0.202-0.259-0.462-0.275-0.78h2.421v-0.235c-0.001-0.583-0.134-1.061-0.401-1.434
		c-0.266-0.373-0.659-0.566-1.179-0.578c-0.34,0.004-0.631,0.094-0.875,0.271c-0.243,0.176-0.431,0.414-0.562,0.713
		c-0.131,0.299-0.197,0.634-0.198,1.005c0.006,0.599,0.161,1.079,0.465,1.44C118.35,38.832,118.767,39.018,119.296,39.027z"/>
</g>
</svg>