<!-- Generator: Adobe Illustrator 21.0.0, SVG Export Plug-In  -->
<svg version="1.1"
	 xmlns="http://www.w3.org/2000/svg" xmlns:xlink="http://www.w3.org/1999/xlink" xmlns:a="http://ns.adobe.com/AdobeSVGViewerExtensions/3.0/"
	 x="0px" y="0px" width="86.73px" height="45.533px" viewBox="0 0 86.73 45.533" style="enable-background:new 0 0 86.73 45.533;"
	 xml:space="preserve">
<style type="text/css">
	.st0{fill:#010101;}
	.st1{fill:#ED1C24;}
	.st2{fill:#FFFFFF;}
	.st3{fill:none;stroke:#000000;stroke-width:0.1305;stroke-miterlimit:10;}
	.st4{fill:none;stroke:#000000;stroke-width:0.4818;stroke-miterlimit:10;}
</style>
<defs>
</defs>
<g>
	<g>
		<g>
			<polygon class="st0" points="76.131,26.504 75.77,29.778 80.309,31.577 80.581,34.12 58.124,36.28 57.713,31.746 58.73,31.746 
				63.456,30.357 42.699,30.347 42.701,25.44 			"/>
			<path d="M13.366,12.035l-0.001,2.59c0,0-1.713-1.896-4.012-0.988c-2.3,0.915-2.557,3.1-2.192,5.255
				c0.363,2.151,3.685,3.427,5.727,1.789l0.001-2.592l-1.825-0.001L10.7,18.564l-0.507,0l0.001-2.992l0.579,0l0.256,0.473
				l3.977,0.002c0,0-0.002,3.722-0.002,4.414c0,0.692-0.331,2.701-4.781,2.699c-3.367-0.002-5.244-2.66-5.251-5.568
				C4.72,14.111,7.274,9.442,13.366,12.035z"/>
			<path d="M44.586,20.294c-1.696-0.001-1.696-0.001-1.696-0.001l0.004-8.151c0,0,0.354-0.503,0.217-0.674
				c-0.137-0.175-0.163-0.146-1.148-0.147c-0.984,0-0.547,0-0.984,0c-0.438,0-0.384,0.628,0.027,0.875
				c-0.001,1.395-0.003,5.552-0.003,5.552l-3.143-6.731l-2.683,7.001c0,0-0.193-1.286-1.149-1.86
				c0.545-1.284,0.814-3.563-1.53-4.487c-1.67-0.658-3.449,0.08-3.449,0.08s-0.654-0.329-0.655,0.218
				c0,0.547-0.001,2.464-0.001,2.464s-1.095-2.985-4.817-2.987c-3.721-0.002-5.717,3.009-5.719,5.443
				c-0.001,1.56,1.203,3.338,1.203,3.338L18.98,20.39l-1.669-0.001l0.004-8.041l0.519-0.576l0-0.246l-2.955-0.001l0.017,0.222
				l0.548,0.763l-0.005,9.779l4.45,0.002l0-1.281c0,0,0.729,1.497,3.683,1.498c2.956,0.001,4.781-2.878,4.781-2.878l-0.001,2.665
				c0,0,3.247,0.002,3.649,0.002c0.4,0,1.533-0.951,1.642-1.025l-0.621,1.241l2.3,0.001l1.205-2.845l2.918,0.002l1.53,2.846
				l4.302,0.002c0,0,0-1.788,0.001-2.117c0-0.326,0-0.326,0-0.326v-0.193C45.277,19.884,44.777,19.775,44.586,20.294z
				 M23.426,20.372c-1.936-0.001-3.505-1.57-3.503-3.504c0.001-1.935,1.571-3.503,3.507-3.502c1.931,0.001,3.499,1.571,3.498,3.506
				C26.926,18.805,25.357,20.373,23.426,20.372z M31.709,20.07c-0.509,0-1.384-0.001-1.384-0.001l0.003-6.857
				c1.201-0.585,2.151,0.401,2.151,0.877c0,0.475-0.039,1.64-1.716,2.078c2.407,0.366,2.46,1.788,2.46,2.391
				C33.223,19.157,32.221,20.07,31.709,20.07z M37.254,17.919l0.731-2.076l0.875,2.077L37.254,17.919z"/>
			<path d="M72.276,13.779c0.001-2.591,0.001-2.591,0.001-2.591l-0.695,0.294c0,0-5.796-1.647-6.859,4.992
				c-2.186-5.545-2.186-5.545-2.186-5.545L58.629,20.3c0,0-2.735-0.148-3.428-2.773c2.736,0.002,2.736,0.002,2.736,0.002l0.692,0.4
				l0.001-2.918l-0.51,0.693l-2.955-0.001c0,0,0.075-2.589,3.831-2.587c0.439,0,0.74,0.622,0.74,0.622l0.001-2.709l-0.485,0.519
				c0,0-6.053-1.753-6.057,5.832c-0.511-0.51-0.657-0.604-0.657-0.604s2.737-3.48-1.274-5.45c-1.166-0.513-2.882,0.362-2.882,0.362
				s-0.983-0.547-0.984,0.984L47.395,21.5c0,0-0.55,0.826,0.181,0.826c0.732,0,1.934,0.001,1.934,0.001l0.002-4.403
				c0,0,2.591,0.075,3.5,3.032c0.144,0.4-0.547,0.507-0.547,0.911c0,0.399,0,0.399,0,0.399l2.48,0.002c0,0,0-1.129-0.217-1.714
				c1.458,1.422,2.807,1.876,5.067,1.777c1.207-2.651,1.207-2.651,1.207-2.651l3.1,0.002l1.421,2.665l1.898,0.001l-0.729-1.498
				c0,0,1.786,1.9,5.581,0.88l0.001-2.079c0,0-5.181,1.737-5.653-2.87C66.148,12.169,71.656,12.866,72.276,13.779z M49.257,16.212
				l0.001-2.81c0,0,2.152-0.619,2.151,1.406C51.408,16.833,49.257,16.212,49.257,16.212z M61.547,17.86l0.877-2.116l1.059,2.116
				L61.547,17.86z"/>
			<path d="M74.137,11.2c0,0-1.176,0-1.451-0.001c-0.271,0-0.436,0.547,0,0.792c-0.005,9.029-0.005,9.029-0.005,9.029
				s-0.655,0.601,0.109,0.738c0.684,0,0.849,0,1.34,0.001c0.493,0,0.604-0.437,0.304-0.602c0-1.12,0.002-3.611,0.002-3.611
				l3.282,0.002l-0.004,7.77c0,0-0.602,0.302,0,0.683c1.75,0.001,1.34,0.001,1.75,0.001c0.411,0,0.495-0.492,0.138-0.657
				c0.002-3.802,0.007-13.408,0.007-13.408s0.338-0.271,0.223-0.736c-2.193-0.001-2.193-0.001-2.193-0.001l-0.002,4.678
				l-3.146-0.002l0.003-4.049C74.494,11.83,74.876,11.201,74.137,11.2z"/>
			<polygon class="st1" points="81.022,28.565 81.02,33.281 58.858,35.182 58.698,30.687 66.909,29.981 43.401,29.361 
				43.653,24.017 75.06,25.291 75.058,29.377 			"/>
			<g>
				<path class="st2" d="M46.158,27.468c-0.302-0.298-0.049-0.494,0.082-0.48c0.13,0.016,1.968,0.303,1.969-0.751
					c0-0.466-1.245-0.371-1.969,0.08c-0.726,0.453-0.974,1.422-0.141,1.655c0.835,0.234,2.094,0.262,2.109-0.245
					C48.221,27.221,46.86,28.165,46.158,27.468z M47.099,26.312c0.311-0.063,0.583-0.031,0.605,0.077
					c0.021,0.109-0.213,0.246-0.525,0.311c-0.315,0.066-0.583,0.03-0.607-0.077C46.551,26.516,46.785,26.375,47.099,26.312z"/>
				<path class="st2" d="M71.039,32.519c-0.277-0.282-0.045-0.474,0.078-0.456c0.119,0.016,1.832,0.288,1.832-0.718
					c0-0.445-1.16-0.354-1.832,0.077c-0.674,0.43-0.907,1.358-0.129,1.578c0.775,0.224,1.947,0.251,1.96-0.231
					C72.962,32.286,71.693,33.186,71.039,32.519z M71.917,31.417c0.29-0.062,0.542-0.029,0.56,0.072
					c0.022,0.103-0.196,0.237-0.49,0.298c-0.289,0.065-0.541,0.032-0.561-0.071C71.405,31.612,71.623,31.479,71.917,31.417z"/>
				<path class="st2" d="M51.322,24.939c-0.088-0.108-0.391-0.065-0.427,0.064c-0.038,0.127,0.28,1.158,0.209,1.278
					c-0.075,0.12-1.276,0.391-1.752,0.607c-0.474,0.219-0.356,1.069,0.108,1.287c0.464,0.22,2.09-0.118,2.116-0.189
					C51.605,27.912,51.322,24.939,51.322,24.939z M50.2,27.711c-0.345-0.009-0.664-0.265-0.392-0.556
					c0.089-0.094,0.247-0.241,0.448-0.266c0.2-0.023,0.941-0.189,0.941,0.423C51.203,27.702,50.547,27.72,50.2,27.711z"/>
				<path class="st2" d="M52.832,26.737c0,0,0.027-0.731-0.439-0.06c0.098,0.821,0.081,1.669,0.644,1.805
					c0.135,0.055,0.767-0.343,0.767-0.343s0.163,0.536,0.586,0.524c0.425-0.016,0.602-0.59,0.602-0.59s-0.452,0.068-0.629,0.179
					c-0.04,0.027-0.246-0.172-0.122-0.538c0.123-0.365,0.506-1.181-0.191-1.203c-0.163-0.011-0.137,0.732-0.358,1.016
					c-0.217,0.286-0.79,0.327-0.804-0.111C52.87,26.979,52.832,26.737,52.832,26.737z"/>
				<path class="st2" d="M56.967,26.855c0,0-0.714,0.37-0.639,0.674c0.074,0.304,0.693,0.724,1.643,0.321
					c0.145-0.054,0.8,0.53-0.33,0.694c-1.129,0.164-1.934-0.48-1.859-1.016c0.074-0.535,0.874-1.704,2.006-1.243
					C58.483,26.567,57.094,27.28,56.967,26.855z"/>
				<path class="st2" d="M61.25,26.724c-0.601-0.804-1.661-0.138-1.661-0.138c-0.344,0.163,0.055,0.575,0.127,0.527
					c0.072-0.047,0.913-0.463,1.186-0.183c0.274,0.279,0.108,0.523-0.199,0.429c-0.31-0.09-1.826-0.073-1.569,0.856
					c0.254,0.924,2.096,0.332,2.096,0.332c0.216-0.073,0.346-0.017,0.346-0.475C61.576,27.617,61.467,27.07,61.25,26.724z
					 M59.752,28.091c-0.036-0.348,1.041-0.3,1.041-0.3s0.163-0.011,0.146,0.149C60.939,28.372,59.788,28.437,59.752,28.091z"/>
				<path class="st2" d="M65.035,31.998c-0.553-0.723-1.531-0.122-1.531-0.122c-0.317,0.144,0.051,0.513,0.12,0.471
					c0.067-0.042,0.841-0.417,1.092-0.162c0.253,0.251,0.102,0.47-0.184,0.387c-0.286-0.082-1.682-0.066-1.448,0.768
					c0.235,0.832,1.935,0.297,1.935,0.297c0.203-0.064,0.319-0.015,0.32-0.425C65.339,32.801,65.237,32.309,65.035,31.998z
					 M63.656,33.227c-0.033-0.313,0.957-0.268,0.957-0.268s0.154-0.011,0.135,0.133C64.748,33.482,63.689,33.539,63.656,33.227z"/>
				<path class="st2" d="M63.261,25.355c0,0,0.073,0.901,0,1.043c-0.074,0.14-0.949,0.178-0.895,0.343
					c0.057,0.164-0.034,0.578,0.62,0.298c0.165-0.043,0.383,0.23,0.401,0.778c0.018,0.546,0.036,1.038,0.365,1.039
					c0.328,0,0.073-0.783,0.001-1.139c-0.071-0.357-0.201-0.866,0.165-0.975c0.365-0.111,0.749,0.1,0.601-0.344
					c-0.143-0.441-0.747,0.256-0.822-0.111C63.626,25.921,63.937,24.881,63.261,25.355z"/>
				<path class="st2" d="M66.364,30.362c0,0,0.171,0.839,0.13,0.978c-0.04,0.141-0.741,0.269-0.676,0.416
					c0.062,0.148,0.04,0.546,0.536,0.214c0.125-0.059,0.338,0.173,0.419,0.685c0.085,0.51,0.16,0.97,0.425,0.933
					c0.263-0.033-0.042-0.741-0.144-1.066c-0.099-0.326-0.267-0.789,0.013-0.93c0.28-0.143,0.615,0.011,0.442-0.385
					c-0.174-0.398-0.57,0.319-0.675-0.017C66.728,30.853,66.85,29.845,66.364,30.362z"/>
				<path class="st2" d="M68.706,30.281c0,0,0.172,0.839,0.129,0.978c-0.039,0.139-0.739,0.267-0.678,0.416
					c0.068,0.148,0.044,0.545,0.539,0.212c0.125-0.056,0.338,0.175,0.418,0.688c0.085,0.51,0.16,0.968,0.426,0.933
					c0.264-0.034-0.039-0.742-0.143-1.067c-0.104-0.325-0.267-0.792,0.013-0.93c0.277-0.143,0.611,0.012,0.44-0.387
					c-0.174-0.398-0.571,0.321-0.675-0.017C69.073,30.773,69.191,29.765,68.706,30.281z"/>
				<g>
					<path class="st2" d="M65.996,25.94c0,0-1.054-0.857-0.967-0.109C65.084,26.288,66.293,26.208,65.996,25.94z"/>
					<path class="st2" d="M65.885,26.668c0,0-0.344-0.036-0.163,0.51c0.181,0.549,0.144,0.932,0.237,1.151
						c0.092,0.219,0.217,0.582,0.382,0.528c0.164-0.054-0.019-0.705-0.092-1.091C66.177,27.382,66.286,26.707,65.885,26.668z"/>
				</g>
				<path class="st2" d="M69.714,27.219c-0.163-0.11-0.69-0.255-1-0.274c0,0-0.476,0.085-1.044,0.59
					c-0.566,0.503-0.657,1.452,0.52,1.58c1.178,0.129,2.144-0.623,2.129-1.133C70.301,27.476,69.881,27.33,69.714,27.219z
					 M69.167,28.475c-0.692,0.239-1.186,0.276-1.421,0c-0.236-0.271,0.385-0.956,0.948-0.94
					C70.17,27.579,69.86,28.238,69.167,28.475z"/>
				<path class="st2" d="M71.066,26.836c0,0,0.207,1.916,0.247,2.117c0.044,0.199,0.261-0.176,0.335-0.709
					c0.075-0.531,0.366-0.951,0.567-0.623c0.199,0.329,0.265,1.99,0.838,1.991c0.216,0,0.438-0.447,0.365-0.478
					c-0.075-0.035-0.422-0.017-0.422-0.125c0-0.108-0.24-1.898-0.746-2.061c-0.51-0.164-0.528,0.438-0.677,0.292
					C71.432,27.093,71.432,26.455,71.066,26.836z"/>
				<path class="st2" d="M59.754,32.302c0,0,0.311,1.748,0.475,1.862c0.167,0.109,0.239-0.295,0.239-0.566
					c0-0.275-0.036-1.031,0.181-0.893c0.492,0.31,0.058,0.947,0.491,0.893c0.294-0.037,0.383-0.803,0.805-0.967
					c0.42-0.163,0.249,1.387,0.415,1.441c0.165,0.054,0.333,0.019,0.204-1.076c-0.127-1.094-0.874-1.002-1.186-0.402
					c-0.093,0.147-0.235,0.193-0.436-0.439c-0.111-0.236-0.586,0.166-0.769,0.405C59.991,32.795,59.829,31.664,59.754,32.302z"/>
				<path class="st2" d="M74.001,31.405c0,0-0.41-0.536-0.57-0.155c-0.162,0.381,0.164,0.073,0.284,1.002
					c0.065,0.368,0.432,0.806,0.67,0.568c0.235-0.238-0.459-0.895,0.001-1.168c0.454-0.273,0.4-0.254,0.582-0.089
					c0.181,0.163,0.474-0.436,0-0.574C74.492,30.851,74.364,30.944,74.001,31.405z"/>
				<path class="st2" d="M77.649,31.106c0,0,0.237-0.617-0.767-0.363c-1.006,0.255-1.368,0.746-0.694,1.001
					c0.675,0.258,1.101,0.169,1.185,0.347c0.164,0.348-1.658,0.25-1.349,0.516c0.311,0.268,2.006,0.085,1.952-0.516
					c-0.055-0.601-1.733-0.425-1.641-0.685C76.427,31.142,77.411,30.98,77.649,31.106z"/>
				<g>
					<path class="st2" d="M78.469,29.265c0,0-0.62-0.637-0.384,0.274c0.238,0.914,0.347,0.767,0.275,1.277
						c-0.075,0.51,0.107,1.095,0.329,1.004C78.906,31.728,78.961,30.453,78.469,29.265z"/>
					<path class="st2" d="M78.669,32.511c0,0,0.181,0.458-0.11,0.457C78.268,32.968,78.122,32.402,78.669,32.511z"/>
				</g>
			</g>
		</g>
		<g>
			<circle class="st3" cx="80.919" cy="10.02" r="0.967"/>
			<g>
				<path d="M80.47,9.403h0.5c0.082,0,0.141,0.004,0.18,0.011c0.037,0.008,0.073,0.019,0.103,0.035
					c0.055,0.028,0.096,0.067,0.122,0.117c0.03,0.05,0.044,0.111,0.044,0.18c0,0.066-0.014,0.123-0.046,0.172
					c-0.028,0.047-0.074,0.083-0.132,0.109c0.049,0.013,0.085,0.037,0.106,0.068c0.022,0.032,0.033,0.087,0.039,0.162l0.015,0.203
					c0.004,0.043,0.009,0.076,0.018,0.098c0.009,0.022,0.024,0.036,0.042,0.045v0.034l-0.204,0c-0.016-0.026-0.029-0.08-0.034-0.165
					v-0.006l-0.011-0.16c-0.007-0.082-0.023-0.136-0.057-0.16c-0.031-0.026-0.108-0.039-0.23-0.039h-0.285v0.529h-0.173L80.47,9.403
					z M80.642,9.55v0.418l0.299,0c0.107,0,0.185-0.018,0.228-0.05c0.045-0.035,0.069-0.09,0.069-0.168
					c0-0.073-0.022-0.125-0.064-0.154c-0.042-0.031-0.121-0.045-0.233-0.045L80.642,9.55z"/>
			</g>
		</g>
		<g>
			<path d="M5.339,33.122l0.292,1.126c0.064,0.247,0.123,0.476,0.164,0.704h0.014c0.051-0.224,0.124-0.462,0.197-0.7l0.362-1.13
				l0.338,0l0.343,1.107c0.082,0.265,0.146,0.498,0.196,0.722h0.014c0.037-0.224,0.096-0.457,0.17-0.718l0.316-1.111h0.398
				l-0.714,2.213H7.062L6.724,34.28c-0.078-0.247-0.141-0.466-0.196-0.727H6.519c-0.055,0.265-0.124,0.493-0.201,0.731L5.96,35.336
				H5.595l-0.667-2.214H5.339z"/>
			<path d="M8.644,33.125l0.292,1.125C9,34.496,9.059,34.725,9.101,34.954h0.014c0.05-0.225,0.123-0.463,0.197-0.7l0.362-1.13h0.338
				l0.342,1.107c0.082,0.265,0.146,0.498,0.196,0.723h0.014c0.036-0.224,0.096-0.457,0.169-0.718l0.316-1.111l0.398,0l-0.714,2.213
				h-0.366l-0.338-1.057c-0.078-0.247-0.142-0.466-0.196-0.727H9.824C9.769,33.82,9.7,34.049,9.622,34.287l-0.357,1.051H8.899
				l-0.667-2.214L8.644,33.125z"/>
			<path d="M11.949,33.126l0.292,1.126c0.064,0.247,0.124,0.476,0.164,0.704h0.014c0.05-0.224,0.124-0.462,0.197-0.7l0.362-1.129
				l0.338,0l0.343,1.107c0.082,0.265,0.146,0.498,0.196,0.723h0.014c0.037-0.225,0.096-0.458,0.17-0.718l0.316-1.111h0.398
				l-0.714,2.213h-0.366l-0.338-1.056c-0.078-0.247-0.142-0.467-0.196-0.727h-0.009c-0.055,0.265-0.124,0.493-0.201,0.732
				L12.57,35.34h-0.366l-0.667-2.214H11.949z"/>
			<path d="M14.764,35.103c0-0.169,0.115-0.289,0.274-0.288c0.16,0,0.27,0.119,0.27,0.289c0,0.165-0.105,0.288-0.274,0.288
				C14.874,35.391,14.764,35.268,14.764,35.103z"/>
			<path d="M17.6,33.129c-0.009,0.16-0.018,0.338-0.018,0.608l-0.001,1.285c0,0.507-0.101,0.818-0.316,1.011
				c-0.215,0.201-0.526,0.264-0.805,0.264c-0.265,0-0.558-0.064-0.736-0.184l0.101-0.306c0.146,0.092,0.375,0.175,0.649,0.175
				c0.411,0,0.714-0.215,0.714-0.772v-0.247h-0.009c-0.123,0.206-0.361,0.37-0.704,0.37c-0.549,0-0.942-0.467-0.942-1.08
				c0.001-0.75,0.49-1.175,0.997-1.175c0.384,0.001,0.595,0.202,0.691,0.385h0.009l0.018-0.334H17.6z M17.183,34.002
				c0-0.068-0.005-0.128-0.023-0.183c-0.073-0.234-0.27-0.425-0.562-0.426c-0.384,0-0.659,0.325-0.659,0.837
				c0,0.434,0.219,0.795,0.653,0.795c0.247,0,0.471-0.155,0.558-0.411c0.023-0.069,0.032-0.146,0.032-0.215L17.183,34.002z"/>
			<path d="M18.134,32.096h0.402l-0.002,3.247h-0.402L18.134,32.096z"/>
			<path d="M21.101,34.219c-0.001,0.819-0.568,1.175-1.103,1.175c-0.599,0-1.061-0.44-1.06-1.139c0-0.741,0.485-1.175,1.098-1.175
				C20.671,33.08,21.101,33.542,21.101,34.219z M19.345,34.241c0,0.485,0.278,0.85,0.672,0.851c0.384,0,0.672-0.36,0.673-0.859
				c0-0.375-0.187-0.851-0.663-0.851C19.551,33.382,19.345,33.82,19.345,34.241z"/>
			<path d="M21.474,35.344c0.009-0.151,0.018-0.375,0.019-0.572l0.001-2.675l0.398,0l-0.001,1.39H21.9
				c0.142-0.247,0.398-0.407,0.755-0.406c0.549,0,0.937,0.458,0.932,1.13c-0.001,0.791-0.499,1.184-0.993,1.184
				c-0.32,0-0.576-0.124-0.741-0.416H21.84l-0.018,0.366L21.474,35.344z M21.891,34.457c0,0.05,0.009,0.1,0.018,0.146
				c0.078,0.279,0.311,0.471,0.603,0.471c0.421,0.001,0.673-0.342,0.673-0.85c0-0.444-0.228-0.823-0.658-0.823
				c-0.274,0-0.531,0.187-0.613,0.493c-0.009,0.046-0.023,0.101-0.023,0.165V34.457z"/>
			<path d="M25.204,35.346l-0.032-0.279h-0.014c-0.124,0.174-0.361,0.329-0.677,0.329c-0.448,0-0.677-0.316-0.677-0.636
				c0-0.535,0.476-0.828,1.331-0.822v-0.046c0-0.183-0.05-0.512-0.503-0.512c-0.206,0-0.421,0.063-0.576,0.164l-0.091-0.265
				c0.183-0.119,0.448-0.196,0.727-0.196c0.677,0.001,0.842,0.462,0.841,0.906l0,0.827c0,0.192,0.009,0.38,0.036,0.53L25.204,35.346
				z M25.146,34.216c-0.439-0.009-0.938,0.068-0.938,0.498c0,0.261,0.173,0.384,0.379,0.384c0.288,0,0.471-0.183,0.535-0.371
				c0.014-0.041,0.023-0.087,0.023-0.128L25.146,34.216z"/>
			<path d="M26.069,32.1l0.402,0.001l-0.002,3.247l-0.403-0.001L26.069,32.1z"/>
			<path d="M27.033,33.824c0-0.261-0.005-0.485-0.018-0.691l0.352,0l0.013,0.434h0.019c0.101-0.297,0.343-0.485,0.613-0.485
				c0.046,0,0.078,0.005,0.114,0.014v0.38c-0.041-0.009-0.082-0.014-0.137-0.014c-0.283,0-0.485,0.215-0.54,0.517
				c-0.01,0.055-0.019,0.119-0.019,0.188l0,1.179l-0.398,0L27.033,33.824z"/>
			<path d="M28.592,34.314c0.009,0.544,0.357,0.768,0.759,0.768c0.288,0,0.462-0.05,0.613-0.114l0.069,0.288
				c-0.142,0.064-0.384,0.137-0.736,0.137c-0.681,0-1.088-0.449-1.088-1.116c0-0.668,0.394-1.194,1.038-1.194
				c0.722,0,0.914,0.636,0.914,1.043c0,0.083-0.009,0.146-0.014,0.188L28.592,34.314z M29.772,34.027
				c0.005-0.256-0.105-0.654-0.557-0.654c-0.407-0.001-0.586,0.374-0.618,0.653L29.772,34.027z"/>
			<path d="M31.769,35.349l-0.032-0.279h-0.014c-0.124,0.174-0.361,0.33-0.677,0.33c-0.448-0.001-0.677-0.316-0.677-0.637
				c0-0.535,0.476-0.828,1.331-0.822v-0.046c0-0.183-0.05-0.512-0.503-0.512c-0.206,0-0.421,0.063-0.576,0.164l-0.091-0.265
				c0.183-0.119,0.448-0.197,0.727-0.196c0.677,0,0.841,0.463,0.841,0.906l0,0.828c0,0.192,0.009,0.379,0.036,0.53L31.769,35.349z
				 M31.71,34.219c-0.439-0.009-0.938,0.068-0.938,0.498c0,0.261,0.173,0.384,0.379,0.385c0.288,0,0.471-0.183,0.535-0.37
				c0.014-0.041,0.023-0.087,0.023-0.128L31.71,34.219z"/>
			<path d="M34.21,35.268c-0.105,0.055-0.338,0.128-0.636,0.128c-0.668,0-1.102-0.453-1.102-1.13c0-0.681,0.467-1.175,1.189-1.175
				c0.238,0,0.448,0.06,0.558,0.115l-0.091,0.311c-0.096-0.055-0.247-0.105-0.466-0.106c-0.508,0-0.782,0.375-0.782,0.837
				c0,0.512,0.329,0.828,0.768,0.828c0.229,0,0.379-0.059,0.494-0.109L34.21,35.268z"/>
			<path d="M34.567,32.104l0.403,0l-0.001,1.381h0.009c0.064-0.114,0.165-0.215,0.288-0.284c0.119-0.069,0.261-0.114,0.411-0.114
				c0.297,0,0.773,0.184,0.773,0.947l-0.001,1.317h-0.402l0-1.272c0-0.357-0.132-0.658-0.511-0.659c-0.261,0-0.467,0.183-0.54,0.402
				c-0.023,0.055-0.027,0.114-0.027,0.192l-0.001,1.335l-0.402-0.001L34.567,32.104z"/>
			<path d="M38.992,34.228c0,0.819-0.568,1.175-1.103,1.175c-0.599-0.001-1.061-0.44-1.06-1.139c0-0.741,0.485-1.175,1.098-1.175
				C38.562,33.089,38.992,33.551,38.992,34.228z M37.236,34.25c0,0.484,0.278,0.85,0.672,0.85c0.384,0,0.672-0.36,0.672-0.859
				c0-0.375-0.187-0.85-0.663-0.85C37.442,33.39,37.236,33.829,37.236,34.25z"/>
			<path d="M39.384,33.739c0-0.229-0.004-0.416-0.018-0.599l0.357,0l0.023,0.366h0.009c0.11-0.21,0.366-0.416,0.732-0.416
				c0.306,0,0.782,0.183,0.782,0.942l0,1.322h-0.402l0-1.276c0-0.357-0.132-0.654-0.512-0.654c-0.265,0-0.471,0.187-0.54,0.411
				c-0.019,0.05-0.028,0.119-0.028,0.188l-0.001,1.331l-0.402-0.001L39.384,33.739z"/>
			<path d="M41.808,32.108h0.402l-0.002,3.247h-0.402L41.808,32.108z"/>
			<path d="M43.22,32.519c0.004,0.137-0.096,0.247-0.256,0.247c-0.142,0-0.243-0.11-0.242-0.247c0-0.142,0.105-0.251,0.252-0.251
				C43.124,32.268,43.22,32.378,43.22,32.519z M42.771,35.355l0.001-2.214h0.402l-0.001,2.214H42.771z"/>
			<path d="M43.727,33.741c0-0.229-0.005-0.416-0.018-0.599h0.357l0.023,0.366h0.009c0.11-0.21,0.366-0.416,0.732-0.416
				c0.307,0,0.782,0.183,0.782,0.942l0,1.321h-0.403l0-1.276c0-0.357-0.132-0.654-0.511-0.654c-0.266,0-0.472,0.187-0.54,0.411
				c-0.019,0.05-0.028,0.119-0.028,0.188l0,1.33h-0.403L43.727,33.741z"/>
			<path d="M46.373,34.323c0.009,0.544,0.356,0.768,0.758,0.768c0.288,0,0.462-0.05,0.613-0.114l0.068,0.288
				c-0.141,0.064-0.384,0.137-0.736,0.137c-0.681-0.001-1.088-0.449-1.088-1.117c0-0.668,0.394-1.193,1.038-1.193
				c0.723,0,0.914,0.636,0.914,1.043c0,0.082-0.009,0.146-0.014,0.188L46.373,34.323z M47.552,34.035
				c0.005-0.256-0.105-0.654-0.558-0.655c-0.407,0-0.586,0.375-0.618,0.654L47.552,34.035z"/>
			<path d="M48.173,35.12c0-0.169,0.114-0.288,0.274-0.288c0.161,0,0.27,0.119,0.27,0.288c0,0.165-0.105,0.288-0.275,0.288
				C48.283,35.408,48.172,35.285,48.173,35.12z"/>
			<path d="M50.679,35.276c-0.105,0.055-0.339,0.128-0.636,0.128c-0.668,0-1.102-0.453-1.102-1.13c0-0.681,0.468-1.175,1.19-1.175
				c0.238,0,0.449,0.059,0.558,0.115l-0.091,0.311c-0.097-0.055-0.248-0.105-0.467-0.105c-0.508,0-0.782,0.375-0.782,0.837
				c-0.001,0.512,0.328,0.828,0.768,0.829c0.229,0,0.379-0.059,0.494-0.11L50.679,35.276z"/>
			<path d="M53.01,34.235c0,0.819-0.567,1.175-1.103,1.175c-0.599,0-1.061-0.439-1.061-1.139c0.001-0.741,0.485-1.175,1.099-1.175
				C52.582,33.096,53.01,33.558,53.01,34.235z M51.254,34.257c0,0.485,0.279,0.85,0.672,0.851c0.384,0,0.673-0.361,0.673-0.86
				c0-0.375-0.187-0.85-0.664-0.85C51.46,33.397,51.254,33.836,51.254,34.257z"/>
			<path d="M53.403,33.746c0-0.229-0.005-0.416-0.018-0.599l0.352,0l0.018,0.357h0.014c0.123-0.21,0.329-0.407,0.695-0.407
				c0.302,0.001,0.531,0.184,0.626,0.444H55.1c0.069-0.123,0.156-0.22,0.248-0.288c0.133-0.101,0.279-0.155,0.49-0.155
				c0.293,0,0.726,0.192,0.726,0.961l-0.001,1.303l-0.393,0l0.001-1.253c0-0.426-0.155-0.681-0.48-0.681
				c-0.229-0.001-0.408,0.169-0.477,0.365c-0.018,0.055-0.032,0.128-0.032,0.201l-0.001,1.367h-0.393l0.001-1.326
				c0-0.352-0.155-0.609-0.461-0.609c-0.252,0-0.435,0.201-0.499,0.402c-0.023,0.06-0.032,0.128-0.032,0.197l-0.001,1.336
				l-0.393-0.001L53.403,33.746z"/>
		</g>
	</g>
	<path class="st4" d="M86.489,42.883c0,1.33-1.079,2.409-2.409,2.409H2.65c-1.331,0-2.409-1.079-2.409-2.409V2.65
		c0-1.331,1.079-2.409,2.409-2.409h81.429c1.331,0,2.409,1.078,2.409,2.409V42.883z"/>
</g>
</svg>