<!-- Generator: Adobe Illustrator 21.0.0, SVG Export Plug-In  -->
<svg version="1.1"
	 xmlns="http://www.w3.org/2000/svg" xmlns:xlink="http://www.w3.org/1999/xlink" xmlns:a="http://ns.adobe.com/AdobeSVGViewerExtensions/3.0/"
	 x="0px" y="0px" width="77.907px" height="55.086px" viewBox="0 0 77.907 55.086"
	 style="enable-background:new 0 0 77.907 55.086;" xml:space="preserve">
<style type="text/css">
	.st0{fill:#FDDD1B;}
	.st1{fill:#E11F26;}
	.st2{fill-rule:evenodd;clip-rule:evenodd;fill:#E11F26;}
</style>
<defs>
</defs>
<g>
	<rect class="st0" width="77.907" height="55.086"/>
	<g>
		<polygon class="st1" points="62.659,14.273 62.659,12.597 62.045,12.597 62.045,12.418 62.045,12.238 63.699,12.238 
			63.699,12.417 63.699,12.597 63.084,12.597 63.084,14.273 62.872,14.273 		"/>
		<polygon class="st2" points="64.329,14.273 64.133,14.273 63.934,14.273 63.934,12.238 64.244,12.238 64.557,12.238 64.927,13.85 
			65.292,12.238 65.599,12.238 65.906,12.238 65.906,14.273 65.708,14.273 65.509,14.273 65.509,12.561 65.129,14.273 64.92,14.273 
			64.71,14.273 64.331,12.524 64.329,12.524 		"/>
		<path class="st1" d="M18.116,14.529c0.335-1.24,1.613-2.246,2.854-2.246h4.542l-2.964,10.975c-0.335,1.24-1.207,2.246-2.949,2.246
			h-4.447L18.116,14.529z"/>
		<path class="st1" d="M14.974,25.98h4.542c1.241,0,1.956,0.922,1.621,2.163l-2.033,7.654h-4.542c-1.241,0-1.976-1.006-1.641-2.247
			L14.974,25.98z"/>
		<path class="st1" d="M23.869,20.223h6.119c1.33,0,2.383,1.458,2.001,2.765l-3.379,12.866h-5.068l2.268-8.349
			c0.312-1.152-0.024-2.163-1.069-2.26c-0.065-0.006-2.027-0.009-2.751-0.011c0.5-0.489,0.827-1.12,1.01-1.794L23.869,20.223z"/>
		<path class="st1" d="M48.825,22.939c0.343-1.268-0.777-2.683-1.824-2.683h-3.425l-3.527,13.433
			c-0.327,1.241,0.368,2.165,1.609,2.165h3.748L48.825,22.939z"/>
		<path class="st1" d="M39.998,31.152h-1.464c-2.057,0.018-1.712-1.512-1.386-2.752l2.146-8.145h-4.595l-3.614,13.433
			c-0.327,1.241,0.455,2.172,1.696,2.172h7.689c-0.968-0.211-1.347-1.087-1.061-2.172L39.998,31.152z"/>
		<path class="st1" d="M53.044,14.529c0.335-1.24,1.697-2.246,2.938-2.246h4.363L57.38,23.258c-0.335,1.24-1.612,2.246-2.854,2.246
			H50.08L53.044,14.529z"/>
		<path class="st1" d="M51.87,25.965h4.799l-2.024,7.723c-0.335,1.241-1.581,2.165-2.822,2.165h-4.447l2.045-7.997
			C49.71,26.692,50.358,26.072,51.87,25.965"/>
		<path class="st1" d="M65.75,23.058l-2.882,10.792c-0.336,1.241-1.396,2.004-2.638,2.004h-7.201c1.08-0.21,1.886-0.979,2.189-2.165
			l0.69-2.536h2.026c2.613,0.033,2.372-1.506,2.774-3.449c0,0,0.77-2.192-2.44-2.192h-1.337c0.261,0,0.642-0.496,0.859-1.363
			c0.447-1.651,1.054-3.918,1.054-3.918l5.021-0.007C65.055,20.395,66.065,21.387,65.75,23.058"/>
		<path class="st2" d="M12.97,38.136h0.905l-0.172,0.821h-0.905L12.97,38.136z M12.704,39.41h0.905l-0.703,3.355h-0.905
			L12.704,39.41z"/>
		<path class="st1" d="M14.865,39.41h0.865l-0.087,0.44c0.216-0.188,0.418-0.323,0.606-0.403c0.187-0.08,0.385-0.122,0.593-0.122
			c0.278,0,0.496,0.081,0.656,0.24c0.16,0.161,0.24,0.373,0.24,0.638c-0.002,0.117-0.041,0.34-0.117,0.667l-0.407,1.894H16.31
			l0.412-1.901c0.059-0.283,0.091-0.453,0.094-0.51c0-0.119-0.035-0.211-0.104-0.279c-0.07-0.069-0.165-0.102-0.289-0.102
			c-0.134,0-0.283,0.056-0.446,0.167c-0.164,0.112-0.293,0.261-0.387,0.445c-0.07,0.131-0.149,0.399-0.237,0.804l-0.285,1.376
			h-0.905L14.865,39.41z"/>
		<path class="st1" d="M18.692,40.082l0.136-0.672h0.446l0.109-0.524l1.025-0.627l-0.234,1.151h0.549l-0.136,0.672h-0.549
			l-0.295,1.416c-0.055,0.255-0.082,0.4-0.082,0.435c0,0.069,0.022,0.123,0.066,0.162c0.044,0.039,0.123,0.059,0.239,0.059
			c0.04,0,0.139-0.007,0.298-0.021l-0.142,0.67c-0.156,0.031-0.316,0.047-0.479,0.047c-0.319,0-0.55-0.062-0.695-0.186
			c-0.145-0.124-0.218-0.297-0.218-0.517c0-0.103,0.041-0.34,0.122-0.712l0.289-1.353H18.692z"/>
		<polygon class="st1" points="21.694,39.777 21.7,38.918 21.868,38.136 22.834,38.136 22.667,38.918 22.338,39.777 		"/>
		<polygon class="st1" points="22.865,42.764 23.834,38.136 24.739,38.136 23.77,42.764 		"/>
		<path class="st2" d="M30.438,41.368h-2.278c-0.003,0.035-0.003,0.063-0.003,0.083c0,0.224,0.064,0.406,0.193,0.544
			c0.129,0.137,0.286,0.207,0.471,0.207c0.304,0,0.541-0.155,0.711-0.466l0.809,0.136c-0.159,0.325-0.37,0.569-0.635,0.733
			c-0.265,0.162-0.563,0.244-0.892,0.244c-0.452,0-0.819-0.144-1.102-0.43c-0.283-0.286-0.424-0.664-0.424-1.135
			c0-0.461,0.127-0.871,0.383-1.229c0.348-0.487,0.844-0.73,1.489-0.73c0.411,0,0.738,0.128,0.98,0.382
			c0.242,0.255,0.364,0.611,0.364,1.069C30.501,40.995,30.479,41.193,30.438,41.368 M29.672,40.819
			c0.002-0.041,0.003-0.071,0.003-0.093c0-0.252-0.056-0.44-0.168-0.565c-0.112-0.127-0.261-0.189-0.449-0.189
			c-0.188,0-0.356,0.072-0.505,0.214c-0.149,0.142-0.249,0.353-0.302,0.633H29.672z"/>
		<path class="st2" d="M34.223,42.764h-0.859l0.075-0.359c-0.164,0.159-0.326,0.272-0.484,0.34
			c-0.159,0.069-0.338,0.103-0.538,0.103c-0.347,0-0.629-0.119-0.844-0.357c-0.216-0.237-0.324-0.589-0.324-1.054
			c0-0.538,0.154-1.026,0.461-1.461c0.308-0.435,0.714-0.653,1.22-0.653c0.457,0,0.799,0.181,1.028,0.541l0.376-1.73h0.905
			L34.223,42.764z M32.129,41.402c0,0.242,0.061,0.428,0.184,0.565c0.123,0.136,0.273,0.203,0.452,0.203
			c0.166,0,0.321-0.056,0.465-0.17c0.143-0.113,0.259-0.286,0.345-0.518c0.086-0.232,0.129-0.456,0.129-0.67
			c0-0.242-0.066-0.439-0.198-0.589c-0.132-0.15-0.284-0.225-0.457-0.225c-0.269,0-0.489,0.148-0.661,0.445
			C32.215,40.737,32.129,41.057,32.129,41.402"/>
		<path class="st1" d="M36.171,39.41h0.906l-0.449,1.992c-0.054,0.238-0.082,0.388-0.082,0.445c0,0.098,0.032,0.181,0.097,0.251
			c0.065,0.07,0.148,0.105,0.249,0.105c0.072,0,0.143-0.016,0.214-0.047c0.071-0.032,0.143-0.08,0.217-0.145
			c0.075-0.064,0.141-0.138,0.2-0.222c0.059-0.083,0.114-0.191,0.166-0.327c0.036-0.1,0.077-0.25,0.124-0.452l0.362-1.6h0.905
			l-0.762,3.355h-0.845l0.09-0.431c-0.341,0.344-0.712,0.515-1.114,0.515c-0.254,0-0.454-0.078-0.599-0.238
			c-0.145-0.158-0.218-0.371-0.218-0.638c0-0.116,0.038-0.347,0.116-0.692L36.171,39.41z"/>
		<path class="st1" d="M42.016,41.505l0.879,0.142c-0.145,0.391-0.36,0.691-0.643,0.895c-0.284,0.204-0.613,0.307-0.986,0.307
			c-0.427,0-0.766-0.128-1.015-0.384c-0.25-0.255-0.376-0.607-0.376-1.055c0-0.365,0.075-0.71,0.227-1.036
			c0.152-0.326,0.38-0.581,0.686-0.769c0.305-0.187,0.639-0.281,1.003-0.281c0.395,0,0.71,0.104,0.947,0.311
			c0.235,0.207,0.368,0.48,0.397,0.819l-0.86,0.092c-0.021-0.188-0.079-0.326-0.173-0.416c-0.093-0.088-0.216-0.133-0.368-0.133
			c-0.174,0-0.337,0.066-0.489,0.196c-0.152,0.132-0.268,0.327-0.35,0.589c-0.08,0.261-0.121,0.506-0.121,0.734
			c0,0.199,0.049,0.352,0.146,0.46c0.096,0.108,0.217,0.161,0.362,0.161c0.145,0,0.285-0.053,0.419-0.159
			C41.835,41.873,41.94,41.715,42.016,41.505"/>
		<path class="st2" d="M44.983,40.347l-0.886-0.074c0.102-0.298,0.278-0.53,0.53-0.696c0.251-0.167,0.587-0.252,1.002-0.252
			c0.432,0,0.752,0.087,0.959,0.262c0.207,0.174,0.31,0.386,0.31,0.638c0,0.101-0.01,0.208-0.027,0.323
			c-0.018,0.114-0.081,0.413-0.188,0.899c-0.09,0.4-0.135,0.681-0.135,0.842c0,0.143,0.027,0.302,0.078,0.477H45.74
			c-0.034-0.121-0.056-0.248-0.065-0.378c-0.132,0.146-0.285,0.261-0.458,0.342c-0.173,0.08-0.347,0.121-0.522,0.121
			c-0.278,0-0.507-0.092-0.688-0.274c-0.182-0.183-0.272-0.419-0.272-0.707c0-0.321,0.099-0.579,0.298-0.771
			c0.199-0.193,0.555-0.308,1.067-0.348c0.433-0.037,0.722-0.08,0.868-0.13c0.038-0.127,0.056-0.229,0.056-0.305
			c0-0.097-0.038-0.178-0.117-0.244c-0.078-0.066-0.194-0.098-0.348-0.098c-0.162,0-0.29,0.032-0.384,0.098
			C45.08,40.134,45.017,40.227,44.983,40.347 M45.846,41.193c-0.054,0.016-0.126,0.029-0.217,0.042
			c-0.455,0.056-0.753,0.137-0.891,0.244c-0.099,0.076-0.149,0.179-0.149,0.31c0,0.107,0.039,0.196,0.114,0.27
			c0.077,0.074,0.177,0.111,0.301,0.111c0.137,0,0.266-0.034,0.388-0.101c0.122-0.067,0.211-0.153,0.272-0.258
			c0.059-0.106,0.113-0.271,0.16-0.495L45.846,41.193z"/>
		<path class="st1" d="M47.893,40.082l0.136-0.672h0.446l0.109-0.524l1.024-0.627l-0.233,1.151h0.548l-0.136,0.672h-0.549
			l-0.295,1.416c-0.054,0.255-0.082,0.4-0.082,0.435c0,0.069,0.023,0.123,0.066,0.162c0.045,0.039,0.124,0.059,0.238,0.059
			c0.041,0,0.14-0.007,0.299-0.021l-0.142,0.67c-0.156,0.031-0.316,0.047-0.479,0.047c-0.319,0-0.551-0.062-0.695-0.186
			c-0.145-0.124-0.218-0.297-0.218-0.517c0-0.103,0.041-0.34,0.122-0.712l0.289-1.353H47.893z"/>
		<path class="st2" d="M51.145,38.136h0.906l-0.173,0.821h-0.904L51.145,38.136z M50.879,39.41h0.904l-0.703,3.355h-0.904
			L50.879,39.41z"/>
		<path class="st2" d="M52.461,41.372c0-0.623,0.175-1.121,0.525-1.491c0.351-0.371,0.811-0.557,1.38-0.557
			c0.494,0,0.881,0.137,1.158,0.41c0.278,0.274,0.417,0.642,0.417,1.105c0,0.544-0.172,1.016-0.521,1.413
			c-0.347,0.397-0.811,0.595-1.393,0.595c-0.317,0-0.596-0.063-0.84-0.19c-0.244-0.126-0.426-0.307-0.546-0.539
			C52.52,41.888,52.461,41.639,52.461,41.372 M55.041,40.721c0-0.218-0.062-0.39-0.187-0.521c-0.126-0.13-0.287-0.196-0.483-0.196
			c-0.195,0-0.369,0.061-0.519,0.183c-0.152,0.123-0.269,0.3-0.353,0.531c-0.084,0.233-0.125,0.447-0.125,0.642
			c0,0.243,0.065,0.436,0.195,0.576c0.129,0.143,0.293,0.214,0.491,0.214c0.248,0,0.456-0.107,0.623-0.322
			C54.921,41.525,55.041,41.156,55.041,40.721"/>
		<path class="st1" d="M57.35,39.41h0.866l-0.087,0.44c0.216-0.188,0.418-0.323,0.605-0.403c0.187-0.08,0.385-0.122,0.594-0.122
			c0.277,0,0.496,0.081,0.657,0.24c0.159,0.161,0.24,0.373,0.24,0.638c-0.003,0.117-0.041,0.34-0.117,0.667L59.7,42.765h-0.906
			l0.411-1.901c0.059-0.283,0.091-0.453,0.094-0.51c0-0.119-0.034-0.211-0.103-0.279c-0.07-0.069-0.166-0.102-0.289-0.102
			c-0.135,0-0.284,0.056-0.447,0.167c-0.164,0.112-0.293,0.261-0.386,0.445c-0.07,0.131-0.149,0.399-0.237,0.804l-0.285,1.376
			h-0.904L57.35,39.41z"/>
	</g>
</g>
</svg>