<!-- Generator: Adobe Illustrator 21.0.0, SVG Export Plug-In  -->
<svg version="1.1"
	 xmlns="http://www.w3.org/2000/svg" xmlns:xlink="http://www.w3.org/1999/xlink" xmlns:a="http://ns.adobe.com/AdobeSVGViewerExtensions/3.0/"
	 x="0px" y="0px" width="151.881px" height="73.766px" viewBox="0 0 151.881 73.766"
	 style="enable-background:new 0 0 151.881 73.766;" xml:space="preserve">
<style type="text/css">
	.st0{fill:#8BC53F;}
	.st1{fill:#FFFFFF;}
	.st2{fill:#F58220;}
	.st3{fill:#223238;}
</style>
<defs>
</defs>
<rect class="st0" width="151.88" height="58.021"/>
<polygon class="st1" points="128.743,24.065 128.533,24.065 124.786,35.873 127.823,45.426 121.756,45.426 119.604,52.208 
	129.954,52.208 131.833,58.021 140.634,58.021 "/>
<polygon class="st2" points="107.994,58.021 116.155,58.021 130.712,12.132 122.55,12.132 "/>
<path class="st1" d="M93.058,23.531c-7.606,0-14.485,4.263-14.485,12.74v10.512c0,6.067,3.162,9.572,7.52,11.239h13.886
	c4.09-1.605,7.273-4.866,7.273-10.124v-7.945H91.993v6.443h6.974v0.872c0,3.584-2.664,5.038-5.618,5.038
	c-3.537,0-6.103-2.18-6.103-5.715V35.933c0-3.925,3.101-5.523,6.103-5.523c2.665,0,5.764,1.307,5.764,4.94v0.63h8.139v-1.26
	C107.251,26.679,99.791,23.531,93.058,23.531z"/>
<polygon class="st1" points="58.374,44.7 72.519,44.7 72.519,37.726 58.374,37.726 58.374,31.137 75.184,31.137 75.184,24.113 
	49.752,24.113 49.752,58.021 75.281,58.021 75.281,51.578 58.374,51.578 "/>
<polygon class="st1" points="27.759,42.035 20.978,24.113 10.272,24.113 10.272,58.021 18.265,58.021 18.265,36.707 18.362,36.707 
	24.707,54 30.666,54 36.964,36.66 37.109,36.66 37.109,58.021 45.101,58.021 45.101,24.113 34.35,24.113 "/>
<g>
	<path class="st3" d="M2.239,73.691h-2.05l4.575-10.778h2.148l4.673,10.778H9.436l-1.229-2.939h-3.58l0.686-1.733h2.17l-1.696-4.047
		L2.239,73.691z"/>
	<path class="st3" d="M12.517,73.691V62.913h5.05c2.05,0,3.075,0.837,3.075,2.51c0,1.226-0.668,2.103-2.005,2.63
		c1.427,0.267,2.141,1.083,2.141,2.45c0,2.125-1.123,3.188-3.369,3.188H12.517z M17.326,71.958c0.884,0,1.327-0.452,1.327-1.357
		c0-1.12-0.661-1.681-1.982-1.681h-0.603v-1.289c1.658-0.276,2.487-0.97,2.487-2.08c0-0.603-0.372-0.905-1.115-0.905h-2.924v7.311
		H17.326z"/>
	<path class="st3" d="M22.088,73.676V62.913h4.899c2.201,0,3.301,0.962,3.301,2.887c0,1.301-0.857,2.379-2.57,3.233l3.414,4.658
		h-2.518l-3.278-4.695v-0.912c1.909-0.327,2.864-1.067,2.864-2.223c0-0.794-0.447-1.191-1.341-1.191h-2.736v9.006H22.088z"/>
	<path class="st3" d="M31.311,68.318c0-3.653,1.804-5.479,5.411-5.479c3.552,0,5.329,1.827,5.329,5.479
		c0,3.632-1.776,5.449-5.329,5.449C33.276,73.766,31.472,71.95,31.311,68.318z M36.722,72.033c2.171,0,3.256-1.253,3.256-3.761
		c0-2.467-1.085-3.701-3.256-3.701c-2.226,0-3.339,1.233-3.339,3.701C33.384,70.78,34.496,72.033,36.722,72.033z"/>
	<path class="st3" d="M44.657,73.691h-2.05l4.575-10.778h2.148l4.673,10.778h-2.148l-1.229-2.939h-3.58l0.686-1.733h2.17
		l-1.696-4.047L44.657,73.691z"/>
	<path class="st3" d="M54.936,73.691V62.913h4.221c3.567,0,5.351,1.699,5.351,5.095c0,3.789-1.784,5.683-5.351,5.683H54.936z
		 M59.157,71.958c2.236,0,3.354-1.316,3.354-3.949c0-2.241-1.118-3.362-3.354-3.362h-2.223v7.311H59.157z"/>
	<path class="st3" d="M68.635,73.239V71.43c1.081,0.402,2.301,0.603,3.663,0.603c1.653,0,2.479-0.553,2.479-1.658
		c0-0.804-0.507-1.206-1.522-1.206h-1.688c-2.206,0-3.309-1.005-3.309-3.015c0-2.211,1.57-3.316,4.71-3.316
		c1.206,0,2.349,0.176,3.429,0.527v1.809c-1.081-0.402-2.224-0.603-3.429-0.603c-1.809,0-2.713,0.528-2.713,1.583
		c0,0.804,0.437,1.206,1.312,1.206h1.688c2.347,0,3.52,1.005,3.52,3.015c0,2.261-1.493,3.392-4.477,3.392
		C70.936,73.766,69.716,73.591,68.635,73.239z"/>
	<path class="st3" d="M85.132,62.913v1.733h-3.09v9.044h-1.997v-9.044h-3.09v-1.733H85.132z"/>
	<path class="st3" d="M85.876,69.455v-6.542h1.998v6.542c0,1.719,0.879,2.578,2.638,2.578s2.638-0.859,2.638-2.578v-6.542h1.997
		v6.542c0,2.874-1.545,4.311-4.635,4.311C87.422,73.766,85.876,72.329,85.876,69.455z"/>
	<path class="st3" d="M97.022,73.691V62.913h4.221c3.567,0,5.351,1.699,5.351,5.095c0,3.789-1.784,5.683-5.351,5.683H97.022z
		 M101.242,71.958c2.236,0,3.354-1.316,3.354-3.949c0-2.241-1.118-3.362-3.354-3.362h-2.223v7.311H101.242z"/>
	<path class="st3" d="M106.961,62.913h2.148l3.03,5.193l2.849-5.193h2.072l-3.964,7.009v3.769h-1.997v-3.769L106.961,62.913z"/>
	<path class="st3" d="M127.398,62.913v1.719h-5.095v2.713h4.838v1.787h-4.861v4.56h-1.96V62.913H127.398z"/>
	<path class="st3" d="M128.685,73.691h-2.05l4.575-10.778h2.148l4.673,10.778h-2.148l-1.229-2.939h-3.58l0.686-1.733h2.17
		l-1.696-4.047L128.685,73.691z"/>
	<path class="st3" d="M140.962,62.913v10.778h-1.998V62.913H140.962z"/>
	<path class="st3" d="M142.837,73.676V62.913h4.899c2.201,0,3.301,0.962,3.301,2.887c0,1.301-0.857,2.379-2.57,3.233l3.414,4.658
		h-2.518l-3.278-4.695v-0.912c1.909-0.327,2.864-1.067,2.864-2.223c0-0.794-0.447-1.191-1.341-1.191h-2.736v9.006H142.837z"/>
</g>
</svg>