<!-- Generator: Adobe Illustrator 21.0.0, SVG Export Plug-In  -->
<svg version="1.1"
	 xmlns="http://www.w3.org/2000/svg" xmlns:xlink="http://www.w3.org/1999/xlink" xmlns:a="http://ns.adobe.com/AdobeSVGViewerExtensions/3.0/"
	 x="0px" y="0px" width="68.819px" height="29.027px" viewBox="0 0 68.819 29.027"
	 style="enable-background:new 0 0 68.819 29.027;" xml:space="preserve">
<style type="text/css">
	.st0{fill-rule:evenodd;clip-rule:evenodd;fill:#7FB539;}
	.st1{fill-rule:evenodd;clip-rule:evenodd;}
</style>
<defs>
</defs>
<g>
	<path class="st0" d="M60.217,0c-12.58,10.732-38.84,16.773-59.774,21.107h60.67C76.361,23.104,65.104,4.697,60.217,0z"/>
	<polygon class="st1" points="5.404,8.324 7.629,16.115 9.873,8.324 15.039,8.324 15.039,21.141 11.127,21.141 11.127,16.115 
		11.404,13.352 9.178,21.141 6.1,21.141 3.873,13.213 4.152,16.115 4.152,21.141 0.236,21.141 0.236,8.324 	"/>
	<path class="st1" d="M23.971,17.125c-0.146,0.094-0.301,0.168-0.467,0.221c-0.166,0.051-0.336,0.098-0.508,0.137
		c-0.053,0-0.102,0.008-0.148,0.023c-0.047,0.012-0.094,0.025-0.148,0.037c-0.359,0.068-0.676,0.164-0.955,0.291
		c-0.277,0.125-0.418,0.359-0.418,0.705c0,0.238,0.111,0.422,0.33,0.555c0.217,0.133,0.467,0.199,0.742,0.199
		c0.055,0,0.106-0.002,0.15-0.01c0.047-0.006,0.098-0.01,0.15-0.01c0.133-0.027,0.264-0.07,0.396-0.129
		c0.133-0.061,0.238-0.125,0.32-0.189c0.117-0.119,0.217-0.244,0.295-0.367c0.08-0.125,0.139-0.256,0.178-0.389
		c0.041-0.105,0.072-0.215,0.092-0.328c0.02-0.111,0.029-0.215,0.029-0.309c0-0.023,0-0.051,0-0.08c0-0.025-0.006-0.047-0.018-0.057
		c0-0.014,0-0.029,0-0.043c0-0.012,0-0.023,0-0.037c0-0.039-0.006-0.076-0.012-0.109c-0.006-0.035-0.01-0.063-0.01-0.09V17.125z
		 M17.83,14.723c0.213-1.022,0.633-1.809,1.262-2.365c0.629-0.555,2.023-0.834,4.184-0.834c2.025,0,3.281,0.332,3.766,0.994
		c0.482,0.662,0.758,1.396,0.822,2.205c0,0.027,0.004,0.053,0.012,0.082c0.006,0.023,0.01,0.049,0.01,0.078v4.867
		c0,0.225,0.039,0.434,0.119,0.625c0.08,0.191,0.225,0.361,0.438,0.508v0.258h-4.055l-0.139-0.975
		c-0.238,0.33-0.625,0.6-1.162,0.805c-0.537,0.205-1.101,0.334-1.699,0.387c-0.092,0-0.182,0.004-0.268,0.012
		c-0.086,0.006-0.176,0.01-0.27,0.01c-0.025,0-0.055,0-0.09,0c-0.031,0-0.066,0-0.108,0c-0.57-0.027-1.117-0.139-1.639-0.338
		c-0.525-0.199-0.918-0.529-1.184-0.992c-0.027-0.055-0.053-0.109-0.08-0.17c-0.025-0.059-0.059-0.129-0.098-0.207
		c-0.053-0.16-0.105-0.342-0.158-0.547c-0.055-0.207-0.08-0.416-0.08-0.625c0-0.148,0.014-0.297,0.039-0.449
		c0.027-0.152,0.066-0.309,0.119-0.467c0.053-0.149,0.127-0.299,0.219-0.459c0.092-0.156,0.199-0.305,0.318-0.435
		c0.291-0.332,0.684-0.574,1.18-0.736c0.498-0.158,1.012-0.277,1.541-0.357c0.201-0.037,0.4-0.072,0.596-0.096
		c0.201-0.027,0.392-0.057,0.578-0.082c0.277-0.025,0.539-0.063,0.785-0.108c0.244-0.049,0.453-0.098,0.627-0.152
		c0.131-0.039,0.246-0.104,0.346-0.197c0.1-0.092,0.162-0.186,0.19-0.277c0-0.027,0.002-0.051,0.01-0.068
		c0.006-0.021,0.01-0.045,0.01-0.074c0-0.023-0.004-0.045-0.01-0.068c-0.008-0.02-0.01-0.037-0.01-0.049
		c-0.041-0.131-0.141-0.248-0.301-0.346c-0.156-0.102-0.375-0.15-0.654-0.15c-0.344,0-0.644,0.049-0.902,0.15
		c-0.26,0.098-0.422,0.318-0.488,0.664L17.83,14.723z"/>
	<path class="st1" d="M29.789,11.922h1.529V9.137h3.639v2.785h1.805v2.244h-1.805v3.377c0,0.307,0.09,0.551,0.275,0.736
		c0.186,0.185,0.523,0.279,1.016,0.279c0.039,0,0.078,0,0.117,0c0.041,0,0.08-0.006,0.119-0.019c0.027,0,0.049,0,0.07,0
		c0.02,0,0.041,0,0.068,0c0.025,0,0.051,0,0.07,0c0.02,0,0.043,0,0.068,0v2.601c-0.41,0.025-0.803,0.045-1.18,0.059
		c-0.377,0.016-0.727,0.02-1.043,0.02c-1.127,0-1.969-0.158-2.524-0.475c-0.559-0.318-0.836-0.961-0.836-1.928v-4.65h-1.391V11.922z
		"/>
	<path class="st1" d="M42.945,15.279h3.518c-0.135-0.543-0.363-0.902-0.688-1.084c-0.324-0.178-0.699-0.268-1.123-0.268
		c-0.41,0-0.756,0.09-1.041,0.264C43.326,14.367,43.105,14.731,42.945,15.279z M46.184,18.24h3.637
		c-0.131,0.834-0.605,1.572-1.422,2.215c-0.814,0.641-2.063,0.963-3.746,0.963h-0.176c-1.711,0-3.006-0.506-3.887-1.52
		c-0.881-1.014-1.326-2.129-1.34-3.346c0-0.014,0-0.025,0-0.031c0-0.008,0-0.016,0-0.029c0-0.016,0-0.031,0-0.053
		c0-0.018,0-0.041,0-0.067c0.027-1.207,0.48-2.316,1.361-3.33c0.879-1.012,2.182-1.52,3.902-1.52c1.537,0,2.697,0.318,3.479,0.953
		c0.781,0.637,1.33,1.332,1.648,2.086c0.172,0.438,0.291,0.859,0.357,1.262c0.068,0.406,0.098,0.752,0.098,1.045v0.398h-7.012
		c0.039,0.553,0.205,0.979,0.496,1.272c0.291,0.291,0.615,0.469,0.975,0.535c0.053,0.014,0.109,0.024,0.168,0.027
		c0.061,0.008,0.115,0.016,0.17,0.016c0.305,0,0.582-0.082,0.834-0.242c0.25-0.158,0.404-0.363,0.457-0.615V18.24z"/>
	<path class="st1" d="M52.359,8.186h3.318v2.762c0,0.186-0.02,0.443-0.059,0.775c-0.041,0.33-0.125,0.676-0.26,1.033
		c-0.197,0.49-0.525,0.941-0.983,1.359c-0.457,0.418-1.129,0.627-2.017,0.627v-1.529c0.426-0.053,0.758-0.223,1.004-0.508
		c0.246-0.283,0.367-0.676,0.367-1.182l-1.371-0.02V8.186z"/>
	<path class="st1" d="M64.055,14.582c-0.012-0.211-0.1-0.381-0.26-0.504c-0.158-0.127-0.33-0.209-0.514-0.25
		c-0.041,0-0.084-0.002-0.131-0.01c-0.047-0.008-0.09-0.01-0.129-0.01c-0.014,0-0.023,0-0.029,0c-0.008,0-0.018,0-0.029,0
		c-0.213,0.012-0.412,0.076-0.598,0.189c-0.186,0.113-0.277,0.234-0.277,0.365c0,0.014,0,0.023,0,0.031
		c0,0.006,0.006,0.016,0.02,0.029c0,0.012,0,0.023,0,0.029c0,0.008,0,0.01,0,0.01c0.041,0.148,0.182,0.269,0.428,0.369
		c0.244,0.098,0.545,0.195,0.902,0.287c0.227,0.066,0.471,0.129,0.736,0.191c0.264,0.057,0.531,0.127,0.795,0.207
		c0.662,0.184,1.279,0.439,1.848,0.764c0.57,0.326,0.908,0.801,1.014,1.424c0.014,0.053,0.023,0.111,0.029,0.178
		c0.006,0.066,0.012,0.139,0.012,0.219c0,0.051,0,0.101,0,0.148s0,0.096,0,0.148c0,0.914-0.396,1.67-1.184,2.266
		c-0.789,0.596-1.988,0.894-3.607,0.894c-1.191,0-2.275-0.184-3.246-0.547c-0.975-0.365-1.568-1.236-1.779-2.613l3.617-0.019
		c0.08,0.344,0.217,0.598,0.416,0.766c0.197,0.166,0.412,0.273,0.635,0.326c0.041,0,0.084,0.004,0.129,0.01
		c0.047,0.01,0.09,0.012,0.131,0.012c0.279,0,0.533-0.074,0.764-0.219c0.232-0.146,0.348-0.313,0.348-0.496
		c0-0.041-0.006-0.08-0.017-0.121c-0.014-0.039-0.027-0.078-0.041-0.117c-0.039-0.082-0.104-0.156-0.189-0.229
		c-0.084-0.074-0.203-0.139-0.348-0.191c-0.211-0.078-0.434-0.145-0.666-0.197c-0.23-0.053-0.467-0.105-0.705-0.158
		c-0.105-0.014-0.207-0.029-0.309-0.051c-0.098-0.021-0.201-0.045-0.307-0.068c-0.557-0.119-1.094-0.293-1.611-0.52
		c-0.514-0.223-0.945-0.6-1.289-1.129c-0.014-0.016-0.027-0.043-0.041-0.08c-0.012-0.043-0.025-0.086-0.041-0.141
		c-0.024-0.094-0.051-0.207-0.08-0.348C58.426,15.289,58.41,15.146,58.41,15c0-0.172,0.018-0.357,0.051-0.557
		c0.033-0.195,0.09-0.397,0.168-0.596c0.199-0.543,0.623-1.043,1.271-1.498c0.65-0.459,1.664-0.688,3.041-0.688
		c1.457,0,2.539,0.26,3.25,0.775c0.709,0.514,1.109,1.086,1.201,1.709c0,0.053,0.004,0.102,0.01,0.148
		c0.006,0.047,0.012,0.096,0.012,0.149v0.139H64.055z"/>
	<path class="st0" d="M3.131,26.185c-0.01-0.359-0.102-0.629-0.277-0.816c-0.176-0.188-0.389-0.281-0.641-0.281
		c-0.268,0-0.488,0.1-0.666,0.295c-0.172,0.197-0.26,0.465-0.258,0.803H3.131z M3.059,27.435l1.231,0.207
		c-0.158,0.451-0.406,0.795-0.75,1.031c-0.34,0.234-0.766,0.354-1.277,0.354c-0.812,0-1.41-0.266-1.801-0.795
		C0.154,27.807,0,27.27,0,26.621c0-0.775,0.203-1.381,0.607-1.82c0.402-0.438,0.912-0.656,1.529-0.656
		c0.693,0,1.24,0.23,1.641,0.688c0.4,0.461,0.59,1.162,0.572,2.108H1.268c0.008,0.367,0.109,0.652,0.299,0.855
		C1.754,28,1.992,28.102,2.275,28.102c0.191,0,0.354-0.053,0.484-0.16C2.891,27.838,2.99,27.67,3.059,27.435z"/>
	<path class="st0" d="M9.644,26.486c0,0.5,0.07,0.859,0.205,1.086c0.201,0.322,0.477,0.484,0.834,0.484
		c0.281,0,0.525-0.123,0.723-0.365c0.199-0.242,0.297-0.606,0.297-1.088c0-0.537-0.096-0.924-0.287-1.16
		c-0.193-0.236-0.441-0.355-0.74-0.355c-0.293,0-0.539,0.119-0.734,0.352C9.744,25.674,9.644,26.023,9.644,26.486z M12.936,28.912
		h-1.142v-0.685c-0.189,0.266-0.416,0.465-0.674,0.598c-0.26,0.137-0.523,0.203-0.787,0.203c-0.537,0-0.998-0.217-1.381-0.648
		c-0.383-0.434-0.574-1.035-0.574-1.809c0-0.793,0.186-1.396,0.559-1.809c0.373-0.412,0.844-0.617,1.412-0.617
		c0.524,0,0.975,0.217,1.356,0.65v-2.322h1.232V28.912z"/>
	<path class="st0" d="M20.527,28.912v-0.699c-0.17,0.248-0.395,0.445-0.672,0.594c-0.277,0.146-0.568,0.221-0.875,0.221
		c-0.314,0-0.598-0.068-0.846-0.209c-0.252-0.137-0.432-0.33-0.543-0.58c-0.109-0.25-0.166-0.594-0.166-1.035v-2.959h1.232v2.148
		c0,0.658,0.022,1.061,0.066,1.209c0.047,0.146,0.129,0.264,0.25,0.351c0.119,0.086,0.273,0.131,0.457,0.131
		c0.215,0,0.402-0.059,0.568-0.176c0.168-0.115,0.285-0.258,0.346-0.432c0.063-0.172,0.092-0.592,0.092-1.262v-1.971h1.23v4.668
		H20.527z"/>
	<path class="st0" d="M30.295,25.627l-1.215,0.217c-0.041-0.24-0.133-0.422-0.277-0.545c-0.146-0.123-0.334-0.185-0.566-0.185
		c-0.305,0-0.551,0.109-0.734,0.322c-0.182,0.211-0.273,0.567-0.273,1.067c0,0.553,0.092,0.945,0.277,1.174
		c0.186,0.229,0.436,0.344,0.748,0.344c0.234,0,0.426-0.066,0.574-0.199c0.149-0.135,0.254-0.363,0.316-0.691l1.211,0.207
		c-0.125,0.559-0.365,0.979-0.725,1.264c-0.354,0.285-0.834,0.428-1.434,0.428c-0.682,0-1.225-0.217-1.629-0.648
		c-0.404-0.43-0.609-1.027-0.609-1.787c0-0.773,0.205-1.373,0.611-1.801c0.406-0.432,0.955-0.646,1.648-0.646
		c0.566,0,1.02,0.123,1.354,0.367C29.906,24.756,30.148,25.127,30.295,25.627z"/>
	<path class="st0" d="M37.098,26.68c-0.158,0.053-0.408,0.115-0.752,0.189c-0.342,0.072-0.566,0.145-0.672,0.217
		c-0.158,0.111-0.24,0.258-0.24,0.434c0,0.17,0.066,0.32,0.191,0.447c0.131,0.125,0.295,0.188,0.494,0.188
		c0.223,0,0.434-0.072,0.637-0.219c0.147-0.111,0.246-0.246,0.295-0.408c0.029-0.105,0.047-0.307,0.047-0.601V26.68z M35.441,25.682
		l-1.113-0.197c0.125-0.455,0.344-0.793,0.65-1.012c0.307-0.217,0.764-0.328,1.369-0.328c0.551,0,0.959,0.064,1.229,0.195
		c0.271,0.129,0.461,0.297,0.57,0.498c0.109,0.197,0.166,0.566,0.166,1.102l-0.018,1.439c0,0.41,0.018,0.709,0.059,0.904
		c0.037,0.195,0.111,0.404,0.219,0.629h-1.225c-0.031-0.084-0.07-0.203-0.117-0.363c-0.02-0.072-0.035-0.119-0.043-0.143
		c-0.211,0.209-0.436,0.363-0.676,0.467c-0.238,0.104-0.492,0.154-0.766,0.154c-0.477,0-0.854-0.133-1.131-0.392
		c-0.275-0.258-0.414-0.588-0.414-0.984c0-0.266,0.064-0.5,0.189-0.705c0.127-0.207,0.303-0.365,0.529-0.477
		c0.227-0.109,0.553-0.203,0.977-0.285c0.58-0.109,0.98-0.211,1.201-0.303v-0.123c0-0.242-0.058-0.412-0.176-0.516
		c-0.117-0.102-0.34-0.154-0.666-0.154c-0.219,0-0.392,0.045-0.514,0.133C35.619,25.309,35.521,25.461,35.441,25.682z"/>
	<path class="st0" d="M44.953,24.244v0.98h-0.846v1.891c0,0.381,0.008,0.605,0.025,0.668c0.014,0.065,0.053,0.115,0.109,0.154
		c0.057,0.043,0.127,0.065,0.209,0.065c0.115,0,0.281-0.039,0.494-0.117l0.107,0.957c-0.287,0.125-0.611,0.185-0.973,0.185
		c-0.221,0-0.422-0.039-0.6-0.113c-0.178-0.074-0.309-0.172-0.393-0.291c-0.082-0.117-0.139-0.279-0.172-0.482
		c-0.027-0.145-0.039-0.438-0.039-0.873v-2.043h-0.568v-0.98h0.568v-0.928l1.23-0.727v1.654H44.953z"/>
	<path class="st0" d="M49.115,28.912v-4.668h1.232v4.668H49.115z M49.115,23.615v-1.142h1.232v1.142H49.115z"/>
	<path class="st0" d="M55.879,26.586c0,0.463,0.109,0.818,0.328,1.065c0.219,0.246,0.49,0.369,0.811,0.369
		c0.322,0,0.59-0.123,0.81-0.369c0.217-0.246,0.326-0.604,0.326-1.074c0-0.457-0.109-0.807-0.326-1.053
		c-0.221-0.248-0.488-0.371-0.81-0.371c-0.32,0-0.592,0.123-0.811,0.371C55.988,25.77,55.879,26.123,55.879,26.586z M54.609,26.52
		c0-0.41,0.103-0.809,0.303-1.191c0.205-0.385,0.49-0.68,0.861-0.881c0.367-0.201,0.783-0.303,1.238-0.303
		c0.705,0,1.281,0.23,1.734,0.688c0.451,0.461,0.674,1.039,0.674,1.74c0,0.709-0.227,1.293-0.68,1.758
		c-0.457,0.465-1.029,0.697-1.719,0.697c-0.428,0-0.836-0.096-1.223-0.291c-0.389-0.193-0.682-0.475-0.887-0.851
		C54.713,27.51,54.609,27.057,54.609,26.52z"/>
	<path class="st0" d="M67.93,28.912h-1.232v-2.381c0-0.5-0.027-0.828-0.08-0.975c-0.053-0.148-0.139-0.262-0.258-0.346
		c-0.119-0.082-0.266-0.123-0.432-0.123c-0.215,0-0.408,0.06-0.58,0.176c-0.172,0.117-0.287,0.271-0.354,0.465
		c-0.063,0.193-0.094,0.551-0.094,1.072v2.111h-1.234v-4.668h1.145v0.684c0.408-0.523,0.922-0.783,1.543-0.783
		c0.273,0,0.523,0.049,0.752,0.148c0.225,0.098,0.398,0.223,0.512,0.373c0.117,0.152,0.199,0.324,0.244,0.518
		c0.045,0.195,0.068,0.471,0.068,0.832V28.912z"/>
</g>
</svg>