<!-- Generator: Adobe Illustrator 21.0.0, SVG Export Plug-In  -->
<svg version="1.1"
	 xmlns="http://www.w3.org/2000/svg" xmlns:xlink="http://www.w3.org/1999/xlink" xmlns:a="http://ns.adobe.com/AdobeSVGViewerExtensions/3.0/"
	 x="0px" y="0px" width="75.208px" height="34.536px" viewBox="0 0 75.208 34.536"
	 style="enable-background:new 0 0 75.208 34.536;" xml:space="preserve">
<style type="text/css">
	.st0{fill:#005BAA;}
	.st1{fill-rule:evenodd;clip-rule:evenodd;fill:#F58220;}
	.st2{fill-rule:evenodd;clip-rule:evenodd;fill:#005BAA;}
	.st3{fill-rule:evenodd;clip-rule:evenodd;fill:#FFFFFF;}
</style>
<defs>
</defs>
<g>
	<path class="st0" d="M55.795,5.637c0.12,0.084,0.324,0.15,0.54,0.15c0.486,0.006,0.738-0.354,0.738-0.78
		c0-0.318-0.15-0.546-0.414-0.81c-0.3-0.294-0.504-0.618-0.504-1.001c0-0.63,0.456-1.127,1.145-1.127
		c0.246,0,0.444,0.066,0.534,0.132l-0.132,0.372c-0.12-0.066-0.252-0.108-0.444-0.108c-0.402,0-0.654,0.294-0.66,0.683
		c0,0.288,0.162,0.516,0.426,0.767c0.282,0.264,0.492,0.618,0.492,1.007c0,0.732-0.444,1.259-1.205,1.259
		c-0.3,0-0.552-0.09-0.642-0.162L55.795,5.637z"/>
	<path class="st0" d="M57.804,6.147l0.552-2.902h0.432l-0.558,2.902H57.804z M58.457,2.507c0.006-0.156,0.126-0.306,0.288-0.306
		c0.168,0,0.246,0.126,0.234,0.282c-0.012,0.198-0.144,0.306-0.3,0.306S58.439,2.675,58.457,2.507"/>
	<path class="st0" d="M58.877,6.147l0.354-1.907c0.084-0.42,0.126-0.762,0.156-0.995h0.378l-0.048,0.462h0.012
		c0.234-0.354,0.486-0.51,0.78-0.51c0.36,0,0.498,0.282,0.498,0.588c0,0.168-0.024,0.306-0.054,0.474l-0.354,1.889h-0.432
		l0.354-1.883c0.024-0.132,0.042-0.252,0.042-0.402c0-0.174-0.072-0.294-0.252-0.294c-0.27,0-0.594,0.414-0.701,0.965l-0.306,1.613
		H58.877z"/>
	<path class="st0" d="M62.602,6.099c-0.108,0.048-0.276,0.084-0.474,0.084c-0.582,0-0.792-0.474-0.792-1.037
		c0-0.845,0.498-1.943,1.445-1.943c0.126,0,0.228,0.018,0.288,0.048l-0.114,0.372c-0.06-0.018-0.126-0.042-0.216-0.042
		c-0.606,0-0.959,0.863-0.959,1.517c0,0.426,0.126,0.714,0.462,0.714c0.114,0,0.24-0.03,0.354-0.072L62.602,6.099z"/>
	<path class="st0" d="M64.467,6.003c-0.21,0.114-0.432,0.18-0.684,0.18c-0.612,0-0.809-0.468-0.809-1.025
		c0-0.786,0.438-1.961,1.265-1.961c0.426,0,0.6,0.324,0.6,0.659c0,0.702-0.623,1.002-1.415,1.007
		c-0.012,0.084-0.03,0.408,0.018,0.582c0.066,0.246,0.216,0.378,0.444,0.378c0.228,0,0.384-0.078,0.516-0.156L64.467,6.003z
		 M64.173,3.569c-0.258,0-0.533,0.318-0.689,0.947c0.462-0.006,0.947-0.162,0.947-0.63C64.431,3.683,64.347,3.569,64.173,3.569"/>
	<path class="st0" d="M65.721,6.147l0.048-0.288l0.396-0.456c0.552-0.635,1.367-1.553,1.367-2.254c0-0.354-0.156-0.57-0.486-0.57
		c-0.258,0-0.426,0.132-0.516,0.192l-0.084-0.33c0.156-0.102,0.408-0.24,0.72-0.24c0.6,0,0.81,0.426,0.81,0.863
		c0,0.918-0.894,1.823-1.469,2.5l-0.162,0.18l0.006,0.012h1.235l-0.066,0.39H65.721z"/>
	<path class="st0" d="M70.392,3.281c0,0.918-0.372,2.914-1.433,2.914c-0.6,0-0.714-0.641-0.714-1.145
		c0-1.062,0.45-2.848,1.433-2.848C70.32,2.202,70.392,2.861,70.392,3.281 M68.677,5.056c0,0.462,0.06,0.762,0.36,0.762
		c0.636,0,0.923-2.009,0.923-2.603c0-0.282-0.048-0.635-0.318-0.635C68.983,2.579,68.677,4.366,68.677,5.056"/>
	<path class="st0" d="M72.707,3.281c0,0.918-0.372,2.914-1.433,2.914c-0.6,0-0.714-0.641-0.714-1.145
		c0-1.062,0.45-2.848,1.433-2.848C72.635,2.202,72.707,2.861,72.707,3.281 M70.993,5.056c0,0.462,0.06,0.762,0.36,0.762
		c0.636,0,0.923-2.009,0.923-2.603c0-0.282-0.048-0.635-0.318-0.635C71.298,2.579,70.993,4.366,70.993,5.056"/>
	<path class="st0" d="M75.208,2.25l-0.054,0.276c-0.612,1.205-1.242,2.416-1.907,3.622h-0.456c0.653-1.163,1.271-2.327,1.888-3.49
		l-0.006-0.012h-1.379l0.072-0.396H75.208z"/>
	<rect x="41.052" y="32.909" class="st1" width="32.745" height="1.546"/>
	<path class="st1" d="M24.897,3.126L39.301,0l0.558,28.25l-16.732-4.861L24.897,3.126z M36.287,3.685l0.593,20.385l-10.531-2.965
		l1.005-15.632L36.287,3.685z"/>
	<polygon class="st2" points="4.026,28.25 0.038,28.25 0.038,7.658 5.37,7.658 10.603,22.635 15.821,7.658 21.153,7.658 
		21.153,28.25 17.179,28.25 17.179,13.301 12.116,28.25 9.075,28.25 4.026,13.301 	"/>
	<polygon class="st2" points="53.384,7.658 53.384,11.279 49.495,11.279 49.495,28.25 45.479,28.25 45.479,11.279 41.051,11.279 
		41.051,7.658 	"/>
	<polygon class="st2" points="66.77,28.25 62.761,28.25 62.761,7.658 73.877,7.658 73.877,11.278 66.77,11.278 66.77,15.974 
		73.877,15.974 73.877,19.538 66.77,19.538 	"/>
	<rect x="55.74" y="12.459" class="st2" width="4.031" height="15.791"/>
	<polygon class="st1" points="55.74,7.658 59.771,7.658 59.771,11.762 55.74,10.545 	"/>
	<polygon class="st2" points="55.74,7.658 59.771,7.658 59.771,11.762 55.74,10.545 	"/>
	<polygon class="st3" points="36.288,3.682 36.882,24.067 26.351,21.101 27.356,5.469 	"/>
	<polygon class="st0" points="2.28,30.375 2.28,31.049 0.823,31.049 0.823,32.009 2.194,32.009 2.194,32.684 0.823,32.684 
		0.823,33.781 2.337,33.781 2.337,34.455 0,34.455 0,30.375 	"/>
	<path class="st0" d="M4.304,34.13H4.292c-0.171,0.286-0.389,0.406-0.697,0.406c-0.646,0-0.943-0.474-0.943-1.617
		c0-1.143,0.297-1.617,0.943-1.617c0.297,0,0.497,0.12,0.663,0.366h0.011v-1.292h0.789v4.08H4.304V34.13z M3.852,33.93
		c0.349,0,0.417-0.343,0.417-1.012c0-0.668-0.069-1.012-0.417-1.012c-0.343,0-0.411,0.343-0.411,1.012
		C3.441,33.587,3.509,33.93,3.852,33.93"/>
	<path class="st0" d="M7.161,34.095H7.15c-0.166,0.303-0.451,0.44-0.783,0.44c-0.491,0-0.783-0.269-0.783-0.874v-2.28h0.789v2.12
		c0,0.308,0.103,0.429,0.337,0.429c0.269,0,0.417-0.166,0.417-0.509v-2.04h0.789v3.075H7.161V34.095z"/>
	<path class="st0" d="M9.922,32.489c0-0.297-0.057-0.617-0.354-0.617c-0.388,0-0.451,0.343-0.451,1.051
		c0,0.76,0.069,1.075,0.423,1.075c0.263,0,0.383-0.223,0.383-0.72h0.754c0,0.806-0.337,1.257-1.172,1.257
		c-0.788,0-1.177-0.383-1.177-1.617c0-1.263,0.52-1.617,1.246-1.617c0.726,0,1.103,0.463,1.103,1.189H9.922z"/>
	<path class="st0" d="M11.082,32.324V32.25c0-0.709,0.486-0.949,1.08-0.949c0.937,0,1.114,0.389,1.114,0.943v1.617
		c0,0.286,0.017,0.417,0.097,0.594h-0.754c-0.052-0.097-0.074-0.217-0.097-0.32h-0.011c-0.183,0.32-0.406,0.4-0.783,0.4
		c-0.549,0-0.743-0.469-0.743-0.88c0-0.577,0.234-0.811,0.777-0.96l0.446-0.12c0.234-0.063,0.314-0.154,0.314-0.36
		c0-0.234-0.103-0.377-0.366-0.377c-0.24,0-0.366,0.16-0.366,0.4v0.086H11.082z M12.522,32.918c-0.109,0.08-0.24,0.131-0.337,0.154
		c-0.32,0.069-0.446,0.223-0.446,0.497c0,0.234,0.086,0.429,0.297,0.429c0.212,0,0.486-0.137,0.486-0.474V32.918z"/>
	<path class="st0" d="M14.008,30.501h0.788v0.88h0.457v0.537h-0.457v1.663c0,0.24,0.052,0.337,0.28,0.337
		c0.063,0,0.126-0.006,0.177-0.011v0.548c-0.172,0.017-0.332,0.034-0.514,0.034c-0.617,0-0.732-0.189-0.732-0.812v-1.76h-0.4v-0.537
		h0.4V30.501z"/>
	<path class="st0" d="M15.557,30.329h0.789v0.674h-0.789V30.329z M15.557,31.381h0.789v3.075h-0.789V31.381z"/>
	<path class="st0" d="M18.009,31.301c0.949-0.017,1.212,0.549,1.212,1.617c0,1.052-0.309,1.617-1.212,1.617
		c-0.949,0.017-1.212-0.549-1.212-1.617C16.797,31.867,17.106,31.301,18.009,31.301 M18.009,33.998c0.32,0,0.423-0.314,0.423-1.08
		c0-0.766-0.103-1.08-0.423-1.08c-0.389,0-0.423,0.452-0.423,1.08C17.586,33.547,17.62,33.998,18.009,33.998"/>
	<path class="st0" d="M19.643,31.381h0.754v0.36h0.011c0.166-0.303,0.451-0.44,0.783-0.44c0.492,0,0.783,0.269,0.783,0.874v2.28
		h-0.789v-2.12c0-0.309-0.103-0.429-0.337-0.429c-0.268,0-0.417,0.166-0.417,0.509v2.04h-0.789V31.381z"/>
	<path class="st0" d="M24.69,30.375h1.017l1.08,4.08H25.93l-0.189-0.863h-1.086l-0.189,0.863H23.61L24.69,30.375z M24.799,32.918
		h0.8l-0.394-1.834h-0.012L24.799,32.918z"/>
	<path class="st0" d="M27.051,30.375h0.788v1.292h0.011c0.166-0.246,0.366-0.366,0.663-0.366c0.646,0,0.943,0.475,0.943,1.617
		c0,1.143-0.297,1.617-0.943,1.617c-0.309,0-0.526-0.12-0.697-0.406h-0.011v0.326h-0.754V30.375z M28.256,33.93
		c0.343,0,0.411-0.343,0.411-1.012c0-0.668-0.068-1.012-0.411-1.012c-0.349,0-0.417,0.343-0.417,1.012
		C27.839,33.587,27.908,33.93,28.256,33.93"/>
	<path class="st0" d="M29.908,31.381h0.754v0.412h0.011c0.16-0.297,0.383-0.492,0.708-0.492c0.046,0,0.097,0.006,0.143,0.011v0.754
		c-0.08-0.006-0.166-0.011-0.246-0.011c-0.274,0-0.583,0.143-0.583,0.555v1.846h-0.789V31.381z"/>
	<path class="st0" d="M32.92,31.301c0.949-0.017,1.212,0.549,1.212,1.617c0,1.052-0.309,1.617-1.212,1.617
		c-0.949,0.017-1.212-0.549-1.212-1.617C31.709,31.867,32.017,31.301,32.92,31.301 M32.92,33.998c0.32,0,0.423-0.314,0.423-1.08
		c0-0.766-0.103-1.08-0.423-1.08c-0.389,0-0.423,0.452-0.423,1.08C32.497,33.547,32.532,33.998,32.92,33.998"/>
	<path class="st0" d="M34.549,32.324V32.25c0-0.709,0.486-0.949,1.08-0.949c0.937,0,1.114,0.389,1.114,0.943v1.617
		c0,0.286,0.017,0.417,0.097,0.594h-0.754c-0.052-0.097-0.074-0.217-0.097-0.32h-0.011c-0.183,0.32-0.406,0.4-0.783,0.4
		c-0.549,0-0.743-0.469-0.743-0.88c0-0.577,0.235-0.811,0.777-0.96l0.446-0.12c0.234-0.063,0.314-0.154,0.314-0.36
		c0-0.234-0.103-0.377-0.366-0.377c-0.24,0-0.366,0.16-0.366,0.4v0.086H34.549z M35.989,32.918c-0.109,0.08-0.24,0.131-0.337,0.154
		c-0.32,0.069-0.446,0.223-0.446,0.497c0,0.234,0.086,0.429,0.297,0.429c0.212,0,0.486-0.137,0.486-0.474V32.918z"/>
	<path class="st0" d="M38.882,34.13H38.87c-0.172,0.286-0.389,0.406-0.697,0.406c-0.646,0-0.943-0.474-0.943-1.617
		c0-1.143,0.297-1.617,0.943-1.617c0.297,0,0.497,0.12,0.663,0.366h0.012v-1.292h0.789v4.08h-0.754V34.13z M38.43,33.93
		c0.349,0,0.417-0.343,0.417-1.012c0-0.668-0.069-1.012-0.417-1.012c-0.343,0-0.411,0.343-0.411,1.012
		C38.018,33.587,38.087,33.93,38.43,33.93"/>
</g>
</svg>