<!-- Generator: Adobe Illustrator 21.0.0, SVG Export Plug-In  -->
<svg version="1.1"
	 xmlns="http://www.w3.org/2000/svg" xmlns:xlink="http://www.w3.org/1999/xlink" xmlns:a="http://ns.adobe.com/AdobeSVGViewerExtensions/3.0/"
	 x="0px" y="0px" width="68.337px" height="65.857px" viewBox="0 0 68.337 65.857"
	 style="enable-background:new 0 0 68.337 65.857;" xml:space="preserve">
<defs>
</defs>
<g>
	<polygon points="0,42.178 3.336,42.178 3.336,42.692 2.019,42.692 2.019,46.171 1.31,46.171 1.31,42.692 0,42.692 	"/>
	<polygon points="7.278,44.372 5.403,44.372 5.403,46.171 4.694,46.171 4.694,42.178 5.403,42.178 5.403,43.858 7.278,43.858 
		7.278,42.178 7.987,42.178 7.987,46.171 7.278,46.171 	"/>
	<polygon points="12.271,46.171 9.779,46.171 9.779,42.177 12.203,42.177 12.203,42.692 10.489,42.692 10.489,43.858 11.739,43.858 
		11.739,44.372 10.489,44.372 10.489,45.656 12.271,45.656 	"/>
	<g>
		<path d="M20.065,44.813c0,0.539-0.321,1.443-1.647,1.443c-1.055,0-1.646-0.514-1.646-1.443v-2.635h0.708v2.635
			c0,0.607,0.339,0.929,0.955,0.929c0.659,0,0.954-0.439,0.954-0.929v-2.635h0.675V44.813z"/>
	</g>
	<polygon points="25.464,42.178 25.464,46.171 24.83,46.171 22.542,43.292 22.542,46.171 21.866,46.171 21.866,42.178 
		22.515,42.178 24.804,45.066 24.804,42.178 	"/>
	<rect x="27.306" y="42.177" width="0.709" height="3.994"/>
	<polygon points="31.113,46.205 30.766,46.205 29.407,42.178 30.124,42.178 31.019,44.913 31.974,42.178 32.633,42.178 	"/>
	<polygon points="36.524,46.171 34.034,46.171 34.034,42.177 36.456,42.177 36.456,42.692 34.742,42.692 34.742,43.858 
		35.991,43.858 35.991,44.372 34.742,44.372 34.742,45.656 36.524,45.656 	"/>
	<g>
		<path d="M39.167,43.892c0.54-0.008,0.862-0.288,0.862-0.626c0-0.354-0.295-0.582-0.853-0.582h-0.312v1.207H39.167z M40.425,46.248
			l-1.106-1.84h-0.449v1.764h-0.718v-3.994h1.226c0.988,0,1.368,0.591,1.368,1.013c0,0.582-0.431,0.945-0.768,1.08l1.224,1.9
			L40.425,46.248z"/>
		<path d="M43.593,45.741c0.379,0,0.691-0.221,0.691-0.524c0-0.338-0.405-0.531-0.861-0.778c-0.398-0.211-1.039-0.547-1.039-1.266
			c0-0.574,0.514-1.081,1.266-1.081c0.531,0,0.887,0.127,1.105,0.237l-0.193,0.456c-0.211-0.093-0.472-0.177-0.903-0.177
			c-0.398,0-0.626,0.253-0.626,0.473c0,0.346,0.399,0.566,0.829,0.803c0.371,0.202,1.122,0.515,1.122,1.24
			c0,0.786-0.912,1.132-1.392,1.132c-0.677,0-1.082-0.228-1.31-0.338l0.219-0.465C42.688,45.539,43.068,45.741,43.593,45.741"/>
	</g>
	<rect x="46.572" y="42.177" width="0.71" height="3.994"/>
	<polygon points="48.638,42.178 51.974,42.178 51.974,42.692 50.657,42.692 50.657,46.171 49.948,46.171 49.948,42.692 
		48.638,42.692 	"/>
	<polygon points="56.426,42.178 55.092,44.238 55.092,46.171 54.383,46.171 54.383,44.238 53.015,42.178 53.766,42.178 
		54.779,43.748 55.735,42.178 	"/>
	<g>
		<path d="M61.028,44.17c0,0.945,0.533,1.571,1.326,1.571c0.793,0,1.317-0.626,1.317-1.571c0-0.937-0.524-1.562-1.317-1.562
			C61.561,42.608,61.028,43.234,61.028,44.17 M64.449,44.17c0,1.292-0.946,2.085-2.094,2.085c-1.199,0-2.104-0.784-2.104-2.085
			c0-1.207,0.887-2.078,2.104-2.078C63.638,42.092,64.449,42.929,64.449,44.17"/>
	</g>
	<polygon points="65.907,46.171 65.907,42.177 68.195,42.177 68.195,42.692 66.616,42.692 66.616,43.858 67.73,43.858 67.73,44.372 
		66.616,44.372 66.616,46.171 	"/>
	<polygon points="7.697,49.825 7.697,58.124 6.381,58.124 1.624,52.141 1.624,58.124 0.222,58.124 0.222,49.825 1.572,49.825 
		6.328,55.826 6.328,49.825 	"/>
	<polygon points="14.811,58.124 9.634,58.124 9.634,49.825 14.67,49.825 14.67,50.896 11.107,50.896 11.107,53.316 13.705,53.316 
		13.705,54.387 11.107,54.387 11.107,57.054 14.811,57.054 	"/>
	<polygon points="19.216,58.195 18.462,58.195 15.636,49.824 17.163,49.824 19.075,55.667 20.304,52.228 19.514,49.824 
		21.023,49.824 22.865,55.51 24.849,49.824 26.217,49.824 23.076,58.195 22.322,58.195 20.866,53.843 	"/>
	<g>
		<path d="M33.97,57.581c-0.578,0.367-1.368,0.719-3.018,0.719c-2.913,0-4.457-2.193-4.457-4.335c0-2.141,1.543-4.317,4.457-4.317
			c1.632,0,2.491,0.491,2.842,0.65l-0.455,1c-0.281-0.123-1.019-0.562-2.334-0.562c-1.808,0-2.895,1.351-2.895,3.228
			c0,1.896,1.14,3.247,3.035,3.247c1.316,0,1.984-0.369,2.37-0.544L33.97,57.581z"/>
	</g>
	<path d="M38.277,52.509l-1.034,2.474h2L38.277,52.509z M35.944,58.124h-1.439l3.669-8.335h0.56l3.264,8.335h-1.561l-0.79-2.071
		h-2.843L35.944,58.124z"/>
	<g>
		<path d="M45.578,57.23c0.79,0,1.439-0.456,1.439-1.089c0-0.702-0.842-1.105-1.789-1.613c-0.825-0.439-2.159-1.14-2.159-2.633
			c0-1.193,1.069-2.246,2.632-2.246c1.107,0,1.842,0.263,2.3,0.491l-0.404,0.948c-0.439-0.193-0.982-0.368-1.877-0.368
			c-0.825,0-1.299,0.526-1.299,0.982c0,0.72,0.825,1.176,1.72,1.667c0.772,0.421,2.333,1.07,2.333,2.579
			c0,1.632-1.896,2.351-2.895,2.351c-1.405,0-2.246-0.474-2.721-0.702l0.458-0.965C43.7,56.808,44.49,57.23,45.578,57.23"/>
	</g>
	<polygon points="49.201,49.825 56.13,49.825 56.13,50.896 53.394,50.896 53.394,58.124 51.921,58.124 51.921,50.896 49.201,50.896 
			"/>
	<polygon points="58.846,57.054 62.022,57.054 62.022,58.124 57.372,58.124 57.372,49.825 58.846,49.825 	"/>
	<polygon points="68.337,58.124 63.159,58.124 63.159,49.825 68.195,49.825 68.195,50.896 64.633,50.896 64.633,53.316 
		67.231,53.316 67.231,54.387 64.633,54.387 64.633,57.054 68.337,57.054 	"/>
	<path d="M18.035,63.07l-0.499,1.191H18.5L18.035,63.07z M16.912,65.772H16.22l1.765-4.012h0.271l1.571,4.012h-0.752l-0.38-0.996
		h-1.368L16.912,65.772z"/>
	<g>
		<path d="M24.371,64.413c0,0.541-0.321,1.444-1.647,1.444c-1.056,0-1.647-0.516-1.647-1.444v-2.635h0.71v2.635
			c0,0.607,0.338,0.929,0.954,0.929c0.658,0,0.955-0.438,0.955-0.929v-2.635h0.675V64.413z"/>
		<path d="M27.177,65.341c0.379,0,0.694-0.22,0.694-0.523c0-0.338-0.406-0.532-0.862-0.777c-0.398-0.212-1.039-0.55-1.039-1.267
			c0-0.575,0.516-1.08,1.266-1.08c0.533,0,0.888,0.126,1.107,0.236l-0.194,0.456c-0.211-0.093-0.473-0.177-0.904-0.177
			c-0.397,0-0.624,0.253-0.624,0.474c0,0.346,0.396,0.565,0.827,0.801c0.371,0.202,1.123,0.517,1.123,1.243
			c0,0.784-0.912,1.131-1.394,1.131c-0.675,0-1.081-0.227-1.31-0.338l0.221-0.465C26.275,65.139,26.654,65.341,27.177,65.341"/>
	</g>
	<polygon points="29.646,61.778 32.981,61.778 32.981,62.293 31.664,62.293 31.664,65.772 30.955,65.772 30.955,62.293 
		29.646,62.293 	"/>
	<g>
		<path d="M35.351,63.491c0.541-0.008,0.862-0.286,0.862-0.624c0-0.355-0.296-0.583-0.853-0.583h-0.312v1.207H35.351z M36.61,65.849
			l-1.107-1.842h-0.448v1.766h-0.718v-3.995h1.226c0.987,0,1.366,0.591,1.366,1.013c0,0.583-0.43,0.946-0.767,1.08l1.224,1.901
			L36.61,65.849z"/>
	</g>
	<path d="M40.08,63.07l-0.498,1.191h0.963L40.08,63.07z M38.957,65.772h-0.693l1.765-4.012h0.27l1.572,4.012h-0.752l-0.38-0.996
		h-1.367L38.957,65.772z"/>
	<polygon points="43.896,65.257 45.424,65.257 45.424,65.773 43.186,65.773 43.186,61.777 43.896,61.777 	"/>
	<rect x="46.731" y="61.778" width="0.709" height="3.995"/>
	<path d="M50.547,63.07l-0.498,1.191h0.964L50.547,63.07z M49.424,65.772h-0.693l1.765-4.012h0.271l1.572,4.012h-0.753l-0.38-0.996
		h-1.368L49.424,65.772z"/>
	<g>
		<path d="M31.541,0.765c0.007,0,0.015,0.006,0.015,0.015c0,0.008-0.008,0.012-0.015,0.015c-5.253,1.837-6.922,8.232-6.922,8.232
			c-0.002,0.009,0.001,0.019,0.009,0.025c0.011,0.007,0.024,0.005,0.034-0.006c9.509-12.453,18.365-8.424,18.365-8.424
			c0.016,0.005,0.025,0.02,0.021,0.036c-0.003,0.014-0.015,0.024-0.029,0.023c-0.169-0.016-2.787-0.227-3.661,2.191l13.201,14.74
			c0,0.429-0.165,0.81-0.43,1.144c-0.136-0.201-0.704-0.467-1.08-0.587c-0.517-0.167-0.997-0.25-0.997-0.635
			c0-0.279,0.244-0.354,0.371-0.354c0.113,0,0.176,0.054,0.176,0.054c0.003,0.002,0.006,0.003,0.008,0.001
			c0.004-0.003,0.004-0.006,0.003-0.008c0,0-0.09-0.196-0.353-0.201c-0.256-0.006-0.665,0.177-0.689,0.664
			c-0.018,0.401,0.172,0.618,0.464,0.821c0.289,0.2,0.854,0.454,0.854,0.875c0,0.419-0.322,0.52-0.394,0.553
			c-0.14,0.068-1.336,0.607-2.507,0.826c-0.059-0.204-0.063-0.886-1.266-2.089c-2.327-2.327-10.631-0.38-10.631-6.105
			c0-2.642,2.508-3.696,3.945-3.617c1.217,0.067,1.729,0.441,1.819,0.499c0.007,0.005,0.017,0.005,0.025-0.001
			c0.013-0.008,0.016-0.024,0.009-0.035c0,0-0.912-2.005-3.502-2.005c-2.865,0-6.891,2.097-6.891,6.675
			c0,9.501,13.311,8.904,13.311,16.934c0,3.133-1.839,4.734-4.156,5.557c0,0,1.108-0.783,1.108-2.275
			c0-6.794-15.736-5.334-15.736-12.795c0-2.904,2.478-3.956,3.113-3.956c0.015,0,0.026-0.013,0.026-0.026
			c0-0.009-0.005-0.018-0.013-0.022c-0.077-0.047-0.479-0.259-1.233-0.259c-1.971,0-5.727,1.775-5.727,6.291
			c0,5.378,6.996,8.76,6.996,11.357c0,1.131-0.71,1.897-0.71,1.897c-5.748-1.833-13.093-7.597-13.093-17.874
			C15.381,6.483,26.989,0.765,31.541,0.765"/>
	</g>
</g>
</svg>