<!-- Generator: Adobe Illustrator 21.0.0, SVG Export Plug-In  -->
<svg version="1.1"
	 xmlns="http://www.w3.org/2000/svg" xmlns:xlink="http://www.w3.org/1999/xlink" xmlns:a="http://ns.adobe.com/AdobeSVGViewerExtensions/3.0/"
	 x="0px" y="0px" width="94.056px" height="91.754px" viewBox="0 0 94.056 91.754"
	 style="enable-background:new 0 0 94.056 91.754;" xml:space="preserve">
<style type="text/css">
	.st0{fill:#231F20;}
	.st1{fill:#001541;}
</style>
<defs>
</defs>
<g>
	<g>
		<g>
			<path class="st0" d="M0.22,88.147v-0.133c0-1.574,0.594-2.308,1.281-2.308c0.213,0,0.326,0.04,0.479,0.113v0.454
				c-0.173-0.101-0.3-0.146-0.454-0.146c-0.479,0-0.866,0.6-0.866,1.887v0.133c0,1.308,0.387,1.888,0.866,1.888
				c0.16,0,0.301-0.047,0.467-0.153v0.434c-0.146,0.093-0.307,0.14-0.513,0.14C0.773,90.455,0.22,89.721,0.22,88.147z"/>
			<path class="st0" d="M2.646,85.747h0.646c0.414,0,0.761,0.127,0.994,0.367c0.24,0.233,0.373,0.587,0.373,1.04v0.021
				c0,0.64-0.279,1.087-0.733,1.286l0.82,1.954H4.259l-0.76-1.827c-0.06,0.014-0.127,0.014-0.193,0.014H3.079v1.813H2.646V85.747z
				 M3.3,88.214c0.56,0,0.926-0.354,0.926-1.034v-0.02c0-0.707-0.387-1.014-0.946-1.014h-0.2v2.067H3.3z"/>
			<path class="st0" d="M5.358,85.747h0.434v4.668H5.358V85.747z"/>
			<path class="st0" d="M6.491,88.147v-0.133c0-1.574,0.594-2.308,1.28-2.308c0.214,0,0.327,0.04,0.479,0.113v0.454
				c-0.173-0.101-0.3-0.146-0.453-0.146c-0.48,0-0.867,0.6-0.867,1.887v0.133c0,1.308,0.387,1.888,0.867,1.888
				c0.16,0,0.301-0.047,0.467-0.153v0.434c-0.146,0.093-0.307,0.14-0.514,0.14C7.044,90.455,6.491,89.721,6.491,88.147z"/>
			<path class="st0" d="M8.63,88.154v-0.146c0-1.54,0.487-2.32,1.147-2.32s1.14,0.78,1.14,2.32v0.146c0,1.541-0.479,2.32-1.14,2.32
				S8.63,89.695,8.63,88.154z M10.483,88.154v-0.146c0-1.313-0.307-1.92-0.706-1.92c-0.4,0-0.707,0.606-0.707,1.92v0.146
				c0,1.313,0.307,1.921,0.707,1.921C10.177,90.075,10.483,89.467,10.483,88.154z"/>
			<path class="st0" d="M11.409,90.228v-0.467c0.313,0.193,0.561,0.286,0.793,0.286c0.354,0,0.594-0.227,0.594-0.613v-0.007
				c0-0.326-0.12-0.566-0.6-1.187c-0.607-0.78-0.781-1.054-0.781-1.507V86.72c0-0.6,0.434-1.02,0.98-1.02
				c0.28,0,0.494,0.073,0.707,0.187v0.473c-0.254-0.166-0.467-0.246-0.687-0.246c-0.327,0-0.56,0.233-0.56,0.587v0.013
				c0,0.301,0.119,0.521,0.6,1.127c0.586,0.721,0.773,1.074,0.773,1.574v0.007c0,0.633-0.439,1.04-1.007,1.04
				C11.937,90.461,11.683,90.375,11.409,90.228z"/>
			<path class="st0" d="M13.835,86.894h0.547v0.646h-0.547V86.894z M13.835,89.768h0.547v0.646h-0.547V89.768z"/>
			<path class="st0" d="M16.221,88.161v-0.146c0-1.647,0.399-2.327,1.026-2.327c0.621,0,1.027,0.673,1.027,2.313v0.146
				c0,1.647-0.406,2.327-1.027,2.327C16.62,90.474,16.221,89.801,16.221,88.161z M17.841,88.154v-0.14
				c0-1.374-0.24-1.927-0.594-1.927s-0.6,0.546-0.6,1.92v0.14c0,1.374,0.246,1.928,0.6,1.928S17.841,89.528,17.841,88.154z"/>
			<path class="st0" d="M18.839,88.161v-0.146c0-1.647,0.4-2.327,1.027-2.327c0.62,0,1.027,0.673,1.027,2.313v0.146
				c0,1.647-0.407,2.327-1.027,2.327C19.239,90.474,18.839,89.801,18.839,88.161z M20.46,88.154v-0.14
				c0-1.374-0.24-1.927-0.594-1.927s-0.6,0.546-0.6,1.92v0.14c0,1.374,0.246,1.928,0.6,1.928S20.46,89.528,20.46,88.154z"/>
			<path class="st0" d="M21.785,86.241l-0.487,0.253v-0.467l0.567-0.287h0.347v4.675h-0.427V86.241z"/>
			<path class="st0" d="M22.944,88.161v-0.146c0-1.647,0.4-2.327,1.027-2.327c0.619,0,1.026,0.673,1.026,2.313v0.146
				c0,1.647-0.407,2.327-1.026,2.327C23.345,90.474,22.944,89.801,22.944,88.161z M24.564,88.154v-0.14
				c0-1.374-0.239-1.927-0.593-1.927s-0.601,0.546-0.601,1.92v0.14c0,1.374,0.247,1.928,0.601,1.928S24.564,89.528,24.564,88.154z"
				/>
			<path class="st0" d="M25.423,90.087l1.054-2.174c0.22-0.46,0.327-0.767,0.327-1.12c0-0.406-0.227-0.68-0.6-0.68
				c-0.261,0-0.475,0.093-0.668,0.22v-0.439c0.188-0.107,0.428-0.207,0.734-0.207c0.586,0,0.967,0.413,0.967,1.04v0.033
				c0,0.427-0.127,0.78-0.387,1.307l-0.934,1.921h1.347v0.427h-1.841V90.087z"/>
			<path class="st0" d="M27.902,85.747h1.641v0.407h-1.207v1.707h1.094v0.406h-1.094v1.74h1.228v0.407h-1.661V85.747z"/>
		</g>
	</g>
	<g>
		<path class="st1" d="M1.495,55.018v-4.38c0-0.337-0.213-0.434-1.125-0.466v-0.346h3.199v0.346
			c-0.964,0.032-1.041,0.109-1.041,0.466v4.207c0,1.266,0.856,1.82,2.017,1.82c0.587,0,1.041-0.205,1.374-0.542
			c0.394-0.386,0.555-0.723,0.555-1.539v-3.058c0-0.984-0.229-1.238-1.258-1.386v-0.313h2.757v0.313
			c-0.968,0.173-1.065,0.402-1.065,1.386v3.383c0,1.141-0.976,2.222-2.7,2.222C2.548,57.131,1.495,56.276,1.495,55.018"/>
		<path class="st1" d="M10.335,50.951h-0.012v4.292c0,1.005,0.133,1.25,1.173,1.402v0.313H8.752v-0.313
			c0.964-0.165,1.137-0.398,1.137-1.402v-4.336c0-0.398-0.257-0.711-1.137-0.735v-0.346h2.025l4.038,5.541h0.008v-3.842
			c0-0.984-0.225-1.238-1.258-1.386v-0.313h2.757v0.313c-0.964,0.173-1.065,0.402-1.065,1.386v5.606h-0.422L10.335,50.951"/>
		<path class="st1" d="M17.167,56.613c0.912-0.032,1.129-0.133,1.129-0.466v-5.509c0-0.337-0.217-0.434-1.129-0.466v-0.346h3.287
			v0.346c-0.912,0.032-1.129,0.129-1.129,0.466v5.509c0,0.334,0.217,0.434,1.129,0.466v0.346h-3.287V56.613"/>
		<path class="st1" d="M22.394,50.907c-0.173-0.466-0.358-0.607-1.161-0.767v-0.313h3.178v0.313
			c-0.944,0.056-1.105,0.249-0.952,0.683l1.744,4.975h0.044l1.603-4.271c0.402-1.073,0.249-1.238-0.772-1.386v-0.313h2.572v0.313
			c-0.735,0.149-0.932,0.442-1.29,1.378l-2.19,5.614h-0.49L22.394,50.907"/>
		<path class="st1" d="M29.205,56.613c0.908-0.032,1.129-0.133,1.129-0.466v-5.509c0-0.337-0.221-0.434-1.129-0.466v-0.346h5.79
			l0.032,1.993l-0.333,0.012c-0.382-1.218-0.579-1.607-1.792-1.607h-1.539v2.833h0.639c0.804,0,1.109-0.076,1.378-1.206h0.293v2.821
			H33.38c-0.269-1.129-0.575-1.206-1.378-1.206h-0.639v3.082h1.539c1.43,0,1.78-0.567,2.158-1.82l0.338,0.008l-0.056,2.222h-6.136
			V56.613"/>
		<path class="st1" d="M38.295,56.147c0,0.358,0.149,0.434,1.113,0.466v0.346h-3.275v-0.346c0.912-0.032,1.129-0.133,1.129-0.466
			v-5.509c0-0.337-0.217-0.434-1.129-0.466v-0.346h2.994c2.17,0,2.809,0.832,2.809,1.736c0,0.864-0.486,1.495-1.808,1.788v0.032
			c1.31,0.129,1.471,0.639,1.603,1.43l0.165,1.029c0.096,0.631,0.354,0.78,1.101,0.836v0.349l-0.354,0.008
			c-1.531,0-1.78-0.313-1.856-1.298l-0.064-0.836c-0.084-1.065-0.53-1.314-1.647-1.314h-0.78V56.147 M39.126,53.198
			c1.366,0,1.704-0.599,1.704-1.607c0-0.94-0.478-1.374-1.776-1.374h-0.759v2.981H39.126z"/>
		<path class="st1" d="M43.651,54.857h0.333c0.567,1.254,1.282,1.889,2.182,1.889c1.085,0,1.527-0.739,1.527-1.378
			c0-0.804-0.575-1.097-1.885-1.563c-0.989-0.35-2.029-0.639-2.029-1.973c0-1.358,1.061-2.182,2.407-2.182
			c0.607,0,1.041,0.121,1.39,0.249l0.346-0.301h0.237v2.081h-0.334c-0.35-1.009-0.968-1.635-1.812-1.635
			c-0.739,0-1.314,0.474-1.314,1.322c0,0.78,0.631,1.033,1.792,1.418c0.985,0.338,2.005,0.671,2.005,2.017
			c0,1.077-0.631,2.331-2.427,2.331c-0.587,0-1.205-0.129-1.619-0.301l-0.538,0.346h-0.261V54.857"/>
		<path class="st1" d="M49.526,56.613c0.912-0.032,1.129-0.133,1.129-0.466v-5.509c0-0.337-0.217-0.434-1.129-0.466v-0.346h3.287
			v0.346c-0.912,0.032-1.125,0.129-1.125,0.466v5.509c0,0.334,0.213,0.434,1.125,0.466v0.346h-3.287V56.613"/>
		<path class="st1" d="M55.123,56.613c0.964-0.032,1.201-0.133,1.201-0.466v-5.931h-0.538c-1.045,0-1.238,0.562-1.672,1.852
			l-0.338-0.02l0.068-2.222h6.007l0.072,2.222l-0.333,0.02c-0.362-1.214-0.599-1.852-1.672-1.852h-0.563v5.931
			c0,0.334,0.237,0.434,1.205,0.466v0.346h-3.44V56.613"/>
		<path class="st1" d="M65.586,51.333c0.49-0.836,0.466-1.065-0.486-1.193v-0.313h2.459v0.313c-0.619,0.129-0.876,0.269-1.366,1.085
			l-1.603,2.656v2.266c0,0.333,0.217,0.434,1.129,0.466v0.346h-3.287v-0.346c0.908-0.032,1.129-0.133,1.129-0.466v-2.146
			l-1.844-3.203c-0.237-0.41-0.402-0.542-1.053-0.659v-0.313h3.07v0.313c-0.956,0.056-1.065,0.289-0.836,0.703l1.451,2.592
			L65.586,51.333"/>
		<path class="st1" d="M0.639,63.529c0-2.286,1.519-3.761,3.407-3.761c1.941,0,3.403,1.431,3.403,3.717
			c0,2.302-1.519,3.765-3.403,3.765C2.106,67.25,0.639,65.827,0.639,63.529 M6.281,63.508c0-2.319-0.964-3.351-2.278-3.351
			c-1.314,0-2.19,1.033-2.19,3.351c0,2.331,0.964,3.351,2.274,3.351C5.401,66.86,6.281,65.839,6.281,63.508z"/>
		<path class="st1" d="M8.013,66.731c0.912-0.036,1.129-0.129,1.129-0.466v-5.509c0-0.337-0.217-0.438-1.129-0.47V59.94h5.77
			l0.076,2.049l-0.338,0.012c-0.366-1.226-0.727-1.66-1.937-1.66h-1.41v2.917h0.715c0.8,0,0.985-0.109,1.278-1.181h0.293v2.797
			h-0.293c-0.269-1.125-0.478-1.206-1.278-1.206h-0.715v2.596c0,0.358,0.225,0.43,1.189,0.466v0.346H8.013V66.731"/>
		<path class="st1" d="M21.916,61.154c-0.185-0.558-0.39-0.792-1.085-0.896V59.94h2.949v0.317c-0.888,0.052-0.997,0.289-0.876,0.679
			l1.463,4.705h0.044l1.314-3.998c0.354-1.073,0.249-1.234-0.772-1.386V59.94h2.624v0.317c-0.739,0.153-1.053,0.478-1.354,1.374
			l-1.868,5.618h-0.486l-1.551-4.834l-1.844,4.834h-0.486l-1.897-6.224c-0.153-0.486-0.338-0.607-1.141-0.768V59.94h2.982v0.317
			c-0.832,0.052-0.9,0.269-0.78,0.679l1.366,4.717h0.032l1.531-3.978L21.916,61.154"/>
		<path class="st1" d="M27.706,63.529c0-2.286,1.519-3.761,3.407-3.761c1.941,0,3.403,1.431,3.403,3.717
			c0,2.302-1.519,3.765-3.403,3.765C29.173,67.25,27.706,65.827,27.706,63.529 M33.348,63.508c0-2.319-0.968-3.351-2.278-3.351
			c-1.31,0-2.19,1.033-2.19,3.351c0,2.331,0.964,3.351,2.278,3.351C32.468,66.86,33.348,65.839,33.348,63.508z"/>
		<path class="st1" d="M35.192,66.731c0.908-0.036,1.125-0.129,1.125-0.466v-5.509c0-0.337-0.217-0.438-1.125-0.47V59.94h3.283
			v0.346c-0.912,0.032-1.125,0.133-1.125,0.47v5.907h1.181c1.431,0,1.768-0.51,2.178-1.985l0.338,0.024l-0.076,2.375h-5.778V66.731"
			/>
		<path class="st1" d="M41.967,66.731c0.912-0.036,1.129-0.129,1.129-0.466v-5.509c0-0.337-0.217-0.438-1.129-0.47V59.94h3.287
			v0.346c-0.912,0.032-1.129,0.133-1.129,0.47v5.907h1.185c1.431,0,1.768-0.51,2.178-1.985l0.338,0.024l-0.076,2.375h-5.782V66.731"
			/>
		<path class="st1" d="M48.637,63.529c0-2.286,1.519-3.761,3.403-3.761c1.941,0,3.407,1.431,3.407,3.717
			c0,2.302-1.519,3.765-3.407,3.765C50.1,67.25,48.637,65.827,48.637,63.529 M54.279,63.508c0-2.319-0.968-3.351-2.278-3.351
			c-1.314,0-2.194,1.033-2.194,3.351c0,2.331,0.968,3.351,2.278,3.351C53.399,66.86,54.279,65.839,54.279,63.508z"/>
		<path class="st1" d="M57.542,61.069H57.53v4.296c0,0.997,0.129,1.246,1.169,1.398v0.313h-2.74v-0.313
			c0.964-0.161,1.137-0.402,1.137-1.398v-4.34c0-0.402-0.261-0.715-1.137-0.739V59.94h2.025l4.034,5.541h0.012v-3.838
			c0-0.988-0.229-1.234-1.258-1.386V59.94h2.753v0.317c-0.964,0.173-1.061,0.398-1.061,1.386v5.606h-0.422L57.542,61.069"/>
		<path class="st1" d="M63.875,63.529c0-2.234,1.704-3.761,3.697-3.761c0.663,0,1.378,0.181,1.736,0.346l0.293-0.346h0.334v2.093
			h-0.321c-0.434-1.149-1.165-1.704-2.15-1.704c-1.193,0-2.419,1.085-2.419,3.351c0,2.258,1.322,3.351,2.507,3.351
			c0.659,0,1.145-0.129,1.451-0.37v-2.017c0-0.338-0.217-0.434-1.129-0.466v-0.346h2.877v0.346
			c-0.663,0.032-0.719,0.112-0.719,0.466v2.222c-0.615,0.337-1.688,0.555-2.395,0.555C65.631,67.25,63.875,65.992,63.875,63.529"/>
		<path class="st1" d="M71.702,63.529c0-2.286,1.519-3.761,3.407-3.761c1.941,0,3.403,1.431,3.403,3.717
			c0,2.302-1.519,3.765-3.403,3.765C73.169,67.25,71.702,65.827,71.702,63.529 M77.344,63.508c0-2.319-0.964-3.351-2.278-3.351
			c-1.314,0-2.19,1.033-2.19,3.351c0,2.331,0.964,3.351,2.274,3.351C76.464,66.86,77.344,65.839,77.344,63.508z"/>
		<path class="st1" d="M80.663,61.069h-0.012v4.296c0,0.997,0.129,1.246,1.169,1.398v0.313h-2.744v-0.313
			c0.968-0.161,1.141-0.402,1.141-1.398v-4.34c0-0.402-0.261-0.715-1.141-0.739V59.94h2.029l4.034,5.541h0.012v-3.838
			c0-0.988-0.229-1.234-1.258-1.386V59.94h2.753v0.317c-0.964,0.173-1.061,0.398-1.061,1.386v5.606h-0.422L80.663,61.069"/>
		<path class="st1" d="M87.177,63.529c0-2.234,1.704-3.761,3.697-3.761c0.663,0,1.378,0.181,1.74,0.346l0.289-0.346h0.338v2.093
			h-0.325c-0.434-1.149-1.161-1.704-2.146-1.704c-1.193,0-2.419,1.085-2.419,3.351c0,2.258,1.322,3.351,2.503,3.351
			c0.663,0,1.149-0.129,1.455-0.37v-2.017c0-0.338-0.217-0.434-1.129-0.466v-0.346h2.877v0.346
			c-0.663,0.032-0.719,0.112-0.719,0.466v2.222c-0.619,0.337-1.692,0.555-2.395,0.555C88.937,67.25,87.177,65.992,87.177,63.529"/>
		<path class="st1" d="M4.597,74.515H2.17l-0.414,1.065c-0.402,1.017-0.346,1.145,0.599,1.298v0.313H0v-0.313
			c0.735-0.153,0.976-0.571,1.346-1.507l2.178-5.421h0.49l2.19,6.043c0.197,0.538,0.41,0.78,1.214,0.884v0.313H4.22v-0.313
			c0.94-0.052,1.117-0.257,0.912-0.836L4.597,74.515 M4.457,74.125l-0.985-2.873H3.428l-1.109,2.873H4.457z"/>
		<path class="st1" d="M7.916,75.254V70.87c0-0.338-0.217-0.43-1.125-0.466v-0.346H9.99v0.346c-0.968,0.036-1.045,0.108-1.045,0.466
			v4.207c0,1.27,0.86,1.824,2.021,1.824c0.583,0,1.041-0.209,1.374-0.542c0.39-0.39,0.555-0.727,0.555-1.539v-3.058
			c0-0.989-0.229-1.238-1.258-1.39v-0.313h2.752v0.313c-0.964,0.173-1.061,0.402-1.061,1.39v3.383c0,1.137-0.976,2.222-2.7,2.222
			C8.969,77.367,7.916,76.508,7.916,75.254"/>
		<path class="st1" d="M14.86,75.089h0.333c0.563,1.258,1.278,1.889,2.182,1.889c1.085,0,1.527-0.739,1.527-1.378
			c0-0.8-0.575-1.097-1.885-1.563c-0.989-0.346-2.029-0.639-2.029-1.973c0-1.354,1.061-2.178,2.407-2.178
			c0.607,0,1.041,0.117,1.386,0.249l0.35-0.305h0.237v2.081h-0.334c-0.35-1.009-0.968-1.635-1.812-1.635
			c-0.739,0-1.314,0.478-1.314,1.322c0,0.78,0.627,1.033,1.792,1.418c0.985,0.338,2.005,0.675,2.005,2.017
			c0,1.077-0.631,2.335-2.431,2.335c-0.583,0-1.202-0.133-1.615-0.305l-0.542,0.349H14.86V75.089"/>
		<path class="st1" d="M21.94,76.845c0.964-0.028,1.201-0.129,1.201-0.466v-5.931h-0.543c-1.041,0-1.234,0.562-1.668,1.856
			l-0.338-0.024l0.064-2.222h6.007l0.076,2.222l-0.333,0.024c-0.358-1.218-0.599-1.856-1.672-1.856H24.17v5.931
			c0,0.338,0.241,0.438,1.205,0.466v0.346H21.94V76.845"/>
		<path class="st1" d="M29.76,76.379c0,0.358,0.149,0.438,1.113,0.466v0.346h-3.275v-0.346c0.912-0.028,1.129-0.129,1.129-0.466
			V70.87c0-0.337-0.217-0.43-1.129-0.466v-0.346h2.994c2.17,0,2.809,0.836,2.809,1.736c0,0.864-0.486,1.495-1.808,1.788v0.032
			c1.31,0.129,1.475,0.639,1.603,1.43l0.165,1.033c0.096,0.627,0.354,0.78,1.105,0.832v0.349l-0.358,0.012
			c-1.531,0-1.78-0.313-1.856-1.302l-0.064-0.836c-0.084-1.065-0.53-1.31-1.647-1.31h-0.78V76.379 M30.591,73.429
			c1.366,0,1.704-0.599,1.704-1.607c0-0.94-0.478-1.374-1.776-1.374H29.76v2.981H30.591z"/>
		<path class="st1" d="M39.444,74.515h-2.431l-0.414,1.065c-0.398,1.017-0.346,1.145,0.599,1.298v0.313h-2.355v-0.313
			c0.739-0.153,0.976-0.571,1.346-1.507l2.178-5.421h0.49l2.19,6.043c0.193,0.538,0.414,0.78,1.214,0.884v0.313h-3.199v-0.313
			c0.944-0.052,1.117-0.257,0.912-0.836L39.444,74.515 M39.303,74.125l-0.988-2.873H38.27l-1.105,2.873H39.303z"/>
		<path class="st1" d="M42.771,76.845c0.912-0.028,1.129-0.129,1.129-0.466V70.87c0-0.337-0.217-0.43-1.129-0.466v-0.346h3.287
			v0.346c-0.912,0.036-1.129,0.129-1.129,0.466v5.911h1.181c1.431,0,1.768-0.51,2.182-1.981l0.333,0.02l-0.076,2.371h-5.778V76.845"
			/>
		<path class="st1" d="M49.276,76.845c0.912-0.028,1.129-0.129,1.129-0.466V70.87c0-0.337-0.217-0.43-1.129-0.466v-0.346h3.287
			v0.346c-0.912,0.036-1.129,0.129-1.129,0.466v5.509c0,0.338,0.217,0.438,1.129,0.466v0.346h-3.287V76.845"/>
		<path class="st1" d="M57.952,74.515h-2.427l-0.414,1.065c-0.402,1.017-0.346,1.145,0.599,1.298v0.313h-2.355v-0.313
			c0.735-0.153,0.976-0.571,1.346-1.507l2.178-5.421h0.49l2.19,6.043c0.193,0.538,0.41,0.78,1.214,0.884v0.313h-3.199v-0.313
			c0.944-0.052,1.117-0.257,0.908-0.836L57.952,74.515 M57.811,74.125l-0.988-2.873h-0.04l-1.109,2.873H57.811z"/>
		<path class="st1" d="M4.023,8.43c0.269,0.137,0.245,0.386,0.852,0.711l1.173,0.02L6.168,9.35
			c-0.482,0.289-0.715,0.816-0.711,1.398l-0.04,0.599l0.386-0.044c0.293-0.036,0.924,0.141,1.487-0.289l0.446-0.924l0.201-0.068
			C7.981,10.13,8.33,10.64,9.17,10.676c0.502,0.024,0.591,0,0.832,0.109l0.281-0.281c-0.213-0.257-0.008-0.374-0.221-1.161
			C9.99,9.073,9.64,8.527,9.138,8.378V8.153c0.603-0.289,1.234-1.29,0.836-2.351L9.849,5.196L9.512,5.28
			C9.291,5.541,8.383,5.497,8.089,6.349L7.876,6.976L7.76,6.666c0.012-0.418-0.281-0.968-0.603-1.149L6.369,5.123L6.024,5.328
			c0.016,0.366-0.53,1.113,0.104,1.941l0.133,0.229L6.104,7.582c-0.177-0.068-0.43-0.33-0.956-0.213
			c-0.526,0.117-0.86,0.619-1.125,0.687V8.43 M8.531,9.282L7.768,9.531l-0.41-0.088l0.181-0.072C7.832,9.286,8.415,9.065,8.66,8.478
			l0.096-0.241l0.064,0.245L8.531,9.282z M8.7,6.104c0.277-0.382,0.615-0.442,0.719-0.518L9.25,6.104L8.889,6.654l-0.571,0.33
			C8.318,6.984,8.419,6.485,8.7,6.104z M7.274,7.936l0.964-0.109l-0.297,0.92L6.976,8.864L7.274,7.936z M6.639,9.865L6.04,10.524
			l-0.35,0.229C5.702,10.628,5.698,10.291,6,9.893c0.305-0.398,0.796-0.506,0.796-0.506L6.639,9.865z M6.181,5.67l0.06,0.016
			L6.655,6.57l0.072,0.695l-0.45-0.422C5.948,6.369,6.136,5.842,6.181,5.67z M4.686,7.852L5.59,7.663L5.931,7.86L5.035,8.125
			l-0.679,0.04L4.686,7.852z"/>
		<path class="st1" d="M9.97,8.338c0.607,0.41,0.747,1.258,0.715,1.824l0.382,0.012c0.189-0.048,1.595,0.639,2.383,1.415l0.064-0.37
			c-0.639-0.98-1.422-1.338-1.832-1.676c-0.414-0.342-0.402-0.462-0.571-0.832c-0.253-0.571-0.575-0.888-0.82-0.892L9.994,8.125
			L9.97,8.338"/>
		<path class="st1" d="M23.973,8.153v0.225c-0.502,0.149-0.852,0.695-0.924,0.964c-0.213,0.788-0.008,0.904-0.221,1.161l0.281,0.281
			c0.241-0.108,0.33-0.084,0.832-0.108c0.84-0.036,1.189-0.547,1.23-0.655l0.205,0.068l0.446,0.924
			c0.567,0.43,1.189,0.253,1.487,0.289l0.382,0.044l-0.036-0.599c0.004-0.583-0.233-1.109-0.711-1.398l0.121-0.189l1.173-0.02
			c0.607-0.325,0.583-0.575,0.852-0.711V8.057c-0.265-0.068-0.599-0.571-1.125-0.687c-0.526-0.116-0.78,0.145-0.956,0.213
			L26.85,7.498l0.133-0.229c0.635-0.828,0.088-1.575,0.1-1.941l-0.342-0.205l-0.784,0.394c-0.321,0.181-0.623,0.731-0.607,1.149
			l-0.117,0.309l-0.213-0.627C24.729,5.497,23.821,5.541,23.6,5.28l-0.342-0.084l-0.121,0.607
			C22.74,6.863,23.371,7.864,23.973,8.153 M27.521,7.663l0.904,0.189l0.33,0.313l-0.679-0.04L27.18,7.86L27.521,7.663z
			 M25.344,9.531l-0.768-0.249l-0.285-0.8l0.064-0.245l0.096,0.241c0.245,0.587,0.828,0.808,1.121,0.892l0.177,0.072L25.344,9.531z
			 M26.457,6.57l0.41-0.884l0.064-0.016c0.044,0.173,0.233,0.699-0.096,1.173l-0.45,0.422L26.457,6.57z M27.108,9.893
			c0.305,0.398,0.301,0.735,0.313,0.86l-0.35-0.229l-0.599-0.659l-0.157-0.478C26.316,9.387,26.806,9.495,27.108,9.893z
			 M24.873,7.827l0.964,0.109l0.297,0.928l-0.964-0.116L24.873,7.827z M23.692,5.585c0.104,0.076,0.442,0.137,0.719,0.518
			c0.281,0.382,0.382,0.88,0.382,0.88l-0.571-0.33l-0.362-0.55L23.692,5.585z"/>
		<path class="st1" d="M19.598,11.219l0.06,0.37c0.792-0.775,2.198-1.463,2.387-1.414l0.378-0.012
			c-0.028-0.567,0.113-1.415,0.719-1.824l-0.024-0.213l-0.301-0.305c-0.245,0.004-0.563,0.321-0.82,0.892
			c-0.165,0.37-0.157,0.49-0.567,0.832C21.02,9.881,20.232,10.238,19.598,11.219"/>
		<path class="st1" d="M16.588,5.999l-0.032,0.012h-0.004l-0.028-0.012l-0.072-0.37c-0.177-1.005-0.731-1.535-1.792-1.591
			c-0.53-0.028-0.567-0.229-0.759-0.157l-0.06,0.55c-0.06,0.635-0.004,1.181,0.631,1.772l0.096,0.406l-0.398-0.165
			c-0.711-0.257-1.254,0.221-1.555,0.43l-0.41,0.265l-0.012,0.426c0.313,0.113,0.305,0.358,0.683,0.8
			c0.563,0.663,1.402,0.587,1.917,0.486l0.33,0.056c0.064,0.173-0.462,0.771,0.277,1.611c0.374,0.418,0.775,0.591,0.908,0.848
			l0.221,0.237l0.02,0.004h0.012l0.024-0.004l0.221-0.237c0.133-0.257,0.534-0.43,0.904-0.848c0.743-0.84,0.217-1.439,0.277-1.611
			l0.333-0.056c0.51,0.1,1.354,0.177,1.913-0.486c0.382-0.442,0.374-0.687,0.683-0.8L20.907,7.14l-0.414-0.265
			c-0.297-0.209-0.84-0.687-1.551-0.43L18.545,6.61l0.092-0.406c0.639-0.591,0.695-1.137,0.635-1.772l-0.06-0.55
			c-0.193-0.072-0.233,0.129-0.759,0.157c-1.061,0.056-1.615,0.587-1.792,1.591L16.588,5.999 M14.354,7.064l-0.647,0.301
			c-0.635,0.233-0.956,0.076-1.214,0.008l-0.02-0.056l0.414-0.125l0.575-0.305c0.418-0.193,0.776-0.004,0.932,0.088L14.354,7.064z
			 M18.717,6.976c0.157-0.092,0.514-0.281,0.932-0.088l0.575,0.305l0.414,0.125l-0.044,0.048c-0.173,0.036-0.386,0.285-1.218-0.004
			l-0.643-0.305L18.717,6.976z M16.552,6.791h0.004c0.414,0.008,0.747,0.273,0.747,0.599c0,0.325-0.334,0.591-0.747,0.599h-0.004
			c-0.414-0.008-0.743-0.273-0.743-0.599C15.808,7.064,16.138,6.799,16.552,6.791z M14.615,4.553l-0.004-0.044l0.559,0.076
			l0.607,0.538l0.185,0.808l-0.518-0.301C15.23,5.328,15.013,4.802,14.615,4.553z M16.62,9.121L16.6,9.125h-0.028l-0.024-0.004
			c-0.912-0.004-1.242-0.836-1.065-0.912c0,0,0.221,0.398,1.037,0.438h0.096c0.812-0.04,1.073-0.438,1.073-0.438
			C17.862,8.286,17.536,9.117,16.62,9.121z M17.323,5.123l0.607-0.538l0.575-0.076l-0.008,0.044
			C18.002,4.89,17.821,5.449,17.62,5.73l-0.474,0.201L17.323,5.123z"/>
		<path class="st1" d="M16.524,1.005C15.885,0.989,7.816,0.808,1.552,3.548L1.294,3.665v21.108c0,2.757,0.45,5.782,3.721,9.23
			c2.6,2.74,8.334,5.851,11.339,7.169l0.173,0.072l0.173-0.072c3.006-1.326,8.74-4.436,11.327-7.169
			c3.271-3.448,3.725-6.474,3.725-9.23V3.665l-0.257-0.116C25.231,0.808,17.158,0.992,16.524,1.005 M30.893,24.772
			c0,2.58-0.422,5.409-3.484,8.639C24.95,36,19.513,38.973,16.528,40.307c-5.461-2.419-9.571-5.501-10.885-6.895
			c-3.066-3.231-3.492-6.06-3.492-8.639V4.223c5.923-2.491,13.622-2.375,14.321-2.359h0.1c0.703-0.016,8.402-0.133,14.321,2.359
			V24.772z"/>
		<path class="st1" d="M32.5,2.901L31.893,2.64C26.469,0.261,19.855,0,17.263,0c-0.382,0-0.639,0-0.739,0c-0.104,0-0.362,0-0.743,0
			C13.188,0,6.578,0.261,1.15,2.64L0.547,2.901L0.298,3.01v21.763c0,2.966,0.486,6.212,3.998,9.913
			c2.696,2.849,8.583,6.048,11.657,7.394l0.41,0.181l0.165,0.076l0.169-0.076l0.406-0.181c3.074-1.35,8.961-4.557,11.649-7.394
			c3.512-3.705,3.998-6.952,3.998-9.913V3.01L32.5,2.901 M32.331,24.772c0,2.877-0.47,6.031-3.882,9.632
			c-2.648,2.789-8.47,5.955-11.516,7.293l-0.406,0.181l-0.41-0.181c-3.042-1.33-8.868-4.492-11.524-7.293
			c-3.412-3.6-3.878-6.755-3.878-9.632V3.283l0.603-0.269C6.671,0.671,13.216,0.418,15.78,0.418c0.378,0,0.635,0.008,0.743,0.008
			c0.108,0,0.362-0.008,0.739-0.008c2.568,0,9.109,0.253,14.466,2.6l0.603,0.265V24.772z"/>
		<path class="st1" d="M18.541,24.186l0.076-0.012l0.579-0.044c0.506,0,1.073,0.092,1.692,0.277c0.506,0.149,1.025,0.197,1.29,0.213
			v-0.016c-0.378-0.092-0.776-0.217-1.181-0.378c-0.563-0.221-1.093-0.358-1.579-0.41l-0.233-0.008l-0.579,0.048l-0.333,0.084
			L18.541,24.186"/>
		<path class="st1" d="M18.541,23l0.076-0.008l0.579-0.048c0.506,0,1.073,0.096,1.692,0.277c0.37,0.108,0.804,0.181,1.29,0.213
			v-0.016c-0.378-0.092-0.776-0.217-1.181-0.374c-0.563-0.225-1.097-0.362-1.579-0.414l-0.233-0.008l-0.579,0.048l-0.333,0.088
			L18.541,23"/>
		<path class="st1" d="M18.541,21.815l0.076-0.008l0.579-0.044c0.506,0,1.077,0.092,1.692,0.273c0.506,0.149,1.069,0.205,1.29,0.221
			v-0.02c-0.378-0.092-0.776-0.217-1.181-0.378c-0.563-0.221-1.097-0.358-1.579-0.41l-0.233-0.008l-0.579,0.044l-0.333,0.092
			L18.541,21.815"/>
		<path class="st1" d="M18.541,25.367l0.076-0.008l0.579-0.048c0.506,0,1.073,0.096,1.692,0.277c0.366,0.108,0.8,0.181,1.29,0.213
			v-0.02c-0.378-0.084-0.776-0.213-1.181-0.37c-0.563-0.221-1.093-0.362-1.579-0.414l-0.233-0.004l-0.579,0.044l-0.333,0.088
			L18.541,25.367"/>
		<path class="st1" d="M9.877,17.564l0.458,0.044h0.032l0.092,0.004h0.04c0.94-0.04,1.222-0.366,1.222-0.37l-0.016-0.004
			l-0.486,0.072l-0.735,0.052c-0.498,0-0.792-0.084-0.92-0.129l-0.04-0.012l-0.012,0.004l-0.004,0.012L9.877,17.564"/>
		<path class="st1" d="M20.887,26.774c0.514,0.149,1.073,0.197,1.29,0.213v-0.02c-0.378-0.088-0.776-0.213-1.181-0.374
			c-0.563-0.221-1.097-0.358-1.579-0.41l-0.233-0.008l-0.579,0.048l-0.333,0.084l0.269,0.245l0.08-0.012l0.575-0.044
			C19.702,26.496,20.269,26.589,20.887,26.774"/>
		<path class="st1" d="M9.877,18.757l0.458,0.052h0.032l0.092,0.004l0.04-0.004c0.94-0.04,1.222-0.362,1.222-0.37l-0.016-0.004
			l-0.486,0.076l-0.735,0.052c-0.498,0-0.792-0.084-0.92-0.133l-0.04-0.012l-0.012,0.004l-0.004,0.012L9.877,18.757"/>
		<polyline class="st1" points="5.28,22.8 5.345,22.984 5.019,23.298 4.698,23.001 4.65,23.189 5.096,23.619 5.542,23.189 
			5.28,22.8 		"/>
		<polyline class="st1" points="5.28,26.874 5.345,27.063 5.019,27.376 4.698,27.079 4.65,27.268 5.096,27.698 5.542,27.268 
			5.28,26.874 		"/>
		<path class="st1" d="M18.541,20.634l0.076-0.012l0.579-0.04c0.506,0,1.077,0.088,1.692,0.273c0.37,0.108,0.804,0.181,1.29,0.217
			v-0.02c-0.378-0.092-0.776-0.217-1.181-0.374c-0.563-0.225-1.093-0.362-1.579-0.414l-0.233-0.008l-0.579,0.048l-0.333,0.088
			L18.541,20.634"/>
		<polyline class="st1" points="5.28,18.725 5.345,18.914 5.019,19.227 4.698,18.922 4.65,19.115 5.096,19.549 5.542,19.115 
			5.28,18.725 		"/>
		<path class="st1" d="M18.545,17.082l0.068-0.008l0.583-0.044c0.506,0,1.073,0.092,1.692,0.273c0.482,0.141,0.968,0.197,1.29,0.217
			v-0.02c-0.378-0.092-0.78-0.217-1.181-0.374c-0.563-0.221-1.093-0.362-1.579-0.41l-0.233-0.008l-0.53,0.036h-0.024l-0.02,0.008
			l-0.338,0.088L18.545,17.082"/>
		<path class="st1" d="M18.541,19.448l0.076-0.008l0.579-0.044c0.506,0,1.073,0.092,1.692,0.273c0.494,0.145,0.928,0.193,1.29,0.217
			v-0.02c-0.378-0.088-0.776-0.217-1.181-0.374c-0.563-0.221-1.093-0.362-1.579-0.414h-0.233l-0.526,0.032h-0.024l-0.028,0.008
			l-0.333,0.092L18.541,19.448"/>
		<path class="st1" d="M18.545,18.263l0.068-0.008l0.583-0.04c0.506,0,1.077,0.088,1.692,0.269c0.366,0.108,0.8,0.185,1.29,0.221
			v-0.02c-0.378-0.092-0.78-0.217-1.181-0.378c-0.563-0.221-1.097-0.358-1.579-0.406l-0.233-0.008l-0.53,0.032l-0.02,0.004
			l-0.028,0.004l-0.334,0.092L18.545,18.263"/>
		<path class="st1" d="M10.368,27.2l0.092,0.004h0.04c0.94-0.044,1.222-0.366,1.222-0.37l-0.016-0.008l-0.486,0.076l-0.735,0.048
			c-0.498,0-0.792-0.08-0.92-0.129l-0.04-0.012l-0.012,0.004l-0.004,0.012l0.37,0.325l0.458,0.048H10.368"/>
		<path class="st1" d="M9.877,23.555l0.458,0.048h0.032l0.092,0.004l0.04-0.004c0.94-0.036,1.222-0.358,1.222-0.366l-0.016-0.004
			l-0.486,0.072l-0.735,0.052c-0.498,0-0.792-0.084-0.92-0.129l-0.04-0.012l-0.012,0.004l-0.004,0.012L9.877,23.555"/>
		<path class="st1" d="M9.877,25.95l0.458,0.052h0.032l0.092,0.004l0.04-0.004c0.94-0.04,1.222-0.362,1.222-0.37l-0.016-0.004
			l-0.486,0.076l-0.735,0.052c-0.498,0-0.792-0.084-0.92-0.133l-0.04-0.012l-0.012,0.004l-0.004,0.012L9.877,25.95"/>
		<path class="st1" d="M9.877,19.959l0.458,0.048h0.032l0.092,0.004h0.04c0.94-0.044,1.222-0.366,1.222-0.37l-0.016-0.008
			l-0.486,0.076l-0.735,0.048c-0.498,0-0.792-0.08-0.92-0.129l-0.04-0.012l-0.012,0.004l-0.004,0.012L9.877,19.959"/>
		<path class="st1" d="M9.877,24.756l0.458,0.044h0.032l0.092,0.004h0.04c0.94-0.04,1.222-0.366,1.222-0.366l-0.016-0.008
			l-0.486,0.072l-0.735,0.052c-0.498,0-0.792-0.084-0.92-0.129l-0.04-0.012l-0.012,0.004l-0.004,0.012L9.877,24.756"/>
		<path class="st1" d="M9.877,22.357l0.458,0.048h0.032l0.092,0.004h0.04c0.94-0.044,1.222-0.366,1.222-0.37l-0.016-0.008
			l-0.486,0.072l-0.735,0.052c-0.498,0-0.792-0.08-0.92-0.129l-0.04-0.012L9.512,22.02l-0.004,0.012L9.877,22.357"/>
		<path class="st1" d="M9.877,21.156l0.458,0.052h0.032l0.092,0.004l0.04-0.004c0.94-0.04,1.222-0.362,1.222-0.37l-0.016-0.004
			l-0.486,0.076l-0.735,0.048c-0.498,0-0.792-0.08-0.92-0.129l-0.04-0.012l-0.012,0.004l-0.004,0.012L9.877,21.156"/>
		<path class="st1" d="M28.168,12.36c-1.185,0.008-2.122,0.285-3.026,0.555c-0.82,0.245-1.668,0.494-2.692,0.526
			c-0.788,0.028-1.495-0.177-2.314-0.41l-0.012-0.004c-0.976-0.281-2.077-0.599-3.556-0.599h-0.084
			c-1.109,0-2.045,0.249-3.038,0.506c-0.884,0.233-1.8,0.474-2.837,0.506c-0.84,0.028-1.688-0.197-2.58-0.43H8.021
			c-1.005-0.269-2.045-0.542-3.283-0.546H4.706c-0.772,0-1.426,0.084-1.973,0.193v12.115c0,2.459,0.406,5.156,3.327,8.238
			c1.262,1.33,5.196,4.291,10.464,6.662c2.929-1.338,8.145-4.215,10.464-6.662c2.921-3.082,3.327-5.778,3.327-8.238V12.617
			c-0.619-0.145-1.318-0.257-2.122-0.257H28.168 M6.305,27.734H5.682l-0.004,0.454l-0.631,0.506l-0.402-0.177l0.052-0.739
			L4.376,27.83c-0.189,0-0.502-0.072-0.526-0.579c0.024-0.482,0.297-0.587,0.526-0.587l0.321,0.056l-0.052-0.743l0.402-0.177
			l0.631,0.506l0.004,0.474h0.623V27.734z M6.305,23.655H5.682L5.678,24.11l-0.631,0.506l-0.402-0.177L4.698,23.7l-0.321,0.056
			c-0.189,0-0.502-0.076-0.526-0.579c0.024-0.51,0.338-0.587,0.526-0.587l0.321,0.056l-0.052-0.743l0.402-0.177l0.631,0.506
			l0.004,0.47h0.623V23.655z M6.305,19.581H5.682l-0.004,0.458l-0.631,0.506l-0.402-0.181l0.052-0.743l-0.321,0.056
			c-0.189,0-0.502-0.076-0.526-0.579c0.024-0.51,0.338-0.583,0.526-0.583l0.321,0.056l-0.052-0.743l0.402-0.181l0.631,0.506
			l0.004,0.47h0.623V19.581z M24.729,16.346l0.342,0.422v11.661l-0.342-0.426V16.346z M17.006,16.507
			c0.265-0.261,1.037-0.852,2.371-0.731c1.652,0.149,3.532,1.109,4.943,0.402v11.621c-0.249,0.209-1.668,0.494-3.408-0.06
			c-2.411-0.775-3.424-0.004-3.906,0.346V16.507z M8.953,16.177c1.41,0.707,3.291-0.253,4.942-0.402
			c1.31-0.117,2.001,0.45,2.25,0.715v0.747l-0.723-0.358l-0.631-0.109l-0.193,0.012l-0.004,0.008l0.346,0.088l0.016,0.004
			c0.643,0.233,1.009,0.595,1.189,0.816v0.711c-0.141-0.1-0.362-0.217-0.727-0.342l-0.611-0.096l-0.209,0.016l0.004,0.008
			l0.008,0.004l0.329,0.072l0.016,0.004c0.631,0.217,1.009,0.583,1.189,0.804v0.711l-0.731-0.333l-0.591-0.084l-0.217,0.012v0.012
			l0.325,0.072l0.052,0.016c0.643,0.245,0.997,0.571,1.161,0.771v0.707l-0.731-0.317l-0.571-0.076l-0.241,0.02l0.008,0.012
			l0.325,0.064l0.076,0.024c0.611,0.213,0.964,0.543,1.133,0.743v0.707l-0.731-0.305l-0.551-0.068l-0.265,0.02l-0.004,0.008
			l0.036,0.004l0.309,0.06l0.016,0.004c0.189,0.072,0.78,0.317,1.189,0.763v0.691l-0.727-0.293l-0.53-0.064l-0.289,0.024v0.008
			l0.342,0.06l0.016,0.004c0.486,0.141,0.904,0.402,1.189,0.735v0.707l-0.731-0.289l-0.506-0.06l-0.305,0.032v0.008l0.338,0.056
			l0.012,0.004c0.173,0.048,0.727,0.229,1.193,0.743v0.683l-0.727-0.277l-0.486-0.056l-0.325,0.036l-0.008,0.008l0.342,0.048
			l0.016,0.004l1.189,0.683v0.727l-0.735-0.277l-0.462-0.044l-0.346,0.036l0.008,0.012l0.325,0.044h0.012
			c0.55,0.116,0.98,0.462,1.197,0.699v0.872c-0.526-0.37-1.555-0.972-3.785-0.257c-1.74,0.555-3.154,0.269-3.407,0.06V16.177z
			 M8.214,16.768l0.342-0.422v11.657l-0.342,0.426V16.768z M26.638,30.39h-7.719l-0.707,0.229c-0.249,0.225-0.743,0.55-1.555,0.591
			c-0.948,0.048-1.551-0.37-1.824-0.623l-0.575-0.185H6.691v-13.18H7.88l-0.048,0.056v11.625l-0.338,0.422V17.688l-0.354,0.418
			l0.02,11.745h7.378c0.366,0.016,0.526,0.189,0.663,0.305c0.229,0.197,0.651,0.414,1.358,0.414c0.579,0,0.964-0.173,1.205-0.346
			l0.04-0.016c0.157-0.092,0.289-0.309,0.659-0.358h7.699V18.179L25.79,17.7v11.625l-0.338-0.422V17.254l-0.028-0.032h1.214V30.39z
			 M28.727,28.57H27.71v-0.631h0.004l0.555-0.482h-1.27V26.89h0.711v-0.655h1.017V28.57z M28.727,24.467H27.71v-0.631h0.004
			l0.555-0.478h-1.27v-0.571h0.711v-0.655h1.017V24.467z M28.727,20.368H27.71v-0.631h0.004l0.555-0.486h-1.27v-0.567h0.711v-0.651
			h1.017V20.368z"/>
	</g>
</g>
</svg>