<!-- Generator: Adobe Illustrator 21.0.0, SVG Export Plug-In  -->
<svg version="1.1"
	 xmlns="http://www.w3.org/2000/svg" xmlns:xlink="http://www.w3.org/1999/xlink" xmlns:a="http://ns.adobe.com/AdobeSVGViewerExtensions/3.0/"
	 x="0px" y="0px" width="102.078px" height="34.653px" viewBox="0 0 102.078 34.653"
	 style="enable-background:new 0 0 102.078 34.653;" xml:space="preserve">
<style type="text/css">
	.st0{fill:#1D5079;}
	.st1{fill:#E1D11F;}
	.st2{fill:#EB2227;}
	.st3{fill:#231F20;}
</style>
<defs>
</defs>
<g>
	<path class="st0" d="M59.964,5.673c1.001-0.482,1.693-1.503,1.693-2.688C61.658,1.336,60.322,0,58.674,0
		c-1.648,0-2.984,1.336-2.984,2.985c0,1.055,0.549,1.98,1.375,2.511c-5.305,0.047-11.699,1.931-19.652,5.199
		c24.769-8.07,27.471,6.067,0.394,19.188C53.343,22.8,63.574,17.413,64.532,9.298c2.801,0.127,4.912,1.651,7.316,4.157
		C68.544,8.769,64.723,6.319,59.964,5.673z"/>
	<path class="st1" d="M32.727,19.194l20.547-9.03c-5.235-0.988-10.527-0.085-14.721,2.144C48.123,9.431,46.366,12.135,32.727,19.194
		L32.727,19.194z"/>
	<path class="st2" d="M30.667,21.869l23.7-10.384c0.732,3.838-2.618,7.76-7.825,11.908C52.35,15.622,47.058,15.114,30.667,21.869
		L30.667,21.869z"/>
	<path class="st3" d="M8.106,12.971H2.941C2.086,18.436,1.059,23.327,0,27.08c0.972-0.113,2.154-0.113,3.547,0
		c0.278-2.176,0.681-4.199,1.041-5.926C13.117,22.001,12.793,13.183,8.106,12.971z M4.855,19.673c0.488-2.441,0.84-4.115,1.14-5.136
		l0.619,0.014C9.218,14.707,8.458,20.322,4.855,19.673z"/>
	<path class="st3" d="M20.308,12.971h-1.689c-1.759,3.486-4.745,8.189-8.958,14.109c0.826-0.066,1.69-0.066,2.59,0l2.188-4.106
		c1.224-0.24,2.702-0.169,4.546,0.028l0.338,4.092c1.201-0.16,2.407-0.169,3.617-0.028C22.097,23.245,21.122,18.555,20.308,12.971z
		 M15.523,21.182c0.488-0.986,1.389-2.393,2.561-4.049c0.324,0.974,0.424,2.4,0.661,4.007C17.59,21.268,16.516,21.282,15.523,21.182
		z"/>
	<path class="st3" d="M36.528,24.851l-0.282-0.226c-8.796,4.769-8.43-6.236-5.207-9.072c1.731-1.806,5.461-1.637,6.495,0.444
		l0.303,0.021c0.308-0.672,0.639-1.295,0.992-1.869c-2.435-1.764-6.805-1.771-9.31-0.205c-4.94,2.864-5.474,11.442,0.985,13.093
		c1.406,0.272,3.181,0.381,5.306-0.48L36.528,24.851L36.528,24.851z"/>
	<path class="st3" d="M67.255,12.954h-1.689c-1.759,3.486-4.745,8.189-8.958,14.109c0.862-0.149,1.688-0.148,2.475,0.003
		c0.199-0.618,0.988-1.964,2.259-4.084c1.224-0.24,2.702-0.198,4.546,0c0.198,1.43,0.353,2.785,0.283,4.081
		c0.953-0.097,2.165-0.101,3.636-0.011C68.964,23.23,68.068,18.538,67.255,12.954z M62.47,21.166
		c0.488-0.987,1.394-2.418,2.567-4.075c0.25,1.008,0.418,2.425,0.656,4.032C64.536,21.251,63.462,21.265,62.47,21.166z"/>
	<path class="st3" d="M72.993,23.094l-0.45-0.021l-0.957,2.561c3.926,2.956,8.937,1.94,9.021-2.857
		c-0.056-0.903-0.254-1.528-0.76-2.201c-0.498-0.676-1.225-1.39-2.181-2.145c-3.026-2.159-1.562-4.233,0.394-4.141
		c0.89,0.062,1.9,0.501,2.076,2.081l0.394,0.134l1.02-1.954c-1.421-1.573-2.969-2.004-4.883-1.707
		c-2.125,0.522-3.912,2.187-3.223,5.46c0.69,1.651,1.731,2.328,3.223,3.499c2.294,1.806,0.915,4.388-1.358,3.936
		C74.098,25.521,73.148,24.759,72.993,23.094L72.993,23.094z"/>
	<path class="st3" d="M97.862,12.971h-1.661c-1.886,3.358-4.869,8.494-9.096,14.109c0.906-0.063,1.757-0.051,2.552,0.037
		c0.221-0.707,1.125-2.073,2.322-4.128c1.225-0.24,2.618-0.113,4.461,0.085c0.23,1.708,0.366,3,0.324,4.044
		c0.993-0.105,2.182-0.117,3.566-0.037C99.488,23.259,98.676,18.555,97.862,12.971z M92.967,21.182
		c0.488-0.986,1.415-2.421,2.588-4.077c0.25,1.007,0.66,2.399,0.732,4.035C95.13,21.268,93.959,21.282,92.967,21.182z"/>
	<path class="st3" d="M85.021,12.971c0.664,0.055,1.95,0.085,3.67,0c-1.548,5.164-2.688,10.368-3.029,14.109
		c-1.234-0.088-2.439-0.088-3.617,0C83.423,22.904,84.542,17.486,85.021,12.971L85.021,12.971z"/>
	<path class="st3" d="M42.646,33.179l-0.148-0.025l-0.401,0.924c1.346,1.049,3.332,0.633,3.226-1.051
		c-0.019-0.305-0.177-0.542-0.348-0.77c-0.168-0.228-0.413-0.436-0.736-0.691c-0.954-0.674-0.578-1.476,0.154-1.427
		c0.3,0.021,0.74,0.221,0.68,0.69l0.183,0.063l0.355-0.681c-0.48-0.531-1.049-0.705-1.696-0.621
		c-0.795,0.141-1.408,0.813-1.175,1.919c0.195,0.534,0.608,0.846,1.112,1.242c0.88,0.621,0.345,1.453-0.401,1.372
		C42.861,34.068,42.698,33.741,42.646,33.179L42.646,33.179z"/>
	<path class="st3" d="M71.895,29.62l-0.642,0.005c-0.612,1.212-1.748,2.96-3.212,5.018c0.373-0.042,0.701-0.042,0.984,0l0.857-1.474
		c0.426-0.083,0.816-0.076,1.456-0.007c0.097,0.391,0.141,0.852,0.131,1.481c0.415-0.066,0.862-0.066,1.34,0
		C72.517,33.314,72.178,31.561,71.895,29.62z M70.177,32.48c0.17-0.343,0.458-0.803,0.866-1.378c0.087,0.35,0.172,0.805,0.255,1.364
		C70.895,32.509,70.522,32.514,70.177,32.48z"/>
	<path class="st3" d="M93.572,29.625h-0.768c-0.611,1.212-1.701,2.96-3.165,5.018c0.373-0.042,0.706-0.042,0.999,0l0.767-1.496
		c0.426-0.083,0.83-0.056,1.502-0.035c0.087,0.416,0.125,1.001,0.11,1.531c0.54-0.066,1.056-0.066,1.548,0
		C94.142,33.316,93.854,31.566,93.572,29.625z M91.727,32.48c0.17-0.343,0.458-0.803,0.866-1.378
		c0.087,0.35,0.172,0.805,0.254,1.364C92.446,32.509,92.072,32.514,91.727,32.48z"/>
	<path class="st3" d="M47.007,30.283c0.103-0.262,0.15-0.483,0.141-0.663h3.631c-0.076,0.238-0.116,0.469-0.12,0.691h-1.14
		c-0.438,1.785-0.744,3.199-0.752,4.331c-0.551-0.075-1.03-0.075-1.436,0c0.33-0.879,0.74-2.351,1.048-4.36H47.007L47.007,30.283z"
		/>
	<path class="st3" d="M51.874,29.62l1.485,0.021c-0.479,1.15-0.647,1.944-0.901,3.453c-0.218,1.182,1.661,1.316,2.111,0.307
		c0.26-0.466,0.296-0.798,0.415-1.185c0.197-0.84,0.486-1.587,0.457-2.596h0.922l-0.992,3.732c-0.408,1.876-3.955,1.524-4.067,0.176
		c-0.007-0.487,0.151-1,0.31-1.926C51.707,31.055,51.916,30.311,51.874,29.62L51.874,29.62z"/>
	<path class="st3" d="M60.296,29.62h-2.477c-0.225,1.566-0.486,3.269-1.069,5.023h2.449C62.647,34.22,62.633,30.128,60.296,29.62z
		 M58.988,34.008l-0.887,0.014l0.778-3.813h0.767C61.436,30.452,61.225,33.81,58.988,34.008z"/>
	<path class="st3" d="M62.824,29.62h1.457c0.09,0.759,0.331,1.517,0.528,2.307c0.5-0.639,0.915-1.481,1.457-2.307h1.02
		c-0.536,0.564-1.266,1.517-2.174,2.815c-0.123,0.352-0.257,1.074-0.387,2.208c-0.352-0.056-0.767-0.056-1.245,0
		c0.253-0.747,0.378-1.462,0.443-2.145L62.824,29.62L62.824,29.62z"/>
	<path class="st3" d="M76.904,32.082c-0.198-0.038-0.115-0.117,0.028-0.155c1.632-0.381,1.232-2.307-0.12-2.307h-1.928
		c-0.043,1.351-0.444,3.025-0.992,5.023h2.118C77.931,34.516,78.135,32.322,76.904,32.082z M75.553,34.001l-0.31-0.014l0.338-1.721
		l0.457,0.007C76.791,32.364,76.616,33.958,75.553,34.001z M76.003,31.729l-0.345-0.007l0.268-1.51h0.461
		C77.14,30.364,76.813,31.631,76.003,31.729z"/>
	<path class="st3" d="M81.873,29.62h-1.837c-0.165,1.673-0.542,3.492-1.049,5.023c0.399-0.066,0.924-0.066,1.436,0
		c0.028-0.882,0.127-1.559,0.218-2.173l0.105,0.007c0.277,0.491,0.496,1.208,0.754,2.166c0.342-0.057,0.815-0.057,1.421,0
		c-0.605-0.931-0.875-1.835-1.049-2.391C83.4,32.117,83.682,29.789,81.873,29.62z M81.078,31.927l-0.359-0.007
		c0.064-0.593,0.245-1.193,0.387-1.799h0.401C82.267,30.368,82.056,31.99,81.078,31.927z"/>
	<path class="st3" d="M88.196,29.655c-0.985-0.261-1.538-0.042-1.977,0.078c-2.28,0.804-2.688,4.712,0.197,4.91
		c0.296,0.014,0.573,0.014,0.83,0C89.751,34.389,91.046,30.481,88.196,29.655z M87.19,34.1c-0.273,0.067-0.48,0.069-0.661,0.042
		c-1.513-0.205-1.337-3.732,0.661-4.042C89.42,29.817,89.188,33.507,87.19,34.1z"/>
	<path class="st3" d="M98.616,29.62h-2.477c-0.225,1.566-0.486,3.269-1.069,5.023h2.449C100.991,34.347,101.117,30.149,98.616,29.62
		z M97.307,34.008l-0.887,0.014l0.778-3.813h0.767C99.756,30.452,99.545,33.81,97.307,34.008z"/>
	<path class="st2" d="M38.384,28.882H0v-0.591h38.384V28.882z M100.331,28.777H44.955v-0.591h55.375V28.777z"/>
	<g>
		<path class="st3" d="M98.605,13.077v-1.655h-0.64v-0.337h1.713v0.337H99.04v1.655H98.605z"/>
		<path class="st3" d="M99.996,13.077v-1.992h0.651l0.391,1.359l0.387-1.359h0.653v1.992h-0.404v-1.568l-0.428,1.568h-0.419
			l-0.427-1.568v1.568H99.996z"/>
	</g>
</g>
</svg>