<!-- Generator: Adobe Illustrator 21.0.0, SVG Export Plug-In  -->
<svg version="1.1"
	 xmlns="http://www.w3.org/2000/svg" xmlns:xlink="http://www.w3.org/1999/xlink" xmlns:a="http://ns.adobe.com/AdobeSVGViewerExtensions/3.0/"
	 x="0px" y="0px" width="92.153px" height="26.298px" viewBox="0 0 92.153 26.298"
	 style="enable-background:new 0 0 92.153 26.298;" xml:space="preserve">
<style type="text/css">
	.st0{fill:#6D6E71;}
	.st1{fill:#ED1C24;}
	.st2{fill:#2B3990;}
</style>
<defs>
</defs>
<g>
	<g>
		<g>
			<path class="st0" d="M36.324,24.949l0.458,0.122c-0.096,0.399-0.269,0.703-0.518,0.913c-0.25,0.209-0.555,0.314-0.915,0.314
				c-0.373,0-0.677-0.081-0.91-0.242c-0.234-0.161-0.411-0.394-0.533-0.7c-0.122-0.305-0.183-0.633-0.183-0.984
				c0-0.382,0.069-0.716,0.207-1c0.138-0.284,0.333-0.501,0.588-0.648c0.254-0.148,0.534-0.222,0.839-0.222
				c0.346,0,0.637,0.093,0.873,0.28c0.236,0.187,0.4,0.45,0.493,0.788l-0.451,0.113c-0.08-0.267-0.197-0.462-0.349-0.583
				c-0.153-0.122-0.345-0.183-0.576-0.183c-0.266,0-0.488,0.068-0.667,0.203c-0.179,0.135-0.304,0.317-0.377,0.544
				c-0.072,0.228-0.108,0.463-0.108,0.705c0,0.312,0.043,0.584,0.129,0.817c0.086,0.233,0.219,0.407,0.4,0.522
				c0.181,0.115,0.377,0.173,0.588,0.173c0.256,0,0.474-0.078,0.651-0.235C36.14,25.49,36.261,25.257,36.324,24.949z"/>
			<path class="st0" d="M36.966,26.236l1.329-3.67h0.493l1.417,3.67h-0.522l-0.404-1.112h-1.447l-0.38,1.112H36.966z M37.964,24.729
				h1.173l-0.361-1.017c-0.11-0.309-0.192-0.562-0.246-0.761c-0.044,0.235-0.106,0.469-0.186,0.701L37.964,24.729z"/>
			<path class="st0" d="M40.577,26.236v-3.67h1.534c0.309,0,0.543,0.033,0.704,0.099c0.16,0.066,0.289,0.182,0.385,0.349
				c0.096,0.167,0.144,0.351,0.144,0.553c0,0.26-0.08,0.48-0.239,0.659c-0.159,0.178-0.404,0.292-0.736,0.34
				c0.121,0.062,0.213,0.123,0.276,0.183c0.134,0.13,0.26,0.293,0.38,0.488l0.602,0.999h-0.576l-0.458-0.764
				c-0.134-0.22-0.244-0.389-0.331-0.506c-0.086-0.117-0.164-0.198-0.232-0.245c-0.068-0.047-0.138-0.079-0.209-0.097
				c-0.052-0.012-0.137-0.018-0.255-0.018h-0.531v1.63H40.577z M41.035,24.185h0.984c0.209,0,0.373-0.023,0.491-0.069
				c0.118-0.046,0.208-0.119,0.269-0.22c0.061-0.101,0.092-0.211,0.092-0.329c0-0.174-0.059-0.316-0.178-0.428
				c-0.119-0.112-0.306-0.168-0.563-0.168h-1.095V24.185z"/>
			<path class="st0" d="M44.071,26.236v-3.67h2.502v0.433h-2.044v1.124h1.914v0.43h-1.914v1.249h2.124v0.433H44.071z"/>
			<path class="st0" d="M47.295,26.236v-3.67h2.502v0.433h-2.044v1.124h1.914v0.43h-1.914v1.249h2.124v0.433H47.295z"/>
			<path class="st0" d="M50.518,26.236v-3.67h1.534c0.308,0,0.543,0.033,0.703,0.099c0.161,0.066,0.289,0.182,0.385,0.349
				c0.096,0.167,0.144,0.351,0.144,0.553c0,0.26-0.079,0.48-0.238,0.659c-0.159,0.178-0.404,0.292-0.737,0.34
				c0.121,0.062,0.213,0.123,0.276,0.183c0.134,0.13,0.26,0.293,0.38,0.488l0.602,0.999h-0.576l-0.458-0.764
				c-0.134-0.22-0.244-0.389-0.33-0.506c-0.086-0.117-0.164-0.198-0.232-0.245c-0.068-0.047-0.138-0.079-0.209-0.097
				c-0.052-0.012-0.137-0.018-0.255-0.018h-0.531v1.63H50.518z M50.976,24.185h0.984c0.209,0,0.373-0.023,0.491-0.069
				c0.118-0.046,0.208-0.119,0.269-0.22c0.061-0.101,0.092-0.211,0.092-0.329c0-0.174-0.059-0.316-0.178-0.428
				c-0.119-0.112-0.306-0.168-0.563-0.168h-1.095V24.185z"/>
			<path class="st0" d="M57.814,24.949l0.458,0.122c-0.096,0.399-0.269,0.703-0.518,0.913c-0.25,0.209-0.555,0.314-0.915,0.314
				c-0.373,0-0.676-0.081-0.91-0.242c-0.233-0.161-0.411-0.394-0.533-0.7c-0.122-0.305-0.183-0.633-0.183-0.984
				c0-0.382,0.069-0.716,0.206-1c0.138-0.284,0.334-0.501,0.588-0.648c0.254-0.148,0.534-0.222,0.84-0.222
				c0.346,0,0.637,0.093,0.873,0.28c0.236,0.187,0.4,0.45,0.493,0.788l-0.451,0.113c-0.08-0.267-0.197-0.462-0.349-0.583
				c-0.152-0.122-0.345-0.183-0.576-0.183c-0.266,0-0.488,0.068-0.667,0.203c-0.178,0.135-0.304,0.317-0.376,0.544
				c-0.073,0.228-0.109,0.463-0.109,0.705c0,0.312,0.043,0.584,0.129,0.817c0.086,0.233,0.219,0.407,0.4,0.522
				c0.181,0.115,0.377,0.173,0.588,0.173c0.256,0,0.473-0.078,0.651-0.235C57.631,25.49,57.751,25.257,57.814,24.949z"/>
			<path class="st0" d="M58.697,24.448c0-0.609,0.154-1.086,0.462-1.431c0.309-0.345,0.707-0.517,1.194-0.517
				c0.319,0,0.608,0.081,0.864,0.243c0.257,0.162,0.452,0.388,0.586,0.677c0.135,0.289,0.202,0.618,0.202,0.985
				c0,0.372-0.07,0.705-0.212,0.999c-0.142,0.294-0.342,0.516-0.602,0.667c-0.26,0.151-0.54,0.227-0.84,0.227
				c-0.326,0-0.617-0.084-0.873-0.25c-0.257-0.167-0.451-0.395-0.583-0.684C58.763,25.076,58.697,24.77,58.697,24.448z
				 M59.169,24.456c0,0.442,0.112,0.791,0.336,1.045c0.224,0.254,0.506,0.382,0.844,0.382c0.345,0,0.628-0.128,0.851-0.385
				c0.223-0.257,0.334-0.622,0.334-1.094c0-0.299-0.047-0.56-0.143-0.782c-0.095-0.223-0.235-0.396-0.418-0.518
				c-0.184-0.123-0.389-0.184-0.617-0.184c-0.324,0-0.603,0.118-0.837,0.354C59.286,23.509,59.169,23.903,59.169,24.456z"/>
			<path class="st0" d="M64.867,22.566h0.458v2.12c0,0.369-0.039,0.662-0.118,0.879c-0.079,0.217-0.221,0.394-0.426,0.53
				c-0.205,0.136-0.475,0.204-0.809,0.204c-0.324,0-0.589-0.059-0.796-0.178c-0.206-0.118-0.353-0.29-0.442-0.514
				c-0.088-0.225-0.132-0.531-0.132-0.92v-2.12h0.458v2.118c0,0.319,0.028,0.554,0.083,0.705c0.056,0.151,0.152,0.267,0.288,0.349
				c0.136,0.082,0.303,0.123,0.499,0.123c0.337,0,0.577-0.081,0.72-0.243c0.143-0.162,0.215-0.473,0.215-0.934V22.566z"/>
			<path class="st0" d="M66.083,26.236v-3.67h0.47l1.817,2.881v-2.881h0.439v3.67h-0.47l-1.818-2.884v2.884H66.083z"/>
			<path class="st0" d="M69.423,25.056l0.432-0.04c0.02,0.184,0.068,0.334,0.143,0.452c0.075,0.118,0.191,0.213,0.348,0.285
				c0.157,0.073,0.334,0.109,0.531,0.109c0.175,0,0.329-0.027,0.463-0.082c0.134-0.055,0.233-0.131,0.299-0.227
				c0.065-0.096,0.098-0.2,0.098-0.314c0-0.115-0.031-0.216-0.094-0.302c-0.063-0.086-0.167-0.158-0.312-0.217
				c-0.093-0.038-0.299-0.098-0.616-0.179c-0.318-0.081-0.541-0.157-0.668-0.229c-0.165-0.092-0.289-0.206-0.369-0.342
				c-0.081-0.136-0.122-0.288-0.122-0.457c0-0.185,0.05-0.358,0.149-0.519c0.099-0.161,0.244-0.283,0.434-0.367
				c0.19-0.083,0.402-0.125,0.635-0.125c0.257,0,0.483,0.044,0.679,0.131c0.196,0.088,0.347,0.217,0.452,0.387
				c0.105,0.17,0.162,0.363,0.17,0.578l-0.439,0.035c-0.023-0.232-0.104-0.407-0.24-0.526c-0.136-0.118-0.337-0.178-0.603-0.178
				c-0.277,0-0.479,0.054-0.605,0.162c-0.127,0.108-0.19,0.237-0.19,0.389c0,0.132,0.045,0.24,0.134,0.325
				c0.088,0.085,0.318,0.173,0.69,0.262c0.372,0.089,0.628,0.168,0.766,0.234c0.202,0.098,0.35,0.223,0.446,0.374
				c0.096,0.151,0.144,0.325,0.144,0.522c0,0.195-0.053,0.379-0.158,0.552c-0.105,0.173-0.257,0.307-0.455,0.403
				c-0.197,0.096-0.42,0.144-0.667,0.144c-0.313,0-0.575-0.049-0.787-0.145c-0.212-0.097-0.378-0.242-0.498-0.437
				C69.493,25.522,69.429,25.302,69.423,25.056z"/>
			<path class="st0" d="M72.813,26.236v-3.67h2.502v0.433h-2.044v1.124h1.914v0.43h-1.914v1.249h2.124v0.433H72.813z"/>
			<path class="st0" d="M76.009,26.236v-3.67h0.458v3.236h1.704v0.433H76.009z"/>
			<path class="st0" d="M78.698,26.236v-3.67h0.458v3.236h1.704v0.433H78.698z"/>
			<path class="st0" d="M81.483,26.236v-3.67h0.458v3.67H81.483z"/>
			<path class="st0" d="M82.744,26.236v-3.67h0.469l1.818,2.881v-2.881h0.439v3.67H85l-1.818-2.884v2.884H82.744z"/>
			<path class="st0" d="M87.859,24.796v-0.431l1.466-0.002v1.362c-0.225,0.19-0.457,0.333-0.697,0.429
				c-0.239,0.096-0.485,0.144-0.736,0.144c-0.34,0-0.648-0.077-0.926-0.232c-0.278-0.154-0.487-0.378-0.629-0.67
				c-0.142-0.292-0.213-0.618-0.213-0.979c0-0.357,0.071-0.69,0.212-1c0.141-0.31,0.344-0.539,0.608-0.69
				c0.264-0.15,0.569-0.225,0.913-0.225c0.25,0,0.477,0.043,0.679,0.129c0.202,0.086,0.361,0.206,0.476,0.359
				c0.115,0.153,0.202,0.354,0.262,0.601l-0.413,0.12c-0.052-0.187-0.116-0.334-0.193-0.441c-0.077-0.107-0.187-0.192-0.331-0.257
				c-0.143-0.064-0.302-0.096-0.477-0.096c-0.21,0-0.39,0.034-0.543,0.101c-0.153,0.068-0.276,0.157-0.369,0.267
				c-0.094,0.11-0.166,0.231-0.218,0.363c-0.088,0.227-0.132,0.473-0.132,0.739c0,0.327,0.053,0.601,0.159,0.821
				c0.106,0.22,0.261,0.384,0.464,0.491c0.203,0.107,0.418,0.16,0.647,0.16c0.198,0,0.392-0.041,0.581-0.121
				c0.189-0.081,0.332-0.167,0.43-0.259v-0.683H87.859z"/>
		</g>
	</g>
	<g>
		<path class="st1" d="M50.478,9.602h5.701c1.242,0,2.172,0.295,2.791,0.886c0.618,0.591,0.927,1.431,0.927,2.521
			c0,1.12-0.337,1.996-1.011,2.627c-0.674,0.631-1.703,0.946-3.086,0.946h-1.878v4.119h-3.445V9.602z M53.923,14.335h0.84
			c0.661,0,1.126-0.115,1.393-0.344c0.268-0.23,0.401-0.524,0.401-0.882c0-0.348-0.116-0.644-0.348-0.886
			c-0.232-0.242-0.669-0.363-1.31-0.363h-0.977V14.335z"/>
		<path class="st1" d="M63.085,15.266l-2.946-0.31c0.111-0.515,0.271-0.92,0.481-1.216c0.21-0.295,0.511-0.551,0.905-0.768
			c0.283-0.156,0.672-0.278,1.166-0.363c0.494-0.086,1.03-0.129,1.605-0.129c0.924,0,1.666,0.051,2.226,0.155
			c0.56,0.104,1.027,0.319,1.401,0.647c0.262,0.227,0.469,0.549,0.62,0.966c0.152,0.416,0.227,0.814,0.227,1.192v3.552
			c0,0.379,0.024,0.675,0.072,0.89c0.048,0.214,0.153,0.488,0.314,0.822h-2.892c-0.116-0.207-0.192-0.365-0.228-0.473
			c-0.035-0.108-0.07-0.279-0.106-0.511c-0.404,0.388-0.805,0.666-1.204,0.833c-0.545,0.222-1.178,0.333-1.9,0.333
			c-0.96,0-1.687-0.222-2.185-0.666c-0.497-0.444-0.746-0.992-0.746-1.643c0-0.611,0.179-1.113,0.538-1.507
			c0.358-0.394,1.019-0.686,1.984-0.878c1.156-0.232,1.905-0.395,2.249-0.488c0.343-0.093,0.706-0.216,1.09-0.367
			c0-0.378-0.078-0.643-0.235-0.795c-0.156-0.152-0.432-0.227-0.825-0.227c-0.505,0-0.883,0.081-1.136,0.242
			C63.365,14.68,63.206,14.917,63.085,15.266z M65.758,16.886c-0.424,0.151-0.866,0.285-1.325,0.401
			c-0.626,0.167-1.022,0.331-1.189,0.492c-0.172,0.167-0.258,0.356-0.258,0.568c0,0.242,0.085,0.44,0.254,0.594
			c0.169,0.154,0.418,0.231,0.746,0.231c0.343,0,0.662-0.083,0.958-0.25c0.295-0.166,0.505-0.37,0.629-0.609
			c0.124-0.24,0.185-0.551,0.185-0.935V16.886z"/>
		<path class="st1" d="M73.383,9.602v3.059h1.696v2.257h-1.696v2.849c0,0.343,0.033,0.569,0.099,0.68
			c0.101,0.171,0.278,0.257,0.53,0.257c0.228,0,0.545-0.065,0.954-0.196l0.227,2.127c-0.762,0.167-1.474,0.25-2.135,0.25
			c-0.767,0-1.332-0.098-1.696-0.295c-0.363-0.196-0.632-0.495-0.806-0.896c-0.174-0.401-0.261-1.05-0.261-1.947v-2.829h-1.136
			v-2.257h1.136v-1.476L73.383,9.602z"/>
		<path class="st1" d="M75.889,9.602h3.082v4.089c0.419-0.434,0.836-0.744,1.249-0.931c0.414-0.187,0.903-0.28,1.469-0.28
			c0.838,0,1.498,0.255,1.98,0.765c0.482,0.51,0.723,1.292,0.723,2.347v5.111h-3.097v-4.422c0-0.505-0.093-0.862-0.28-1.072
			c-0.187-0.209-0.449-0.314-0.788-0.314c-0.373,0-0.676,0.142-0.908,0.424c-0.232,0.283-0.348,0.79-0.348,1.522v3.862h-3.082V9.602
			z"/>
	</g>
	<g>
		<path class="st2" d="M20.81,9.51h3.127v2.128H20.81V9.51z M20.81,12.613h3.127v8.159H20.81V12.613z"/>
		<path class="st2" d="M30.546,12.613h2.927v7.706l0.007,0.361c0,0.512-0.109,1-0.326,1.464c-0.218,0.463-0.507,0.838-0.868,1.125
			c-0.361,0.287-0.819,0.494-1.375,0.622c-0.556,0.128-1.192,0.192-1.91,0.192c-1.639,0-2.764-0.246-3.377-0.738
			c-0.612-0.492-0.918-1.15-0.918-1.974c0-0.102,0.005-0.241,0.016-0.415l3.035,0.346c0.077,0.282,0.195,0.476,0.353,0.584
			c0.23,0.159,0.52,0.238,0.868,0.238c0.451,0,0.788-0.12,1.01-0.361c0.223-0.241,0.334-0.661,0.334-1.26v-1.237
			c-0.307,0.364-0.615,0.628-0.922,0.792c-0.482,0.256-1.001,0.384-1.559,0.384c-1.091,0-1.972-0.477-2.643-1.429
			c-0.476-0.676-0.714-1.57-0.714-2.681c0-1.27,0.307-2.238,0.922-2.904c0.615-0.666,1.419-0.999,2.412-0.999
			c0.635,0,1.159,0.107,1.571,0.323c0.412,0.215,0.798,0.571,1.156,1.068V12.613z M27.604,16.57c0,0.589,0.125,1.026,0.376,1.31
			c0.251,0.284,0.581,0.426,0.991,0.426c0.389,0,0.716-0.147,0.98-0.442c0.264-0.295,0.396-0.739,0.396-1.333
			c0-0.594-0.138-1.049-0.415-1.364c-0.276-0.315-0.615-0.473-1.014-0.473c-0.4,0-0.718,0.145-0.957,0.434
			C27.723,15.419,27.604,15.899,27.604,16.57z"/>
		<path class="st2" d="M34.216,9.51h3.127v4.149c0.425-0.441,0.848-0.756,1.268-0.945c0.42-0.19,0.917-0.284,1.491-0.284
			c0.85,0,1.52,0.259,2.009,0.776c0.489,0.517,0.734,1.311,0.734,2.382v5.185h-3.142v-4.486c0-0.512-0.095-0.875-0.284-1.087
			c-0.189-0.212-0.456-0.319-0.799-0.319c-0.379,0-0.686,0.144-0.922,0.43c-0.235,0.287-0.353,0.802-0.353,1.544v3.918h-3.127V9.51z
			"/>
		<path class="st2" d="M47.705,9.51v3.104h1.721v2.29h-1.721v2.891c0,0.348,0.033,0.578,0.099,0.69
			c0.103,0.174,0.282,0.261,0.538,0.261c0.231,0,0.553-0.067,0.968-0.2l0.23,2.158c-0.773,0.169-1.496,0.254-2.167,0.254
			c-0.779,0-1.352-0.1-1.721-0.299c-0.369-0.199-0.642-0.502-0.818-0.909c-0.177-0.407-0.265-1.065-0.265-1.976v-2.87h-1.152v-2.29
			h1.152v-1.498L47.705,9.51z"/>
	</g>
	<g>
		<path class="st2" d="M17.917,16.842c-0.1-0.199-0.297-0.483-0.592-0.85c-0.296-0.368-0.521-0.607-0.676-0.719
			c-0.23-0.168-0.597-0.336-1.1-0.504c0.629-0.143,1.124-0.324,1.484-0.541c0.567-0.342,1.011-0.789,1.335-1.339
			c0.324-0.55,0.486-1.205,0.486-1.964c0-0.871-0.211-1.61-0.634-2.216c-0.424-0.607-0.98-1.022-1.67-1.246
			c-0.562-0.183-1.339-0.286-2.309-0.32l-1.743,2.746h0.115c0.772,0,1.297,0.118,1.577,0.355c0.28,0.236,0.42,0.575,0.42,1.017
			c0,0.299-0.089,0.563-0.266,0.793c-0.177,0.23-0.406,0.373-0.686,0.429c-0.554,0.124-0.927,0.187-1.12,0.187h-1.783v-0.036
			L6.509,19.32v1.486h4.245v-5.552h0.373c0.386,0,0.731,0.105,1.036,0.317c0.224,0.161,0.479,0.513,0.765,1.054l2.259,4.18h4.776
			L17.917,16.842z"/>
		<path class="st1" d="M10.754,10.916l0.641-1.027l1.723-2.762l0.117-0.189L17.565,0c0,0-5.797,6.219-12.184,12.445
			c-0.065,0.063-0.129,0.126-0.194,0.19c0,0-0.906-0.579-2.085-1.373C2.135,10.61,0.987,9.813,0,9.068l5.582,10.135l0.308-0.493
			l0.619-0.992L10.754,10.916z"/>
	</g>
	<polygon class="st2" points="86.381,14.076 92.153,17.408 86.381,20.741 	"/>
</g>
</svg>