<!-- Generator: Adobe Illustrator 21.0.0, SVG Export Plug-In  -->
<svg version="1.1"
	 xmlns="http://www.w3.org/2000/svg" xmlns:xlink="http://www.w3.org/1999/xlink" xmlns:a="http://ns.adobe.com/AdobeSVGViewerExtensions/3.0/"
	 x="0px" y="0px" width="53.625px" height="55.427px" viewBox="0 0 53.625 55.427"
	 style="enable-background:new 0 0 53.625 55.427;" xml:space="preserve">
<style type="text/css">
	.st0{fill:#7D3DAF;}
</style>
<defs>
</defs>
<path class="st0" d="M52.426,13.325l-0.017-0.063C51.115,8.031,45.283,2.42,39.927,1.252l-0.06-0.012
	c-8.663-1.653-17.448-1.653-26.109,0l-0.062,0.012C8.342,2.42,2.51,8.031,1.214,13.262l-0.015,0.063
	C-0.4,20.63-0.4,28.036,1.199,35.34l0.015,0.064c1.24,5.007,6.638,10.361,11.794,11.833v5.838c0,2.113,2.575,3.151,4.039,1.626
	l5.915-6.148c1.282,0.072,2.567,0.112,3.85,0.112c4.361,0,8.724-0.412,13.055-1.238l0.06-0.013
	c5.356-1.167,11.188-6.78,12.482-12.009l0.017-0.064C54.025,28.036,54.025,20.63,52.426,13.325L52.426,13.325z M47.744,34.281
	c-0.863,3.412-5.292,7.654-8.811,8.438c-4.606,0.876-9.249,1.25-13.887,1.122c-0.092-0.003-0.181,0.033-0.246,0.1
	c-0.658,0.675-4.319,4.433-4.319,4.433l-4.594,4.714c-0.336,0.351-0.926,0.112-0.926-0.371v-9.671c0-0.16-0.114-0.296-0.271-0.326
	l-0.003-0.001c-3.519-0.783-7.945-5.026-8.81-8.438c-1.44-6.602-1.44-13.294,0-19.896c0.865-3.412,5.291-7.654,8.81-8.438
	c8.045-1.531,16.202-1.531,24.245,0c3.52,0.783,7.948,5.026,8.811,8.438C49.186,20.986,49.186,27.679,47.744,34.281L47.744,34.281z
	 M47.744,34.281"/>
<path class="st0" d="M34.467,38.745c-0.542-0.164-1.057-0.274-1.535-0.473c-4.962-2.058-9.527-4.713-13.143-8.784
	c-2.057-2.315-3.666-4.928-5.028-7.694c-0.645-1.311-1.189-2.674-1.743-4.028c-0.505-1.235,0.24-2.51,1.023-3.44
	c0.736-0.873,1.682-1.541,2.707-2.034c0.8-0.384,1.589-0.162,2.174,0.516c1.263,1.466,2.423,3.007,3.362,4.706
	c0.578,1.046,0.42,2.323-0.627,3.034c-0.254,0.173-0.487,0.376-0.724,0.571c-0.207,0.172-0.403,0.344-0.546,0.576
	c-0.26,0.424-0.273,0.924-0.105,1.385c1.291,3.549,3.467,6.308,7.039,7.794c0.572,0.238,1.145,0.514,1.804,0.438
	c1.103-0.129,1.459-1.338,2.233-1.971c0.755-0.617,1.72-0.626,2.534-0.11c0.814,0.515,1.603,1.067,2.386,1.626
	c0.77,0.548,1.536,1.084,2.246,1.71c0.683,0.601,0.918,1.39,0.534,2.206c-0.704,1.494-1.728,2.737-3.205,3.531
	C35.435,38.528,34.937,38.6,34.467,38.745C33.925,38.581,34.937,38.6,34.467,38.745L34.467,38.745z M34.467,38.745"/>
<path class="st0" d="M26.826,10.583c6.489,0.182,11.818,4.489,12.96,10.904c0.194,1.093,0.264,2.211,0.351,3.32
	c0.036,0.467-0.227,0.91-0.731,0.916c-0.52,0.006-0.754-0.428-0.788-0.895c-0.067-0.923-0.113-1.851-0.241-2.766
	c-0.672-4.834-4.526-8.833-9.337-9.691c-0.724-0.129-1.465-0.163-2.199-0.24c-0.463-0.049-1.071-0.076-1.173-0.653
	c-0.087-0.483,0.321-0.868,0.782-0.893C26.575,10.577,26.701,10.583,26.826,10.583C33.315,10.765,26.701,10.583,26.826,10.583
	L26.826,10.583z M26.826,10.583"/>
<path class="st0" d="M36.687,23.367c-0.01,0.081-0.016,0.271-0.063,0.451c-0.173,0.651-1.16,0.732-1.387,0.076
	c-0.068-0.195-0.077-0.417-0.078-0.627c-0.002-1.375-0.301-2.747-0.993-3.943c-0.713-1.23-1.802-2.263-3.078-2.888
	c-0.772-0.378-1.607-0.613-2.453-0.753c-0.37-0.061-0.743-0.098-1.115-0.15c-0.45-0.062-0.691-0.349-0.67-0.793
	c0.02-0.416,0.324-0.715,0.777-0.689c1.489,0.084,2.928,0.406,4.251,1.107c2.692,1.426,4.23,3.677,4.679,6.681
	c0.02,0.136,0.053,0.271,0.063,0.408C36.646,22.584,36.661,22.922,36.687,23.367C36.677,23.448,36.661,22.922,36.687,23.367
	L36.687,23.367z M36.687,23.367"/>
<path class="st0" d="M32.651,23.21c-0.543,0.01-0.834-0.291-0.889-0.789c-0.039-0.347-0.069-0.699-0.153-1.036
	c-0.163-0.666-0.516-1.282-1.076-1.69c-0.264-0.192-0.563-0.332-0.876-0.422c-0.398-0.115-0.812-0.083-1.21-0.181
	c-0.431-0.105-0.67-0.455-0.602-0.86c0.062-0.368,0.42-0.655,0.823-0.627c2.515,0.181,4.314,1.482,4.57,4.444
	c0.018,0.208,0.04,0.43-0.007,0.629C33.152,23.022,32.899,23.193,32.651,23.21C32.108,23.22,32.899,23.193,32.651,23.21
	L32.651,23.21z M32.651,23.21"/>
</svg>