<!-- Generator: Adobe Illustrator 21.0.0, SVG Export Plug-In  -->
<svg version="1.1"
	 xmlns="http://www.w3.org/2000/svg" xmlns:xlink="http://www.w3.org/1999/xlink" xmlns:a="http://ns.adobe.com/AdobeSVGViewerExtensions/3.0/"
	 x="0px" y="0px" width="122.228px" height="42.691px" viewBox="0 0 122.228 42.691"
	 style="enable-background:new 0 0 122.228 42.691;" xml:space="preserve">
<style type="text/css">
	.st0{fill:#010101;}
	.st1{fill:#0E79BF;}
	.st2{fill:#020202;}
</style>
<defs>
</defs>
<g>
	<polygon class="st0" points="40.71,3.501 42.749,10.4 44.77,3.501 49.469,3.501 44.718,15.964 40.796,15.964 36.01,3.501 	"/>
	<rect x="50.379" y="3.501" class="st0" width="4.454" height="12.462"/>
	<g>
		<path class="st0" d="M64.844,8.24c-0.726-0.641-1.434-0.954-2.229-0.954c-1.418,0-2.506,1.076-2.506,2.463
			c0,1.388,1.071,2.428,2.489,2.428c0.811,0,1.485-0.259,2.246-0.798v4.403c-1.262,0.309-2.021,0.43-2.816,0.43
			c-3.73,0-6.508-2.724-6.508-6.324c0-3.654,2.865-6.566,6.455-6.566c0.605,0,1.279,0.086,1.97,0.224
			c0.294,0.053,0.467,0.104,0.899,0.225V8.24z"/>
		<polygon class="st0" points="65.965,3.501 75.408,3.501 75.408,7.57 72.886,7.431 72.886,15.964 68.453,15.964 68.453,7.413 
			65.965,7.501 		"/>
		<path class="st0" d="M75.717,9.755c0,3.875,2.731,6.479,6.767,6.479c4.02,0,6.752-2.604,6.752-6.479
			c0-3.877-2.731-6.479-6.752-6.479C78.447,3.276,75.717,5.878,75.717,9.755 M82.484,7.258c1.257,0,2.188,1.058,2.188,2.48
			c0,1.457-0.914,2.516-2.188,2.516c-1.292,0-2.223-1.058-2.223-2.498S81.192,7.258,82.484,7.258"/>
		<path class="st0" d="M90.441,15.964h4.477v-2.898c0-0.034-0.017-0.188-0.036-0.396c-0.051-0.466-0.084-0.742-0.171-1.366
			c0.258,0.624,0.397,0.9,0.552,1.245l0.171,0.361l1.5,3.053h5.154l-3.234-4.869c1.507-0.503,2.266-1.614,2.266-3.351
			c0-2.452-2.023-4.242-4.808-4.242h-5.872V15.964z M94.934,6.861h0.586c0.741,0,1.225,0.433,1.225,1.094
			c0,0.694-0.467,1.11-1.225,1.11h-0.586V6.861z"/>
		<rect x="103.141" y="3.501" class="st0" width="4.454" height="12.462"/>
		<path class="st0" d="M108.281,15.963h4.699l0.467-1.586h3.403l0.468,1.586h4.699l-4.303-12.462h-5.132L108.281,15.963z
			 M115.14,7.71l0.932,3.722h-1.884L115.14,7.71z"/>
		<path class="st0" d="M46.103,25.309c0,0.553-0.054,1.051-0.179,1.491c-0.455,1.668-2.04,2.619-4.372,2.619
			c-1.324,0-2.534-0.359-3.317-0.965c-0.812-0.675-1.225-1.694-1.225-3.145v-6.025h3.533v5.595c0,0.498,0.029,0.788,0.098,0.927
			c0.124,0.332,0.496,0.54,0.911,0.54c0.261,0,0.469-0.069,0.649-0.207c0.303-0.208,0.373-0.429,0.373-1.259v-5.595h3.53V25.309z"/>
		<polygon class="st0" points="47.26,19.284 50.807,19.284 53.889,24.328 53.889,19.284 57.394,19.284 57.394,29.222 53.766,29.222 
			50.793,24.328 50.793,29.222 47.26,29.222 		"/>
		<rect x="58.557" y="19.284" class="st0" width="3.552" height="9.938"/>
		<polygon class="st0" points="66.292,19.284 67.918,24.786 69.529,19.284 73.277,19.284 69.489,29.222 66.362,29.222 
			62.545,19.284 		"/>
		<polygon class="st0" points="73.658,19.284 80.27,19.284 80.27,21.962 77.225,21.962 77.225,22.908 79.995,22.908 79.995,25.504 
			77.225,25.504 77.225,26.438 80.352,26.438 80.352,29.222 73.658,29.222 		"/>
		<path class="st0" d="M81.286,29.222h3.571v-2.308c0-0.029-0.013-0.152-0.027-0.318c-0.041-0.372-0.07-0.591-0.137-1.09
			c0.206,0.499,0.315,0.718,0.439,0.993l0.138,0.288l1.196,2.434h4.109l-2.578-3.882c1.2-0.402,1.807-1.286,1.807-2.671
			c0-1.956-1.615-3.385-3.835-3.385h-4.683V29.222z M84.87,21.962h0.468c0.59,0,0.975,0.346,0.975,0.873
			c0,0.553-0.371,0.885-0.975,0.885H84.87V21.962z"/>
		<path class="st0" d="M91.69,25.663c0.883,0.692,1.654,1.023,2.427,1.023c0.524,0,0.902-0.235,0.902-0.58
			c0-0.194-0.141-0.373-0.349-0.443c-0.126-0.056-0.222-0.082-0.774-0.166c-0.593-0.11-0.896-0.179-1.158-0.275
			c-1.13-0.388-1.792-1.342-1.792-2.559c0-2.066,1.738-3.522,4.226-3.522c1.158,0,2.082,0.262,3.213,0.894l-0.993,2.518
			c-0.676-0.525-1.339-0.761-2.028-0.761c-0.497,0-0.833,0.208-0.833,0.512c0,0.263,0.209,0.402,0.791,0.512l0.649,0.152
			c0.718,0.179,1.034,0.291,1.42,0.497c0.814,0.471,1.284,1.342,1.284,2.406c0,2.122-1.739,3.55-4.309,3.55
			c-0.925,0-1.944-0.207-2.827-0.549c-0.332-0.124-0.523-0.206-0.965-0.453L91.69,25.663z"/>
		<rect x="99.267" y="19.284" class="st0" width="3.55" height="9.938"/>
		<polygon class="st0" points="103.653,19.284 111.18,19.284 111.18,22.529 109.169,22.418 109.169,29.222 105.636,29.222 
			105.636,22.404 103.653,22.473 		"/>
		<polygon class="st0" points="115.539,19.284 116.684,21.813 117.826,19.284 121.849,19.284 118.475,24.966 118.475,29.222 
			114.889,29.222 114.889,24.966 111.514,19.284 		"/>
		<path class="st1" d="M15.056,0.42c0.127-0.087,0.29-0.098,0.424-0.033C15.405,0.269,15.375,0.133,15.39,0
			c-0.068,0.013-0.138,0.014-0.207,0.004l-0.002,0.003C15.191,0.152,15.15,0.3,15.056,0.42"/>
		<path class="st1" d="M1.026,14.887c-0.081-0.139-0.077-0.315,0.015-0.451c-0.121,0.095-0.27,0.137-0.416,0.126l-0.032,0.032
			c0.008,0.057,0.008,0.114,0.001,0.172l0.012,0.012C0.752,14.76,0.902,14.797,1.026,14.887"/>
		<path class="st1" d="M15.558,2.412c-0.15,0.151-0.392,0.151-0.541,0c-0.149-0.149-0.149-0.39,0-0.54
			c0.149-0.15,0.391-0.15,0.541,0C15.708,2.022,15.708,2.264,15.558,2.412 M16.255,3.11c-0.15,0.149-0.391,0.149-0.542,0
			c-0.148-0.15-0.148-0.392,0-0.542c0.151-0.149,0.392-0.149,0.542,0C16.404,2.719,16.404,2.961,16.255,3.11 M16.948,3.803
			c-0.149,0.15-0.391,0.15-0.54,0c-0.149-0.149-0.149-0.391,0-0.54c0.149-0.15,0.391-0.15,0.54,0
			C17.098,3.412,17.098,3.654,16.948,3.803 M17.64,4.495c-0.149,0.15-0.391,0.15-0.541,0c-0.149-0.15-0.149-0.391,0-0.541
			c0.15-0.149,0.392-0.149,0.541,0C17.79,4.105,17.79,4.346,17.64,4.495 M18.324,5.178c-0.149,0.15-0.391,0.15-0.541,0
			c-0.149-0.149-0.149-0.391,0-0.54c0.15-0.149,0.392-0.149,0.541,0C18.473,4.787,18.473,5.029,18.324,5.178 M19.007,5.862
			c-0.149,0.149-0.391,0.149-0.54,0c-0.15-0.15-0.15-0.391,0-0.541c0.149-0.148,0.391-0.148,0.54,0
			C19.156,5.471,19.156,5.712,19.007,5.862 M19.702,6.556c-0.15,0.15-0.392,0.15-0.541,0c-0.149-0.149-0.149-0.392,0-0.541
			c0.149-0.149,0.391-0.149,0.541,0C19.851,6.164,19.851,6.407,19.702,6.556 M20.393,7.247c-0.15,0.15-0.391,0.15-0.542,0
			c-0.149-0.149-0.149-0.391,0-0.541c0.151-0.149,0.392-0.149,0.542,0C20.542,6.857,20.542,7.099,20.393,7.247 M21.081,7.935
			c-0.15,0.15-0.392,0.15-0.541,0c-0.15-0.149-0.15-0.391,0-0.54c0.149-0.15,0.391-0.15,0.541,0
			C21.229,7.544,21.229,7.786,21.081,7.935 M21.771,8.624c-0.15,0.151-0.392,0.151-0.541,0c-0.15-0.149-0.15-0.391,0-0.54
			c0.149-0.149,0.391-0.149,0.541,0C21.92,8.233,21.92,8.475,21.771,8.624 M22.461,9.317c-0.15,0.148-0.392,0.148-0.54,0
			c-0.15-0.151-0.15-0.393,0-0.542c0.148-0.149,0.39-0.149,0.54,0C22.611,8.925,22.611,9.167,22.461,9.317 M23.151,10.006
			c-0.149,0.15-0.392,0.15-0.54,0c-0.15-0.149-0.15-0.392,0-0.541c0.148-0.15,0.391-0.15,0.54,0
			C23.301,9.614,23.301,9.857,23.151,10.006 M23.838,10.692c-0.149,0.15-0.391,0.15-0.54,0c-0.149-0.149-0.149-0.391,0-0.54
			c0.149-0.15,0.391-0.15,0.54,0C23.987,10.302,23.987,10.543,23.838,10.692 M24.526,11.38c-0.149,0.149-0.391,0.149-0.541,0
			c-0.149-0.149-0.149-0.391,0-0.542c0.15-0.148,0.392-0.148,0.541,0C24.674,10.99,24.674,11.231,24.526,11.38 M25.214,12.069
			c-0.149,0.15-0.391,0.15-0.54,0c-0.15-0.149-0.15-0.391,0-0.54c0.149-0.15,0.391-0.15,0.54,0
			C25.364,11.678,25.364,11.92,25.214,12.069 M25.905,12.759c-0.15,0.151-0.392,0.151-0.541,0c-0.15-0.149-0.15-0.391,0-0.54
			c0.149-0.15,0.391-0.15,0.541,0C26.054,12.368,26.054,12.61,25.905,12.759 M26.591,13.446c-0.149,0.15-0.391,0.15-0.541,0
			c-0.149-0.149-0.149-0.391,0-0.54c0.15-0.15,0.392-0.15,0.541,0C26.741,13.055,26.741,13.297,26.591,13.446 M27.282,14.137
			c-0.149,0.148-0.391,0.148-0.541,0c-0.149-0.149-0.149-0.393,0-0.542c0.15-0.149,0.392-0.149,0.541,0
			C27.431,13.745,27.431,13.988,27.282,14.137 M27.968,14.823c-0.149,0.15-0.391,0.15-0.541,0c-0.149-0.149-0.149-0.391,0-0.542
			c0.15-0.149,0.392-0.149,0.541,0C28.118,14.432,28.118,14.674,27.968,14.823 M14.859,3.112c-0.149,0.15-0.391,0.15-0.541,0
			c-0.149-0.149-0.149-0.391,0-0.54c0.15-0.15,0.392-0.15,0.541,0C15.008,2.721,15.008,2.963,14.859,3.112 M17.11,5.368
			c0.132-0.134,0.349-0.134,0.483,0c0.132,0.133,0.132,0.349,0,0.483c-0.134,0.133-0.351,0.133-0.483,0
			C16.976,5.717,16.976,5.501,17.11,5.368 M16.425,4.684c0.133-0.134,0.35-0.134,0.483,0c0.133,0.133,0.133,0.35,0,0.482
			c-0.133,0.134-0.35,0.134-0.483,0C16.292,5.034,16.292,4.817,16.425,4.684 M16.192,4.003c0.121,0.122,0.121,0.316,0,0.438
			c-0.12,0.12-0.316,0.12-0.437,0c-0.12-0.122-0.12-0.316,0-0.438C15.876,3.882,16.072,3.882,16.192,4.003 M15.532,3.781
			c-0.133,0.133-0.349,0.133-0.483,0c-0.133-0.134-0.133-0.351,0-0.483c0.134-0.134,0.35-0.134,0.483,0
			C15.665,3.43,15.665,3.647,15.532,3.781 M26.078,14.327c0.134-0.134,0.351-0.134,0.484,0c0.133,0.133,0.133,0.349,0,0.483
			c-0.133,0.133-0.35,0.133-0.484,0C25.944,14.676,25.944,14.459,26.078,14.327 M20.578,8.832c0.121-0.12,0.317-0.12,0.437,0
			c0.121,0.121,0.121,0.317,0,0.437c-0.12,0.121-0.316,0.121-0.437,0C20.458,9.149,20.458,8.953,20.578,8.832 M21.715,9.962
			c-0.121,0.12-0.317,0.12-0.437,0c-0.121-0.121-0.121-0.317,0-0.437c0.12-0.121,0.316-0.121,0.437,0
			C21.835,9.646,21.835,9.841,21.715,9.962 M22.406,10.653c-0.121,0.121-0.317,0.121-0.438,0c-0.119-0.12-0.119-0.316,0-0.436
			c0.121-0.121,0.317-0.121,0.438,0C22.525,10.337,22.525,10.533,22.406,10.653 M23.089,11.338c-0.12,0.121-0.316,0.121-0.437,0
			c-0.12-0.12-0.12-0.316,0-0.437c0.121-0.12,0.317-0.12,0.437,0C23.211,11.022,23.211,11.217,23.089,11.338 M23.777,12.026
			c-0.121,0.121-0.316,0.121-0.437,0c-0.121-0.12-0.121-0.316,0-0.438c0.121-0.119,0.316-0.119,0.437,0
			C23.898,11.71,23.898,11.906,23.777,12.026 M24.466,12.714c-0.121,0.121-0.316,0.121-0.437,0c-0.121-0.12-0.121-0.316,0-0.438
			c0.121-0.119,0.316-0.119,0.437,0C24.587,12.398,24.587,12.594,24.466,12.714 M25.843,13.654c0.12,0.12,0.12,0.317,0,0.437
			c-0.121,0.121-0.317,0.121-0.437,0c-0.121-0.12-0.121-0.317,0-0.437C25.526,13.533,25.722,13.533,25.843,13.654 M25.153,13.401
			c-0.12,0.121-0.316,0.121-0.437,0c-0.12-0.121-0.12-0.316,0-0.437c0.121-0.121,0.317-0.121,0.437,0
			C25.274,13.085,25.274,13.28,25.153,13.401 M19.899,8.147c0.121-0.121,0.316-0.121,0.438,0c0.12,0.121,0.12,0.316,0,0.437
			c-0.122,0.121-0.317,0.121-0.438,0C19.778,8.463,19.778,8.268,19.899,8.147 M19.207,7.455c0.12-0.121,0.316-0.121,0.437,0
			c0.12,0.12,0.12,0.316,0,0.437c-0.121,0.12-0.317,0.12-0.437,0C19.086,7.771,19.086,7.575,19.207,7.455 M17.827,6.512
			c-0.122-0.121-0.122-0.316,0-0.437c0.12-0.121,0.316-0.121,0.437,0c0.12,0.121,0.12,0.316,0,0.437
			C18.143,6.633,17.947,6.633,17.827,6.512 M18.513,6.761c0.121-0.121,0.316-0.121,0.437,0c0.121,0.12,0.121,0.317,0,0.436
			c-0.121,0.122-0.316,0.122-0.437,0C18.392,7.078,18.392,6.881,18.513,6.761 M27.259,15.513c-0.149,0.149-0.391,0.149-0.54,0
			c-0.15-0.148-0.15-0.391,0-0.541c0.149-0.149,0.391-0.149,0.54,0C27.41,15.123,27.41,15.365,27.259,15.513 M14.164,3.807
			c-0.149,0.149-0.391,0.149-0.541,0c-0.149-0.15-0.149-0.392,0-0.541c0.15-0.15,0.392-0.15,0.541,0
			C14.313,3.416,14.313,3.658,14.164,3.807 M25.382,15.022c0.134-0.134,0.351-0.134,0.484,0c0.133,0.132,0.133,0.349,0,0.482
			c-0.133,0.134-0.35,0.134-0.484,0C25.25,15.371,25.25,15.155,25.382,15.022 M14.837,4.476c-0.133,0.133-0.349,0.133-0.482,0
			c-0.133-0.133-0.133-0.35,0-0.483c0.133-0.133,0.35-0.133,0.482,0C14.97,4.126,14.97,4.342,14.837,4.476 M15.497,5.137
			c-0.12,0.12-0.316,0.12-0.437,0c-0.12-0.122-0.12-0.317,0-0.438c0.121-0.121,0.317-0.121,0.437,0
			C15.618,4.82,15.618,5.015,15.497,5.137 M16.199,5.838c-0.121,0.12-0.317,0.12-0.437,0c-0.121-0.121-0.121-0.317,0-0.437
			c0.12-0.121,0.316-0.121,0.437,0C16.319,5.521,16.319,5.717,16.199,5.838 M16.878,6.517c-0.121,0.119-0.316,0.119-0.437,0
			c-0.12-0.121-0.12-0.318,0-0.437c0.121-0.122,0.316-0.122,0.437,0C16.999,6.2,16.999,6.397,16.878,6.517 M17.568,7.207
			c-0.121,0.12-0.316,0.12-0.437,0c-0.12-0.12-0.12-0.317,0-0.437c0.121-0.121,0.316-0.121,0.437,0
			C17.689,6.89,17.689,7.087,17.568,7.207 M18.254,7.893c-0.12,0.12-0.316,0.12-0.437,0c-0.12-0.121-0.12-0.316,0-0.437
			c0.121-0.121,0.317-0.121,0.437,0C18.375,7.577,18.375,7.773,18.254,7.893 M18.947,8.586c-0.12,0.121-0.316,0.121-0.436,0
			c-0.121-0.122-0.121-0.318,0-0.438c0.12-0.121,0.316-0.121,0.436,0C19.068,8.269,19.068,8.465,18.947,8.586 M19.632,9.272
			c-0.121,0.12-0.316,0.12-0.437,0c-0.121-0.121-0.121-0.318,0-0.437c0.121-0.122,0.316-0.122,0.437,0
			C19.752,8.954,19.752,9.151,19.632,9.272 M20.326,9.965c-0.12,0.121-0.316,0.121-0.437,0c-0.12-0.121-0.12-0.316,0-0.437
			c0.121-0.121,0.317-0.121,0.437,0C20.447,9.649,20.447,9.844,20.326,9.965 M21.016,10.655c-0.121,0.121-0.317,0.121-0.437,0
			c-0.121-0.12-0.121-0.317,0-0.436c0.12-0.121,0.316-0.121,0.437,0C21.137,10.339,21.137,10.535,21.016,10.655 M21.707,11.345
			c-0.121,0.121-0.317,0.121-0.438,0c-0.12-0.12-0.12-0.316,0-0.437c0.121-0.12,0.317-0.12,0.438,0
			C21.827,11.029,21.827,11.225,21.707,11.345 M22.391,12.03c-0.121,0.121-0.317,0.121-0.437,0c-0.121-0.121-0.121-0.316,0-0.437
			c0.12-0.121,0.316-0.121,0.437,0C22.512,11.714,22.512,11.909,22.391,12.03 M23.082,12.722c-0.12,0.119-0.317,0.119-0.437,0
			c-0.12-0.121-0.12-0.316,0-0.437c0.12-0.121,0.317-0.121,0.437,0C23.202,12.406,23.202,12.601,23.082,12.722 M24.71,14.349
			c0.121-0.121,0.317-0.121,0.437,0c0.121,0.121,0.121,0.316,0,0.437c-0.12,0.122-0.316,0.122-0.437,0
			C24.589,14.665,24.589,14.47,24.71,14.349 M23.366,13.376c-0.102-0.101-0.102-0.267,0-0.369c0.101-0.1,0.267-0.1,0.368,0
			c0.102,0.102,0.102,0.267,0,0.369C23.633,13.478,23.467,13.478,23.366,13.376 M24.056,13.706c0.101-0.101,0.266-0.101,0.367,0
			c0.102,0.101,0.102,0.266,0,0.368c-0.101,0.101-0.266,0.101-0.367,0C23.954,13.972,23.954,13.807,24.056,13.706 M26.566,16.208
			c-0.15,0.15-0.393,0.15-0.541,0c-0.15-0.149-0.15-0.391,0-0.54c0.148-0.15,0.391-0.15,0.541,0
			C26.715,15.817,26.715,16.059,26.566,16.208 M13.473,4.499c-0.15,0.15-0.393,0.15-0.542,0c-0.148-0.149-0.148-0.391,0-0.54
			c0.149-0.15,0.392-0.15,0.542,0C13.622,4.108,13.622,4.35,13.473,4.499 M24.688,15.716c0.133-0.133,0.349-0.133,0.482,0
			c0.135,0.134,0.135,0.351,0,0.484c-0.133,0.133-0.349,0.133-0.482,0C24.554,16.066,24.554,15.85,24.688,15.716 M14.141,5.171
			c-0.133,0.133-0.35,0.133-0.483,0c-0.133-0.133-0.133-0.35,0-0.483c0.134-0.133,0.35-0.133,0.483,0
			C14.275,4.821,14.275,5.038,14.141,5.171 M14.803,5.829c-0.12,0.121-0.317,0.121-0.436,0c-0.121-0.12-0.121-0.316,0-0.436
			c0.119-0.121,0.316-0.121,0.436,0C14.924,5.513,14.924,5.709,14.803,5.829 M24.017,15.044c0.121-0.121,0.316-0.121,0.437,0
			c0.121,0.12,0.121,0.316,0,0.437c-0.121,0.12-0.316,0.12-0.437,0C23.896,15.36,23.896,15.164,24.017,15.044 M23.36,14.402
			c0.101-0.102,0.267-0.102,0.368,0c0.101,0.102,0.101,0.267,0,0.368c-0.101,0.101-0.267,0.101-0.368,0
			C23.258,14.668,23.258,14.504,23.36,14.402 M22.999,13.758c0.076,0.077,0.076,0.2,0,0.276c-0.077,0.077-0.2,0.077-0.277,0
			c-0.076-0.076-0.076-0.199,0-0.276C22.799,13.683,22.922,13.683,22.999,13.758 M21.978,13.021c0.102-0.102,0.267-0.102,0.369,0
			c0.101,0.102,0.101,0.267,0,0.369c-0.101,0.1-0.267,0.1-0.369,0C21.877,13.287,21.877,13.123,21.978,13.021 M21.29,12.333
			c0.102-0.103,0.267-0.103,0.369,0c0.102,0.101,0.102,0.266,0,0.368c-0.101,0.101-0.267,0.101-0.369,0
			C21.188,12.598,21.188,12.434,21.29,12.333 M20.596,11.639c0.103-0.102,0.267-0.102,0.369,0c0.101,0.101,0.101,0.265,0,0.367
			c-0.102,0.102-0.266,0.102-0.369,0C20.495,11.904,20.495,11.74,20.596,11.639 M19.916,10.958c0.101-0.102,0.266-0.102,0.368,0
			c0.102,0.1,0.102,0.266,0,0.367c-0.102,0.102-0.267,0.102-0.368,0C19.814,11.224,19.814,11.059,19.916,10.958 M19.225,10.266
			c0.101-0.101,0.266-0.101,0.368,0c0.102,0.102,0.102,0.267,0,0.369s-0.267,0.102-0.368,0
			C19.123,10.533,19.123,10.368,19.225,10.266 M18.528,9.571c0.101-0.102,0.266-0.102,0.368,0c0.102,0.1,0.102,0.266,0,0.368
			c-0.102,0.101-0.267,0.101-0.368,0C18.426,9.837,18.426,9.671,18.528,9.571 M17.84,8.882c0.102-0.1,0.267-0.1,0.369,0
			c0.101,0.102,0.101,0.267,0,0.369c-0.101,0.101-0.267,0.101-0.369,0C17.738,9.149,17.738,8.984,17.84,8.882 M17.15,8.192
			c0.102-0.102,0.267-0.102,0.369,0c0.102,0.101,0.102,0.267,0,0.368c-0.102,0.102-0.267,0.102-0.369,0
			C17.049,8.459,17.049,8.293,17.15,8.192 M16.462,7.503c0.101-0.101,0.266-0.101,0.368,0c0.101,0.102,0.101,0.267,0,0.369
			c-0.102,0.102-0.267,0.102-0.368,0C16.36,7.769,16.36,7.605,16.462,7.503 M15.09,6.499c-0.102-0.102-0.102-0.267,0-0.368
			c0.1-0.102,0.266-0.102,0.367,0c0.102,0.101,0.102,0.266,0,0.368C15.356,6.601,15.191,6.601,15.09,6.499 M15.776,6.817
			c0.101-0.101,0.267-0.101,0.368,0c0.101,0.102,0.101,0.267,0,0.369c-0.101,0.101-0.267,0.101-0.368,0
			C15.674,7.084,15.674,6.919,15.776,6.817 M25.874,16.9c-0.149,0.149-0.391,0.149-0.54,0c-0.15-0.149-0.15-0.391,0-0.54
			c0.149-0.15,0.391-0.15,0.54,0C26.023,16.509,26.023,16.751,25.874,16.9 M12.777,5.195c-0.15,0.15-0.392,0.15-0.542,0
			c-0.149-0.149-0.149-0.391,0-0.541c0.15-0.149,0.392-0.149,0.542,0C12.926,4.804,12.926,5.046,12.777,5.195 M23.992,16.413
			c0.133-0.134,0.349-0.134,0.483,0c0.133,0.132,0.133,0.349,0,0.481c-0.134,0.134-0.35,0.134-0.483,0
			C23.859,16.762,23.859,16.545,23.992,16.413 M13.446,5.867C13.312,6,13.097,6,12.963,5.867c-0.133-0.133-0.133-0.35,0-0.483
			c0.134-0.133,0.35-0.133,0.483,0C13.58,5.517,13.58,5.733,13.446,5.867 M14.116,6.517c-0.121,0.121-0.317,0.121-0.437,0
			c-0.121-0.121-0.121-0.316,0-0.437c0.12-0.121,0.316-0.121,0.437,0C14.236,6.201,14.236,6.397,14.116,6.517 M23.329,15.732
			c0.121-0.121,0.316-0.121,0.437,0c0.121,0.12,0.121,0.316,0,0.437c-0.121,0.12-0.316,0.12-0.437,0
			C23.208,16.048,23.208,15.852,23.329,15.732 M22.679,15.083c0.101-0.102,0.267-0.102,0.368,0c0.102,0.1,0.102,0.266,0,0.368
			c-0.101,0.101-0.267,0.101-0.368,0C22.578,15.349,22.578,15.183,22.679,15.083 M14.777,7.181c-0.101,0.1-0.267,0.1-0.368,0
			c-0.102-0.102-0.102-0.267,0-0.369c0.101-0.101,0.267-0.101,0.368,0C14.878,6.913,14.878,7.079,14.777,7.181 M15.41,7.824
			c-0.077,0.076-0.2,0.076-0.277,0c-0.077-0.077-0.077-0.201,0-0.277c0.077-0.076,0.2-0.076,0.277,0
			C15.486,7.624,15.486,7.748,15.41,7.824 M16.1,8.514c-0.077,0.077-0.2,0.077-0.277,0c-0.076-0.077-0.076-0.2,0-0.277
			c0.077-0.076,0.2-0.076,0.277,0C16.176,8.314,16.176,8.437,16.1,8.514 M16.79,9.203c-0.077,0.077-0.2,0.077-0.277,0
			c-0.077-0.076-0.077-0.199,0-0.276c0.077-0.075,0.2-0.075,0.277,0C16.865,9.004,16.865,9.127,16.79,9.203 M17.479,9.893
			c-0.077,0.076-0.2,0.076-0.277,0c-0.076-0.077-0.076-0.199,0-0.277c0.077-0.077,0.2-0.077,0.277,0
			C17.555,9.694,17.555,9.817,17.479,9.893 M18.169,10.583c-0.076,0.077-0.2,0.077-0.277,0c-0.076-0.076-0.076-0.2,0-0.277
			c0.077-0.076,0.201-0.076,0.277,0C18.245,10.383,18.245,10.507,18.169,10.583 M18.859,11.272c-0.077,0.077-0.2,0.077-0.276,0
			c-0.077-0.076-0.077-0.199,0-0.275c0.076-0.077,0.199-0.077,0.276,0C18.935,11.073,18.935,11.196,18.859,11.272 M19.548,11.962
			c-0.077,0.076-0.2,0.076-0.276,0c-0.077-0.077-0.077-0.199,0-0.276c0.076-0.077,0.199-0.077,0.276,0
			C19.624,11.763,19.624,11.886,19.548,11.962 M20.238,12.652c-0.077,0.077-0.199,0.077-0.276,0c-0.077-0.076-0.077-0.199,0-0.277
			c0.077-0.076,0.199-0.076,0.276,0C20.314,12.453,20.314,12.576,20.238,12.652 M20.927,13.342c-0.076,0.076-0.2,0.076-0.277,0
			c-0.076-0.077-0.076-0.201,0-0.277c0.077-0.077,0.201-0.077,0.277,0C21.004,13.142,21.004,13.265,20.927,13.342 M22.309,14.448
			c0.077,0.076,0.077,0.199,0,0.276c-0.077,0.077-0.2,0.077-0.276,0c-0.077-0.077-0.077-0.2,0-0.276
			C22.109,14.372,22.233,14.372,22.309,14.448 M21.618,14.032c-0.077,0.075-0.201,0.075-0.277,0c-0.077-0.077-0.077-0.201,0-0.277
			c0.076-0.076,0.2-0.076,0.277,0C21.694,13.831,21.694,13.955,21.618,14.032 M25.177,17.596c-0.149,0.149-0.392,0.149-0.541,0
			c-0.149-0.15-0.149-0.392,0-0.54c0.149-0.15,0.392-0.15,0.541,0C25.326,17.205,25.326,17.447,25.177,17.596 M12.081,5.89
			c-0.149,0.149-0.391,0.149-0.541,0c-0.149-0.149-0.149-0.392,0-0.541c0.15-0.149,0.392-0.149,0.541,0
			C12.23,5.499,12.23,5.741,12.081,5.89 M23.297,17.108c0.133-0.134,0.35-0.134,0.483,0c0.133,0.133,0.133,0.349,0,0.481
			c-0.133,0.134-0.35,0.134-0.483,0C23.163,17.457,23.163,17.241,23.297,17.108 M12.75,6.562c-0.133,0.133-0.349,0.133-0.483,0
			c-0.133-0.133-0.133-0.35,0-0.483c0.134-0.133,0.35-0.133,0.483,0C12.884,6.212,12.884,6.429,12.75,6.562 M13.414,7.219
			c-0.12,0.122-0.316,0.122-0.436,0c-0.121-0.121-0.121-0.316,0-0.437c0.12-0.12,0.316-0.12,0.436,0
			C13.535,6.903,13.535,7.098,13.414,7.219 M22.627,16.432c0.121-0.12,0.317-0.12,0.437,0c0.122,0.121,0.122,0.317,0,0.437
			c-0.12,0.121-0.316,0.12-0.437,0C22.507,16.749,22.507,16.553,22.627,16.432 M21.976,15.786c0.101-0.102,0.266-0.102,0.368,0
			c0.102,0.102,0.102,0.267,0,0.368s-0.267,0.101-0.368,0C21.874,16.052,21.874,15.888,21.976,15.786 M14.074,7.883
			c-0.101,0.102-0.267,0.102-0.369,0c-0.101-0.101-0.101-0.267,0-0.368c0.102-0.101,0.267-0.101,0.369,0
			C14.175,7.616,14.175,7.782,14.074,7.883 M21.608,15.15c0.076,0.076,0.076,0.199,0,0.275c-0.076,0.077-0.2,0.077-0.277,0
			c-0.076-0.076-0.076-0.199,0-0.275C21.408,15.074,21.532,15.074,21.608,15.15 M14.708,8.526c-0.077,0.076-0.199,0.076-0.276,0
			c-0.076-0.077-0.076-0.201,0-0.277c0.076-0.077,0.199-0.077,0.276,0C14.785,8.326,14.785,8.449,14.708,8.526 M24.483,18.291
			c-0.15,0.15-0.392,0.15-0.541,0c-0.149-0.149-0.149-0.391,0-0.54c0.149-0.15,0.391-0.15,0.541,0
			C24.632,17.9,24.632,18.142,24.483,18.291 M11.389,6.582c-0.149,0.149-0.391,0.149-0.54,0c-0.149-0.149-0.149-0.391,0-0.54
			c0.149-0.149,0.391-0.149,0.54,0C11.539,6.191,11.539,6.433,11.389,6.582 M22.601,17.802c0.134-0.133,0.349-0.133,0.483,0
			c0.133,0.134,0.133,0.351,0,0.483c-0.134,0.134-0.349,0.134-0.483,0C22.468,18.153,22.468,17.936,22.601,17.802 M12.056,7.257
			c-0.133,0.134-0.35,0.134-0.483,0c-0.133-0.132-0.133-0.349,0-0.482c0.133-0.134,0.35-0.134,0.483,0
			C12.189,6.908,12.189,7.124,12.056,7.257 M12.723,7.909c-0.12,0.121-0.316,0.121-0.437,0c-0.12-0.12-0.12-0.316,0-0.437
			c0.121-0.12,0.317-0.12,0.437,0C12.844,7.593,12.844,7.789,12.723,7.909 M21.937,17.123c0.12-0.121,0.316-0.121,0.437,0
			c0.12,0.121,0.12,0.316,0,0.437c-0.121,0.12-0.317,0.12-0.437,0C21.816,17.439,21.816,17.244,21.937,17.123 M21.282,16.479
			c0.101-0.101,0.266-0.101,0.368,0c0.101,0.102,0.101,0.267,0,0.369c-0.102,0.102-0.267,0.102-0.368,0
			C21.181,16.746,21.181,16.581,21.282,16.479 M13.38,8.577c-0.102,0.101-0.267,0.101-0.369,0c-0.101-0.102-0.101-0.267,0-0.369
			c0.102-0.101,0.267-0.101,0.369,0C13.481,8.311,13.481,8.475,13.38,8.577 M14.019,9.214c-0.076,0.077-0.2,0.077-0.277,0
			c-0.076-0.076-0.076-0.199,0-0.275c0.077-0.076,0.201-0.076,0.277,0C14.095,9.014,14.095,9.138,14.019,9.214 M20.643,15.839
			c0.077-0.077,0.2-0.077,0.277,0c0.076,0.076,0.076,0.2,0,0.277c-0.077,0.075-0.2,0.075-0.277,0
			C20.567,16.038,20.567,15.914,20.643,15.839 M19.958,15.199c0.058-0.057,0.15-0.057,0.207,0c0.058,0.058,0.058,0.15,0,0.207
			c-0.057,0.057-0.149,0.057-0.207,0C19.901,15.349,19.901,15.257,19.958,15.199 M19.277,14.49c0.057-0.058,0.148-0.058,0.205,0
			c0.057,0.056,0.057,0.148,0,0.205s-0.148,0.057-0.205,0S19.22,14.546,19.277,14.49 M18.605,13.819
			c0.057-0.057,0.149-0.057,0.206,0s0.057,0.149,0,0.206s-0.149,0.057-0.206,0C18.549,13.968,18.549,13.876,18.605,13.819
			 M17.898,13.112c0.057-0.057,0.149-0.057,0.206,0c0.056,0.057,0.056,0.149,0,0.204c-0.057,0.057-0.149,0.057-0.206,0
			C17.841,13.261,17.841,13.169,17.898,13.112 M16.52,11.733c0.057-0.056,0.148-0.056,0.205,0c0.057,0.058,0.057,0.149,0,0.206
			s-0.148,0.057-0.205,0S16.463,11.79,16.52,11.733 M15.147,10.565c-0.057-0.055-0.057-0.147,0-0.204
			c0.056-0.058,0.148-0.058,0.205,0c0.057,0.057,0.057,0.149,0,0.204C15.295,10.622,15.203,10.622,15.147,10.565 M15.837,11.05
			c0.057-0.057,0.149-0.057,0.206,0s0.057,0.148,0,0.205c-0.057,0.058-0.149,0.058-0.206,0C15.78,11.199,15.78,11.107,15.837,11.05
			 M23.791,18.983c-0.149,0.149-0.391,0.149-0.541,0c-0.148-0.149-0.148-0.391,0-0.54c0.15-0.149,0.392-0.149,0.541,0
			C23.94,18.592,23.94,18.834,23.791,18.983 M10.688,7.282c-0.149,0.15-0.391,0.15-0.54,0c-0.149-0.149-0.149-0.39,0-0.54
			c0.149-0.149,0.391-0.149,0.54,0C10.839,6.892,10.839,7.133,10.688,7.282 M21.907,18.498c0.133-0.133,0.349-0.133,0.482,0
			c0.133,0.133,0.133,0.35,0,0.482c-0.133,0.133-0.35,0.133-0.482,0C21.772,18.848,21.772,18.632,21.907,18.498 M11.36,7.952
			c-0.133,0.133-0.35,0.133-0.484,0c-0.133-0.133-0.133-0.35,0-0.483c0.134-0.133,0.351-0.133,0.484,0
			C11.494,7.602,11.494,7.819,11.36,7.952 M12.023,8.609c-0.12,0.12-0.316,0.12-0.437,0c-0.119-0.121-0.119-0.316,0-0.437
			c0.121-0.121,0.317-0.121,0.437,0C12.145,8.293,12.145,8.489,12.023,8.609 M21.237,17.823c0.121-0.12,0.317-0.12,0.437,0
			c0.121,0.121,0.121,0.317,0,0.437c-0.12,0.12-0.316,0.12-0.437,0C21.116,18.14,21.116,17.944,21.237,17.823 M20.582,17.178
			c0.102-0.1,0.267-0.1,0.369,0c0.101,0.102,0.101,0.267,0,0.369c-0.102,0.102-0.267,0.102-0.369,0
			C20.481,17.446,20.481,17.28,20.582,17.178 M12.68,9.277c-0.102,0.101-0.267,0.101-0.369,0c-0.101-0.102-0.101-0.267,0-0.368
			c0.101-0.101,0.267-0.101,0.369,0C12.782,9.01,12.782,9.175,12.68,9.277 M13.32,9.915c-0.077,0.076-0.201,0.076-0.277,0
			c-0.077-0.077-0.077-0.201,0-0.277c0.076-0.076,0.2-0.076,0.277,0C13.396,9.714,13.396,9.838,13.32,9.915 M19.943,16.538
			c0.076-0.076,0.199-0.076,0.276,0c0.076,0.076,0.076,0.199,0,0.277c-0.077,0.076-0.2,0.076-0.276,0
			C19.867,16.737,19.867,16.614,19.943,16.538 M19.268,15.89c0.056-0.057,0.15-0.057,0.207,0c0.057,0.058,0.057,0.151,0,0.208
			s-0.151,0.057-0.207,0C19.21,16.041,19.21,15.948,19.268,15.89 M18.583,15.183c0.056-0.056,0.147-0.056,0.204,0
			c0.057,0.058,0.057,0.149,0,0.206s-0.148,0.057-0.204,0C18.526,15.332,18.526,15.242,18.583,15.183 M17.911,14.513
			c0.056-0.056,0.148-0.056,0.205,0c0.057,0.057,0.057,0.149,0,0.206s-0.149,0.057-0.205,0
			C17.854,14.662,17.854,14.569,17.911,14.513 M17.24,12.428c0.057-0.058,0.149-0.058,0.206,0c0.057,0.056,0.057,0.148,0,0.205
			s-0.149,0.057-0.206,0S17.183,12.484,17.24,12.428 M17.198,13.801c0.058-0.057,0.149-0.057,0.206,0
			c0.056,0.057,0.056,0.147,0,0.204c-0.057,0.057-0.148,0.057-0.206,0C17.141,13.948,17.141,13.858,17.198,13.801 M16.533,13.135
			c0.057-0.057,0.149-0.057,0.205,0c0.057,0.057,0.057,0.148,0,0.205c-0.056,0.057-0.148,0.057-0.205,0S16.476,13.192,16.533,13.135
			 M15.826,12.428c0.056-0.058,0.148-0.058,0.205,0c0.056,0.056,0.056,0.148,0,0.205c-0.057,0.057-0.149,0.057-0.205,0
			C15.768,12.576,15.768,12.484,15.826,12.428 M14.452,11.259c-0.057-0.057-0.057-0.149,0-0.205c0.057-0.057,0.149-0.057,0.205,0
			c0.057,0.056,0.057,0.148,0,0.205C14.601,11.316,14.509,11.316,14.452,11.259 M15.142,11.744c0.057-0.057,0.148-0.057,0.206,0
			c0.057,0.058,0.057,0.148,0,0.205c-0.058,0.057-0.149,0.057-0.206,0C15.085,11.892,15.085,11.802,15.142,11.744 M23.089,19.683
			c-0.148,0.15-0.391,0.15-0.54,0c-0.15-0.149-0.15-0.391,0-0.541c0.149-0.148,0.392-0.148,0.54,0
			C23.239,19.293,23.239,19.534,23.089,19.683 M10.001,7.971c-0.15,0.151-0.393,0.151-0.542,0C9.31,7.822,9.31,7.58,9.459,7.43
			c0.149-0.149,0.392-0.149,0.542,0C10.149,7.58,10.149,7.822,10.001,7.971 M21.211,19.194c0.133-0.133,0.35-0.133,0.483,0
			c0.133,0.133,0.133,0.35,0,0.482c-0.133,0.134-0.35,0.134-0.483,0C21.077,19.544,21.077,19.327,21.211,19.194 M10.665,8.648
			c-0.133,0.133-0.35,0.133-0.483,0c-0.133-0.134-0.133-0.351,0-0.483c0.133-0.134,0.35-0.134,0.483,0
			C10.799,8.298,10.799,8.514,10.665,8.648 M11.334,9.298c-0.121,0.121-0.315,0.121-0.437,0c-0.12-0.12-0.12-0.316,0-0.437
			c0.122-0.121,0.316-0.121,0.437,0C11.455,8.982,11.455,9.178,11.334,9.298 M20.548,18.512c0.12-0.121,0.316-0.121,0.436,0
			c0.12,0.12,0.12,0.317,0,0.436c-0.12,0.121-0.316,0.121-0.436,0C20.427,18.829,20.427,18.633,20.548,18.512 M19.897,17.863
			c0.102-0.1,0.267-0.1,0.369,0c0.102,0.102,0.102,0.267,0,0.369c-0.102,0.102-0.267,0.102-0.369,0
			C19.796,18.13,19.796,17.965,19.897,17.863 M11.996,9.962c-0.102,0.101-0.267,0.101-0.369,0c-0.102-0.102-0.102-0.267,0-0.368
			c0.102-0.102,0.267-0.102,0.369,0C12.097,9.695,12.097,9.86,11.996,9.962 M12.629,10.604c-0.076,0.077-0.199,0.077-0.276,0
			c-0.077-0.076-0.077-0.199,0-0.275c0.077-0.077,0.2-0.077,0.276,0C12.704,10.405,12.704,10.529,12.629,10.604 M19.252,17.229
			c0.077-0.077,0.201-0.077,0.277,0c0.077,0.076,0.077,0.199,0,0.275c-0.076,0.077-0.2,0.077-0.277,0
			C19.176,17.428,19.176,17.305,19.252,17.229 M18.576,16.582c0.057-0.058,0.15-0.058,0.207,0c0.057,0.056,0.057,0.148,0,0.207
			c-0.057,0.057-0.15,0.057-0.207,0C18.519,16.731,18.519,16.638,18.576,16.582 M17.887,15.878c0.057-0.056,0.149-0.056,0.206,0
			c0.057,0.057,0.057,0.149,0,0.206s-0.149,0.057-0.206,0C17.831,16.027,17.831,15.935,17.887,15.878 M17.217,15.207
			c0.057-0.057,0.149-0.057,0.206,0s0.057,0.149,0,0.206s-0.149,0.057-0.206,0S17.16,15.264,17.217,15.207 M16.509,14.5
			c0.057-0.057,0.149-0.057,0.206,0s0.057,0.149,0,0.204c-0.057,0.057-0.149,0.057-0.206,0C16.452,14.649,16.452,14.557,16.509,14.5
			 M15.838,13.83c0.057-0.057,0.149-0.057,0.206,0c0.057,0.057,0.057,0.147,0,0.204c-0.057,0.058-0.149,0.058-0.206,0
			C15.781,13.977,15.781,13.886,15.838,13.83 M15.131,13.121c0.057-0.057,0.148-0.057,0.205,0c0.057,0.057,0.057,0.149,0,0.206
			c-0.057,0.057-0.148,0.057-0.205,0C15.074,13.27,15.074,13.178,15.131,13.121 M13.758,11.953c-0.057-0.057-0.057-0.149,0-0.204
			c0.057-0.057,0.149-0.057,0.206,0c0.056,0.055,0.056,0.147,0,0.204C13.907,12.01,13.814,12.01,13.758,11.953 M14.448,12.439
			c0.057-0.057,0.149-0.057,0.205,0c0.057,0.057,0.057,0.148,0,0.205c-0.056,0.057-0.148,0.057-0.205,0S14.391,12.496,14.448,12.439
			 M22.401,20.372c-0.15,0.149-0.392,0.149-0.541,0c-0.15-0.149-0.15-0.391,0-0.54c0.149-0.15,0.391-0.15,0.541,0
			C22.55,19.981,22.55,20.223,22.401,20.372 M9.291,8.68c-0.149,0.149-0.391,0.149-0.54,0c-0.15-0.149-0.15-0.391,0-0.541
			c0.149-0.149,0.391-0.149,0.54,0C9.44,8.289,9.44,8.531,9.291,8.68 M20.515,19.888c0.133-0.133,0.35-0.133,0.483,0
			c0.134,0.132,0.134,0.35,0,0.484c-0.133,0.133-0.35,0.133-0.483,0C20.382,20.238,20.382,20.021,20.515,19.888 M9.97,9.344
			c-0.133,0.133-0.35,0.133-0.483,0c-0.133-0.134-0.133-0.351,0-0.483c0.133-0.134,0.35-0.134,0.483,0
			C10.103,8.993,10.103,9.209,9.97,9.344 M10.629,10.004c-0.121,0.12-0.317,0.12-0.438,0c-0.12-0.12-0.12-0.316,0-0.437
			c0.121-0.12,0.317-0.12,0.438,0C10.75,9.688,10.75,9.884,10.629,10.004 M19.841,19.218c0.121-0.12,0.317-0.12,0.437,0
			c0.122,0.121,0.122,0.317,0,0.437c-0.12,0.121-0.316,0.121-0.437,0C19.722,19.534,19.722,19.339,19.841,19.218 M19.193,18.568
			c0.101-0.102,0.266-0.102,0.368,0c0.101,0.102,0.101,0.267,0,0.369c-0.102,0.1-0.267,0.1-0.368,0
			C19.091,18.835,19.091,18.67,19.193,18.568 M11.29,10.665c-0.102,0.102-0.266,0.102-0.368,0c-0.101-0.101-0.101-0.265,0-0.367
			c0.102-0.102,0.266-0.102,0.368,0C11.392,10.4,11.392,10.564,11.29,10.665 M11.926,11.309c-0.076,0.076-0.2,0.076-0.277,0
			c-0.076-0.077-0.076-0.201,0-0.277c0.077-0.077,0.201-0.077,0.277,0C12.002,11.108,12.002,11.231,11.926,11.309 M18.549,17.932
			c0.077-0.077,0.201-0.077,0.277,0c0.077,0.076,0.077,0.199,0,0.275c-0.076,0.077-0.2,0.077-0.277,0
			C18.473,18.131,18.473,18.008,18.549,17.932 M17.884,17.273c0.058-0.057,0.151-0.057,0.207,0c0.057,0.057,0.057,0.15,0,0.207
			c-0.057,0.058-0.15,0.058-0.207,0C17.827,17.423,17.827,17.33,17.884,17.273 M17.194,16.573c0.057-0.057,0.148-0.057,0.205,0
			c0.057,0.056,0.057,0.148,0,0.205c-0.057,0.057-0.148,0.057-0.205,0C17.137,16.722,17.137,16.629,17.194,16.573 M16.523,15.902
			c0.057-0.057,0.148-0.057,0.205,0s0.057,0.149,0,0.206s-0.148,0.057-0.205,0S16.466,15.959,16.523,15.902 M15.815,15.194
			c0.057-0.056,0.149-0.056,0.205,0c0.058,0.056,0.058,0.149,0,0.206c-0.056,0.056-0.148,0.056-0.205,0
			C15.758,15.343,15.758,15.25,15.815,15.194 M15.144,14.523c0.057-0.057,0.148-0.057,0.205,0c0.056,0.058,0.056,0.149,0,0.205
			c-0.057,0.057-0.148,0.057-0.205,0C15.088,14.672,15.088,14.581,15.144,14.523 M14.437,13.816c0.057-0.057,0.148-0.057,0.205,0
			s0.057,0.149,0,0.206s-0.148,0.057-0.205,0C14.381,13.965,14.381,13.872,14.437,13.816 M13.064,12.648
			c-0.057-0.057-0.057-0.148,0-0.205s0.148-0.057,0.204,0c0.058,0.057,0.058,0.148,0,0.205
			C13.212,12.705,13.121,12.705,13.064,12.648 M13.754,13.133c0.057-0.057,0.149-0.057,0.205,0c0.058,0.057,0.058,0.147,0,0.204
			c-0.056,0.057-0.148,0.057-0.205,0S13.697,13.19,13.754,13.133 M21.693,21.081c-0.15,0.15-0.392,0.15-0.54,0
			c-0.151-0.149-0.151-0.391,0-0.542c0.148-0.147,0.39-0.147,0.54,0C21.842,20.69,21.842,20.932,21.693,21.081 M8.604,9.367
			c-0.149,0.149-0.392,0.149-0.541,0c-0.149-0.149-0.149-0.392,0-0.542c0.149-0.149,0.392-0.149,0.541,0
			C8.753,8.976,8.753,9.218,8.604,9.367 M19.82,20.584c0.134-0.133,0.351-0.133,0.483,0c0.134,0.134,0.134,0.351,0,0.483
			c-0.133,0.134-0.349,0.134-0.483,0C19.687,20.934,19.687,20.718,19.82,20.584 M9.275,10.039c-0.134,0.132-0.35,0.132-0.483,0
			c-0.134-0.134-0.134-0.351,0-0.483c0.133-0.134,0.349-0.134,0.483,0C9.408,9.688,9.408,9.905,9.275,10.039 M9.937,10.696
			c-0.12,0.12-0.316,0.12-0.437,0c-0.12-0.121-0.12-0.318,0-0.437c0.121-0.121,0.317-0.121,0.437,0
			C10.058,10.378,10.058,10.575,9.937,10.696 M19.151,19.909c0.121-0.121,0.317-0.121,0.437,0c0.121,0.121,0.121,0.316,0,0.437
			c-0.12,0.121-0.316,0.121-0.437,0C19.03,20.225,19.03,20.03,19.151,19.909 M18.498,19.264c0.101-0.1,0.267-0.1,0.367,0
			c0.102,0.102,0.102,0.267,0,0.369c-0.1,0.101-0.266,0.101-0.367,0C18.396,19.53,18.396,19.366,18.498,19.264 M10.595,11.361
			c-0.101,0.102-0.267,0.102-0.368,0c-0.101-0.101-0.101-0.265,0-0.367s0.267-0.102,0.368,0
			C10.697,11.096,10.697,11.259,10.595,11.361 M11.232,12.002c-0.077,0.076-0.2,0.076-0.276,0c-0.077-0.076-0.077-0.199,0-0.277
			c0.076-0.076,0.199-0.076,0.276,0C11.308,11.803,11.308,11.926,11.232,12.002 M17.855,18.625c0.077-0.076,0.2-0.076,0.277,0
			c0.076,0.077,0.076,0.201,0,0.277c-0.077,0.076-0.2,0.076-0.277,0C17.78,18.826,17.78,18.702,17.855,18.625 M17.193,17.964
			c0.058-0.057,0.15-0.057,0.208,0c0.057,0.057,0.057,0.15,0,0.207c-0.058,0.058-0.151,0.058-0.208,0
			C17.136,18.114,17.136,18.021,17.193,17.964 M16.499,17.267c0.058-0.056,0.148-0.056,0.205,0c0.057,0.056,0.057,0.148,0,0.205
			s-0.147,0.057-0.205,0C16.443,17.415,16.443,17.323,16.499,17.267 M15.828,16.596c0.057-0.057,0.148-0.057,0.205,0
			c0.057,0.057,0.057,0.149,0,0.206c-0.057,0.057-0.148,0.057-0.205,0C15.771,16.745,15.771,16.652,15.828,16.596 M15.121,15.889
			c0.057-0.057,0.149-0.057,0.206,0c0.056,0.057,0.056,0.149,0,0.205c-0.057,0.057-0.149,0.057-0.206,0.001
			C15.064,16.038,15.064,15.945,15.121,15.889 M14.45,15.218c0.057-0.057,0.149-0.057,0.205,0c0.057,0.057,0.057,0.149,0,0.205
			c-0.056,0.057-0.148,0.057-0.205,0C14.393,15.367,14.393,15.275,14.45,15.218 M13.742,14.51c0.057-0.056,0.149-0.056,0.206,0
			c0.057,0.058,0.057,0.148,0,0.205c-0.057,0.058-0.149,0.058-0.206,0C13.685,14.658,13.685,14.568,13.742,14.51 M12.369,13.342
			c-0.057-0.057-0.057-0.148,0-0.205c0.057-0.057,0.148-0.057,0.205,0c0.057,0.057,0.057,0.148,0,0.205S12.426,13.399,12.369,13.342
			 M13.059,13.827c0.057-0.057,0.149-0.057,0.206,0c0.056,0.057,0.056,0.148,0,0.205c-0.057,0.058-0.149,0.058-0.206,0
			C13.002,13.975,13.002,13.884,13.059,13.827 M21.005,21.769c-0.149,0.149-0.39,0.149-0.54,0s-0.15-0.391,0-0.542
			c0.15-0.149,0.391-0.149,0.54,0C21.155,21.376,21.155,21.62,21.005,21.769 M7.911,10.06c-0.15,0.149-0.392,0.149-0.541,0
			c-0.15-0.149-0.15-0.391,0-0.54c0.149-0.15,0.391-0.15,0.541,0C8.06,9.669,8.06,9.911,7.911,10.06 M20.312,22.462
			c-0.149,0.149-0.391,0.149-0.54,0c-0.15-0.15-0.15-0.391,0-0.541c0.149-0.149,0.391-0.149,0.54,0
			C20.462,22.071,20.462,22.312,20.312,22.462 M8.582,10.731c-0.133,0.133-0.35,0.133-0.483,0c-0.133-0.134-0.133-0.351,0-0.483
			c0.133-0.134,0.35-0.134,0.483,0C8.716,10.381,8.716,10.597,8.582,10.731 M19.128,21.276c0.134-0.133,0.35-0.133,0.483,0
			c0.133,0.134,0.133,0.351,0,0.483c-0.133,0.134-0.349,0.134-0.483,0C18.995,21.627,18.995,21.41,19.128,21.276 M18.453,20.607
			c0.12-0.121,0.316-0.121,0.437,0c0.12,0.12,0.12,0.316,0,0.436c-0.121,0.122-0.317,0.122-0.437,0
			C18.332,20.923,18.332,20.727,18.453,20.607 M17.806,19.956c0.101-0.102,0.266-0.102,0.367,0c0.102,0.102,0.102,0.267,0,0.367
			c-0.101,0.102-0.266,0.102-0.367,0C17.704,20.223,17.704,20.058,17.806,19.956 M17.436,19.321c0.077,0.077,0.077,0.2,0,0.277
			c-0.077,0.076-0.2,0.076-0.277,0c-0.076-0.077-0.076-0.199,0-0.277C17.236,19.245,17.36,19.245,17.436,19.321 M14.427,16.583
			c0.057-0.057,0.148-0.057,0.205,0s0.057,0.147,0,0.204c-0.057,0.058-0.148,0.058-0.205,0
			C14.369,16.731,14.369,16.64,14.427,16.583 M11.88,14.036c-0.056,0.057-0.148,0.057-0.205,0s-0.057-0.148,0-0.205
			s0.149-0.057,0.205,0C11.937,13.888,11.937,13.979,11.88,14.036 M12.57,14.727c-0.056,0.056-0.148,0.056-0.205,0
			c-0.057-0.057-0.057-0.149,0-0.206s0.149-0.057,0.205,0C12.627,14.579,12.627,14.671,12.57,14.727 M13.961,15.913
			c0.056,0.055,0.056,0.147,0,0.206c-0.056,0.055-0.148,0.055-0.205,0c-0.057-0.058-0.057-0.151,0-0.206
			C13.813,15.856,13.905,15.856,13.961,15.913 M13.253,15.41c-0.056,0.057-0.148,0.057-0.205,0s-0.057-0.149,0-0.205
			c0.057-0.057,0.149-0.057,0.205,0C13.31,15.261,13.31,15.353,13.253,15.41 M10.261,12.422c0.076-0.077,0.199-0.077,0.276,0
			c0.077,0.077,0.077,0.199,0,0.276c-0.077,0.076-0.2,0.076-0.276,0C10.184,12.621,10.184,12.498,10.261,12.422 M8.803,11.393
			c-0.121-0.119-0.121-0.316,0-0.436c0.12-0.12,0.316-0.12,0.437,0c0.12,0.12,0.12,0.317,0,0.436
			C9.119,11.515,8.923,11.515,8.803,11.393 M9.536,11.686c0.101-0.102,0.266-0.102,0.367,0c0.102,0.101,0.102,0.266,0,0.369
			c-0.101,0.1-0.266,0.1-0.367,0C9.434,11.952,9.434,11.787,9.536,11.686 M15.917,19.462c-0.386,0.387-1.011,0.387-1.397,0
			c-0.386-0.386-0.386-1.011,0-1.397c0.386-0.385,1.011-0.385,1.397,0C16.303,18.451,16.303,19.076,15.917,19.462 M18.434,21.97
			c0.133-0.133,0.35-0.133,0.483,0c0.133,0.134,0.133,0.351,0,0.484c-0.133,0.133-0.35,0.133-0.483,0
			C18.301,22.32,18.301,22.104,18.434,21.97 M17.761,21.304c0.121-0.12,0.317-0.12,0.437,0c0.122,0.121,0.122,0.317,0,0.437
			c-0.12,0.121-0.316,0.121-0.437,0C17.641,21.621,17.641,21.425,17.761,21.304 M16.473,20.285c-0.077-0.077-0.077-0.201,0-0.277
			c0.077-0.077,0.199-0.077,0.276,0c0.077,0.076,0.077,0.2,0,0.277C16.672,20.361,16.549,20.361,16.473,20.285 M17.116,20.646
			c0.101-0.101,0.267-0.101,0.368,0c0.102,0.101,0.102,0.266,0,0.368c-0.101,0.102-0.267,0.102-0.368,0
			C17.015,20.911,17.015,20.747,17.116,20.646 M19.619,23.156c-0.15,0.149-0.392,0.149-0.541,0c-0.149-0.149-0.149-0.393,0-0.542
			s0.391-0.149,0.541,0C19.769,22.763,19.769,23.007,19.619,23.156 M18.917,23.858c-0.15,0.15-0.392,0.15-0.542,0
			c-0.149-0.148-0.149-0.392,0-0.541c0.15-0.15,0.392-0.15,0.542,0C19.066,23.466,19.066,23.709,18.917,23.858 M7.183,12.13
			c-0.134,0.134-0.351,0.134-0.484,0c-0.133-0.133-0.133-0.349,0-0.483c0.133-0.133,0.35-0.133,0.484,0
			C7.315,11.781,7.315,11.998,7.183,12.13 M7.852,12.782c-0.121,0.119-0.317,0.119-0.437,0c-0.121-0.121-0.121-0.318,0-0.437
			c0.12-0.122,0.316-0.122,0.437,0C7.972,12.464,7.972,12.661,7.852,12.782 M8.503,13.454c-0.101,0.102-0.266,0.102-0.368,0
			c-0.102-0.102-0.102-0.267,0-0.369c0.102-0.102,0.267-0.102,0.368,0C8.605,13.187,8.605,13.351,8.503,13.454 M9.147,14.094
			c-0.076,0.077-0.199,0.077-0.277,0c-0.076-0.077-0.076-0.2,0-0.276c0.077-0.077,0.201-0.077,0.277,0
			C9.224,13.894,9.224,14.017,9.147,14.094 M10.486,15.434c-0.058,0.057-0.15,0.057-0.207,0c-0.057-0.057-0.057-0.15,0-0.207
			c0.058-0.057,0.15-0.057,0.207,0C10.542,15.284,10.542,15.377,10.486,15.434 M11.173,16.122c-0.057,0.056-0.149,0.056-0.207,0
			c-0.057-0.058-0.057-0.151,0-0.208c0.058-0.057,0.15-0.057,0.207,0C11.23,15.971,11.23,16.063,11.173,16.122 M11.86,16.809
			c-0.056,0.057-0.149,0.057-0.207,0c-0.057-0.058-0.057-0.15,0-0.207c0.058-0.057,0.151-0.057,0.207,0
			C11.918,16.659,11.918,16.751,11.86,16.809 M12.548,17.496c-0.057,0.057-0.15,0.057-0.207,0s-0.057-0.149,0-0.207
			c0.057-0.057,0.15-0.057,0.207,0C12.606,17.347,12.606,17.439,12.548,17.496 M13.236,18.184c-0.057,0.058-0.15,0.058-0.207,0
			c-0.058-0.057-0.058-0.149,0-0.207c0.057-0.056,0.15-0.056,0.207,0C13.293,18.035,13.293,18.127,13.236,18.184 M16.047,20.994
			c-0.077,0.077-0.199,0.077-0.277,0c-0.076-0.076-0.076-0.2,0-0.276c0.077-0.077,0.2-0.077,0.277,0
			C16.124,20.794,16.124,20.918,16.047,20.994 M16.774,21.724c-0.102,0.102-0.267,0.102-0.369,0c-0.1-0.102-0.1-0.267,0-0.367
			c0.102-0.102,0.267-0.102,0.369,0C16.876,21.457,16.876,21.622,16.774,21.724 M18.211,22.676c0.133,0.134,0.133,0.351,0,0.484
			c-0.133,0.132-0.35,0.132-0.482,0c-0.134-0.133-0.134-0.35,0-0.484C17.861,22.542,18.077,22.542,18.211,22.676 M17.502,22.432
			c-0.121,0.119-0.317,0.119-0.437,0c-0.121-0.12-0.121-0.318,0-0.439c0.12-0.119,0.316-0.119,0.437,0
			C17.622,22.115,17.622,22.312,17.502,22.432 M5.975,10.915c0.149-0.149,0.392-0.149,0.541,0c0.15,0.15,0.15,0.392,0,0.541
			c-0.149,0.149-0.392,0.149-0.541,0C5.825,11.307,5.825,11.065,5.975,10.915 M7.889,11.424c-0.134,0.133-0.35,0.133-0.484,0
			c-0.133-0.133-0.133-0.349,0-0.483c0.134-0.133,0.35-0.133,0.484,0C8.022,11.075,8.022,11.292,7.889,11.424 M8.549,12.091
			c-0.122,0.121-0.317,0.121-0.438,0c-0.121-0.121-0.121-0.316,0-0.437c0.121-0.121,0.316-0.121,0.438,0
			C8.669,11.775,8.669,11.97,8.549,12.091 M9.214,12.743c-0.102,0.1-0.267,0.1-0.369,0c-0.102-0.102-0.102-0.267,0-0.369
			c0.102-0.102,0.267-0.102,0.369,0C9.316,12.477,9.316,12.641,9.214,12.743 M9.849,13.385c-0.076,0.076-0.199,0.076-0.276,0
			c-0.077-0.077-0.077-0.201,0-0.277c0.077-0.077,0.2-0.077,0.276,0C9.925,13.184,9.925,13.309,9.849,13.385 M11.186,14.731
			c-0.057,0.057-0.148,0.057-0.205,0c-0.057-0.057-0.057-0.148,0-0.205c0.057-0.057,0.148-0.057,0.205,0
			S11.243,14.674,11.186,14.731 M11.876,15.421c-0.058,0.056-0.149,0.056-0.206,0c-0.057-0.056-0.057-0.148,0-0.205
			s0.148-0.057,0.206,0C11.933,15.273,11.933,15.365,11.876,15.421 M12.559,16.104c-0.057,0.057-0.148,0.057-0.205,0
			c-0.057-0.057-0.057-0.149,0-0.205c0.057-0.058,0.148-0.058,0.205,0C12.615,15.955,12.615,16.048,12.559,16.104 M13.938,17.277
			c0.056,0.057,0.056,0.148,0,0.206c-0.057,0.056-0.149,0.056-0.206,0c-0.057-0.058-0.057-0.149,0-0.206S13.881,17.22,13.938,17.277
			 M13.266,16.811c-0.056,0.057-0.148,0.057-0.205,0s-0.057-0.149,0-0.205c0.057-0.057,0.149-0.057,0.205,0
			C13.323,16.662,13.323,16.754,13.266,16.811 M6.677,10.213c0.15-0.15,0.392-0.15,0.542,0c0.148,0.149,0.148,0.391,0,0.54
			c-0.15,0.15-0.392,0.15-0.542,0C6.528,10.604,6.528,10.362,6.677,10.213 M5.828,12.144c-0.149,0.148-0.391,0.148-0.541,0
			c-0.149-0.15-0.149-0.392,0-0.541c0.15-0.149,0.392-0.149,0.541,0C5.977,11.752,5.977,11.994,5.828,12.144 M17.048,23.356
			c0.133-0.133,0.35-0.133,0.483,0c0.133,0.133,0.133,0.35,0,0.482c-0.133,0.134-0.35,0.134-0.483,0
			C16.915,23.706,16.915,23.49,17.048,23.356 M6.502,12.811c-0.133,0.133-0.349,0.133-0.483,0c-0.133-0.134-0.133-0.351,0-0.483
			c0.134-0.134,0.35-0.134,0.483,0C6.636,12.46,6.636,12.677,6.502,12.811 M7.162,13.471c-0.12,0.12-0.316,0.12-0.437,0
			c-0.12-0.121-0.12-0.316,0-0.437c0.121-0.12,0.317-0.12,0.437,0C7.283,13.155,7.283,13.35,7.162,13.471 M16.376,22.684
			c0.121-0.12,0.317-0.12,0.437,0c0.121,0.121,0.121,0.316,0,0.437c-0.12,0.121-0.316,0.121-0.437,0
			C16.255,23,16.255,22.805,16.376,22.684 M15.724,22.036c0.102-0.1,0.267-0.1,0.369,0c0.101,0.102,0.101,0.267,0,0.369
			c-0.102,0.102-0.267,0.102-0.369,0C15.623,22.303,15.623,22.138,15.724,22.036 M7.822,14.135c-0.102,0.102-0.266,0.102-0.368,0
			c-0.102-0.102-0.102-0.267,0-0.369c0.102-0.1,0.266-0.1,0.368,0C7.923,13.868,7.923,14.033,7.822,14.135 M8.459,14.775
			c-0.077,0.077-0.2,0.077-0.277,0c-0.076-0.076-0.076-0.2,0-0.275c0.077-0.077,0.2-0.077,0.277,0
			C8.535,14.575,8.535,14.7,8.459,14.775 M9.146,15.463c-0.076,0.077-0.199,0.077-0.276,0c-0.076-0.076-0.076-0.2,0-0.277
			c0.077-0.076,0.2-0.076,0.276,0C9.222,15.263,9.222,15.388,9.146,15.463 M9.834,16.151c-0.077,0.076-0.2,0.076-0.276,0
			c-0.077-0.076-0.077-0.2,0-0.277c0.076-0.076,0.199-0.076,0.276,0C9.909,15.951,9.909,16.076,9.834,16.151 M10.524,16.841
			c-0.077,0.077-0.2,0.077-0.277,0c-0.076-0.076-0.076-0.2,0-0.276c0.077-0.077,0.2-0.077,0.277,0
			C10.601,16.641,10.601,16.765,10.524,16.841 M11.211,17.529c-0.077,0.077-0.199,0.077-0.276,0c-0.076-0.077-0.076-0.2,0-0.277
			c0.077-0.076,0.199-0.076,0.276,0C11.288,17.329,11.288,17.452,11.211,17.529 M11.905,18.222c-0.076,0.077-0.199,0.077-0.276,0
			c-0.077-0.076-0.077-0.199,0-0.275c0.077-0.077,0.2-0.077,0.276,0C11.982,18.023,11.982,18.146,11.905,18.222 M12.596,18.913
			c-0.077,0.077-0.201,0.077-0.277,0c-0.076-0.077-0.076-0.2,0-0.277c0.076-0.076,0.2-0.076,0.277,0
			C12.672,18.713,12.672,18.836,12.596,18.913 M13.286,19.604c-0.076,0.077-0.2,0.077-0.276,0c-0.077-0.077-0.077-0.201,0-0.277
			c0.076-0.075,0.2-0.075,0.276,0C13.363,19.403,13.363,19.527,13.286,19.604 M13.97,20.286c-0.077,0.077-0.2,0.077-0.277,0
			c-0.076-0.076-0.076-0.199,0-0.276c0.077-0.076,0.199-0.076,0.277,0C14.046,20.087,14.046,20.21,13.97,20.286 M15.358,21.399
			c0.076,0.077,0.076,0.2,0,0.277c-0.077,0.076-0.2,0.076-0.277,0c-0.076-0.077-0.076-0.2,0-0.277
			C15.158,21.323,15.282,21.323,15.358,21.399 M14.661,20.978c-0.077,0.075-0.201,0.075-0.277,0c-0.077-0.077-0.077-0.199,0-0.277
			c0.076-0.075,0.2-0.075,0.277,0C14.737,20.779,14.737,20.901,14.661,20.978 M18.23,24.545c-0.15,0.149-0.392,0.149-0.541,0
			c-0.149-0.15-0.149-0.391,0-0.541c0.149-0.149,0.391-0.149,0.541,0C18.379,24.154,18.379,24.395,18.23,24.545 M5.129,12.843
			c-0.149,0.149-0.391,0.149-0.541,0c-0.149-0.149-0.149-0.391,0-0.542c0.15-0.149,0.392-0.149,0.541,0
			C5.279,12.452,5.279,12.694,5.129,12.843 M16.345,24.06c0.133-0.134,0.35-0.134,0.483,0c0.133,0.133,0.133,0.349,0,0.483
			c-0.133,0.132-0.35,0.132-0.483,0C16.212,24.409,16.212,24.193,16.345,24.06 M5.8,13.514c-0.133,0.132-0.35,0.132-0.483,0
			c-0.133-0.134-0.133-0.351,0-0.483c0.133-0.133,0.35-0.133,0.483,0C5.934,13.163,5.934,13.379,5.8,13.514 M6.454,14.179
			c-0.121,0.121-0.317,0.121-0.437,0c-0.121-0.12-0.121-0.316,0-0.436c0.12-0.121,0.316-0.121,0.437,0
			C6.574,13.863,6.574,14.058,6.454,14.179 M15.666,23.393c0.121-0.122,0.317-0.122,0.438,0c0.12,0.121,0.12,0.316,0,0.437
			c-0.121,0.121-0.317,0.121-0.438,0C15.546,23.709,15.546,23.514,15.666,23.393 M14.323,22.05c0.102-0.101,0.267-0.101,0.369,0
			c0.101,0.103,0.101,0.267,0,0.369c-0.101,0.101-0.267,0.101-0.369,0C14.223,22.316,14.223,22.152,14.323,22.05 M13.639,21.366
			c0.101-0.101,0.267-0.101,0.368,0c0.102,0.101,0.102,0.266,0,0.368c-0.101,0.101-0.267,0.101-0.368,0
			C13.537,21.631,13.537,21.467,13.639,21.366 M12.948,20.675c0.102-0.102,0.267-0.102,0.369,0c0.102,0.1,0.102,0.265,0,0.367
			c-0.102,0.102-0.267,0.102-0.369,0C12.846,20.94,12.846,20.776,12.948,20.675 M12.26,19.985c0.101-0.1,0.266-0.1,0.368,0
			c0.101,0.103,0.101,0.267,0,0.369c-0.102,0.102-0.267,0.102-0.368,0C12.158,20.251,12.158,20.088,12.26,19.985 M11.568,19.293
			c0.101-0.101,0.266-0.101,0.368,0c0.101,0.102,0.101,0.267,0,0.369c-0.102,0.101-0.267,0.101-0.368,0
			C11.467,19.561,11.467,19.395,11.568,19.293 M10.882,18.609c0.102-0.102,0.267-0.102,0.369,0c0.101,0.101,0.101,0.265,0,0.367
			c-0.102,0.102-0.267,0.102-0.369,0C10.781,18.874,10.781,18.711,10.882,18.609 M10.191,17.917c0.102-0.102,0.267-0.102,0.369,0
			c0.1,0.101,0.1,0.267,0,0.368c-0.102,0.102-0.267,0.102-0.369,0C10.09,18.184,10.09,18.019,10.191,17.917 M8.807,16.534
			c0.101-0.102,0.267-0.102,0.368,0c0.102,0.1,0.102,0.266,0,0.368c-0.101,0.101-0.267,0.101-0.368,0
			C8.705,16.8,8.705,16.634,8.807,16.534 M8.122,15.848c0.101-0.103,0.266-0.103,0.368,0c0.102,0.101,0.102,0.265,0,0.367
			c-0.102,0.102-0.267,0.102-0.368,0C8.02,16.113,8.02,15.95,8.122,15.848 M9.873,17.229c0.101,0.101,0.101,0.267,0,0.367
			c-0.102,0.102-0.267,0.102-0.368,0c-0.102-0.1-0.102-0.266,0-0.367C9.607,17.127,9.771,17.127,9.873,17.229 M7.436,15.163
			c0.101-0.102,0.266-0.102,0.368,0c0.101,0.1,0.101,0.267,0,0.367c-0.102,0.102-0.267,0.102-0.368,0
			C7.334,15.429,7.334,15.263,7.436,15.163 M15.39,22.736c0.101,0.102,0.101,0.267,0,0.368c-0.101,0.102-0.267,0.102-0.369,0
			c-0.101-0.101-0.101-0.266,0-0.368C15.124,22.635,15.289,22.635,15.39,22.736 M7.12,14.834c-0.102,0.1-0.267,0.1-0.369,0
			c-0.101-0.103-0.101-0.267,0-0.369c0.102-0.101,0.267-0.101,0.369,0C7.221,14.568,7.221,14.732,7.12,14.834 M17.53,25.243
			c-0.15,0.149-0.392,0.149-0.541,0c-0.149-0.148-0.149-0.391,0-0.54s0.391-0.149,0.541,0C17.679,24.853,17.679,25.095,17.53,25.243
			 M4.419,13.553c-0.149,0.149-0.391,0.149-0.54,0c-0.15-0.149-0.15-0.392,0-0.541c0.149-0.149,0.391-0.149,0.54,0
			C4.568,13.161,4.568,13.404,4.419,13.553 M15.639,24.765c0.133-0.132,0.35-0.132,0.483,0c0.133,0.134,0.133,0.351,0,0.485
			c-0.133,0.132-0.35,0.132-0.483,0C15.506,25.115,15.506,24.899,15.639,24.765 M5.093,14.22c-0.133,0.132-0.35,0.132-0.483,0
			c-0.133-0.134-0.133-0.351,0-0.483c0.133-0.133,0.35-0.133,0.483,0C5.228,13.869,5.228,14.086,5.093,14.22 M5.744,14.889
			c-0.121,0.12-0.316,0.12-0.437,0c-0.121-0.121-0.121-0.316,0-0.437c0.121-0.121,0.316-0.121,0.437,0
			C5.865,14.573,5.865,14.768,5.744,14.889 M6.437,15.58c-0.121,0.121-0.317,0.121-0.437,0c-0.122-0.12-0.122-0.316,0-0.436
			c0.12-0.121,0.316-0.121,0.437,0C6.557,15.264,6.557,15.46,6.437,15.58 M7.126,16.271c-0.121,0.121-0.316,0.121-0.437,0
			c-0.121-0.122-0.121-0.316,0-0.438c0.121-0.121,0.316-0.121,0.437,0C7.246,15.955,7.246,16.149,7.126,16.271 M7.812,16.956
			c-0.12,0.121-0.316,0.121-0.437,0c-0.12-0.12-0.12-0.316,0-0.437c0.121-0.12,0.317-0.12,0.437,0
			C7.933,16.64,7.933,16.836,7.812,16.956 M8.498,17.642c-0.121,0.121-0.317,0.121-0.437,0c-0.121-0.12-0.121-0.316,0-0.437
			c0.12-0.12,0.316-0.12,0.437,0C8.619,17.326,8.619,17.521,8.498,17.642 M9.199,18.344c-0.12,0.121-0.316,0.121-0.437,0
			c-0.12-0.122-0.12-0.316,0-0.438c0.121-0.119,0.317-0.119,0.437,0C9.32,18.028,9.32,18.222,9.199,18.344 M9.881,19.025
			c-0.12,0.121-0.316,0.121-0.436,0c-0.121-0.12-0.121-0.316,0-0.438c0.12-0.119,0.316-0.119,0.436,0
			C10.002,18.709,10.002,18.905,9.881,19.025 M10.579,19.725c-0.12,0.119-0.316,0.119-0.437,0c-0.12-0.121-0.12-0.318,0-0.437
			c0.121-0.121,0.317-0.121,0.437,0C10.7,19.407,10.7,19.604,10.579,19.725 M11.266,20.41c-0.121,0.12-0.317,0.12-0.437,0
			c-0.121-0.121-0.121-0.317,0-0.437c0.12-0.12,0.316-0.12,0.437,0C11.387,20.093,11.387,20.289,11.266,20.41 M11.954,21.098
			c-0.121,0.12-0.317,0.12-0.437,0c-0.122-0.121-0.122-0.318,0-0.438c0.12-0.121,0.316-0.121,0.437,0
			C12.074,20.78,12.074,20.977,11.954,21.098 M12.643,21.787c-0.121,0.121-0.316,0.121-0.437,0c-0.121-0.121-0.121-0.316,0-0.437
			c0.121-0.12,0.316-0.12,0.437,0C12.764,21.471,12.764,21.666,12.643,21.787 M13.331,22.473c-0.121,0.122-0.316,0.122-0.437,0
			c-0.121-0.119-0.121-0.316,0-0.437c0.121-0.119,0.316-0.119,0.437,0C13.452,22.157,13.452,22.354,13.331,22.473 M14.023,23.166
			c-0.121,0.121-0.316,0.121-0.437,0c-0.121-0.119-0.121-0.316,0-0.438c0.121-0.119,0.316-0.119,0.437,0
			C14.143,22.85,14.143,23.047,14.023,23.166 M15.395,24.103c0.12,0.119,0.12,0.315,0,0.437c-0.121,0.12-0.316,0.12-0.437,0
			c-0.12-0.122-0.12-0.318,0-0.437C15.079,23.982,15.274,23.982,15.395,24.103 M14.711,23.855c-0.122,0.12-0.317,0.12-0.438,0
			c-0.121-0.121-0.121-0.318,0-0.439c0.121-0.119,0.316-0.119,0.438,0C14.831,23.537,14.831,23.734,14.711,23.855 M16.82,25.955
			c-0.149,0.15-0.391,0.15-0.541,0c-0.149-0.15-0.149-0.392,0-0.542c0.15-0.149,0.392-0.149,0.541,0
			C16.969,25.563,16.969,25.805,16.82,25.955 M3.739,14.232c-0.148,0.149-0.391,0.149-0.54,0c-0.15-0.148-0.15-0.391,0-0.541
			c0.149-0.149,0.392-0.149,0.54,0C3.888,13.841,3.888,14.084,3.739,14.232 M14.947,25.457c0.133-0.133,0.35-0.133,0.484,0
			c0.133,0.134,0.133,0.35,0,0.483c-0.134,0.134-0.351,0.134-0.484,0C14.814,25.807,14.814,25.592,14.947,25.457 M14.259,24.77
			c0.133-0.134,0.35-0.134,0.482,0c0.134,0.132,0.134,0.349,0,0.483c-0.132,0.132-0.349,0.132-0.482,0
			C14.126,25.119,14.126,24.903,14.259,24.77 M7.138,17.638c-0.12,0.121-0.316,0.121-0.436,0c-0.121-0.12-0.121-0.316,0-0.437
			c0.12-0.12,0.316-0.12,0.436,0C7.259,17.322,7.259,17.517,7.138,17.638 M7.825,18.324c-0.122,0.12-0.317,0.12-0.438,0
			c-0.121-0.121-0.121-0.316,0-0.437c0.121-0.12,0.316-0.12,0.438,0C7.945,18.008,7.945,18.203,7.825,18.324 M8.518,19.018
			c-0.12,0.119-0.316,0.119-0.437,0c-0.12-0.121-0.12-0.316,0-0.437c0.121-0.121,0.317-0.121,0.437,0
			C8.639,18.702,8.639,18.898,8.518,19.018 M9.21,19.71c-0.12,0.121-0.316,0.121-0.437,0c-0.12-0.12-0.12-0.316,0-0.438
			c0.121-0.12,0.317-0.12,0.437,0C9.331,19.394,9.331,19.59,9.21,19.71 M10.588,21.088c-0.121,0.121-0.316,0.121-0.437,0
			c-0.12-0.121-0.12-0.316,0-0.437c0.121-0.121,0.316-0.121,0.437,0C10.709,20.772,10.709,20.967,10.588,21.088 M11.279,21.78
			c-0.12,0.12-0.316,0.12-0.436,0c-0.121-0.121-0.121-0.318,0-0.438c0.12-0.12,0.316-0.12,0.436,0
			C11.4,21.462,11.4,21.659,11.279,21.78 M11.964,22.464c-0.121,0.121-0.317,0.121-0.437,0c-0.121-0.121-0.121-0.316,0-0.438
			c0.12-0.121,0.316-0.121,0.437,0C12.085,22.148,12.085,22.343,11.964,22.464 M12.651,23.152c-0.119,0.119-0.316,0.119-0.435,0
			c-0.122-0.121-0.122-0.318,0-0.438c0.119-0.121,0.316-0.121,0.435,0C12.773,22.835,12.773,23.031,12.651,23.152 M9.452,20.395
			c-0.12-0.121-0.12-0.316,0-0.437c0.121-0.122,0.317-0.122,0.437,0c0.121,0.121,0.121,0.316,0,0.437
			C9.769,20.516,9.573,20.516,9.452,20.395 M14.027,24.09c0.121,0.121,0.121,0.316,0,0.437c-0.12,0.121-0.316,0.121-0.437,0
			c-0.121-0.121-0.121-0.316,0-0.437C13.711,23.969,13.907,23.969,14.027,24.09 M13.341,23.841c-0.121,0.121-0.317,0.121-0.437,0
			c-0.121-0.121-0.121-0.316,0-0.437c0.12-0.121,0.316-0.121,0.437,0C13.461,23.525,13.461,23.72,13.341,23.841 M5.983,16.493
			c0.133-0.133,0.35-0.133,0.483,0c0.133,0.134,0.133,0.351,0,0.485c-0.133,0.133-0.35,0.133-0.483,0
			C5.85,16.843,5.85,16.627,5.983,16.493 M5.299,15.81c0.133-0.134,0.35-0.134,0.483,0c0.133,0.132,0.133,0.349,0,0.483
			c-0.133,0.133-0.35,0.133-0.483,0C5.166,16.159,5.166,15.942,5.299,15.81 M3.918,14.912c-0.133-0.134-0.133-0.35,0-0.483
			c0.134-0.133,0.35-0.133,0.483,0c0.133,0.133,0.133,0.349,0,0.483C4.268,15.046,4.052,15.046,3.918,14.912 M4.608,15.118
			c0.134-0.132,0.351-0.132,0.483,0c0.134,0.134,0.134,0.351,0,0.483c-0.133,0.134-0.349,0.134-0.483,0
			C4.475,15.469,4.475,15.253,4.608,15.118 M16.141,26.633c-0.151,0.15-0.393,0.15-0.542,0c-0.149-0.149-0.149-0.392,0-0.541
			c0.149-0.148,0.391-0.148,0.542,0C16.29,26.242,16.29,26.485,16.141,26.633 M3.035,14.937c-0.149,0.149-0.391,0.149-0.54,0
			c-0.15-0.149-0.15-0.391,0-0.542c0.149-0.149,0.391-0.149,0.54,0C3.184,14.546,3.184,14.788,3.035,14.937 M3.732,15.633
			c-0.15,0.15-0.392,0.15-0.541,0c-0.149-0.149-0.149-0.391,0-0.54c0.149-0.149,0.391-0.149,0.541,0
			C3.882,15.242,3.882,15.484,3.732,15.633 M4.426,16.327c-0.149,0.148-0.391,0.148-0.541,0c-0.149-0.151-0.149-0.392,0-0.542
			c0.15-0.149,0.392-0.149,0.541,0C4.575,15.936,4.575,16.177,4.426,16.327 M5.117,17.018c-0.149,0.15-0.391,0.15-0.541,0
			c-0.148-0.149-0.148-0.391,0-0.54c0.15-0.149,0.392-0.149,0.541,0C5.267,16.627,5.267,16.869,5.117,17.018 M5.8,17.702
			c-0.149,0.149-0.391,0.149-0.54,0c-0.15-0.149-0.15-0.391,0-0.54c0.149-0.151,0.391-0.151,0.54,0
			C5.95,17.311,5.95,17.553,5.8,17.702 M6.484,18.384c-0.15,0.15-0.392,0.15-0.542,0c-0.149-0.147-0.149-0.39,0.001-0.54
			c0.149-0.149,0.391-0.149,0.541,0C6.633,17.994,6.633,18.237,6.484,18.384 M7.178,19.08c-0.149,0.149-0.391,0.149-0.54,0
			c-0.149-0.15-0.149-0.392,0-0.542c0.149-0.149,0.391-0.149,0.54,0C7.327,18.688,7.327,18.93,7.178,19.08 M7.87,19.772
			c-0.15,0.149-0.392,0.149-0.541,0c-0.15-0.15-0.15-0.392,0-0.541c0.149-0.151,0.391-0.151,0.541,0
			C8.02,19.38,8.02,19.622,7.87,19.772 M8.557,20.458c-0.15,0.149-0.391,0.149-0.541,0c-0.15-0.148-0.15-0.392,0-0.541
			c0.15-0.149,0.391-0.149,0.541,0C8.706,20.066,8.706,20.31,8.557,20.458 M9.248,21.148c-0.15,0.149-0.392,0.149-0.541,0
			s-0.149-0.392,0-0.54c0.149-0.151,0.391-0.151,0.541,0C9.396,20.757,9.396,20.999,9.248,21.148 M9.938,21.84
			c-0.149,0.15-0.391,0.15-0.54,0c-0.15-0.149-0.15-0.393,0-0.542c0.149-0.148,0.391-0.148,0.54,0
			C10.088,21.447,10.088,21.691,9.938,21.84 M10.629,22.529c-0.149,0.149-0.392,0.149-0.542,0c-0.149-0.15-0.149-0.391,0-0.54
			c0.15-0.15,0.393-0.15,0.542,0C10.777,22.138,10.777,22.38,10.629,22.529 M11.315,23.216c-0.15,0.149-0.392,0.149-0.541,0
			c-0.149-0.15-0.149-0.392,0-0.542c0.149-0.149,0.391-0.149,0.541,0C11.464,22.825,11.464,23.067,11.315,23.216 M12.003,23.904
			c-0.15,0.149-0.393,0.149-0.542,0c-0.149-0.151-0.149-0.391,0-0.542c0.149-0.15,0.392-0.15,0.542,0
			C12.152,23.514,12.152,23.754,12.003,23.904 M12.692,24.593c-0.149,0.149-0.391,0.149-0.542,0c-0.148-0.15-0.148-0.391,0-0.542
			c0.151-0.148,0.393-0.148,0.542,0C12.841,24.202,12.841,24.444,12.692,24.593 M13.382,25.282c-0.15,0.15-0.392,0.15-0.541,0
			c-0.149-0.148-0.149-0.391,0-0.54s0.391-0.149,0.541,0C13.531,24.891,13.531,25.134,13.382,25.282 M14.068,25.97
			c-0.149,0.148-0.391,0.148-0.541,0c-0.149-0.151-0.149-0.393,0-0.542c0.15-0.15,0.392-0.15,0.541,0
			C14.218,25.578,14.218,25.82,14.068,25.97 M14.758,26.661c-0.149,0.148-0.391,0.148-0.54,0c-0.15-0.15-0.15-0.392,0-0.542
			c0.149-0.149,0.391-0.149,0.54,0C14.908,26.269,14.908,26.511,14.758,26.661 M15.446,27.345c-0.151,0.151-0.392,0.151-0.542,0
			c-0.149-0.149-0.149-0.391,0-0.54c0.15-0.149,0.391-0.149,0.542,0C15.595,26.954,15.595,27.196,15.446,27.345 M3.068,16.35
			c-0.165,0.166-0.432,0.166-0.597,0c-0.165-0.165-0.165-0.431,0-0.597c0.165-0.165,0.433-0.165,0.597,0
			C3.234,15.919,3.234,16.186,3.068,16.35 M3.758,17.041c-0.165,0.165-0.433,0.165-0.598,0c-0.165-0.165-0.165-0.433,0-0.599
			c0.165-0.165,0.433-0.165,0.598,0C3.923,16.608,3.923,16.875,3.758,17.041 M4.447,17.73c-0.165,0.165-0.433,0.165-0.598,0
			c-0.165-0.165-0.165-0.433,0-0.598c0.165-0.165,0.433-0.165,0.598,0C4.612,17.297,4.612,17.564,4.447,17.73 M5.136,18.419
			c-0.165,0.166-0.433,0.166-0.597,0c-0.165-0.165-0.165-0.433,0-0.598c0.165-0.165,0.433-0.165,0.597,0
			C5.302,17.986,5.302,18.253,5.136,18.419 M5.825,19.108c-0.165,0.164-0.433,0.164-0.597,0c-0.165-0.166-0.165-0.434,0-0.598
			c0.165-0.165,0.433-0.165,0.597,0C5.99,18.674,5.99,18.942,5.825,19.108 M6.515,19.797c-0.165,0.165-0.434,0.165-0.598,0
			c-0.165-0.165-0.165-0.434,0-0.597c0.165-0.166,0.433-0.166,0.598,0C6.679,19.363,6.679,19.632,6.515,19.797 M7.204,20.486
			c-0.165,0.165-0.433,0.165-0.598,0c-0.166-0.165-0.166-0.433,0-0.597c0.165-0.165,0.433-0.165,0.598,0
			C7.369,20.053,7.369,20.321,7.204,20.486 M7.893,21.176c-0.165,0.165-0.433,0.165-0.598,0c-0.165-0.165-0.165-0.433,0-0.598
			c0.165-0.165,0.433-0.165,0.598,0C8.058,20.743,8.058,21.01,7.893,21.176 M8.582,21.865c-0.165,0.165-0.433,0.165-0.598,0
			c-0.165-0.166-0.165-0.433,0-0.599c0.165-0.164,0.433-0.164,0.598,0C8.747,21.432,8.747,21.699,8.582,21.865 M9.272,22.554
			c-0.165,0.165-0.433,0.165-0.598,0c-0.165-0.166-0.165-0.433,0-0.597c0.165-0.165,0.433-0.165,0.598,0
			C9.437,22.121,9.437,22.388,9.272,22.554 M9.96,23.243c-0.165,0.165-0.433,0.165-0.597,0c-0.165-0.165-0.165-0.431,0-0.597
			c0.165-0.165,0.433-0.165,0.597,0C10.126,22.812,10.126,23.078,9.96,23.243 M10.65,23.932c-0.165,0.165-0.433,0.165-0.598,0
			c-0.165-0.165-0.165-0.433,0-0.598c0.165-0.165,0.433-0.165,0.598,0C10.815,23.5,10.815,23.767,10.65,23.932 M11.339,24.622
			c-0.165,0.165-0.433,0.165-0.598,0c-0.165-0.166-0.165-0.434,0-0.597c0.165-0.166,0.433-0.166,0.598,0
			C11.504,24.188,11.504,24.456,11.339,24.622 M12.028,25.31c-0.165,0.167-0.433,0.167-0.598,0c-0.165-0.165-0.165-0.432,0-0.598
			c0.165-0.164,0.434-0.164,0.598,0C12.194,24.878,12.194,25.146,12.028,25.31 M12.717,26c-0.165,0.166-0.433,0.166-0.597,0
			c-0.165-0.165-0.165-0.433,0-0.599c0.165-0.164,0.433-0.164,0.597,0C12.883,25.567,12.883,25.835,12.717,26 M13.406,26.69
			c-0.165,0.164-0.433,0.164-0.597,0c-0.165-0.166-0.165-0.435,0-0.599c0.165-0.165,0.433-0.165,0.597,0
			C13.572,26.256,13.572,26.524,13.406,26.69 M14.096,27.379c-0.165,0.165-0.433,0.165-0.598,0c-0.165-0.166-0.165-0.433,0-0.598
			c0.165-0.165,0.433-0.165,0.598,0C14.261,26.946,14.261,27.213,14.096,27.379 M14.786,28.068c-0.165,0.165-0.433,0.165-0.598,0
			c-0.165-0.165-0.165-0.433,0-0.598c0.165-0.165,0.433-0.165,0.598,0C14.95,27.635,14.95,27.903,14.786,28.068 M29.271,14.927
			c-0.157,0.077-0.352,0.05-0.484-0.081c-0.165-0.165-0.165-0.433,0-0.597c0.133-0.134,0.334-0.16,0.492-0.077
			c-0.073-0.115-0.105-0.252-0.091-0.384l-0.03-0.03c-0.132,0.013-0.269-0.017-0.385-0.091c0.081,0.158,0.057,0.359-0.077,0.492
			c-0.165,0.165-0.433,0.165-0.598,0c-0.165-0.165-0.165-0.433,0-0.599c0.134-0.133,0.334-0.158,0.493-0.076
			c-0.074-0.117-0.105-0.253-0.091-0.386l-0.033-0.032c-0.132,0.013-0.267-0.016-0.383-0.091c0.083,0.158,0.058,0.36-0.076,0.494
			c-0.165,0.165-0.433,0.165-0.598,0c-0.165-0.165-0.165-0.433,0-0.597c0.133-0.133,0.332-0.159,0.492-0.077
			c-0.077-0.117-0.107-0.254-0.095-0.387l-0.028-0.029c-0.132,0.014-0.268-0.017-0.384-0.092c0.082,0.16,0.058,0.36-0.077,0.494
			c-0.165,0.165-0.433,0.165-0.597,0c-0.166-0.165-0.166-0.433,0-0.598c0.133-0.133,0.333-0.16,0.492-0.077
			c-0.075-0.116-0.106-0.253-0.093-0.385l-0.028-0.029c-0.133,0.012-0.27-0.017-0.385-0.092c0.081,0.159,0.056,0.359-0.077,0.493
			c-0.166,0.165-0.434,0.165-0.599,0c-0.165-0.165-0.165-0.433,0-0.599c0.133-0.133,0.334-0.159,0.494-0.076
			c-0.075-0.117-0.105-0.253-0.092-0.385l-0.032-0.032c-0.132,0.014-0.267-0.017-0.384-0.091c0.082,0.159,0.057,0.36-0.077,0.493
			c-0.165,0.165-0.432,0.165-0.597,0c-0.165-0.165-0.165-0.433,0-0.597c0.133-0.133,0.333-0.159,0.492-0.076
			c-0.075-0.117-0.106-0.254-0.093-0.388l-0.03-0.032c-0.132,0.014-0.268-0.016-0.384-0.09c0.083,0.16,0.058,0.36-0.076,0.494
			c-0.165,0.165-0.433,0.165-0.598,0c-0.165-0.165-0.165-0.433,0-0.597c0.133-0.133,0.332-0.159,0.491-0.077
			c-0.075-0.117-0.106-0.253-0.093-0.388L25.022,9.62c-0.133,0.013-0.268-0.017-0.385-0.092c0.083,0.16,0.058,0.36-0.077,0.494
			c-0.165,0.165-0.432,0.165-0.598,0c-0.165-0.165-0.165-0.433,0-0.599c0.134-0.133,0.334-0.157,0.493-0.076
			C24.38,9.23,24.349,9.093,24.363,8.96l-0.029-0.028c-0.132,0.014-0.269-0.017-0.386-0.092c0.083,0.159,0.057,0.359-0.077,0.493
			c-0.164,0.165-0.432,0.165-0.597,0c-0.165-0.166-0.165-0.433,0-0.599c0.134-0.133,0.334-0.158,0.493-0.076
			c-0.074-0.117-0.105-0.252-0.091-0.386l-0.023-0.024c-0.135,0.014-0.273-0.018-0.392-0.094c0.081,0.159,0.055,0.356-0.077,0.489
			c-0.165,0.166-0.433,0.166-0.598,0c-0.165-0.165-0.165-0.433,0-0.598c0.134-0.134,0.337-0.16,0.497-0.075
			c-0.072-0.114-0.103-0.25-0.09-0.381l-0.04-0.038c-0.131,0.013-0.267-0.017-0.383-0.091c0.082,0.16,0.058,0.36-0.077,0.495
			c-0.165,0.165-0.433,0.165-0.597,0c-0.166-0.165-0.166-0.434,0-0.598c0.132-0.134,0.332-0.159,0.491-0.077
			c-0.076-0.117-0.107-0.254-0.094-0.388l-0.03-0.03c-0.131,0.013-0.267-0.017-0.384-0.091c0.083,0.16,0.058,0.361-0.076,0.495
			c-0.166,0.165-0.433,0.165-0.598,0c-0.165-0.165-0.165-0.433,0-0.597c0.133-0.134,0.332-0.159,0.491-0.078
			c-0.075-0.117-0.107-0.254-0.093-0.388l-0.03-0.029c-0.132,0.013-0.268-0.017-0.384-0.091c0.083,0.16,0.058,0.36-0.077,0.494
			c-0.165,0.165-0.432,0.165-0.598,0c-0.165-0.165-0.165-0.432,0-0.597c0.134-0.133,0.333-0.159,0.492-0.077
			c-0.076-0.117-0.107-0.254-0.093-0.388l-0.027-0.026c-0.133,0.013-0.269-0.018-0.385-0.092c0.081,0.159,0.055,0.359-0.077,0.492
			c-0.165,0.165-0.433,0.165-0.598,0c-0.165-0.165-0.165-0.433,0-0.598c0.133-0.132,0.334-0.159,0.493-0.077
			c-0.074-0.116-0.105-0.252-0.091-0.385L20.2,4.798c-0.133,0.013-0.27-0.017-0.387-0.093c0.081,0.159,0.056,0.359-0.077,0.492
			c-0.165,0.165-0.433,0.165-0.599,0c-0.165-0.165-0.165-0.433,0-0.598c0.134-0.133,0.335-0.16,0.495-0.076
			c-0.073-0.117-0.105-0.252-0.091-0.385l-0.035-0.034c-0.133,0.013-0.267-0.017-0.384-0.091c0.083,0.16,0.058,0.36-0.076,0.495
			c-0.165,0.165-0.434,0.165-0.598,0c-0.165-0.165-0.165-0.433,0-0.597c0.133-0.134,0.333-0.16,0.491-0.078
			c-0.075-0.116-0.107-0.253-0.093-0.387L18.83,3.427c-0.136,0.014-0.275-0.018-0.393-0.096c0.079,0.159,0.053,0.356-0.08,0.488
			c-0.165,0.165-0.433,0.165-0.597,0c-0.165-0.165-0.165-0.434,0-0.598c0.135-0.135,0.338-0.16,0.499-0.074
			c-0.072-0.114-0.101-0.249-0.089-0.379l-0.038-0.039c-0.133,0.013-0.271-0.018-0.386-0.093c0.081,0.16,0.056,0.36-0.077,0.493
			c-0.165,0.165-0.433,0.165-0.597,0c-0.166-0.165-0.166-0.433,0-0.597c0.132-0.134,0.333-0.16,0.492-0.077
			c-0.075-0.117-0.105-0.253-0.091-0.385l-0.033-0.034c-0.132,0.014-0.267-0.017-0.384-0.091c0.083,0.16,0.058,0.36-0.077,0.494
			c-0.165,0.165-0.432,0.165-0.597,0c-0.165-0.164-0.165-0.432,0-0.597c0.133-0.134,0.332-0.16,0.491-0.078
			c-0.075-0.117-0.106-0.253-0.094-0.387l-0.023-0.025c-0.131,0.016-0.267-0.012-0.384-0.082c0.075,0.157,0.048,0.35-0.082,0.481
			c-0.165,0.165-0.433,0.165-0.598,0c-0.165-0.166-0.165-0.434,0-0.599c0.13-0.129,0.323-0.157,0.479-0.082
			c-0.071-0.118-0.099-0.253-0.084-0.385L16.061,0.66c-0.132,0.016-0.27-0.012-0.387-0.083c0.081,0.158,0.055,0.357-0.078,0.49
			c-0.165,0.165-0.433,0.165-0.598,0c-0.146-0.146-0.162-0.374-0.049-0.537c-0.121,0.093-0.269,0.135-0.415,0.123l-0.053,0.053
			c0.012,0.144-0.03,0.291-0.122,0.411c0.165-0.116,0.394-0.1,0.542,0.047c0.165,0.165,0.165,0.434,0,0.598
			c-0.165,0.165-0.433,0.165-0.598,0c-0.146-0.146-0.162-0.371-0.051-0.536c-0.121,0.095-0.27,0.137-0.416,0.126L13.787,1.4
			c0.011,0.145-0.03,0.291-0.122,0.411c0.165-0.116,0.393-0.1,0.541,0.047c0.165,0.165,0.165,0.433,0,0.599
			c-0.165,0.165-0.432,0.165-0.597,0c-0.146-0.147-0.163-0.373-0.05-0.538c-0.121,0.095-0.27,0.137-0.416,0.126l-0.053,0.053
			c0.011,0.143-0.03,0.289-0.121,0.409c0.165-0.117,0.395-0.102,0.543,0.047c0.165,0.165,0.165,0.432,0,0.597
			c-0.165,0.165-0.434,0.165-0.598,0c-0.146-0.145-0.163-0.37-0.052-0.535c-0.122,0.095-0.271,0.138-0.417,0.127l-0.049,0.049
			c0.011,0.143-0.03,0.29-0.121,0.41c0.165-0.117,0.394-0.102,0.542,0.046c0.165,0.165,0.165,0.434,0,0.598
			c-0.165,0.165-0.432,0.165-0.597,0c-0.146-0.145-0.163-0.371-0.051-0.536c-0.122,0.095-0.272,0.137-0.417,0.127l-0.037,0.037
			c0.012,0.146-0.031,0.295-0.127,0.417c0.165-0.111,0.389-0.094,0.535,0.052c0.165,0.165,0.165,0.433,0,0.598
			c-0.165,0.165-0.433,0.165-0.598,0c-0.147-0.148-0.163-0.379-0.046-0.544c-0.12,0.092-0.266,0.132-0.409,0.122l-0.06,0.061
			c0.011,0.143-0.03,0.291-0.123,0.411c0.165-0.115,0.393-0.1,0.541,0.048c0.165,0.165,0.165,0.433,0,0.597
			c-0.165,0.165-0.433,0.165-0.598,0c-0.146-0.146-0.163-0.373-0.05-0.537c-0.121,0.094-0.269,0.136-0.415,0.125L10.32,4.868
			c0.011,0.146-0.031,0.295-0.127,0.416c0.165-0.11,0.39-0.094,0.536,0.052c0.165,0.165,0.165,0.433,0,0.597
			c-0.165,0.165-0.433,0.165-0.598,0c-0.147-0.148-0.162-0.377-0.046-0.542C9.964,5.483,9.818,5.524,9.674,5.513L9.616,5.57
			c0.012,0.145-0.03,0.291-0.123,0.412c0.165-0.114,0.393-0.099,0.54,0.049c0.165,0.165,0.165,0.433,0,0.598
			c-0.165,0.164-0.433,0.164-0.597,0C9.29,6.482,9.273,6.256,9.387,6.091C9.266,6.185,9.118,6.226,8.972,6.215L8.928,6.26
			c0.011,0.146-0.03,0.295-0.125,0.416c0.164-0.112,0.39-0.095,0.536,0.051c0.165,0.165,0.165,0.432,0,0.597
			c-0.165,0.165-0.433,0.165-0.598,0C8.594,7.177,8.578,6.948,8.693,6.783C8.574,6.875,8.426,6.916,8.282,6.905L8.228,6.959
			c0.012,0.146-0.03,0.292-0.123,0.414c0.165-0.114,0.392-0.098,0.538,0.049c0.165,0.165,0.165,0.434,0,0.598
			c-0.165,0.166-0.433,0.166-0.597,0C7.898,7.873,7.882,7.645,7.997,7.48C7.876,7.573,7.728,7.615,7.584,7.604L7.531,7.656
			C7.543,7.8,7.501,7.949,7.408,8.069c0.165-0.114,0.393-0.099,0.54,0.048c0.165,0.165,0.165,0.433,0,0.598
			c-0.165,0.165-0.433,0.165-0.597,0C7.204,8.569,7.187,8.342,7.301,8.177C7.18,8.271,7.032,8.313,6.886,8.301L6.839,8.348
			C6.85,8.493,6.808,8.642,6.715,8.763c0.165-0.114,0.392-0.097,0.537,0.049c0.165,0.165,0.165,0.433,0,0.598
			c-0.165,0.165-0.433,0.165-0.597,0C6.507,9.263,6.492,9.035,6.606,8.871C6.485,8.964,6.338,9.005,6.194,8.995L6.148,9.039
			c0.011,0.147-0.031,0.296-0.127,0.417c0.165-0.112,0.39-0.095,0.535,0.051c0.165,0.165,0.165,0.433,0,0.598
			c-0.165,0.165-0.433,0.165-0.597,0C5.811,9.958,5.796,9.728,5.913,9.563c-0.12,0.091-0.267,0.132-0.41,0.121L5.446,9.741
			c0.011,0.146-0.03,0.292-0.123,0.414c0.165-0.115,0.393-0.099,0.538,0.048c0.166,0.165,0.166,0.433,0,0.598
			c-0.165,0.165-0.432,0.165-0.597,0c-0.146-0.147-0.163-0.374-0.049-0.538c-0.121,0.093-0.269,0.135-0.413,0.123l-0.045,0.044
			c0.011,0.147-0.031,0.296-0.126,0.417c0.165-0.113,0.39-0.095,0.537,0.05c0.165,0.165,0.165,0.433,0,0.597
			c-0.165,0.165-0.433,0.165-0.598,0c-0.147-0.147-0.163-0.376-0.047-0.541c-0.12,0.092-0.267,0.133-0.411,0.122l-0.05,0.051
			c0.011,0.146-0.031,0.294-0.126,0.416c0.165-0.113,0.392-0.095,0.537,0.05c0.165,0.165,0.165,0.433,0,0.597
			c-0.165,0.165-0.433,0.165-0.598,0c-0.146-0.146-0.162-0.376-0.047-0.541c-0.12,0.093-0.268,0.134-0.412,0.123l-0.063,0.063
			c0.011,0.142-0.029,0.286-0.12,0.407c0.165-0.118,0.397-0.104,0.545,0.045c0.165,0.165,0.165,0.433,0,0.597
			c-0.165,0.165-0.433,0.165-0.598,0c-0.144-0.145-0.161-0.369-0.052-0.532c-0.123,0.096-0.272,0.138-0.421,0.128L2.666,12.52
			c0.011,0.146-0.03,0.294-0.124,0.415c0.165-0.114,0.393-0.098,0.538,0.049c0.166,0.165,0.166,0.433,0,0.597
			c-0.165,0.165-0.432,0.165-0.598,0c-0.146-0.146-0.162-0.375-0.048-0.539c-0.121,0.092-0.268,0.134-0.412,0.123l-0.052,0.05
			c0.012,0.146-0.03,0.293-0.123,0.414c0.164-0.114,0.392-0.098,0.539,0.049c0.165,0.165,0.165,0.433,0,0.597
			c-0.165,0.165-0.433,0.165-0.598,0c-0.146-0.146-0.163-0.374-0.049-0.539c-0.121,0.093-0.269,0.135-0.414,0.124l-0.054,0.055
			c0.011,0.142-0.03,0.29-0.122,0.41c0.165-0.115,0.394-0.1,0.542,0.048c0.165,0.165,0.165,0.433,0,0.597
			c-0.142,0.141-0.356,0.16-0.519,0.061c0.085,0.123,0.118,0.269,0.102,0.409l0.027,0.03c0.144-0.017,0.291,0.017,0.415,0.103
			c-0.094-0.163-0.072-0.373,0.067-0.511c0.165-0.165,0.433-0.165,0.597,0c0.165,0.165,0.165,0.433,0,0.597
			c-0.139,0.139-0.35,0.16-0.511,0.067c0.085,0.123,0.119,0.27,0.101,0.412l0.034,0.035c0.167-0.011,0.337,0.047,0.464,0.174
			c0.128,0.126,0.185,0.297,0.174,0.463l0.053,0.055c0.168-0.01,0.337,0.047,0.464,0.174c0.128,0.126,0.185,0.297,0.174,0.464
			l0.06,0.06c0.167-0.011,0.337,0.047,0.464,0.174c0.128,0.128,0.184,0.296,0.174,0.463l0.039,0.04
			c0.166-0.011,0.337,0.048,0.464,0.174c0.126,0.127,0.184,0.297,0.174,0.463l0.057,0.057c0.165-0.011,0.336,0.047,0.462,0.174
			c0.128,0.128,0.185,0.296,0.174,0.464l0.05,0.049c0.166-0.011,0.336,0.049,0.463,0.175c0.128,0.128,0.185,0.296,0.174,0.463
			l0.049,0.049c0.165-0.01,0.336,0.047,0.463,0.174c0.127,0.128,0.184,0.296,0.174,0.464l0.052,0.051
			c0.166-0.011,0.337,0.047,0.464,0.174c0.127,0.127,0.184,0.297,0.174,0.463l0.05,0.051c0.167-0.011,0.337,0.047,0.464,0.174
			c0.127,0.127,0.185,0.297,0.174,0.463l0.06,0.061c0.166-0.011,0.336,0.047,0.463,0.174c0.128,0.127,0.185,0.297,0.175,0.463
			l0.044,0.046c0.166-0.011,0.336,0.047,0.463,0.174c0.128,0.126,0.185,0.298,0.174,0.463l0.05,0.049
			c0.166-0.009,0.336,0.048,0.463,0.175c0.127,0.128,0.185,0.298,0.174,0.463l0.05,0.05c0.166-0.011,0.335,0.048,0.462,0.174
			c0.128,0.128,0.185,0.298,0.174,0.463l0.053,0.053c0.166-0.011,0.336,0.047,0.463,0.174c0.127,0.128,0.185,0.297,0.174,0.463
			l0.053,0.053c0.166-0.012,0.337,0.046,0.463,0.175c0.127,0.126,0.185,0.296,0.174,0.463l0.05,0.049
			c0.166-0.01,0.337,0.048,0.463,0.175c0.128,0.126,0.185,0.296,0.174,0.463l0.05,0.049c0.166-0.01,0.337,0.047,0.463,0.176
			c0.128,0.126,0.185,0.295,0.174,0.463l0.055,0.054c0.165-0.011,0.336,0.048,0.463,0.174c0.127,0.127,0.184,0.298,0.174,0.464
			l0.052,0.051c0.165-0.011,0.336,0.048,0.463,0.174c0.127,0.128,0.184,0.298,0.174,0.464l0.016,0.015
			c0.067-0.01,0.137-0.007,0.203,0.007l0.003-0.002c-0.019-0.139,0.011-0.281,0.088-0.405c-0.158,0.079-0.354,0.052-0.485-0.079
			c-0.165-0.165-0.165-0.434,0-0.598c0.165-0.165,0.433-0.165,0.598,0c0.132,0.132,0.158,0.332,0.078,0.489
			c0.12-0.074,0.261-0.101,0.397-0.083l0.023-0.024c-0.018-0.138,0.011-0.281,0.088-0.402c-0.159,0.08-0.357,0.054-0.49-0.078
			c-0.165-0.165-0.165-0.433,0-0.597c0.165-0.166,0.432-0.166,0.597,0c0.133,0.132,0.159,0.33,0.079,0.488
			c0.121-0.076,0.263-0.106,0.402-0.086l0.02-0.021c-0.018-0.137,0.011-0.281,0.088-0.402c-0.16,0.081-0.358,0.054-0.491-0.08
			c-0.165-0.164-0.165-0.43,0-0.596c0.165-0.165,0.433-0.165,0.598,0c0.132,0.132,0.159,0.33,0.078,0.489
			c0.122-0.078,0.265-0.107,0.403-0.088l0.008-0.008c-0.019-0.141,0.011-0.287,0.092-0.409c-0.158,0.077-0.353,0.049-0.485-0.081
			c-0.165-0.165-0.165-0.434,0-0.599c0.165-0.165,0.434-0.165,0.598,0c0.134,0.134,0.16,0.337,0.075,0.496
			c0.12-0.074,0.26-0.102,0.396-0.083l0.032-0.032c-0.018-0.138,0.01-0.28,0.086-0.401c-0.159,0.081-0.358,0.057-0.491-0.077
			c-0.165-0.165-0.165-0.432,0-0.597c0.165-0.165,0.434-0.165,0.598,0c0.132,0.132,0.158,0.329,0.079,0.488
			c0.122-0.078,0.266-0.107,0.404-0.089l0.021-0.021c-0.018-0.136,0.01-0.278,0.086-0.399c-0.16,0.082-0.359,0.055-0.492-0.077
			c-0.165-0.164-0.165-0.433,0-0.598c0.165-0.164,0.433-0.164,0.598,0c0.132,0.132,0.158,0.329,0.079,0.488
			c0.122-0.078,0.266-0.107,0.405-0.089l0.015-0.014c-0.019-0.138,0.011-0.281,0.087-0.403c-0.158,0.08-0.356,0.055-0.489-0.079
			c-0.165-0.165-0.165-0.433,0-0.597c0.165-0.165,0.433-0.165,0.597,0c0.133,0.133,0.16,0.331,0.078,0.491
			c0.122-0.078,0.264-0.107,0.402-0.089l0.026-0.026c-0.018-0.136,0.01-0.277,0.085-0.397c-0.16,0.082-0.36,0.057-0.493-0.077
			c-0.165-0.165-0.165-0.434,0-0.598c0.165-0.165,0.433-0.165,0.598,0c0.131,0.132,0.157,0.328,0.079,0.486
			c0.123-0.078,0.267-0.109,0.407-0.09l0.014-0.015c-0.018-0.137,0.012-0.28,0.087-0.402c-0.158,0.081-0.357,0.055-0.49-0.077
			c-0.166-0.166-0.166-0.435,0-0.599c0.165-0.165,0.432-0.165,0.598,0c0.132,0.133,0.158,0.331,0.078,0.49
			c0.121-0.078,0.264-0.106,0.402-0.088l0.016-0.017c-0.018-0.138,0.011-0.281,0.089-0.403c-0.159,0.081-0.357,0.053-0.489-0.078
			c-0.165-0.166-0.165-0.432,0-0.598c0.164-0.165,0.432-0.165,0.597,0c0.133,0.133,0.159,0.332,0.077,0.49
			c0.122-0.077,0.264-0.105,0.401-0.087l0.021-0.021c-0.018-0.137,0.011-0.279,0.088-0.402c-0.159,0.081-0.358,0.055-0.49-0.078
			c-0.165-0.164-0.165-0.432,0-0.597c0.165-0.165,0.434-0.165,0.599,0c0.132,0.134,0.157,0.331,0.078,0.49
			c0.121-0.077,0.264-0.106,0.402-0.088l0.022-0.022c-0.018-0.137,0.011-0.279,0.087-0.4c-0.16,0.082-0.359,0.057-0.493-0.076
			c-0.165-0.165-0.165-0.433,0-0.599c0.165-0.165,0.433-0.165,0.598,0c0.133,0.132,0.158,0.328,0.08,0.487
			c0.122-0.077,0.266-0.107,0.404-0.089l0.014-0.013c-0.018-0.137,0.011-0.281,0.089-0.403c-0.159,0.079-0.357,0.053-0.49-0.078
			c-0.165-0.165-0.165-0.435,0-0.599c0.166-0.165,0.433-0.165,0.598,0.001c0.133,0.132,0.158,0.332,0.077,0.49
			c0.121-0.076,0.264-0.105,0.402-0.086l0.026-0.027c-0.018-0.137,0.009-0.277,0.085-0.398c-0.16,0.082-0.36,0.057-0.493-0.076
			c-0.165-0.166-0.165-0.434,0-0.598c0.165-0.166,0.433-0.166,0.598,0c0.131,0.131,0.158,0.328,0.079,0.486
			c0.122-0.079,0.267-0.109,0.407-0.09l0.011-0.011c-0.019-0.139,0.011-0.283,0.089-0.405c-0.158,0.08-0.356,0.053-0.489-0.078
			c-0.165-0.166-0.165-0.433,0-0.599c0.166-0.164,0.433-0.164,0.599,0c0.133,0.134,0.159,0.333,0.077,0.492
			c0.121-0.076,0.263-0.105,0.4-0.086l0.029-0.03c-0.018-0.136,0.01-0.276,0.084-0.397c-0.158,0.084-0.36,0.058-0.493-0.076
			c-0.165-0.166-0.165-0.433,0-0.597c0.165-0.166,0.433-0.166,0.597,0c0.132,0.131,0.158,0.328,0.08,0.485
			c0.123-0.079,0.268-0.109,0.407-0.091l0.007-0.005c-0.019-0.139,0.011-0.285,0.09-0.407c-0.158,0.078-0.354,0.053-0.486-0.079
			c-0.165-0.165-0.165-0.433,0-0.598c0.165-0.165,0.433-0.165,0.598,0c0.134,0.133,0.16,0.333,0.077,0.493
			c0.12-0.075,0.261-0.103,0.397-0.085l0.018-0.019c-0.018-0.139,0.012-0.284,0.091-0.406c-0.158,0.077-0.354,0.051-0.486-0.081
			c-0.165-0.165-0.165-0.433,0-0.597c0.165-0.165,0.433-0.165,0.598,0c0.133,0.133,0.16,0.334,0.076,0.492
			c0.121-0.073,0.262-0.102,0.398-0.083l0.021-0.022c-0.018-0.14,0.012-0.283,0.09-0.405c-0.158,0.079-0.356,0.052-0.488-0.081
			c-0.165-0.164-0.165-0.432,0-0.597c0.165-0.166,0.433-0.166,0.598,0c0.133,0.133,0.159,0.332,0.077,0.491
			c0.122-0.076,0.263-0.105,0.4-0.086l0.018-0.019c-0.018-0.14,0.012-0.283,0.09-0.405c-0.158,0.078-0.356,0.052-0.487-0.08
			c-0.165-0.165-0.165-0.433,0-0.597c0.165-0.166,0.433-0.166,0.598,0c0.133,0.133,0.158,0.333,0.077,0.491
			c0.121-0.075,0.263-0.103,0.399-0.085l0.023-0.023C29.164,15.192,29.193,15.048,29.271,14.927"/>
		<path class="st1" d="M29.462,14.353c0.062,0.12,0.062,0.265,0.001,0.384c0.119-0.072,0.259-0.1,0.394-0.083
			c-0.014-0.067-0.016-0.137-0.006-0.206l-0.004-0.003C29.714,14.46,29.578,14.428,29.462,14.353"/>
		<rect x="0.602" y="32.614" class="st2" width="121.303" height="0.174"/>
		<path class="st0" d="M3.043,37.481c-0.227-0.382-0.519-0.576-0.982-0.576c-0.487,0-1.023,0.332-1.023,0.868
			c0,0.479,0.471,0.731,0.853,0.876l0.438,0.17c0.868,0.341,1.518,0.82,1.518,1.842c0,1.113-0.86,1.908-1.955,1.908
			c-0.99,0-1.761-0.731-1.891-1.713l0.771-0.162c-0.008,0.674,0.528,1.16,1.184,1.16c0.658,0,1.128-0.551,1.128-1.193
			c0-0.657-0.528-0.941-1.055-1.16l-0.421-0.179c-0.699-0.3-1.332-0.697-1.332-1.55c0-0.99,0.876-1.583,1.801-1.583
			c0.682,0,1.242,0.332,1.575,0.925L3.043,37.481z"/>
		<polygon class="st0" points="7.409,36.32 8.286,36.32 9.788,38.933 11.289,36.32 12.165,36.32 10.169,39.777 10.169,42.439 
			9.406,42.439 9.406,39.777 		"/>
		<path class="st0" d="M15.988,36.32h1.266c1.875,0,3.433,0.99,3.433,3.028c0,2.085-1.526,3.092-3.457,3.092h-1.242V36.32z
			 M16.75,41.741h0.267c1.559,0,2.906-0.584,2.906-2.362c0-1.785-1.347-2.362-2.906-2.362H16.75V41.741z"/>
		<polygon class="st0" points="24.736,36.028 29.33,40.841 29.33,36.32 30.093,36.32 30.093,42.691 25.499,37.878 25.499,42.439 
			24.736,42.439 		"/>
		<polygon class="st0" points="34.54,36.32 37.827,36.32 37.827,37.018 35.302,37.018 35.302,38.73 37.753,38.73 37.753,39.428 
			35.302,39.428 35.302,41.742 37.827,41.742 37.827,42.439 34.54,42.439 		"/>
		<polygon class="st0" points="41.494,36.32 42.371,36.32 43.873,38.933 45.374,36.32 46.25,36.32 44.254,39.777 44.254,42.439 
			43.491,42.439 43.491,39.777 		"/>
		<path class="st0" d="M56.711,40.905l-0.698,1.534h-0.82l2.922-6.379l2.922,6.379h-0.82l-0.698-1.534H56.711z M58.115,37.732
			l-1.087,2.476h2.175L58.115,37.732z"/>
		<path class="st0" d="M65.566,36.32v3.612c0,0.997,0.3,1.923,1.477,1.923s1.476-0.926,1.476-1.923V36.32h0.763v3.871
			c0,1.347-0.835,2.378-2.239,2.378s-2.24-1.03-2.24-2.378V36.32H65.566z"/>
		<path class="st0" d="M76.416,37.481c-0.227-0.382-0.519-0.576-0.982-0.576c-0.487,0-1.023,0.332-1.023,0.868
			c0,0.479,0.471,0.731,0.853,0.876l0.438,0.17c0.869,0.341,1.518,0.82,1.518,1.842c0,1.113-0.861,1.908-1.956,1.908
			c-0.99,0-1.761-0.731-1.891-1.713l0.771-0.162c-0.008,0.674,0.528,1.16,1.185,1.16c0.657,0,1.127-0.551,1.127-1.193
			c0-0.657-0.527-0.941-1.054-1.16l-0.422-0.179c-0.698-0.3-1.332-0.697-1.332-1.55c0-0.99,0.876-1.583,1.801-1.583
			c0.682,0,1.242,0.332,1.575,0.925L76.416,37.481z"/>
		<polygon class="st0" points="83.063,42.439 82.3,42.439 82.3,37.017 80.847,37.017 80.847,36.32 84.515,36.32 84.515,37.017 
			83.063,37.017 		"/>
		<path class="st0" d="M92.282,42.439h-0.925l-1.801-2.589h-0.317v2.589h-0.763v-6.12H89.4c0.544,0,1.128,0.008,1.615,0.285
			c0.511,0.3,0.803,0.876,0.803,1.46c0,0.877-0.584,1.607-1.469,1.713L92.282,42.439z M89.238,39.217h0.244
			c0.779,0,1.623-0.146,1.623-1.12c0-0.958-0.909-1.095-1.663-1.095h-0.203V39.217z"/>
		<path class="st0" d="M97.111,40.905l-0.698,1.534h-0.82l2.922-6.379l2.922,6.379h-0.82l-0.698-1.534H97.111z M98.515,37.732
			l-1.087,2.476h2.174L98.515,37.732z"/>
		<polygon class="st0" points="106.07,41.741 107.929,41.741 107.929,42.439 105.307,42.439 105.307,36.32 106.07,36.32 		"/>
		<rect x="111.767" y="36.32" class="st0" width="0.763" height="6.119"/>
		<path class="st0" d="M117.903,40.905l-0.698,1.534h-0.82l2.922-6.379l2.922,6.379h-0.82l-0.698-1.534H117.903z M119.307,37.732
			l-1.088,2.476h2.175L119.307,37.732z"/>
	</g>
</g>
</svg>